<?xml version="1.0" encoding="utf-8"?>
<!-- Generator: Adobe Illustrator 19.2.1, SVG Export Plug-In . SVG Version: 6.00 Build 0)  -->
<!DOCTYPE svg PUBLIC "-//W3C//DTD SVG 1.1//EN" "http://www.w3.org/Graphics/SVG/1.1/DTD/svg11.dtd">
<svg version="1.1" xmlns="http://www.w3.org/2000/svg" xmlns:xlink="http://www.w3.org/1999/xlink" x="0px" y="0px"
	 viewBox="0 0 18 18" enable-background="new 0 0 18 18" xml:space="preserve">
<g id="Layer_1">
	<path d="M9,2c2.2,0,4,1.8,4,4c0,0.5-0.1,1-0.3,1.5L9,14L5.3,7.5C5.1,7,5,6.5,5,6C5,3.8,6.8,2,9,2 M9,0C5.7,0,3,2.7,3,6
		c0,0.8,0.2,1.6,0.5,2.3L9,18l5.5-9.7C14.8,7.6,15,6.8,15,6C15,2.7,12.3,0,9,0L9,0z"/>
</g>
<g id="Layer_2" display="none">
	<g display="inline">
		<g>
			<path fill="#ED1C24" d="M9,2c2.2,0,4,1.8,4,4c0,0.5-0.1,1-0.3,1.5L9,14L5.3,7.5C5.1,7,5,6.5,5,6C5,3.8,6.8,2,9,2 M9,0
				C5.7,0,3,2.7,3,6c0,0.8,0.2,1.6,0.5,2.3L9,18l5.5-9.7C14.8,7.6,15,6.8,15,6C15,2.7,12.3,0,9,0L9,0z"/>
		</g>
	</g>
</g>
</svg>
