<?xml version="1.0" encoding="utf-8"?>
<svg version="1.1" id="Layer_1" xmlns="http://www.w3.org/2000/svg" xmlns:xlink="http://www.w3.org/1999/xlink" x="0px" y="0px"
	 viewBox="-243 404.9 32 32" style="enable-background:new -243 404.9 32 32;" xml:space="preserve">
<style type="text/css">
	.st0{fill:url(#SVGID_1_);}
	.st1{fill:#FFFFFF;}
</style>
<linearGradient id="SVGID_1_" gradientUnits="userSpaceOnUse" x1="2408.1875" y1="-2608.4646" x2="2376.1875" y2="-2608.4646" gradientTransform="matrix(4.489700e-011 1 1 -4.489700e-011 2381.4646 -1971.2975)">
	<stop  offset="0" style="stop-color:#CC7A00"/>
	<stop  offset="0.5" style="stop-color:#FF9900"/>
	<stop  offset="1" style="stop-color:#FFAD33"/>
</linearGradient>
<path class="st0" d="M-237,436.9c-3.3,0-6-2.7-6-6v-20c0-3.3,2.7-6,6-6h20c3.3,0,6,2.7,6,6v20c0,3.3-2.7,6-6,6H-237z"/>
<g>
	<rect x="-232" y="424.9" class="st1" width="1" height="6"/>
	<rect x="-235" y="424.9" class="st1" width="1" height="6"/>
	<rect x="-229" y="424.9" class="st1" width="1" height="6"/>
	<rect x="-226" y="424.9" class="st1" width="1" height="6"/>
	<rect x="-223" y="424.9" class="st1" width="1" height="6"/>
	<rect x="-220" y="424.9" class="st1" width="1" height="6"/>
	<polygon class="st1" points="-226,420.9 -226,404.9 -228,404.9 -228,420.9 -235,420.9 -235,422.9 -219,422.9 -219,420.9 	"/>
</g>
</svg>
