<svg xmlns="http://www.w3.org/2000/svg"><symbol id="aani-18" viewBox="0 0 18 18" fill="currentColor"><path d="M8 4.8v8.3L5.8 11H2V7h3.8L8 4.8M10 0L5 5H0v8h5l5 5V0zm8 8h-6v2h6V8zm-.2-6.4L16.4.2l-4.2 4.2 1.4 1.4 4.2-4.2zm0 14.8l-4.2-4.2-1.4 1.4 4.2 4.2 1.4-1.4z"/></symbol><symbol id="aani-miinus-18" viewBox="0 0 18 18" fill="currentColor"><path d="M8 4.8v8.3L5.8 11H2V7h3.8L8 4.8M10 0L5 5H0v8h5l5 5V0zm8 8h-6v2h6V8z"/></symbol><symbol id="aani-plus-18" viewBox="0 0 18 18" fill="currentColor"><path d="M0 5v8h5l5 5V0L5 5H0zm8-.2v8.3L5.8 11H2V7h3.8L8 4.8zM18 10h-2v2h-2v-2h-2V8h2V6h2v2h2v2z"/></symbol><symbol id="aani-pois-18" viewBox="0 0 18 18" fill="currentColor"><path d="M0 5v8h5l5 5V0L5 5H0zm8-.2v8.3L5.8 11H2V7h3.8L8 4.8zM16.4 9l1.4 1.4-1.4 1.4-1.4-1.4-1.4 1.4-1.4-1.4L13.6 9l-1.4-1.4 1.4-1.4L15 7.6l1.4-1.4 1.4 1.4L16.4 9z"/></symbol><symbol id="aita-18" viewBox="0 0 18 18" fill="currentColor"><path d="M18 6V4h-2V1l-1-1-1 1v3h-4V1L9 0 8 1v3H4V1L3 0 2 1v3H0v2h2v8H0v2h2v2h2v-2h4v2h2v-2h4v2h2v-2h2v-2h-2V6h2zM4 14V6h4v8H4zm10 0h-4V6h4v8z"/></symbol><symbol id="akselinlaskija-18" viewBox="0 0 18 18" fill="currentColor"><path d="M18 8h-1.1c-.5-2-2.2-3.5-4.4-3.5-1.4 0-2.7.7-3.5 1.7-.8-1-2.1-1.7-3.5-1.7C3.4 4.5 1.6 6 1.1 8H0v2h1.1c.5 2 2.2 3.5 4.4 3.5 1.4 0 2.7-.7 3.5-1.7.8 1 2.1 1.7 3.5 1.7 2.1 0 3.9-1.5 4.4-3.5H18V8zM5.5 11.5C4.1 11.5 3 10.4 3 9s1.1-2.5 2.5-2.5S8 7.6 8 9s-1.1 2.5-2.5 2.5zm7 0c-1.4 0-2.5-1.1-2.5-2.5s1.1-2.5 2.5-2.5S15 7.6 15 9s-1.1 2.5-2.5 2.5z"/></symbol><symbol id="alipainetyhjennys-18" viewBox="0 0 18 18" fill="currentColor"><path d="M18 18h-6V8h-2V6h2V3c0-1.7 1.3-3 3-3s3 1.3 3 3v15zm-4-2h2V3c0-.6-.4-1-1-1s-1 .4-1 1v13zM8.4 7L1.7.3.3 1.7 5.6 7 .3 12.3l1.4 1.4L8.4 7z"/></symbol><symbol id="askelpalautin-18" viewBox="0 0 18 18" fill="currentColor"><path d="M6.4 0L.8 9l5.6 9H18V0H6.4zM16 16H7.6L3.2 9l4.4-7H16v14zM7.9 5.5L10 7.6l2.1-2.1 1.4 1.4L11.4 9l2.1 2.1-1.4 1.4-2.1-2.1-2.1 2.1-1.4-1.4L8.6 9 6.5 6.9l1.4-1.4z"/></symbol><symbol id="astinlauta-18" viewBox="0 0 18 18" fill="currentColor"><path d="M0 12h6v2H0v-2zm4-4h4v10h2V8h4V6H4v2zm8-6h6V0h-6v2z"/></symbol><symbol id="auraus-18" viewBox="0 0 18 18" fill="currentColor"><path d="M6 2H4V0h2v2zM2 14h2v-2H2v2zm0 4h2v-2H2v2zM14 0h-2v2h2V0zm0 14h2v-2h-2v2zm0 4h2v-2h-2v2zM.3 9.3l1.4 1.4L9 3.4l7.3 7.3 1.4-1.4L9 .6.3 9.3z"/></symbol><symbol id="baliisit-18" viewBox="0 0 18 18" fill="currentColor"><path d="M0 3.8L9 9l-9 5.2V3.8zm9 0v10.4L18 9 9 3.8z"/></symbol><symbol id="bussi-18" viewBox="0 0 18 18" fill="currentColor"><path d="M7 10c0 .5-.4 1-1 1s-1-.4-1-1 .4-1 1-1 1 .5 1 1zm5-1c-.6 0-1 .4-1 1s.4 1 1 1 1-.4 1-1-.4-1-1-1zm4-6v8c0 1.3-.8 2.4-2 2.8V18h-2v-4H6v4H4v-4.2c-1.2-.4-2-1.5-2-2.8V3c0-1.7 1.3-3 3-3h8c1.7 0 3 1.3 3 3zM4 3v3h10V3c0-.6-.4-1-1-1H5c-.6 0-1 .4-1 1zm10 8V8H4v3c0 .6.4 1 1 1h8c.6 0 1-.4 1-1z"/></symbol><symbol id="dokumentti-18" viewBox="0 0 18 18" fill="currentColor"><path d="M17 18H1V0h16v18zM3 16h12V2H3v14zM13 4H5v2h8V4zm0 4H5v2h8V8zm0 4H5v2h8v-2z"/></symbol><symbol id="dokumentti-plus-18" viewBox="0 0 18 18" fill="currentColor"><path d="M14 14h2v4H0V0h16v4h-2V2H2v14h12v-2zM12 4H4v2h8V4zM4 8v2h6V8H4zm14 0h-2V6h-2v2h-2v2h2v2h2v-2h2V8zM4 14h8v-2H4v2z"/></symbol><symbol id="epatasa-18" viewBox="0 0 18 18" fill="currentColor"><path d="M12 9.1l-3-3-3 3-3-3-3 3v2.8l3-3 3 3 3-3 3 3 3-3 3 3V9.1l-3-3z"/></symbol><symbol id="epatasa-kielto-18" viewBox="0 0 18 18" fill="currentColor"><path d="M3 8.9l-3 3V9.1l3-3L5.9 9l-1.4 1.4L3 8.9zm7.6 1.6l1.4 1.4 3-3 3 3V9.1l-3-3-4.4 4.4zM16.3.3l-16 16 1.4 1.4 16-16L16.3.3z"/></symbol><symbol id="epatasaiset-reunat-18" viewBox="0 0 18 18" fill="currentColor"><path d="M8 14h2v4H8v-4zm0-3h2V7H8v4zm0-7h2V0H8v4zM3.2.3L1.8 1.7 3.1 3l-3 3 3 3-3 3 3 3-1.3 1.3 1.4 1.4L5.9 15l-3-3 3-3-3-3 3-3L3.2.3zm12 0l-1.4 1.4L15.1 3l-3 3 3 3-3 3 3 3-1.3 1.3 1.4 1.4 2.7-2.7-3-3 3-3-3-3 3-3L15.2.3z"/></symbol><symbol id="erotusjakso-18" viewBox="0 0 18 18" fill="currentColor"><path d="M14.7 4.7l-10 10-1.4-1.4 10-10 1.4 1.4zm-6 0L7.3 3.3 2.6 8H0v2h3.4l5.3-5.3zm.6 8.6l1.4 1.4 4.7-4.7H18V8h-3.4l-5.3 5.3z"/></symbol><symbol id="erotuskentta-18" viewBox="0 0 18 18" fill="currentColor"><path d="M10.7 4.7L5.4 10H0V8h4.6l4.7-4.7 1.4 1.4zm-3.4 8.6l1.4 1.4 4.7-4.7H18V8h-5.4l-5.3 5.3z"/></symbol><symbol id="etaisyys-18" viewBox="0 0 18 18" fill="currentColor"><path d="M16 4v4H2V4H0v10h2v-4h14v4h2V4z"/></symbol><symbol id="gps-1-18" viewBox="0 0 18 18" fill="currentColor"><path d="M0 2V0h2c0 1.1-.9 2-2 2z"/></symbol><symbol id="gps-2-18" viewBox="0 0 18 18" fill="currentColor"><path d="M0 2V0h2c0 1.1-.9 2-2 2zm6-2H4c0 2.2-1.8 4-4 4v2c3.3 0 6-2.7 6-6z"/></symbol><symbol id="gps-3-18" viewBox="0 0 18 18" fill="currentColor"><path d="M0 2V0h2c0 1.1-.9 2-2 2zm6-2H4c0 2.2-1.8 4-4 4v2c3.3 0 6-2.7 6-6zm4 0H8c0 4.4-3.6 8-8 8v2c5.5 0 10-4.5 10-10z"/></symbol><symbol id="gps-4-18" viewBox="0 0 18 18" fill="currentColor"><path d="M0 2V0h2c0 1.1-.9 2-2 2zm6-2H4c0 2.2-1.8 4-4 4v2c3.3 0 6-2.7 6-6zm4 0H8c0 4.4-3.6 8-8 8v2c5.5 0 10-4.5 10-10zm4 0h-2c0 6.6-5.4 12-12 12v2c7.7 0 14-6.3 14-14z"/></symbol><symbol id="gps-5-18" viewBox="0 0 18 18" fill="currentColor"><path d="M0 2V0h2c0 1.1-.9 2-2 2zm6-2H4c0 2.2-1.8 4-4 4v2c3.3 0 6-2.7 6-6zm4 0H8c0 4.4-3.6 8-8 8v2c5.5 0 10-4.5 10-10zm4 0h-2c0 6.6-5.4 12-12 12v2c7.7 0 14-6.3 14-14zm4 0h-2c0 8.8-7.2 16-16 16v2c9.9 0 18-8.1 18-18z"/></symbol><symbol id="halkeama-18" viewBox="0 0 18 18" fill="currentColor"><path d="M11.7 1.7L10.3.3 1.6 9l4 4-3.3 3.3 1.4 1.4L8.4 13l-4-4L7 6.4l6.6 6.6-3.3 3.3 1.4 1.4 4.7-4.7-8-8z"/></symbol><symbol id="halytysvalo-18" viewBox="0 0 18 18" fill="currentColor"><path d="M10 2H8V0h2v2zM4.8 3.3L3.3 1.9 1.9 3.3l1.4 1.4 1.5-1.4zM18 8h-2v2h2V8zM2 8H0v2h2V8zm14.1-4.7l-1.4-1.4-1.4 1.4 1.4 1.4 1.4-1.4zM16 16v2H2v-2h2V9c0-2.8 2.2-5 5-5s5 2.2 5 5v7h2zm-4-7c0-1.7-1.3-3-3-3S6 7.3 6 9v7h6V9z"/></symbol><symbol id="harja-18" viewBox="0 0 18 18" fill="currentColor"><path d="M10 10V0H8v10H0v8h2v-6h2v6h2v-6h2v6h2v-6h2v6h2v-6h2v6h2v-8z"/></symbol><symbol id="harva-pinta-18" viewBox="0 0 18 18" fill="currentColor"><path d="M14 9c0 .6-.4 1-1 1s-1-.4-1-1V8h-2v1c0 .6-.4 1-1 1s-1-.4-1-1V8H6v1c0 .6-.4 1-1 1s-1-.4-1-1V8H0v2h2.2c.4 1.2 1.5 2 2.8 2 .8 0 1.5-.3 2-.8.5.5 1.2.8 2 .8s1.5-.3 2-.8c.5.5 1.2.8 2 .8 1.3 0 2.4-.8 2.8-2H18V8h-4v1z"/></symbol><symbol id="heina-leikkaus-18" viewBox="0 0 18 18" fill="currentColor"><path d="M0 8h4v2H0V8zm7 2h4V8H7v2zm7 0h4V8h-4v2zM2 18h2v-6H2v6zm6 0h2v-6H8v6zm6 0h2v-6h-2v6zM8.7 1.7L7.3.3l-5 5 1.4 1.4 5-5zm1 5l5-5L13.3.3l-5 5 1.4 1.4zm6 0l2-2-1.4-1.4-2 2 1.4 1.4z"/></symbol><symbol id="heina-silma-18" viewBox="0 0 18 18" fill="currentColor"><path d="M2 12h2v6H2v-6zm6 6h2v-6H8v6zm6 0h2v-6h-2v6zM9 4c-1.1 0-2 .9-2 2s.9 2 2 2 2-.9 2-2-.9-2-2-2zm0-4C7.5 0 5.9.6 4.8 1.8L.5 6l4 4H9c-1.1 0-2.1-.4-2.8-1.2L3.3 6l2.8-2.8C6.9 2.4 7.9 2 9 2s2.1.4 2.8 1.2L14.7 6l-2.8 2.8c-.8.8-1.8 1.2-2.9 1.2h4.5l4-4-4.2-4.2C12.1.6 10.5 0 9 0z"/></symbol><symbol id="henkilo-18" viewBox="0 0 18 18" fill="currentColor"><path d="M12.5 9.7c1.2-1 2-2.5 2-4.2C14.5 2.5 12 0 9 0S3.5 2.5 3.5 5.5c0 1.7.8 3.2 2 4.2C2.3 11.1 0 14.3 0 18h18c0-3.7-2.3-6.9-5.5-8.3zm-7-4.2C5.5 3.6 7.1 2 9 2s3.5 1.6 3.5 3.5S10.9 9 9 9 5.5 7.4 5.5 5.5zM9 11c3.2 0 5.8 2.1 6.7 5H2.3c.9-2.9 3.5-5 6.7-5z"/></symbol><symbol id="hiekanantolaite-18" viewBox="0 0 18 18" fill="currentColor"><path d="M9 9l9-9H0l9 9zm0-2.8L4.8 2h8.3L9 6.2zm1 4.8c0 .6-.4 1-1 1s-1-.4-1-1 .4-1 1-1 1 .4 1 1zm0 4c0 .6-.4 1-1 1s-1-.4-1-1 .4-1 1-1 1 .4 1 1zm-4 0c0 .6-.4 1-1 1s-1-.4-1-1 .4-1 1-1 1 .4 1 1zm8 0c0 .6-.4 1-1 1s-1-.4-1-1 .4-1 1-1 1 .4 1 1zm-8-2c0-.6.4-1 1-1s1 .4 1 1-.4 1-1 1-1-.4-1-1zm4 0c0-.6.4-1 1-1s1 .4 1 1-.4 1-1 1-1-.4-1-1zm-2 4c0 .6-.4 1-1 1s-1-.4-1-1 .4-1 1-1 1 .4 1 1zm-4 0c0 .6-.4 1-1 1s-1-.4-1-1 .4-1 1-1 1 .4 1 1zm8 0c0 .6-.4 1-1 1s-1-.4-1-1 .4-1 1-1 1 .4 1 1zm4 0c0 .6-.4 1-1 1s-1-.4-1-1 .4-1 1-1 1 .4 1 1z"/></symbol><symbol id="huomiokartio-18" viewBox="0 0 18 18" fill="currentColor"><path d="M15.7 16L9 .5 2.3 16H0v2h18v-2h-2.3zm-3.9-4H6.2l.9-2h3.8l.9 2zm-1.7-4H7.9L9 5.5 10.1 8zm-4.7 6h7.3l.9 2h-9l.8-2z"/></symbol><symbol id="huutomerkki-18" viewBox="0 0 18 18" fill="currentColor"><path d="M9 14.5c.8 0 1.5.7 1.5 1.5s-.7 1.5-1.5 1.5-1.5-.7-1.5-1.5.7-1.5 1.5-1.5zM10 0H8v13h2V0z"/></symbol><symbol id="ilmoitustaulu-18" viewBox="0 0 18 18" fill="currentColor"><path d="M0 16h4v2h2v-2h6v2h2v-2h4V0H0v16zM2 2h14v12H2V2zm8.5 3c0 .8-.7 1.5-1.5 1.5S7.5 5.8 7.5 5 8.2 3.5 9 3.5s1.5.7 1.5 1.5zM8 8h2v4H8V8z"/></symbol><symbol id="info-18" viewBox="0 0 18 18" fill="currentColor"><path d="M9 .5c.8 0 1.5.7 1.5 1.5S9.8 3.5 9 3.5 7.5 2.8 7.5 2 8.2.5 9 .5zM10 5H8v13h2V5z"/></symbol><symbol id="jakoavain-18" viewBox="0 0 18 18" fill="currentColor"><path d="M17.7 16.3L9.2 7.8C9.7 7 10 6 10 5c0-2.8-2.2-5-5-5v2c1.7 0 3 1.3 3 3S6.7 8 5 8 2 6.7 2 5H0c0 2.8 2.2 5 5 5 1 0 2-.3 2.8-.8l8.5 8.5 1.4-1.4z"/></symbol><symbol id="jarrujen-koettelujarjestelma-18" viewBox="0 0 18 18" fill="currentColor"><path d="M17.2 6.8c1.1 2.7 1.1 5.7 0 8.4l-1.8-.8c.9-2.2.9-4.7 0-6.9l1.8-.7zm-4.6 0C13.5 8 14 9.4 14 11c0 3.9-3.1 7-7 7s-7-3.1-7-7 3.1-7 7-7c1.6 0 3 .5 4.2 1.4L16.3.3l1.4 1.4-5.1 5.1zm-1.4 1.4L7 12.4 4.1 9.5l1.4-1.4L7 9.6l2.8-2.8C9 6.3 8 6 7 6c-2.8 0-5 2.2-5 5s2.2 5 5 5 5-2.2 5-5c0-1-.3-2-.8-2.8z"/></symbol><symbol id="juna-18" viewBox="0 0 18 18" fill="currentColor"><path d="M4 16h10v2H4z"/><ellipse cx="6" cy="10" rx="1" ry="1"/><ellipse cx="12" cy="10" rx="1" ry="1"/><path d="M13 0H5C3.3 0 2 1.3 2 3v8c0 1.7 1.3 3 3 3h8c1.7 0 3-1.3 3-3V3c0-1.7-1.3-3-3-3zM5 2h8c.6 0 1 .4 1 1v3H4V3c0-.6.4-1 1-1zm8 10H5c-.6 0-1-.4-1-1V8h10v3c0 .6-.4 1-1 1z"/></symbol><symbol id="jyran-jalki-18" viewBox="0 0 18 18" fill="currentColor"><path d="M8 14h10v2h-8v2H0v-2h8v-2zm6.9-9H18v2h-3.1c-.5 2.8-2.9 5-5.9 5S3.6 9.8 3.1 7H0V5h3.1C3.6 2.2 6 0 9 0s5.4 2.2 5.9 5zm-2 2H10V5h2.9c-.4-1.7-2-3-3.9-3S5.6 3.3 5.1 5H8v2H5.1c.4 1.7 2 3 3.9 3s3.4-1.3 3.9-3z"/></symbol><symbol id="kaantopoyta-18" viewBox="0 0 18 18" fill="currentColor"><path d="M9 14c2.8 0 5-2.2 5-5 0-1-.3-2-.8-2.8l4.5-4.5L16.3.3l-4.5 4.5C11 4.3 10 4 9 4 6.2 4 4 6.2 4 9s2.2 5 5 5zm3-5c0 1.7-1.3 3-3 3-.5 0-.9-.1-1.3-.3l4-4c.2.4.3.8.3 1.3zM9 6c.5 0 .9.1 1.3.3l-4 4C6.1 9.9 6 9.5 6 9c0-1.7 1.3-3 3-3zm9 3c0 5-4 9-9 9s-9-4-9-9h2c0 3.9 3.1 7 7 7s7-3.1 7-7h2z"/></symbol><symbol id="kahdeksankulmio-18" viewBox="0 0 18 18" fill="currentColor"><path d="M12 2l4 4v6l-4 4H6l-4-4V6l4-4h6m.8-2H5.2L0 5.2v7.6L5.2 18h7.6l5.2-5.2V5.2L12.8 0z"/></symbol><symbol id="kaidevaurio-18" viewBox="0 0 18 18" fill="currentColor"><path d="M16 6c-1.1 0-2-.9-2-2 0 1.1-.9 2-2 2s-2-.9-2-2H0v6h2v4h2v-4h10v4h2v-4h2V4c0 1.1-.9 2-2 2zm-4 2H2V6h6.5c.7 1.2 2 2 3.5 2 .7 0 1.4-.2 2-.5.6.3 1.3.5 2 .5h-4z"/></symbol><symbol id="kaivon-korkeus-18" viewBox="0 0 18 18" fill="currentColor"><path d="M14 7c0-1.7-2.1-3-5-3S4 5.3 4 7v5H0v2h18v-2h-4V7zM9 6c1.9 0 3 .8 3 1s-1.1 1-3 1-3-.8-3-1 1.1-1 3-1zM6 9.4c.8.4 1.9.6 3 .6s2.2-.2 3-.6V12H6V9.4z"/></symbol><symbol id="kalenteri-18" viewBox="0 0 18 18" fill="currentColor"><path d="M14 4V0h-2v4H6V0H4v4H0v14h18V4h-4zm2 2v2h-2V6h2zM6 10h2v2H6v-2zm-2 2H2v-2h2v2zm4 2v2H6v-2h2zm2 0h2v2h-2v-2zm0-2v-2h2v2h-2zm4-2h2v2h-2v-2zm-2-2h-2V6h2v2zM8 6v2H6V6h2zM4 6v2H2V6h2zm-2 8h2v2H2v-2zm12 2v-2h2v2h-2z"/></symbol><symbol id="kamera-18" viewBox="0 0 18 18" fill="currentColor"><path d="M9 4C6.2 4 4 6.2 4 9s2.2 5 5 5 5-2.2 5-5-2.2-5-5-5zm0 8c-1.7 0-3-1.3-3-3s1.3-3 3-3 3 1.3 3 3-1.3 3-3 3zm3.4-12H5.6l-2 2H0v16h18V2h-3.6l-2-2zM16 16H2V4h2.4l2-2h5.2l2 2H16v12z"/></symbol><symbol id="kansio-18" viewBox="0 0 18 18" fill="currentColor"><path d="M18 18H0V0h6.4l2 2H18v16zM2 16h14V4H7.6l-2-2H2v14z"/></symbol><symbol id="karkikolmio-huutomerkki-18" viewBox="0 0 18 18" fill="currentColor"><path d="M9 7.5c.8 0 1.5.7 1.5 1.5s-.7 1.5-1.5 1.5S7.5 9.8 7.5 9 8.2 7.5 9 7.5zM10 3H8v4h2V3zm4.8-1H3.2L9 13.5 14.8 2M18 0L9 18 0 0h18z"/></symbol><symbol id="kartta-18" viewBox="0 0 18 18" fill="currentColor"><path d="M12 0L6 3 0 0v15l6 3 6-3 6 3V3l-6-3zM7 4.7l4-2v10.5l-4 2V4.7zM2 3.2l3 1.5v10.5l-3-1.5V3.2zm14 11.6l-3-1.5V2.7l3 1.5v10.6z"/></symbol><symbol id="katos-18" viewBox="0 0 18 18" fill="currentColor"><path d="M2 18V5.3l7-3.1 7 3.1V18h2V4L9 0 0 4v14z"/></symbol><symbol id="kelirikko-18" viewBox="0 0 18 18" fill="currentColor"><path d="M14 1c0 .6-.4 1-1 1s-1-.4-1-1V0H6.6L5 1.6 3.4 0H0v2h2.6L5 4.4l1.5-1.5L7.6 4l-3 3 4 4-4.3 4.3 1.4 1.4L8 14.4l3.3 3.3 1.4-1.4L9.4 13l2-2-4-4 3-3-2-2h1.8c.4 1.2 1.5 2 2.8 2s2.4-.8 2.8-2H18V0h-4v1z"/></symbol><symbol id="kello-18" viewBox="0 0 18 18" fill="currentColor"><path d="M13 10H8V3h2v5h3v2zm5-1c0-5-4-9-9-9S0 4 0 9s4 9 9 9 9-4 9-9zm-2 0c0 3.9-3.1 7-7 7s-7-3.1-7-7 3.1-7 7-7 7 3.1 7 7z"/></symbol><symbol id="kielto-18" viewBox="0 0 18 18" fill="currentColor"><path d="M9 0C4 0 0 4 0 9s4 9 9 9 9-4 9-9-4-9-9-9zm0 2c1.6 0 3 .5 4.2 1.4l-9.8 9.8C2.5 12 2 10.6 2 9c0-3.9 3.1-7 7-7zm0 14c-1.6 0-3-.5-4.2-1.4l9.8-9.8C15.5 6 16 7.4 16 9c0 3.9-3.1 7-7 7z"/></symbol><symbol id="kierra-oikea-18" viewBox="0 0 18 18" fill="currentColor"><path d="M12 7h6V1h-2v2.3C14.3 1.3 11.8 0 9 0 4 0 0 4 0 9s4 9 9 9 9-4 9-9h-2c0 3.9-3.1 7-7 7s-7-3.1-7-7 3.1-7 7-7c2.3 0 4.4 1.1 5.7 3H12v2z"/></symbol><symbol id="kierra-vasen-18" viewBox="0 0 18 18" fill="currentColor"><path d="M9 0C6.2 0 3.7 1.3 2 3.3V1H0v6h6V5H3.3C4.6 3.1 6.7 2 9 2c3.9 0 7 3.1 7 7s-3.1 7-7 7-7-3.1-7-7H0c0 5 4 9 9 9s9-4 9-9-4-9-9-9z"/></symbol><symbol id="kiinteistoraja-18" viewBox="0 0 18 18" fill="currentColor"><path d="M9 6.8l3 3V12H6V9.8l3-3M9 4L4 9v5h10V9L9 4zm9 11h-2v1h-1v2h3v-3zm-7 1H7v2h4v-2zm-8 0H2v-1H0v3h3v-2zM2 7H0v4h2V7zm0-5h1V0H0v3h2V2zm9-2H7v2h4V0zm7 0h-3v2h1v1h2V0zm0 7h-2v4h2V7z"/></symbol><symbol id="kirjaudu-sisaan-18" viewBox="0 0 18 18" fill="currentColor"><path d="M18 0v18H6v-6h2v4h8V2H8v4H6V0h12zM8.5 11.1l1.4 1.4L13.4 9 9.9 5.5 8.5 6.9 9.6 8H0v2h9.6l-1.1 1.1z"/></symbol><symbol id="kirjaudu-ulos-18" viewBox="0 0 18 18" fill="currentColor"><path d="M10 12h2v6H0V0h12v6h-2V2H2v14h8v-4zm3.9-6.5l-1.4 1.4L13.6 8H4v2h9.6l-1.1 1.1 1.4 1.4L17.4 9l-3.5-3.5z"/></symbol><symbol id="kirjekuori-18" viewBox="0 0 18 18" fill="currentColor"><path d="M0 1v16h18V1H0zm9 8.6L2.4 3h13.2L9 9.6zM5.6 9L2 12.6V5.4L5.6 9zM7 10.4l2 2 2-2 4.6 4.6H2.4L7 10.4zM12.4 9L16 5.4v7.2L12.4 9z"/></symbol><symbol id="kiskotus-irroita-18" viewBox="0 0 18 18" fill="currentColor"><path d="M4.3 9.7L5.6 11l-1.3 1.3c-.4-.2-.8-.3-1.3-.3-1.7 0-3 1.3-3 3s1.3 3 3 3 3-1.3 3-3c0-.5-.1-.9-.3-1.3L7 12.4l1.3 1.3 1.4-1.4-4-4-1.4 1.4zM3 16c-.6 0-1-.4-1-1s.4-1 1-1 1 .4 1 1-.4 1-1 1zm10.7-7.7L12.4 7l1.3-1.3c.4.2.8.3 1.3.3 1.7 0 3-1.3 3-3s-1.3-3-3-3-3 1.3-3 3c0 .5.1.9.3 1.3L11 5.6 9.7 4.3 8.3 5.7l4 4 1.4-1.4zM15 2c.6 0 1 .4 1 1s-.4 1-1 1-1-.4-1-1 .4-1 1-1zm-3 12h6v2h-6v-2z"/></symbol><symbol id="kiskotus-liita-18" viewBox="0 0 18 18" fill="currentColor"><path d="M4.3 9.7L5.6 11l-1.3 1.3c-.4-.2-.8-.3-1.3-.3-1.7 0-3 1.3-3 3s1.3 3 3 3 3-1.3 3-3c0-.5-.1-.9-.3-1.3L7 12.4l1.3 1.3 1.4-1.4-4-4-1.4 1.4zM3 16c-.6 0-1-.4-1-1s.4-1 1-1 1 .4 1 1-.4 1-1 1zm10.7-7.7L12.4 7l1.3-1.3c.4.2.8.3 1.3.3 1.7 0 3-1.3 3-3s-1.3-3-3-3-3 1.3-3 3c0 .5.1.9.3 1.3L11 5.6 9.7 4.3 8.3 5.7l4 4 1.4-1.4zM15 2c.6 0 1 .4 1 1s-.4 1-1 1-1-.4-1-1 .4-1 1-1zm1 12h2v2h-2v2h-2v-2h-2v-2h2v-2h2v2z"/></symbol><symbol id="kiveysvaurio-18" viewBox="0 0 18 18" fill="currentColor"><path d="M16 8c-1.1 0-2-.9-2-2 0 1.1-.9 2-2 2s-2-.9-2-2H6c-1.1 0-2 .9-2 2 0-1.1-.9-2-2-2H0v2h2v2H0v2h2c1.1 0 2-.9 2-2 0 1.1.9 2 2 2h10c1.1 0 2-.9 2-2V8c0-.4-.1-.7-.3-1-.3.6-1 1-1.7 1zm-4 2H6V8h2.5c.7 1.2 2 2 3.5 2 .7 0 1.4-.2 2-.5.6.3 1.3.5 2 .5h-4z"/></symbol><symbol id="klemmari-18" viewBox="0 0 18 18" fill="currentColor"><path d="M12.9 17.9c-1.3 0-2.6-.5-3.5-1.5l1.4-1.4c1.1 1.1 3.1 1.1 4.2 0 .6-.6.9-1.3.9-2.1s-.3-1.6-.9-2.1L7.2 3C6.1 1.9 4.1 1.9 3 3c-.6.6-.9 1.3-.9 2.1s.3 1.6.9 2.1l4.2 4.2c.4.4 1 .4 1.4 0 .4-.4.4-1 0-1.4L5.2 6.6l1.4-1.4L10 8.6c1.2 1.2 1.2 3.1 0 4.2-1.2 1.2-3.1 1.2-4.2 0L1.6 8.6C.6 7.7.1 6.4.1 5.1c0-1.3.5-2.6 1.5-3.5C2.5.7 3.8.1 5.1.1c1.3 0 2.6.5 3.5 1.5l7.8 7.8c.9.9 1.5 2.2 1.5 3.5 0 1.3-.5 2.6-1.5 3.5-.9 1-2.2 1.5-3.5 1.5z"/></symbol><symbol id="km-merkki-18" viewBox="0 0 18 18" fill="currentColor"><path d="M9 0C4 0 0 4 0 9s4 9 9 9 9-4 9-9-4-9-9-9zm0 16V9H2c0-3.9 3.1-7 7-7v7h7c0 3.9-3.1 7-7 7z"/></symbol><symbol id="km-merkki-lisaa-18" viewBox="0 0 18 18" fill="currentColor"><path d="M9 9V2C5.1 2 2 5.1 2 9h7v9c-5 0-9-4-9-9s4-9 9-9 9 4 9 9H9zm7 3h-2v2h-2v2h2v2h2v-2h2v-2h-2v-2z"/></symbol><symbol id="km-merkki-sijainti-18" viewBox="0 0 18 18" fill="currentColor"><path d="M9 0C4 0 0 4 0 9s4 9 9 9h9V9c0-5-4-9-9-9zm7 16H9V9H2c0-3.9 3.1-7 7-7v7h7v7z"/></symbol><symbol id="kohouma-18" viewBox="0 0 18 18" fill="currentColor"><path d="M14.2 2.4c1 1 2.4 1.6 3.8 1.6v2c-2 0-3.8-.8-5.2-2.2-2.1-2.1-5.5-2.1-7.6 0C3.8 5.2 2 6 0 6V4c1.4 0 2.8-.6 3.8-1.6 2.9-2.8 7.5-2.8 10.4 0zM4.3 13.3l1.4 1.4L8 12.4V18h2v-5.6l2.3 2.3 1.4-1.4L9 8.6l-4.7 4.7z"/></symbol><symbol id="kohouma-vaara-18" viewBox="0 0 18 18" fill="currentColor"><path d="M9 0L4.4 8h9.2L9 0zm0 4l1.2 2H7.8L9 4zm9 12v2c-2 0-3.8-.8-5.2-2.2-2.1-2.1-5.5-2.1-7.6 0C3.8 17.2 2 18 0 18v-2c1.4 0 2.8-.6 3.8-1.6 2.9-2.9 7.5-2.9 10.4 0 1 1 2.4 1.6 3.8 1.6z"/></symbol><symbol id="kolmio-huutomerkki-18" viewBox="0 0 18 18" fill="currentColor"><path d="M9 12.5c.8 0 1.5.7 1.5 1.5s-.7 1.5-1.5 1.5-1.5-.7-1.5-1.5.7-1.5 1.5-1.5zM10 8H8v4h2V8zM9 4.5L3.2 16h11.5L9 4.5M9 0l9 18H0L9 0z"/></symbol><symbol id="kolmio-miinus-18" viewBox="0 0 18 18" fill="currentColor"><path d="M12 13H6v-2h6v2zM9 4.5L3.2 16h11.5L9 4.5M9 0l9 18H0L9 0z"/></symbol><symbol id="kolmio-plus-18" viewBox="0 0 18 18" fill="currentColor"><path d="M12 13h-2v2H8v-2H6v-2h2V9h2v2h2v2zm6 5H0L9 0l9 18zM3.2 16h11.5L9 4.5 3.2 16z"/></symbol><symbol id="kompassi-18" viewBox="0 0 18 18" fill="currentColor"><path d="M9 0C4 0 0 4 0 9s4 9 9 9 9-4 9-9-4-9-9-9zm0 16c-3.9 0-7-3.1-7-7s3.1-7 7-7 7 3.1 7 7-3.1 7-7 7zM7.2 7.2l5.4-1.8-1.8 5.4-5.4 1.8 1.8-5.4z"/></symbol><symbol id="kopio-18" viewBox="0 0 18 18" fill="currentColor"><path d="M16 18H6V4h10v14zm-8-2h6V6H8v10zM4 2h8V0H2v14h2V2z"/></symbol><symbol id="korkeuspiste-18" viewBox="0 0 18 18" fill="currentColor"><path d="M18 9c0-5-4-9-9-9S0 4 0 9c0 2.1.7 4.1 2 5.6L.3 16.3l1.4 1.4L3.4 16c1.5 1.2 3.5 2 5.6 2s4.1-.7 5.6-2l1.7 1.7 1.4-1.4-1.7-1.7c1.3-1.5 2-3.5 2-5.6zM2 9c0-3.9 3.1-7 7-7s7 3.1 7 7c0 1.6-.5 3-1.4 4.2L9 7.6l-5.6 5.6C2.5 12 2 10.6 2 9zm7 7c-1.6 0-3-.5-4.2-1.4L9 10.4l4.2 4.2C12 15.5 10.6 16 9 16z"/></symbol><symbol id="kukka-kuihtunut-18" viewBox="0 0 18 18" fill="currentColor"><path d="M18 4c0-2.2-1.8-4-4-4-3 0-5.5 2.2-5.9 5C3.5 5.5 0 9.3 0 14v4h2v-4-.7c.2 2.6 2.4 4.7 5 4.7h1v-1c0-2.8-2.2-5-5-5h-.7c.8-2.6 3-4.6 5.8-4.9.5 2.8 3 4.9 5.9 4.9 2.2 0 4-1.8 4-4 0-.7-.2-1.4-.5-2 .3-.6.5-1.3.5-2zM5.7 15.7c-.6-.3-1.1-.8-1.4-1.4.6.3 1.1.8 1.4 1.4zM16 8c0 1.1-.9 2-2 2-2.2 0-4-1.8-4-4s1.8-4 4-4c1.1 0 2 .9 2 2s-.9 2-2 2c1.1 0 2 .9 2 2z"/></symbol><symbol id="kuu-18" viewBox="0 0 18 18" fill="currentColor"><path d="M14.2 4.1c2.4 2.8 2.3 7.1-.4 9.8s-7 2.8-9.8.4c2.5-.2 5-1.4 6.9-3.3s3.1-4.4 3.3-6.9m1.1-1.9c-1-1-2.3-1.8-3.6-2.2 1.1 3.2.3 6.9-2.2 9.5S3.2 12.8 0 11.7c.4 1.3 1.2 2.5 2.2 3.6 3.6 3.6 9.5 3.6 13.1 0s3.6-9.5 0-13.1z"/></symbol><symbol id="kyna-18" viewBox="0 0 18 18" fill="currentColor"><path d="M16 6.4L11.6 2 13 .6 17.4 5 16 6.4zm-1.3 1.3l-1.4-1.4L3.6 16H2v-1.6l9.7-9.7-1.4-1.4L0 13.6V18h4.4L14.7 7.7z"/></symbol><symbol id="kysymysmerkki-18" viewBox="0 0 18 18" fill="currentColor"><path d="M10 13H8v-.7c0-1.3.5-2.6 1.5-3.5l1.7-1.7c.5-.5.8-1.3.8-2.1 0-1.7-1.3-3-3-3S6 3.3 6 5H4c0-2.8 2.2-5 5-5s5 2.2 5 5c0 1.3-.5 2.6-1.5 3.5l-1.7 1.7c-.6.6-.9 1.3-.9 2.1v.7zm-1 1.5c-.8 0-1.5.7-1.5 1.5s.7 1.5 1.5 1.5 1.5-.7 1.5-1.5-.7-1.5-1.5-1.5z"/></symbol><symbol id="kytkentaryhma-18" viewBox="0 0 18 18" fill="currentColor"><path d="M17.7 6.7l-1.4-1.4L13.6 8h-1.8c-.4-1.2-1.5-2-2.8-2s-2.4.8-2.8 2H3.6L.3 11.3l1.4 1.4L4.4 10h1.8c.4 1.2 1.5 2 2.8 2s2.4-.8 2.8-2h2.6l3.3-3.3zM9 10c-.6 0-1-.4-1-1s.4-1 1-1 1 .4 1 1-.4 1-1 1z"/></symbol><symbol id="lahenna-18" viewBox="0 0 18 18" fill="currentColor"><path d="M8 6h2v2H8v2H6V8H4V6h2V4h2v2zm8.3 11.7l-5.1-5.1C10 13.5 8.6 14 7 14c-3.9 0-7-3.1-7-7s3.1-7 7-7 7 3.1 7 7c0 1.6-.5 3-1.4 4.2l5.1 5.1-1.4 1.4zM7 12c2.8 0 5-2.2 5-5S9.8 2 7 2 2 4.2 2 7s2.2 5 5 5z"/></symbol><symbol id="laikka-18" viewBox="0 0 18 18" fill="currentColor"><path d="M15 12c-1.7 0-3 1.3-3 3s1.3 3 3 3 3-1.3 3-3-1.3-3-3-3zm0 4c-.6 0-1-.4-1-1s.4-1 1-1 1 .4 1 1-.4 1-1 1zm.6-7.4c.9-1.3.8-3.3-.2-5.5C15.4 3 14 0 9 0S0 4 0 9s3 6.4 3.1 6.5c1.2.5 2.3.8 3.3.8.9 0 1.6-.2 2.3-.6.8-.6 1.3-1.6 1.3-2.7 0-1.7 1.3-3 3-3 1.1 0 2.1-.5 2.6-1.4zM8 13c0 .6-.3.8-.5 1-.5.4-1.8.5-3.6-.3C3.9 13.6 2 12.6 2 9c0-3.9 3.1-7 7-7 3.6 0 4.6 1.9 4.6 1.9.8 1.8.7 3.1.4 3.6-.2.2-.4.5-1 .5-2.8 0-5 2.2-5 5z"/></symbol><symbol id="laipanvoitelu-18" viewBox="0 0 18 18" fill="currentColor"><path d="M15 7l-2.8 4.8c-.1.4-.2.8-.2 1.2 0 1.7 1.3 3 3 3s3-1.3 3-3c0-.4-.1-.8-.2-1.2L15 7zm0 7c-.6 0-1-.4-1-1v-.3l1-1.7 1 1.7v.3c0 .6-.4 1-1 1zM4 0H2v8H0v2h2v8h2v-1.5l4-3V5.6l-4-4V0zm2 6.4v6.1L4 14V4.4l2 2zM18 0v2c-1.1 0-2 .9-2 2h-2c0-2.2 1.8-4 4-4z"/></symbol><symbol id="lajittuma-18" viewBox="0 0 18 18" fill="currentColor"><path d="M9 8c2.2 0 4-1.8 4-4s-1.8-4-4-4-4 1.8-4 4 1.8 4 4 4zm0-6c1.1 0 2 .9 2 2s-.9 2-2 2-2-.9-2-2 .9-2 2-2zM5 14c1.7 0 3-1.3 3-3S6.7 8 5 8s-3 1.3-3 3 1.3 3 3 3zm0-4c.6 0 1 .4 1 1s-.4 1-1 1-1-.4-1-1 .4-1 1-1zm5 1c0 1.7 1.3 3 3 3s3-1.3 3-3-1.3-3-3-3-3 1.3-3 3zm4 0c0 .6-.4 1-1 1s-1-.4-1-1 .4-1 1-1 1 .4 1 1zm4 5c0 1.1-.9 2-2 2s-2-.9-2-2 .9-2 2-2 2 .9 2 2zm-7 0c0 1.1-.9 2-2 2s-2-.9-2-2 .9-2 2-2 2 .9 2 2zm-9 2c-1.1 0-2-.9-2-2s.9-2 2-2 2 .9 2 2-.9 2-2 2z"/></symbol><symbol id="lammityspistoke-18" viewBox="0 0 18 18" fill="currentColor"><path d="M4 16h4v2H2v-8h2v6zm12-3c0 1.7-1.3 3-3 3h-1v2h-2v-8h3c1.7 0 3 1.3 3 3zm-2 0c0-.6-.4-1-1-1h-1v2h1c.6 0 1-.4 1-1zm2-11h2v2h-2v2h2v2h-2v2c-2.4 0-4.4-1.7-4.9-4H0V4h11.1c.5-2.3 2.5-4 4.9-4v2zm-2 .8c-.6.5-1 1.3-1 2.2 0 .9.4 1.7 1 2.2V2.8z"/></symbol><symbol id="lammityspistoke-240v-18" viewBox="0 0 18 18" fill="currentColor"><path d="M18 4V2h-2V0c-2.4 0-4.4 1.7-4.9 4H0v2h11.1c.5 2.3 2.5 4 4.9 4V8h2V6h-2V4h2zm-4 3.2c-.6-.5-1-1.3-1-2.2 0-.9.4-1.7 1-2.2v4.4zM4.2 16H6v2H-.6l4.3-4.3c.2-.2.3-.4.3-.7 0-.6-.4-1-1-1s-1 .4-1 1H0c0-1.7 1.3-3 3-3s3 1.3 3 3c0 .8-.3 1.6-.9 2.1l-.9.9zM15 10c-1.7 0-3 1.3-3 3v-3h-2v4H8v-4H6v6h4v2h2v-3c0 1.7 1.3 3 3 3s3-1.3 3-3v-2c0-1.7-1.3-3-3-3zm1 5c0 .6-.4 1-1 1s-1-.4-1-1v-2c0-.6.4-1 1-1s1 .4 1 1v2z"/></symbol><symbol id="lammityspistoke-400v-18" viewBox="0 0 18 18" fill="currentColor"><path d="M15 10c-1.7 0-3 1.3-3 3 0-1.7-1.3-3-3-3s-3 1.3-3 3v-3H4v4H2v-4H0v6h4v2h2v-3c0 1.7 1.3 3 3 3s3-1.3 3-3c0 1.7 1.3 3 3 3s3-1.3 3-3v-2c0-1.7-1.3-3-3-3zm-5 5c0 .6-.4 1-1 1s-1-.4-1-1v-2c0-.6.4-1 1-1s1 .4 1 1v2zm6 0c0 .6-.4 1-1 1s-1-.4-1-1v-2c0-.6.4-1 1-1s1 .4 1 1v2zm0-15c-2.4 0-4.4 1.7-4.9 4H0v2h11.1c.5 2.3 2.5 4 4.9 4V8h2V6h-2V4h2V2h-2V0zm-2 7.2c-.6-.5-1-1.3-1-2.2 0-.9.4-1.7 1-2.2v4.4z"/></symbol><symbol id="lammitysposti-18" viewBox="0 0 18 18" fill="currentColor"><path d="M8 4H6c0-.6-.4-1-1-1-1.7 0-3-1.3-3-3h2c0 .6.4 1 1 1 1.7 0 3 1.3 3 3zm5-3c-.6 0-1-.4-1-1h-2c0 1.7 1.3 3 3 3 .6 0 1 .4 1 1h2c0-1.7-1.3-3-3-3zM9 11c-.6 0-1-.4-1-1H6c0 1.7 1.3 3 3 3 .6 0 1 .4 1 1h2c0-1.7-1.3-3-3-3zm9-5H0v12h18V6zM2 8h14v8H2V8z"/></symbol><symbol id="laskumakijarrut-18" viewBox="0 0 18 18" fill="currentColor"><path d="M17.7 1.7L16.3.3 13.6 3h-3.2l1.3-1.3L10.3.3 7.6 3H0v6h1.6L.3 10.3l1.4 1.4L4.4 9h3.2l-1.3 1.3 1.4 1.4L10.4 9H18V3h-1.6l1.3-1.3zM2 7V5h3.6l-2 2H2zm4.4 0l2-2h3.2l-2 2H6.4zM16 5v2h-3.6l2-2H16zM1.2 12l16 4-.4 2-16-4 .4-2z"/></symbol><symbol id="liikennemerkki-18" viewBox="0 0 18 18" fill="currentColor"><path d="M9 0L.9 14H8v4h2v-4h7.1L9 0zm0 4l4.6 8H4.4L9 4z"/></symbol><symbol id="liikennemerkki-kielto-18" viewBox="0 0 18 18" fill="currentColor"><path d="M16 7c0-3.9-3.1-7-7-7S2 3.1 2 7c0 3.5 2.6 6.4 6 6.9V18h2v-4.1c3.4-.5 6-3.4 6-6.9zM4 7c0-2.8 2.2-5 5-5 1 0 2 .3 2.8.8l-7 7C4.3 9 4 8 4 7zm5 5c-1 0-2-.3-2.8-.8l6.9-6.9c.6.7.9 1.7.9 2.7 0 2.8-2.2 5-5 5z"/></symbol><symbol id="liikennemerkki-lika-18" viewBox="0 0 18 18" fill="currentColor"><path d="M17.1 14H10v4H8v-4H.9l2.7-4.6c.5.5 1.1.8 1.8 1l-1 1.7h9.2l-1-1.7c.6-.2 1.2-.5 1.8-1l2.7 4.6zM3.8 6.2c0-.1-.9-2.4 1.3-4.6 2.1-2.1 5.6-2.1 7.8 0 2.2 2.2 1.3 4.5 1.3 4.6-.5 1.2-1.3 2-2.2 2.2h-.4c-.6 0-1.2-.2-1.6-.7-.5-.5-1.3-.5-1.8 0-.7.7-1.4.9-2.2.8-.9-.2-1.7-1.1-2.2-2.3zm1.9-.7c.3.7.6.9.8 1 0 0 .1 0 .2-.1.6-.6 1.5-1 2.3-1s1.7.3 2.3 1c.1.1.2.1.2.1.1 0 .5-.3.8-1 0-.1.4-1.3-.8-2.5-1.4-1.4-3.6-1.4-5 0-1.2 1.3-.8 2.5-.8 2.5z"/></symbol><symbol id="liikennemerkki-lumi-18" viewBox="0 0 18 18" fill="currentColor"><path d="M17.1 14H10v4H8v-4H.9l2.7-4.7 1.7 1-1 1.7h9.2l-1-1.7 1.7-1 2.9 4.7zm-1.2-7.8l1.4-.8-1-1.7-1.4.8.5-1.8-1.9-.5-1 3.7L10 7.3V4.4l2.7-2.7L11.3.3 10 1.6V0H8v1.6L6.7.3 5.3 1.7 8 4.4v2.9L5.5 5.8l-1-3.7-1.9.6.5 1.8-1.4-.9-1 1.7 1.4.8-1.8.5.5 1.9 3.7-1L9 10.2l4.5-2.6 3.7 1 .5-1.9-1.8-.5z"/></symbol><symbol id="liikennemerkki-rikki-18" viewBox="0 0 18 18" fill="currentColor"><path d="M13.3 7.5c-.4.1-.8.2-1.2.2-1.1 0-2.2-.5-3.1-1.3-.9.8-2 1.3-3.2 1.3-.4 0-.8-.1-1.1-.2L.9 14H8v4h2v-4h7.1l-3.8-6.5zM5.7 9.7h.1C7 9.7 8 9.4 9 8.8c1 .5 2 .8 3.2.8h.1l1.3 2.3H4.4l1.3-2.2z"/></symbol><symbol id="liikennemerkki-vino-18" viewBox="0 0 18 18" fill="currentColor"><path d="M7.4 9.2L.3 16.3l1.4 1.4 7.1-7.1 5 5L18 0 2.4 4.2l5 5zm5.4 2.6L6.2 5.2l8.9-2.4-2.3 9z"/></symbol><symbol id="liikennepaikka-18" viewBox="0 0 18 18" fill="currentColor"><path d="M9 14c0 .5-.4 1-1 1s-1-.4-1-1 .4-1 1-1 1 .5 1 1zm5-1c-.6 0-1 .4-1 1s.4 1 1 1 1-.4 1-1-.4-1-1-1zm4-6v8c0 1.7-1.3 3-3 3H7c-1.7 0-3-1.3-3-3V7c0-1.7 1.3-3 3-3h8c1.7 0 3 1.3 3 3zM6 7v3h10V7c0-.6-.4-1-1-1H7c-.6 0-1 .4-1 1zm10 8v-3H6v3c0 .6.4 1 1 1h8c.6 0 1-.4 1-1zM7 0C3.1 0 0 3.1 0 7v11h2V7c0-2.8 2.2-5 5-5h11V0H7z"/></symbol><symbol id="liikennepaikkavali-18" viewBox="0 0 18 18" fill="currentColor"><path d="M15 4c-1.7 0-3 1.3-3 3 0 .5.1.9.3 1.3l-4 4c-.4-.2-.8-.3-1.3-.3-1.7 0-3 1.3-3 3s1.3 3 3 3 3-1.3 3-3c0-.5-.1-.9-.3-1.3l4-4c.4.2.8.3 1.3.3 1.7 0 3-1.3 3-3s-1.3-3-3-3zM7 16c-.6 0-1-.4-1-1s.4-1 1-1 1 .4 1 1-.4 1-1 1zm8-8c-.6 0-1-.4-1-1s.4-1 1-1 1 .4 1 1-.4 1-1 1zm-8 2H3c-.6 0-1 .4-1 1v4H0v-4c0-1.7 1.3-3 3-3h4v2zm3-3H8V3c0-1.7 1.3-3 3-3h4v2h-4c-.6 0-1 .4-1 1v4z"/></symbol><symbol id="liikennesuunnittelualue-18" viewBox="0 0 18 18" fill="currentColor"><path d="M11.7 3.1L10.6 2 12.5.1l.7 2.6-1.5.4zM5.9 9.5L4.5 8.1 3.2 9.4l1.4 1.4 1.3-1.3zm2.4-2.4L6.9 5.7 5.7 6.9l1.4 1.4 1.2-1.2zm2.5-2.5L9.4 3.2 8.1 4.5l1.4 1.4 1.3-1.3zm-7.7 7.1L2 10.6.1 12.5l2.6.7.4-1.5zm10.5 2.6l-1.7-.5-.5 1.9 1.7.5.5-1.9zm-3.5-1l-1.7-.5-.5 1.9 1.7.5.5-1.9zm-3.4-1L5 11.8l-.5 1.9 1.7.5.5-1.9zm10 2.5l-1.5.4-.4 1.5 2.7.8-.8-2.7zm-.5-1.8l-.5-1.7-1.9.5.5 1.7 1.9-.5zm-1-3.4l-.5-1.7-1.9.5.5 1.7 1.9-.5zm-1-3.5l-.5-1.7-1.9.6.5 1.7 1.9-.6z"/></symbol><symbol id="liikenneyksikko-0-18" viewBox="0 0 18 18" fill="currentColor"><path d="M9 0v18l9-9-9-9z"/></symbol><symbol id="liikenneyksikko-1-18" viewBox="0 0 18 18" fill="currentColor"><path d="M9 0l9 9-9 9V0zM8 2H6v14h2V2z"/></symbol><symbol id="liikenneyksikko-2-18" viewBox="0 0 18 18" fill="currentColor"><path d="M9 0l9 9-9 9V0zM5 4H3v10h2V4zm3-2H6v14h2V2z"/></symbol><symbol id="liikenneyksikko-3-18" viewBox="0 0 18 18" fill="currentColor"><path d="M9 0l9 9-9 9V0zM2 6H0v6h2V6zm3-2H3v10h2V4zm3-2H6v14h2V2z"/></symbol><symbol id="lista-18" viewBox="0 0 18 18" fill="currentColor"><path d="M18 4H5V2h13v2zM3 3c0-.8-.7-1.5-1.5-1.5S0 2.2 0 3s.7 1.5 1.5 1.5S3 3.8 3 3zm15 5H5v2h13V8zM3 9c0-.8-.7-1.5-1.5-1.5S0 8.2 0 9s.7 1.5 1.5 1.5S3 9.8 3 9zm15 5H5v2h13v-2zM3 15c0-.8-.7-1.5-1.5-1.5S0 14.2 0 15s.7 1.5 1.5 1.5S3 15.8 3 15z"/></symbol><symbol id="liukas-18" viewBox="0 0 18 18" fill="currentColor"><path d="M9 6C7.3 6 6 4.7 6 3V0H0v6h.5c1.3 3.6 4.6 6 8.5 6 1.7 0 3 1.3 3 3v3h2v-3c0-2.8-2.2-5-5-5-2.7 0-5.2-1.6-6.3-4H5c.9 1.2 2.3 2 4 2 3.9 0 7 3.1 7 7v3h2v-3c0-5-4-9-9-9zM4 4H2V2h2v2z"/></symbol><symbol id="liukas-kielto-18" viewBox="0 0 18 18" fill="currentColor"><path d="M14 15v3h-2v-3c0-1.3-.8-2.4-2-2.8l1.5-1.5c1.5.9 2.5 2.5 2.5 4.3zm.4-7.2L13 9.3c1.8 1.3 3 3.4 3 5.7v3h2v-3c0-2.9-1.4-5.5-3.6-7.2zM16.3.3l-16 16 1.4 1.4 16-16L16.3.3zM.5 6H0V0h6v3c0 1.3.8 2.4 2 2.8L6.5 7.3C5.9 7 5.4 6.5 5 6H2.7C3.2 7.1 4 8.1 5 8.7l-1.4 1.4C2.2 9.1 1.1 7.7.5 6zM2 4h2V2H2v2z"/></symbol><symbol id="loitonna-18" viewBox="0 0 18 18" fill="currentColor"><path d="M4 6h6v2H4V6zm12.3 11.7l-5.1-5.1C10 13.5 8.6 14 7 14c-3.9 0-7-3.1-7-7s3.1-7 7-7 7 3.1 7 7c0 1.6-.5 3-1.4 4.2l5.1 5.1-1.4 1.4zM7 12c2.8 0 5-2.2 5-5S9.8 2 7 2 2 4.2 2 7s2.2 5 5 5z"/></symbol><symbol id="lumi-18" viewBox="0 0 18 18" fill="currentColor"><path d="M13.5 7.6l3.7 1 .5-2-1.8-.4 1.4-.8-1-1.8-1.4.8.5-1.7-1.9-.6-1 3.7L10 7.3V4.4l2.7-2.7L11.3.3 10 1.6V0H8v1.6L6.7.3 5.3 1.7 8 4.4v2.9L5.5 5.8l-1-3.7-1.9.6.5 1.7-1.4-.8-1 1.8 1.4.8-1.8.4.5 2 3.7-1L7 9l-2.5 1.4-3.7-1-.5 2 1.8.4-1.4.8 1 1.8 1.4-.8-.5 1.7 1.9.6 1-3.7L8 10.7v2.9l-2.7 2.7 1.4 1.4L8 16.4V18h2v-1.6l1.3 1.3 1.4-1.4-2.7-2.7v-2.9l2.5 1.5 1 3.7 1.9-.6-.5-1.7 1.4.8 1-1.8-1.4-.8 1.8-.4-.5-2-3.7 1L11 9z"/></symbol><symbol id="lumi-kielto-18" viewBox="0 0 18 18" fill="currentColor"><path d="M8 4.4L5.3 1.7 6.7.3 8 1.6V0h2v1.6L11.3.3l1.4 1.4L8 6.4v-2zM.8 8.6l3.7-1 1.5.8 1.5-1.5-2-1.1-1-3.7-1.9.6.5 1.8-1.4-.9-1 1.7 1.4.8-1.8.5.5 2zM10 18v-1.6l1.3 1.3 1.4-1.4-2.7-2.7v-2l-4.7 4.7 1.4 1.4L8 16.4V18h2zm7.2-8.6l-3.7 1-1.5-.8-1.5 1.5 1.9 1.1 1 3.7 1.9-.5-.5-1.8 1.4.8 1-1.7-1.4-.8 1.8-.5-.4-2zm.5-7.7L16.3.3l-16 16 1.4 1.4 16-16z"/></symbol><symbol id="lvi-posti-18" viewBox="0 0 18 18" fill="currentColor"><path d="M16 8h-2V0h2v8zm2 2v8H0v-8h18zm-2 2H2v4h14v-4zM4 6H2V0H0v8h4V6zm6 2l2-8h-2L9 3.9 8 0H6l2 8h2z"/></symbol><symbol id="maakivi-18" viewBox="0 0 18 18" fill="currentColor"><path d="M7 8h4v2H7V8zm11 0h-1.5C14.9 5.6 12.1 4 9 4S3.1 5.6 1.5 8H0v2h.5c-.3.9-.5 1.9-.5 3h2c0-1.1.3-2.1.7-3H4V8.1C5.3 6.8 7 6 9 6s3.7.8 5 2.1V10h1.3c.4.9.7 1.9.7 3h2c0-1.1-.2-2.1-.5-3h.5V8z"/></symbol><symbol id="maalitaulu-18" viewBox="0 0 18 18" fill="currentColor"><path d="M9 18c-5 0-9-4-9-9s4-9 9-9 9 4 9 9-4 9-9 9zM9 2C5.1 2 2 5.1 2 9s3.1 7 7 7 7-3.1 7-7-3.1-7-7-7zm0 12c-2.8 0-5-2.2-5-5s2.2-5 5-5 5 2.2 5 5-2.2 5-5 5zm0-8C7.3 6 6 7.3 6 9s1.3 3 3 3 3-1.3 3-3-1.3-3-3-3zm0 2c-.6 0-1 .4-1 1s.4 1 1 1 1-.4 1-1-.4-1-1-1z"/></symbol><symbol id="maasto-18" viewBox="0 0 18 18" fill="currentColor"><path d="M16.3 8.7L11 3.4 9.7 4.7 8.3 3.3 11 .6l6.7 6.7-1.4 1.4zM9.7 7.3L5 2.6.3 7.3l1.4 1.4L5 5.4l3.3 3.3 1.4-1.4zM12 8c0 1.1-.9 2-2 2-4.4 0-8 3.6-8 8h2c0-3.3 2.7-6 6-6 .7 0 1.4-.2 1.9-.5-.2.9-1 1.5-1.9 1.5-1.7 0-3 1.3-3 3v2h2v-2c0-.6.4-1 1-1 2.2 0 4-1.8 4-4V8h-2z"/></symbol><symbol id="masto-18" viewBox="0 0 18 18" fill="currentColor"><path d="M6 18h6V0H6v18zM8 2h2v2H8V2zm0 4h2v2H8V6zm0 4h2v2H8v-2zm0 4h2v2H8v-2z"/></symbol><symbol id="miinus-18" viewBox="0 0 18 18" fill="currentColor"><path d="M0 8h18v2H0z"/></symbol><symbol id="mitta-18" viewBox="0 0 18 18" fill="currentColor"><path d="M3 0h2v18H3V0zm12 2V0H7v18h8v-2H9v-2h6v-2H9v-2h6V8H9V6h6V4H9V2h6z"/></symbol><symbol id="muuntaja-18" viewBox="0 0 18 18" fill="currentColor"><path d="M16 2H2v4H0v2h2v2H0v2h2v4h14v-4h2v-2h-2V8h2V6h-2V2zm-2 8h-2v2h2v2H4v-2h2v-2H4V8h2V6H4V4h10v2h-2v2h2v2z"/></symbol><symbol id="nasta-18" viewBox="0 0 18 18" fill="currentColor"><path d="M13 10V2h2V0H3v2h2v8H1v2h6l2 6 2-6h6v-2h-4zm-6 0V2h4v8H7z"/></symbol><symbol id="navigaatio-nuoli-18" viewBox="0 0 18 18" fill="currentColor"><path d="M13.7 13.9L9 11.8l-4.7 2.1L9 4.5M0 18l9-4 9 4L9 0 0 18z"/></symbol><symbol id="nelio-info-18" viewBox="0 0 18 18" fill="currentColor"><path d="M18 18H0V0h18v18zM2 16h14V2H2v14zM9 3.5c-.8 0-1.5.7-1.5 1.5S8.2 6.5 9 6.5s1.5-.7 1.5-1.5S9.8 3.5 9 3.5zM10 8H8v6h2V8z"/></symbol><symbol id="nelio-miinus-18" viewBox="0 0 18 18" fill="currentColor"><path d="M18 18H0V0h18v18zM2 16h14V2H2v14zm12-8H4v2h10V8z"/></symbol><symbol id="nelio-plus-18" viewBox="0 0 18 18" fill="currentColor"><path d="M0 0v18h18V0H0zm16 16H2V2h14v14zm-8-6H4V8h4V4h2v4h4v2h-4v4H8v-4z"/></symbol><symbol id="nelio-rasti-18" viewBox="0 0 18 18" fill="currentColor"><path d="M0 0v18h18V0H0zm16 16H2V2h14v14zM4.8 11.8L7.6 9 4.8 6.2l1.4-1.4L9 7.6l2.8-2.8 1.4 1.4L10.4 9l2.8 2.8-1.4 1.4L9 10.4l-2.8 2.8-1.4-1.4z"/></symbol><symbol id="nopeusmittari-18" viewBox="0 0 18 18" fill="currentColor"><path d="M16.8 4.5C17.6 5.8 18 7.4 18 9c0 5-4 9-9 9s-9-4-9-9 4-9 9-9c1.6 0 3.2.4 4.5 1.2l-1.8 1.4C10.9 2.2 10 2 9 2 5.1 2 2 5.1 2 9s3.1 7 7 7 7-3.1 7-7c0-1-.2-1.9-.5-2.7l1.3-1.8zM7.9 7.9c-.6.6-.6 1.5 0 2.1.6.6 1.5.6 2.1 0l7-9-9.1 6.9z"/></symbol><symbol id="nopeusrajoitus-18" viewBox="0 0 18 18" fill="currentColor"><path d="M9 0C4 0 0 4 0 9s4 9 9 9 9-4 9-9-4-9-9-9zm0 16c-3.9 0-7-3.1-7-7s3.1-7 7-7 7 3.1 7 7-3.1 7-7 7zM9 4C7.3 4 6 5.3 6 7c0 .8.3 1.5.8 2-.5.5-.8 1.2-.8 2 0 1.7 1.3 3 3 3s3-1.3 3-3c0-.8-.3-1.5-.8-2 .5-.5.8-1.2.8-2 0-1.7-1.3-3-3-3zm0 2c.6 0 1 .4 1 1s-.4 1-1 1-1-.5-1-1 .4-1 1-1zm0 6c-.6 0-1-.4-1-1s.4-1 1-1 1 .4 1 1-.4 1-1 1z"/></symbol><symbol id="nuolet-laajenna-18" viewBox="0 0 18 18" fill="currentColor"><path d="M18 0v8h-2V3.4l-4.3 4.3-1.4-1.4L14.6 2H10V0h8zM7.7 11.7l-1.4-1.4L2 14.6V10H0v8h8v-2H3.4l4.3-4.3z"/></symbol><symbol id="nuolet-myota-alaviiva-18" viewBox="0 0 18 18" fill="currentColor"><path d="M18 16v2H0v-2h18zM9 2c1.1 0 2.1.4 3 1h-2v2h5V0h-2v1.3C11.8.4 10.5 0 9 0 5.1 0 2 3.1 2 7h2c0-2.8 2.2-5 5-5zM8 9H3v5h2v-1.3c1.2.8 2.5 1.3 4 1.3 3.9 0 7-3.1 7-7h-2c0 2.8-2.2 5-5 5-1.1 0-2.1-.4-3-1h2V9z"/></symbol><symbol id="nuolet-oikea-vasen-18" viewBox="0 0 18 18" fill="currentColor"><path d="M18 7l-5.7 5.7-1.4-1.4L14.2 8H8V6h6.2L11 2.8l1.4-1.4L18 7zM7.1 6.8L5.7 5.3 0 11l5.7 5.7 1.4-1.4L3.8 12H10v-2H3.8l3.3-3.2z"/></symbol><symbol id="nuolet-rasti-18" viewBox="0 0 18 18" fill="currentColor"><path d="M15 8V3h-5v2h1.6L9 7.6 6.4 5H8V3H3v5h2V6.4L7.6 9 5 11.6V10H3v5h5v-2H6.4L9 10.4l2.6 2.6H10v2h5v-5h-2v1.6L10.4 9 13 6.4V8z"/></symbol><symbol id="nuolet-risti-18" viewBox="0 0 18 18" fill="currentColor"><path d="M13.9 12.5L17.4 9l-3.5-3.5-1.4 1.4L13.6 8H10V4.4l1.1 1.1 1.4-1.4L9 .6 5.5 4.1l1.4 1.4L8 4.4V8H4.4l1.1-1.1-1.4-1.4L.6 9l3.5 3.5 1.4-1.4L4.4 10H8v3.6l-1.1-1.1-1.4 1.4L9 17.4l3.5-3.5-1.4-1.4-1.1 1.1V10h3.6l-1.1 1.1z"/></symbol><symbol id="nuolet-tiivista-18" viewBox="0 0 18 18" fill="currentColor"><path d="M18 6v2h-8V0h2v4.6L16.3.3l1.4 1.4L13.4 6H18zM0 12h4.6L.3 16.3l1.4 1.4L6 13.4V18h2v-8H0v2z"/></symbol><symbol id="nuoli-alaoikea-18" viewBox="0 0 18 18" fill="currentColor"><path d="M12 4v6.6L4.7 3.3 3.3 4.7l7.3 7.3H4v2h10V4z"/></symbol><symbol id="nuoli-alaoikea-alaviiva-18" viewBox="0 0 18 18" fill="currentColor"><path d="M10.6 12L3.3 4.7l1.4-1.4 7.3 7.3V4h2v10H4v-2h6.6zM0 18h18v-2H0v2z"/></symbol><symbol id="nuoli-alas-18" viewBox="0 0 18 18" fill="currentColor"><path d="M14.7 7.9L10 12.6V3H8v9.6L3.3 7.9 1.9 9.3 9 16.4l7.1-7.1z"/></symbol><symbol id="nuoli-alavasen-18" viewBox="0 0 18 18" fill="currentColor"><path d="M14.7 4.7l-1.4-1.4L6 10.6V4H4v10h10v-2H7.4z"/></symbol><symbol id="nuoli-alavasen-alaviiva-18" viewBox="0 0 18 18" fill="currentColor"><path d="M14 14H4V4h2v6.6l7.3-7.3 1.4 1.4L7.4 12H14v2zM0 16v2h18v-2H0z"/></symbol><symbol id="nuoli-aloitus-18" viewBox="0 0 18 18" fill="currentColor"><path d="M17.4 9l-7.1 7.1-1.4-1.4 4.7-4.7H4V8h9.6L8.9 3.3l1.4-1.4L17.4 9zM0 18h2V0H0v18z"/></symbol><symbol id="nuoli-kaannos-eteenpain-18" viewBox="0 0 18 18" fill="currentColor"><path d="M2 12c0-2.2 1.8-4 4-4h7.6l-3.9 4 1.4 1.4L17.4 7 11 .6 9.6 2l3.9 4H6c-3.3 0-6 2.7-6 6s2.7 6 6 6h8v-2H6c-2.2 0-4-1.8-4-4z"/></symbol><symbol id="nuoli-kaannos-taaksepain-18" viewBox="0 0 18 18" fill="currentColor"><path d="M12 6H4.4l3.9-4L6.9.6.6 7 7 13.4 8.4 12l-4-4H12c2.2 0 4 1.8 4 4s-1.8 4-4 4H4v2h8c3.3 0 6-2.7 6-6s-2.7-6-6-6z"/></symbol><symbol id="nuoli-lopetus-18" viewBox="0 0 18 18" fill="currentColor"><path d="M6.3 1.9L13.4 9l-7.1 7.1-1.4-1.4L9.6 10H0V8h9.6L4.9 3.3l1.4-1.4zM16 0v18h2V0h-2z"/></symbol><symbol id="nuoli-oikea-18" viewBox="0 0 18 18" fill="currentColor"><path d="M9.3 1.9L7.9 3.3 12.6 8H3v2h9.6l-4.7 4.7 1.4 1.4L16.4 9z"/></symbol><symbol id="nuoli-oikea-alaviiva-18" viewBox="0 0 18 18" fill="currentColor"><path d="M12.6 9H2V7h10.6L8.3 2.7l1.4-1.4L16.4 8l-6.7 6.7-1.4-1.4L12.6 9zM0 16v2h18v-2H0z"/></symbol><symbol id="nuoli-vasen-18" viewBox="0 0 18 18" fill="currentColor"><path d="M15 8H5.4l4.7-4.7-1.4-1.4L1.6 9l7.1 7.1 1.4-1.4L5.4 10H15z"/></symbol><symbol id="nuoli-vasen-oikea-18" viewBox="0 0 18 18" fill="currentColor"><path d="M11.8 3.3l-1.5 1.5L13.6 8H4.4l3.3-3.2-1.5-1.5L.6 9l5.6 5.7 1.5-1.5L4.4 10h9.2l-3.3 3.2 1.5 1.5L17.4 9z"/></symbol><symbol id="nuoli-ylaoikea-18" viewBox="0 0 18 18" fill="currentColor"><path d="M4 4v2h6.6l-7.3 7.3 1.4 1.4L12 7.4V14h2V4z"/></symbol><symbol id="nuoli-ylaoikea-alaviiva-18" viewBox="0 0 18 18" fill="currentColor"><path d="M3.3 13.3L10.6 6H4V4h10v10h-2V7.4l-7.3 7.3-1.4-1.4zM0 18h18v-2H0v2z"/></symbol><symbol id="nuoli-ylavasen-18" viewBox="0 0 18 18" fill="currentColor"><path d="M14.7 13.3L7.4 6H14V4H4v10h2V7.4l7.3 7.3z"/></symbol><symbol id="nuoli-ylavasen-alaviiva-18" viewBox="0 0 18 18" fill="currentColor"><path d="M6 14H4V4h10v2H7.4l7.3 7.3-1.4 1.4L6 7.4V14zm-6 4h18v-2H0v2z"/></symbol><symbol id="nuoli-ylos-18" viewBox="0 0 18 18" fill="currentColor"><path d="M16.1 8.7L9 1.6 1.9 8.7l1.4 1.4L8 5.4V15h2V5.4l4.7 4.7z"/></symbol><symbol id="nuoli-ylos-alas-18" viewBox="0 0 18 18" fill="currentColor"><path d="M13.2 10.3L10 13.6V4.4l3.2 3.3 1.5-1.5L9 .6 3.3 6.2l1.5 1.5L8 4.4v9.2l-3.2-3.3-1.5 1.5L9 17.4l5.7-5.6z"/></symbol><symbol id="nuoli-ylos-alaviiva-18" viewBox="0 0 18 18" fill="currentColor"><path d="M3.3 9.1L1.9 7.7 9 .6l7.1 7.1-1.4 1.4L10 4.4V14H8V4.4L3.3 9.1zM0 16v2h18v-2H0z"/></symbol><symbol id="nuoli-ylos-ylaviiva-18" viewBox="0 0 18 18" fill="currentColor"><path d="M9 4.6l7.1 7.1-1.4 1.4L10 8.4V18H8V8.4l-4.7 4.7-1.4-1.4L9 4.6zM0 0v2h18V0H0z"/></symbol><symbol id="oja-tukossa-18" viewBox="0 0 18 18" fill="currentColor"><path d="M6.2 9.4L7.6 8 6.2 6.6l1.4-1.4L9 6.6l1.4-1.4 1.4 1.4L10.4 8l1.4 1.4-1.4 1.4L9 9.4l-1.4 1.4-1.4-1.4zM14 8c0 2.8-2.2 5-5 5s-5-2.2-5-5V6H0v2h2c0 3.9 3.1 7 7 7s7-3.1 7-7h2V6h-4v2z"/></symbol><symbol id="opastin-18" viewBox="0 0 18 18" fill="currentColor"><path d="M10 9.9c2.3-.5 4-2.5 4-4.9 0-2.8-2.2-5-5-5S4 2.2 4 5c0 2.4 1.7 4.4 4 4.9V16H4v2h10v-2h-4V9.9zM6 5c0-1.7 1.3-3 3-3s3 1.3 3 3-1.3 3-3 3-3-1.3-3-3z"/></symbol><symbol id="paallystys-18" viewBox="0 0 18 18" fill="currentColor"><path d="M0 12h18v2H0v-2zm4-2h2V8h2V6H6V4H4v2H2v2h2v2zm8 0h2V8h2V6h-2V4h-2v2h-2v2h2v2z"/></symbol><symbol id="paineilmakeskus-18" viewBox="0 0 18 18" fill="currentColor"><path d="M0 4v14h18V4L9 0 0 4zm16 12H2V5.3l7-3.1 7 3.1V16zm-6-2v-2c.6 0 1-.4 1-1s-.4-1-1-1V8c.6 0 1-.4 1-1s-.4-1-1-1V4c1.7 0 3 1.3 3 3 0 .8-.3 1.5-.8 2 .5.5.8 1.2.8 2 0 1.7-1.3 3-3 3zM6 8h2v2H6V8z"/></symbol><symbol id="paineilmaposti-18" viewBox="0 0 18 18" fill="currentColor"><path d="M18 10c0 2.2-1.8 4-4 4v-2c1.1 0 2-.9 2-2s-.9-2-2-2V6c1.1 0 2-.9 2-2s-.9-2-2-2V0c2.2 0 4 1.8 4 4 0 1.2-.5 2.3-1.4 3 .9.7 1.4 1.8 1.4 3zm-8-2h2V6h-2v2zM6 6h2v2H6v10H0V3c0-1.7 1.3-3 3-3s3 1.3 3 3v3zM4 3c0-.6-.4-1-1-1s-1 .4-1 1v13h2V3z"/></symbol><symbol id="paivita-18" viewBox="0 0 18 18" fill="currentColor"><path d="M18 1v6h-6V5h2.7C13.4 3.1 11.3 2 9 2 5.1 2 2 5.1 2 9H0c0-5 4-9 9-9 2.8 0 5.3 1.3 7 3.3V1h2zM9 16c-2.3 0-4.4-1.1-5.7-3H6v-2H0v6h2v-2.3c1.7 2 4.2 3.3 7 3.3 5 0 9-4 9-9h-2c0 3.9-3.1 7-7 7z"/></symbol><symbol id="palovesijarjestelma-18" viewBox="0 0 18 18" fill="currentColor"><path d="M9 0L4.4 8H0v2h3.3c-.2.6-.3 1.3-.3 2 0 3.3 2.7 6 6 6s6-2.7 6-6c0-.7-.1-1.4-.3-2H18V8h-4.4L9 0zm0 16c-2.2 0-4-1.8-4-4 0-.5.1-1 .3-1.5L9 4l3.7 6.5c.2.5.3 1 .3 1.5 0 2.2-1.8 4-4 4zm0-4h2c0 1.1-.9 2-2 2v-2z"/></symbol><symbol id="pinta-hiekka-18" viewBox="0 0 18 18" fill="currentColor"><path d="M18 14H0v-2h18v2zm-4.5-9c0-.8-.7-1.5-1.5-1.5s-1.5.7-1.5 1.5.7 1.5 1.5 1.5 1.5-.7 1.5-1.5zm-6 0c0-.8-.7-1.5-1.5-1.5S4.5 4.2 4.5 5 5.2 6.5 6 6.5 7.5 5.8 7.5 5zm9 4c0-.8-.7-1.5-1.5-1.5s-1.5.7-1.5 1.5.7 1.5 1.5 1.5 1.5-.7 1.5-1.5zm-6 0c0-.8-.7-1.5-1.5-1.5S7.5 8.2 7.5 9s.7 1.5 1.5 1.5 1.5-.7 1.5-1.5zm-6 0c0-.8-.7-1.5-1.5-1.5S1.5 8.2 1.5 9s.7 1.5 1.5 1.5S4.5 9.8 4.5 9z"/></symbol><symbol id="pinta-hiekka-kielto-18" viewBox="0 0 18 18" fill="currentColor"><path d="M6 6.5c-.8 0-1.5-.7-1.5-1.5S5.2 3.5 6 3.5s1.5.7 1.5 1.5S6.8 6.5 6 6.5zm9 4c-.8 0-1.5-.7-1.5-1.5s.7-1.5 1.5-1.5 1.5.7 1.5 1.5-.7 1.5-1.5 1.5zm-12 0c-.8 0-1.5-.7-1.5-1.5S2.2 7.5 3 7.5s1.5.7 1.5 1.5-.7 1.5-1.5 1.5zm14.7-8.8L16.3.3l-16 16 1.4 1.4 16-16zM8.2 14H18v-2h-7.8l-2 2zm-6.4-2H0v1.8L1.8 12z"/></symbol><symbol id="pinta-lumi-18" viewBox="0 0 18 18" fill="currentColor"><path d="M.3 6.6l1.8-.5-1.4-.7 1-1.7 1.4.8-.5-1.8 1.9-.5 1 3.7L8 7.3V4.4L5.3 1.7 6.7.3 8 1.6V0h2v1.6L11.3.3l1.4 1.4L10 4.4v2.9l2.5-1.4 1-3.7 1.9.5-.5 1.8 1.4-.8 1 1.7-1.4.8 1.8.5-.5 1.9-3.7-1L9 10.2 4.5 7.6l-3.7 1-.5-2zM0 12v2h18v-2H0z"/></symbol><symbol id="pintakuivatus-puute-18" viewBox="0 0 18 18" fill="currentColor"><path d="M9 14c2.6 0 4.7-2.1 4.7-4.7 0-.6-.1-1.3-.4-1.8L9 0 4.7 7.5c-.2.6-.4 1.2-.4 1.8C4.3 11.9 6.4 14 9 14zM6.5 8.4L9 4l2.5 4.4c.1.3.2.6.2.9 0 1.5-1.2 2.7-2.7 2.7s-2.7-1.2-2.7-2.7c0-.3.1-.6.2-.9zM16.7 14l.5 1.9-7.1 2H7.7l-7-2 .6-1.9 6.9 2h1.7l6.8-2z"/></symbol><symbol id="plus-18" viewBox="0 0 18 18" fill="currentColor"><path d="M18 8h-8V0H8v8H0v2h8v8h2v-8h8z"/></symbol><symbol id="pm-merkki-18" viewBox="0 0 18 18" fill="currentColor"><path d="M16 2H2C.9 2 0 2.9 0 4v10c0 1.1.9 2 2 2h14c1.1 0 2-.9 2-2V4c0-1.1-.9-2-2-2zm0 12H2V4h14v10zM5 12H3V6h3c1.1 0 2 .9 2 2s-.9 2-2 2H5v2zm6 0H9V5.6l3 3 3-3V12h-2v-1.6l-1 1-1-1V12z"/></symbol><symbol id="polanne-18" viewBox="0 0 18 18" fill="currentColor"><path d="M18 6v2h-4.9L9 3.9 4.9 8H0V6h4.1L9 1.1 13.9 6H18zm-.8 3.4l-3.7 1L9 7.8l-4.5 2.6-3.7-1-.5 1.9 1.8.5-1.4.8 1 1.7 1.4-.8-.5 1.8 1.9.5 1-3.7L8 10.7v2.9l-2.7 2.7 1.4 1.4L8 16.4V18h2v-1.6l1.3 1.3 1.4-1.4-2.7-2.7v-2.9l2.5 1.4 1 3.7 1.9-.5-.5-1.8 1.4.8 1-1.7-1.4-.8 1.8-.5-.5-1.9z"/></symbol><symbol id="puhekupla-18" viewBox="0 0 18 18" fill="currentColor"><path d="M9 2c3.8 0 7 2.3 7 5s-3.2 5-7 5c-.4 0-.9 0-1.4-.1l-.7-.1-2.7 1.5.9-2-1.2-1C2.7 9.4 2 8.2 2 7c0-2.7 3.2-5 7-5m0-2C4 0 0 3.1 0 7c0 1.9 1 3.7 2.6 5L0 18l7.3-4.1c.6.1 1.1.1 1.7.1 5 0 9-3.1 9-7s-4-7-9-7z"/></symbol><symbol id="puhekupla-teksti-18" viewBox="0 0 18 18" fill="currentColor"><path d="M9 2c3.8 0 7 2.3 7 5s-3.2 5-7 5c-.4 0-.9 0-1.4-.1l-.7-.1-.6.3-2.1 1.2.2-.6.6-1.4-1.2-1C2.7 9.4 2 8.2 2 7c0-2.7 3.2-5 7-5m0-2C4 0 0 3.1 0 7c0 1.9 1 3.7 2.6 5L0 18l7.3-4.1c.6.1 1.1.1 1.7.1 5 0 9-3.1 9-7s-4-7-9-7zM6 6H4v2h2V6zm4 0H8v2h2V6zm4 0h-2v2h2V6z"/></symbol><symbol id="puhelin-18" viewBox="0 0 18 18" fill="currentColor"><path d="M14 10c-2.2 0-4 1.8-4 4 0 .5.1 1 .3 1.4-3.6-1.2-6.5-4-7.7-7.7.4.2.9.3 1.4.3 2.2 0 4-1.8 4-4L4 0C1.8 0 0 1.8 0 4c0 7.7 6.3 14 14 14 2.2 0 4-1.8 4-4l-4-4zM3.3 2.1l2.6 2.6C5.6 5.5 4.9 6 4 6c-1.1 0-2-.9-2-2 0-.9.5-1.6 1.3-1.9zM14 16c-1.1 0-2-.9-2-2 0-.9.5-1.6 1.3-1.9l2.6 2.6c-.3.8-1 1.3-1.9 1.3z"/></symbol><symbol id="puhelin-tarkistus-18" viewBox="0 0 18 18" fill="currentColor"><path d="M14 10c-2.2 0-4 1.8-4 4 0 .5.1 1 .3 1.4-3.6-1.2-6.5-4-7.7-7.7.4.2.9.3 1.4.3 2.2 0 4-1.8 4-4L4 0C1.8 0 0 1.8 0 4c0 7.7 6.3 14 14 14 2.2 0 4-1.8 4-4l-4-4zM3.3 2.1l2.6 2.6C5.6 5.5 4.9 6 4 6c-1.1 0-2-.9-2-2 0-.9.5-1.6 1.3-1.9zM14 16c-1.1 0-2-.9-2-2 0-.9.5-1.6 1.3-1.9l2.6 2.6c-.3.8-1 1.3-1.9 1.3zm-1-7.6l-2.7-2.7 1.4-1.4L13 5.6l3.3-3.3 1.4 1.4L13 8.4z"/></symbol><symbol id="puhelu-lahteva-18" viewBox="0 0 18 18" fill="currentColor"><path d="M10 14c0 .5.1 1 .3 1.4-3.6-1.2-6.5-4-7.7-7.7.4.2.9.3 1.4.3 2.2 0 4-1.8 4-4L4 0C1.8 0 0 1.8 0 4c0 7.7 6.3 14 14 14 2.2 0 4-1.8 4-4l-4-4c-2.2 0-4 1.8-4 4zM3.3 2.1l2.6 2.6C5.6 5.5 4.9 6 4 6c-1.1 0-2-.9-2-2 0-.9.5-1.6 1.3-1.9zM14 16c-1.1 0-2-.9-2-2 0-.9.5-1.6 1.3-1.9l2.6 2.6c-.3.8-1 1.3-1.9 1.3zM10 0h8v8h-2V3.4l-4.3 4.3-1.4-1.4L14.6 2H10V0z"/></symbol><symbol id="puhelu-saapuva-18" viewBox="0 0 18 18" fill="currentColor"><path d="M10 14c0 .5.1 1 .3 1.4-3.6-1.2-6.5-4-7.7-7.7.4.2.9.3 1.4.3 2.2 0 4-1.8 4-4L4 0C1.8 0 0 1.8 0 4c0 7.7 6.3 14 14 14 2.2 0 4-1.8 4-4l-4-4c-2.2 0-4 1.8-4 4zM3.3 2.1l2.6 2.6C5.6 5.5 4.9 6 4 6c-1.1 0-2-.9-2-2 0-.9.5-1.6 1.3-1.9zM14 16c-1.1 0-2-.9-2-2 0-.9.5-1.6 1.3-1.9l2.6 2.6c-.3.8-1 1.3-1.9 1.3zm-.6-10H18v2h-8V0h2v4.6L16.3.3l1.4 1.4L13.4 6z"/></symbol><symbol id="pysakki-18" viewBox="0 0 18 18" fill="currentColor"><path d="M2 9v9h2v-8h12V0H2v9zm2-7h10v6H4V2zm2 2h6v2c0 .6-.4 1-1 1s-1-.4-1-1H8c0 .6-.4 1-1 1s-1-.4-1-1V4z"/></symbol><symbol id="pysakointi-18" viewBox="0 0 18 18" fill="currentColor"><path d="M0 18h18V0H0v18zM2 2h14v14H2V2zm8 2H6v10h2v-4h2c1.7 0 3-1.3 3-3s-1.3-3-3-3zm0 4H8V6h2c.6 0 1 .4 1 1s-.4 1-1 1z"/></symbol><symbol id="pysakointi-rikki-18" viewBox="0 0 18 18" fill="currentColor"><path d="M0 0v18h10c0-1.9 1.6-3.5 3.5-3.5h1v-1c0-1.9 1.6-3.5 3.5-3.5V0H0zm12.6 12.6c-1.9.3-3.5 1.7-4.2 3.4H2V2h14v6.4c-1.8.7-3.1 2.3-3.4 4.2zM10 4H6v10h2v-4h2c1.7 0 3-1.3 3-3s-1.3-3-3-3zm0 4H8V6h2c.6 0 1 .4 1 1s-.4 1-1 1z"/></symbol><symbol id="radat-18" viewBox="0 0 18 18" fill="currentColor"><path d="M.69 11.051L16.7 5.042l.702 1.872-16.009 6.01z"/></symbol><symbol id="radiovalinta-18" viewBox="0 0 18 18" fill="currentColor"><path d="M9 18c-5 0-9-4-9-9s4-9 9-9 9 4 9 9-4 9-9 9zM9 2C5.1 2 2 5.1 2 9s3.1 7 7 7 7-3.1 7-7-3.1-7-7-7z"/></symbol><symbol id="radiovalinta-valittu-18" viewBox="0 0 18 18" fill="currentColor"><path d="M9 0C4 0 0 4 0 9s4 9 9 9 9-4 9-9-4-9-9-9zm0 16c-3.9 0-7-3.1-7-7s3.1-7 7-7 7 3.1 7 7-3.1 7-7 7zm4-7c0 2.2-1.8 4-4 4s-4-1.8-4-4 1.8-4 4-4 4 1.8 4 4z"/></symbol><symbol id="raideleveyden-vaihto-18" viewBox="0 0 18 18" fill="currentColor"><path d="M14.3 6H16V4h-2V2h2V0H2v2h2v2H2v2h1.7l-1.5 6H0v2h2v2H0v2h18v-2h-2v-2h2v-2h-2.2l-1.5-6zM6 2h6v2H6V2zm-.2 4h6.5l1.5 6H4.3l1.5-6zM14 16H4v-2h10v2z"/></symbol><symbol id="raidemateriaali-18" viewBox="0 0 18 18" fill="currentColor"><path d="M4 18h2v-2h6v2h2v-2h2v-2h-2v-4h2V8h-2V4h2V2h-2V0h-2v2H6V0H4v2H2v2h2v4H2v2h2v4H2v2h2v2zM6 4h6v4H6V4zm0 6h6v4H6v-4z"/></symbol><symbol id="raili-18" viewBox="0 0 18 18" fill="currentColor"><path d="M12 2V0h-2v2H6c-1.1 0-2 .9-2 2v12c0 1.1.9 2 2 2h6c1.1 0 2-.9 2-2V4c0-1.1-.9-2-2-2zm0 2v4H6V4h6zm-2 6h2v2h-2v-2zm-2 2H6v-2h2v2zm-2 2h2v2H6v-2zm4 2v-2h2v2h-2z"/></symbol><symbol id="raiteet-18" viewBox="0 0 18 18" fill="currentColor"><path d="M1.4 12.9L.7 11l16-6 .7 1.9-16 6zm16-1l-.7-1.9-16 6 .7 1.9 16-6zm0-10L16.7 0 .7 6l.7 1.9 16-6z"/></symbol><symbol id="rasti-18" viewBox="0 0 18 18" fill="currentColor"><path d="M16.1 3.3l-1.4-1.4L9 7.6 3.3 1.9 1.9 3.3 7.6 9l-5.7 5.7 1.4 1.4L9 10.4l5.7 5.7 1.4-1.4L10.4 9z"/></symbol><symbol id="rata-18" viewBox="0 0 18 18" fill="currentColor"><path d="M15 0c-1.7 0-3 1.3-3 3 0 .5.1.9.3 1.3l-2 2C9.9 6.1 9.5 6 9 6 7.3 6 6 7.3 6 9c0 .5.1.9.3 1.3l-2 2c-.4-.2-.8-.3-1.3-.3-1.7 0-3 1.3-3 3s1.3 3 3 3 3-1.3 3-3c0-.5-.1-.9-.3-1.3l2-2c.4.2.8.3 1.3.3 1.7 0 3-1.3 3-3 0-.5-.1-.9-.3-1.3l2-2c.4.2.8.3 1.3.3 1.7 0 3-1.3 3-3s-1.3-3-3-3zM3 16c-.6 0-1-.4-1-1s.4-1 1-1 1 .4 1 1-.4 1-1 1zm6-6c-.6 0-1-.4-1-1s.4-1 1-1 1 .4 1 1-.4 1-1 1zm6-6c-.6 0-1-.4-1-1s.4-1 1-1 1 .4 1 1-.4 1-1 1z"/></symbol><symbol id="rata-osa-18" viewBox="0 0 18 18" fill="currentColor"><path d="M15 0c-1.7 0-3 1.3-3 3 0 .5.1.9.3 1.3l-.8.8c-.2-.1-.3-.1-.5-.1-1.1 0-2 .9-2 2 0 .2 0 .3.1.5L7.5 9.1C7.3 9 7.2 9 7 9c-1.1 0-2 .9-2 2 0 .2 0 .3.1.5l-.8.8c-.4-.2-.8-.3-1.3-.3-1.7 0-3 1.3-3 3s1.3 3 3 3 3-1.3 3-3c0-.5-.1-.9-.3-1.3l.8-.8c.2.1.3.1.5.1 1.1 0 2-.9 2-2 0-.2 0-.3-.1-.5l1.6-1.6c.2.1.3.1.5.1 1.1 0 2-.9 2-2 0-.2 0-.3-.1-.5l.8-.8c.4.2.8.3 1.3.3 1.7 0 3-1.3 3-3s-1.3-3-3-3zM3 16c-.6 0-1-.4-1-1s.4-1 1-1 1 .4 1 1-.4 1-1 1zM15 4c-.6 0-1-.4-1-1s.4-1 1-1 1 .4 1 1-.4 1-1 1z"/></symbol><symbol id="rata-risteys-18" viewBox="0 0 18 18" fill="currentColor"><path d="M15 0c-1.7 0-3 1.3-3 3 0 .5.1.9.3 1.3l-8 8c-.1-.1-.2-.1-.3-.1V5.8C5.2 5.4 6 4.3 6 3c0-1.7-1.3-3-3-3S0 1.3 0 3c0 1.3.8 2.4 2 2.8v6.4c-1.2.4-2 1.5-2 2.8 0 1.7 1.3 3 3 3s3-1.3 3-3c0-.5-.1-.9-.3-1.3l8-8c.4.2.8.3 1.3.3 1.7 0 3-1.3 3-3s-1.3-3-3-3zM3 2c.6 0 1 .4 1 1s-.4 1-1 1-1-.4-1-1 .4-1 1-1zm0 14c-.6 0-1-.4-1-1s.4-1 1-1 1 .4 1 1-.4 1-1 1zM15 4c-.6 0-1-.4-1-1s.4-1 1-1 1 .4 1 1-.4 1-1 1z"/></symbol><symbol id="rata-sivuraide-18" viewBox="0 0 18 18" fill="currentColor"><path d="M15 0c-1.3 0-2.4.8-2.8 2H8c-.3 0-.5.1-.7.3l-5 5c-.2.2-.3.4-.3.7v4.2c-1.2.4-2 1.5-2 2.8 0 1.7 1.3 3 3 3s3-1.3 3-3c0-.5-.1-.9-.3-1.3l8-8c.4.2.8.3 1.3.3 1.7 0 3-1.3 3-3s-1.3-3-3-3zM3 16c-.6 0-1-.4-1-1s.4-1 1-1 1 .4 1 1-.4 1-1 1zm9.3-11.7l-8 8c-.1-.1-.2-.1-.3-.1V8.4L8.4 4h3.8c0 .1.1.2.1.3zM15 4c-.6 0-1-.4-1-1s.4-1 1-1 1 .4 1 1-.4 1-1 1z"/></symbol><symbol id="rata-vali-18" viewBox="0 0 18 18" fill="currentColor"><path d="M15 0c-1.7 0-3 1.3-3 3 0 .5.1.9.3 1.3l-8 8c-.4-.2-.8-.3-1.3-.3-1.7 0-3 1.3-3 3s1.3 3 3 3 3-1.3 3-3c0-.5-.1-.9-.3-1.3l8-8c.4.2.8.3 1.3.3 1.7 0 3-1.3 3-3s-1.3-3-3-3zM3 16c-.6 0-1-.4-1-1s.4-1 1-1 1 .4 1 1-.4 1-1 1zM15 4c-.6 0-1-.4-1-1s.4-1 1-1 1 .4 1 1-.4 1-1 1z"/></symbol><symbol id="rata-yhdista-18" viewBox="0 0 18 18" fill="currentColor"><path d="M18 12V6h-8v-.2c1.2-.4 2-1.5 2-2.8 0-1.7-1.3-3-3-3S6 1.3 6 3c0 1.3.8 2.4 2 2.8V6H0v6h4v.2c-1.2.4-2 1.5-2 2.8 0 1.7 1.3 3 3 3s3-1.3 3-3c0-1.3-.8-2.4-2-2.8V12h6v.2c-1.2.4-2 1.5-2 2.8 0 1.7 1.3 3 3 3s3-1.3 3-3c0-1.3-.8-2.4-2-2.8V12h4zM9 2c.6 0 1 .4 1 1s-.4 1-1 1-1-.4-1-1 .4-1 1-1zM2 8h14v2H2V8zm3 8c-.6 0-1-.4-1-1s.4-1 1-1 1 .4 1 1-.4 1-1 1zm8 0c-.6 0-1-.4-1-1s.4-1 1-1 1 .4 1 1-.4 1-1 1z"/></symbol><symbol id="ratapihakehitys-18" viewBox="0 0 18 18" fill="currentColor"><path d="M0 0v18h18V0H0zm16 7.8l-2 .8V8h-4v-.8L16 5v2.8zm-8 3L2 13v-2.9l2-.8v.7h4v.8zM8 8H6V6h2v2zm2 2h2v2h-2v-2zm6-8v.8L10 5V4H4v3.3l-2 .8V2h14zM2 16v-.8L8 13v1h6v-3.3l2-.8V16H2z"/></symbol><symbol id="ratas-18" viewBox="0 0 18 18" fill="currentColor"><path d="M18 10V8h-2.1c-.2-1.2-.6-2.3-1.3-3.2l1.5-1.5-1.4-1.4-1.5 1.5c-.9-.7-2-1.2-3.2-1.3V0H8v2.1c-1.2.2-2.3.6-3.2 1.3L3.3 1.9 1.9 3.3l1.5 1.5c-.7.9-1.1 2-1.3 3.2H0v2h2.1c.2 1.2.6 2.3 1.3 3.2l-1.5 1.5 1.4 1.4 1.5-1.5c.9.7 2 1.2 3.2 1.3V18h2v-2.1c1.2-.2 2.3-.6 3.2-1.3l1.5 1.5 1.4-1.4-1.5-1.5c.7-.9 1.2-2 1.3-3.2H18zm-9 4c-2.8 0-5-2.2-5-5s2.2-5 5-5 5 2.2 5 5-2.2 5-5 5z"/></symbol><symbol id="ratatyo-18" viewBox="0 0 18 18" fill="currentColor"><path d="M6.3 10.3l-2 2c-.4-.2-.8-.3-1.3-.3-1.7 0-3 1.3-3 3s1.3 3 3 3 3-1.3 3-3c0-.5-.1-.9-.3-1.3l2-2-1.4-1.4zM3 16c-.6 0-1-.4-1-1s.4-1 1-1 1 .4 1 1-.4 1-1 1zm8.7-8.3l2-2c.4.2.8.3 1.3.3 1.7 0 3-1.3 3-3s-1.3-3-3-3-3 1.3-3 3c0 .5.1.9.3 1.3l-2 2 1.4 1.4zM15 2c.6 0 1 .4 1 1s-.4 1-1 1-1-.4-1-1 .4-1 1-1zm0 8.8l-1.4 1.4L4.4 3l1.4-1.4L4.4.2.2 4.4l1.4 1.4L3 4.4l9.2 9.2-1.4 1.4 2.1 2.1c.6.6 1.4.9 2.1.9s1.5-.3 2.1-.9c.6-.6.9-1.3.9-2.1s-.3-1.6-.9-2.1L15 10.8zm.7 4.9c-.4.4-1 .4-1.4 0l-.7-.7 1.4-1.4.7.7c.2.2.3.4.3.7s-.1.5-.3.7z"/></symbol><symbol id="reika-18" viewBox="0 0 18 18" fill="currentColor"><path d="M9 3.4L3.4.4l1.1 6.2L0 11l9 6.5 2.8-5.6L18 11 14.6.4 9 3.4zm2.5 6.5l-1 .2-.5.9-1.7 3.5-5.2-3.8L5.9 8l.8-.7-.2-1-.4-2.2 2 1 .9.5.9-.5 3.5-1.8 2 6.1-3.9.5z"/></symbol><symbol id="reikajono-18" viewBox="0 0 18 18" fill="currentColor"><path d="M12 9.7l-3 2.2-.9-1.9L6 9.7l1.1-3.5 1.9 1 1.9-1-.4 2.1L12 9.7zm3 2.6l-.9 1.9-2.1.3 1.5 1.5-.4 2h3.7l-.4-2.1 1.5-1.5-2.9-2.1zM4.5 2.1L4.9 0H1.1l.4 2.1L0 3.5l3 2.2.9-1.9L6 3.5 4.5 2.1z"/></symbol><symbol id="reunapaalu-lika-18" viewBox="0 0 18 18" fill="currentColor"><path d="M10 10h2v8H6v-8h2v6h2v-6zm2.9-8.4c2.2 2.2 1.3 4.5 1.3 4.6-.5 1.2-1.3 2-2.2 2.2h-.4c-.6 0-1.2-.2-1.6-.7-.5-.5-1.3-.5-1.8 0-.7.7-1.4.9-2.2.8-.9-.2-1.8-1-2.2-2.2 0-.1-.9-2.4 1.3-4.6 2.2-2.2 5.6-2.2 7.8-.1zM11.5 3c-1.4-1.4-3.6-1.4-5 0-1.2 1.3-.8 2.5-.8 2.5.3.7.6.9.8 1 0 0 .1 0 .2-.1.6-.6 1.5-1 2.3-1s1.7.3 2.3 1c.1.1.2.1.2.1.1 0 .5-.3.8-1 .1-.1.4-1.2-.8-2.5z"/></symbol><symbol id="reunapaalu-rikki-18" viewBox="0 0 18 18" fill="currentColor"><path d="M12 10V0H6v18h6c-1.1 0-2-.9-2-2s.9-2 2-2c-1.1 0-2-.9-2-2s.9-2 2-2zm-2-8v1.6l-2 2V2h2zM8 12c0 .7.2 1.4.5 2-.3.6-.5 1.3-.5 2V8.4l2-2v2.1c-1.2.7-2 2-2 3.5z"/></symbol><symbol id="reunapaalu-vino-18" viewBox="0 0 18 18" fill="currentColor"><path d="M.5 13.2l4.2 4.2L17.5 4.8 13.3.6.5 13.2zm2.8 0l5.4-5.4h2.8l-6.8 6.8-1.4-1.4zm10.2-7.3h-2.8l2.5-2.5 1.4 1.4-1.1 1.1z"/></symbol><symbol id="reunapalle-18" viewBox="0 0 18 18" fill="currentColor"><path d="M0 14h2v4H0v-4zm0-3h2V7H0v4zm0-7h2V0H0v4zm10 0V0H8v18h2c0-4.4 3.6-8 8-8V8c-3.3 0-6.2 1.6-8 4v-2c0-4.4 3.6-8 8-8V0c-3.3 0-6.2 1.6-8 4z"/></symbol><symbol id="reunapuute-18" viewBox="0 0 18 18" fill="currentColor"><path d="M8 0h2v18H8V0zM0 18h2v-4H0v4zm0-7h2V7H0v4zm0-7h2V0H0v4zm13.3-2.3c1.8 1.8 1.8 4.8 0 6.6a6.64 6.64 0 0 0 0 9.4l1.4-1.4c-1.8-1.8-1.8-4.8 0-6.6 2.6-2.6 2.6-6.8 0-9.4l-1.4 1.4z"/></symbol><symbol id="roskakatos-18" viewBox="0 0 18 18" fill="currentColor"><path d="M8 4v2H4v12h10V6h-4V4H8zm4 4v8H6V8h6zm-2 6H8v-4h2v4zM0 18V4l9-4 9 4v14h-2V5.3L9 2.2 2 5.3V18H0z"/></symbol><symbol id="roskakori-18" viewBox="0 0 18 18" fill="currentColor"><path d="M18 2h-6V0H6v2H0v2h2v14h14V4h2V2zm-4 14H4V4h10v12zm-8-2V6h2v8H6zm6 0h-2V6h2v8z"/></symbol><symbol id="rumpu-tukossa-18" viewBox="0 0 18 18" fill="currentColor"><path d="M9 4c-3.9 0-7 3.1-7 7s3.1 7 7 7 7-3.1 7-7-3.1-7-7-7zm0 12c-2.8 0-5-2.2-5-5s2.2-5 5-5 5 2.2 5 5-2.2 5-5 5zm2.8-6.4L10.4 11l1.4 1.4-1.4 1.4L9 12.4l-1.4 1.4-1.4-1.4L7.6 11 6.2 9.6l1.4-1.4L9 9.6l1.4-1.4 1.4 1.4zM0 0h18v2H0V0z"/></symbol><symbol id="sahko-z-18" viewBox="0 0 18 18" fill="currentColor"><path d="M14 18H2.2l10-16H4V0h11.8l-10 16H14z"/></symbol><symbol id="sahkoposti-18" viewBox="0 0 18 18" fill="currentColor"><path d="M18 9c0-5-4-9-9-9S0 4 0 9s4 9 9 9v-2c-3.9 0-7-3.1-7-7s3.1-7 7-7 7 3.1 7 7c0 1.6-.5 3.1-1.5 4.3-.9-1.2-1.5-2.7-1.5-4.3 0-.8.1-1.6.4-2.3-.3-.7-.8-1.3-1.4-1.7-.2.3-.3.6-.4.9C10.9 5.4 10 5 9 5 6.8 5 5 6.8 5 9s1.8 4 4 4c1 0 1.8-.4 2.5-.9.6 1.6 1.6 3 3 4 .3-.2.6-.5.9-.8C17.1 13.7 18 11.4 18 9zm-9 2c-1.1 0-2-.9-2-2s.9-2 2-2 2 .9 2 2-.9 2-2 2z"/></symbol><symbol id="salama-18" viewBox="0 0 18 18" fill="currentColor"><path d="M9.2 2l-2 6h4.5L10 10H4.8l2.7-8h1.7M12 0H6L2 12h6l-2 6L16 6h-6l2-6z"/></symbol><symbol id="satelliitti-18" viewBox="0 0 18 18" fill="currentColor"><path d="M11 9.6l6.7 6.7-1.4 1.4-5.3-5.3-1.3 1.3-1.4-1.4L11 9.6zM.3 16.3l1.4 1.4L5 14.4l3.3 3.3 1.4-1.4L5 11.6.3 16.3zM2 0H0v2c1.1 0 2-.9 2-2zm4 0H4c0 2.2-1.8 4-4 4v2c3.3 0 6-2.7 6-6zm4 0H8c0 4.4-3.6 8-8 8v2c5.5 0 10-4.5 10-10z"/></symbol><symbol id="saumavirhe-18" viewBox="0 0 18 18" fill="currentColor"><path d="M16 .6L8.6 8H6c-3.3 0-6 2.7-6 6v4h2v-.6L9.4 10H12c3.3 0 6-2.7 6-6V0h-2v.6zm-14 14V14c0-2.2 1.8-4 4-4h.6L2 14.6zM12 8h-.6L16 3.4V4c0 2.2-1.8 4-4 4z"/></symbol><symbol id="sijainti-18" viewBox="0 0 18 18" fill="currentColor"><path d="M9 2c2.2 0 4 1.8 4 4 0 .5-.1 1-.3 1.5L9 14 5.3 7.5C5.1 7 5 6.5 5 6c0-2.2 1.8-4 4-4m0-2C5.7 0 3 2.7 3 6c0 .8.2 1.6.5 2.3L9 18l5.5-9.7c.3-.7.5-1.5.5-2.3 0-3.3-2.7-6-6-6z"/></symbol><symbol id="silma-18" viewBox="0 0 18 18" fill="currentColor"><path d="M9 5c1.1 0 2.1.4 2.8 1.2L14.7 9l-2.8 2.8c-.8.8-1.8 1.2-2.9 1.2-1.1 0-2.1-.4-2.8-1.2L3.3 9l2.8-2.8C6.9 5.4 7.9 5 9 5m0-2c-1.5 0-3.1.6-4.2 1.8L.5 9l4.2 4.2C5.9 14.4 7.5 15 9 15s3.1-.6 4.2-1.8L17.5 9l-4.2-4.2C12.1 3.6 10.5 3 9 3zm0 4c-1.1 0-2 .9-2 2s.9 2 2 2 2-.9 2-2-.9-2-2-2z"/></symbol><symbol id="soittokello-18" viewBox="0 0 18 18" fill="currentColor"><path d="M15 10V6c0-3.3-2.7-6-6-6S3 2.7 3 6v4c0 1.7-1.3 3-3 3v2h6c0 1.7 1.3 3 3 3s3-1.3 3-3h6v-2c-1.7 0-3-1.3-3-3zm-6 6c-.6 0-1-.4-1-1h2c0 .6-.4 1-1 1zm-5-3c.6-.8 1-1.9 1-3V6c0-2.2 1.8-4 4-4s4 1.8 4 4v4c0 1.1.4 2.2 1 3H4z"/></symbol><symbol id="suunta-alas-18" viewBox="0 0 18 18" fill="currentColor"><path d="M9 13.6L1.9 6.5l1.4-1.4L9 10.8l5.7-5.7 1.4 1.4z"/></symbol><symbol id="suunta-alkuun-18" viewBox="0 0 18 18" fill="currentColor"><path d="M13.7 16.1L6.6 9l7.1-7.1 1.4 1.4L9.4 9l5.7 5.7-1.4 1.4zM4 0H2v18h2V0z"/></symbol><symbol id="suunta-loppuun-18" viewBox="0 0 18 18" fill="currentColor"><path d="M4.3 16.1l-1.4-1.4L8.6 9 2.9 3.3l1.4-1.4L11.4 9l-7.1 7.1zM16 0h-2v18h2V0z"/></symbol><symbol id="suunta-oikea-18" viewBox="0 0 18 18" fill="currentColor"><path d="M6.5 16.1l-1.4-1.4L10.8 9 5.1 3.3l1.4-1.4L13.6 9z"/></symbol><symbol id="suunta-vasen-18" viewBox="0 0 18 18" fill="currentColor"><path d="M11.5 16.1L4.4 9l7.1-7.1 1.4 1.4L7.2 9l5.7 5.7z"/></symbol><symbol id="suunta-ylos-18" viewBox="0 0 18 18" fill="currentColor"><path d="M14.7 12.9L9 7.2l-5.7 5.7-1.4-1.4L9 4.4l7.1 7.1z"/></symbol><symbol id="suurennuslasi-18" viewBox="0 0 18 18" fill="currentColor"><path d="M17.7 16.3l-5.1-5.1C13.5 10 14 8.6 14 7c0-3.9-3.1-7-7-7S0 3.1 0 7s3.1 7 7 7c1.6 0 3-.5 4.2-1.4l5.1 5.1 1.4-1.4zM2 7c0-2.8 2.2-5 5-5s5 2.2 5 5-2.2 5-5 5-5-2.2-5-5z"/></symbol><symbol id="tahtain-18" viewBox="0 0 18 18" fill="currentColor"><path d="M18 8h-1.1c-.5-3.6-3.3-6.5-6.9-6.9V0H8v1.1C4.4 1.5 1.5 4.4 1.1 8H0v2h1.1c.5 3.6 3.3 6.5 6.9 6.9V18h2v-1.1c3.6-.5 6.5-3.3 6.9-6.9H18V8zm-8 6.9L9 11l-1 3.9c-2.5-.4-4.5-2.4-4.9-4.9L7 9 3.1 8C3.5 5.5 5.5 3.5 8 3.1L9 7l1-3.9c2.5.4 4.5 2.4 4.9 4.9L11 9l3.9 1c-.4 2.5-2.4 4.5-4.9 4.9z"/></symbol><symbol id="tahti-18" viewBox="0 0 18 18" fill="currentColor"><path d="M9 7l.7 2h2.1l-1.7 1.3.7 2L9 11l-1.7 1.3.7-2L6.2 9h2.1L9 7M9 .4L6.9 7H0l5.6 4-2.1 6.5 5.5-4 5.6 4.1-2.2-6.6L18 7h-6.9L9 .4z"/></symbol><symbol id="tallenna-18" viewBox="0 0 18 18" fill="currentColor"><path d="M8 0v9.6L6.9 8.5 5.5 9.9 9 13.4l3.5-3.5-1.4-1.4L10 9.6V2h6v14H2V2h4V0H0v18h18V0z"/></symbol><symbol id="talo-18" viewBox="0 0 18 18" fill="currentColor"><path d="M9 2.8l7 7V16h-4v-6H6v6H2V9.8l7-7M9 0L0 9v9h8v-6h2v6h8V9L9 0z"/></symbol><symbol id="tankkauspiste-18" viewBox="0 0 18 18" fill="currentColor"><path d="M14 0h-2v2h2c1.1 0 2 .9 2 2h-2c-1.1 0-2 .9-2 2v4c0 1.1.9 2 2 2h2c0 2.2-1.8 4-4 4s-4-1.8-4-4V8h2V0H0v8h2v10h6v-1.5c1.1 1 2.5 1.5 4 1.5 3.3 0 6-2.7 6-6V4c0-2.2-1.8-4-4-4zM6 16H4V8h2v8zM2 6V2h6v4H2zm14 4h-2V6h2v4z"/></symbol><symbol id="tarkistus-18" viewBox="0 0 18 18" fill="currentColor"><path d="M6.2 15.7L.5 10.1l1.4-1.5 4.3 4.3L16.1 3l1.4 1.4z"/></symbol><symbol id="tasoristeys-18" viewBox="0 0 18 18" fill="currentColor"><path d="M18 8h-4V0h-2v8H6V0H4v8H0v2h4v8h2v-8h6v8h2v-8h4z"/></symbol><symbol id="tie-rikki-18" viewBox="0 0 18 18" fill="currentColor"><path d="M0 0h2v18H0V0zm16 8.4c-1.8.7-3.1 2.3-3.4 4.2-1.1.2-2.1.7-2.8 1.4H8v4h2c0-1.9 1.6-3.5 3.5-3.5h1v-1c0-1.9 1.6-3.5 3.5-3.5V0h-2v8.4zM10 7H8v4h2V7zm0-7H8v4h2V0z"/></symbol><symbol id="tiedosto-18" viewBox="0 0 18 18" fill="currentColor"><path d="M17 18H1V0h11.4L17 4.6V18zM3 16h12V5.4L11.6 2H3v14z"/></symbol><symbol id="tiedosto-info-18" viewBox="0 0 18 18" fill="currentColor"><path d="M17 18H1V0h11.4L17 4.6V18zM3 16h12V5.4L11.6 2H3v14zM9 3.5c-.8 0-1.5.7-1.5 1.5S8.2 6.5 9 6.5s1.5-.7 1.5-1.5S9.8 3.5 9 3.5zM10 8H8v6h2V8z"/></symbol><symbol id="tiedosto-sisalto-18" viewBox="0 0 18 18" fill="currentColor"><path d="M11 4l2 2H5V4h6zm6 .6L12.4 0H1v18h16V4.6zM3 2h8.6L15 5.4V16H3V2zm10 6H5v2h8V8z"/><path d="M5 12h8v2H5z"/></symbol><symbol id="tiedostolataus-alas-18" viewBox="0 0 18 18" fill="currentColor"><path d="M9 13.4L5.5 9.9l1.4-1.4L8 9.6V0h2v9.6l1.1-1.1 1.4 1.4L9 13.4zm7-1.4v4H2v-4H0v6h18v-6h-2z"/></symbol><symbol id="tiedostolataus-ylos-18" viewBox="0 0 18 18" fill="currentColor"><path d="M6.9 5.5L5.5 4.1 9 .6l3.5 3.5-1.4 1.4L10 4.4V14H8V4.4L6.9 5.5zM16 12v4H2v-4H0v6h18v-6h-2z"/></symbol><symbol id="tiemerkinta-18" viewBox="0 0 18 18" fill="currentColor"><path d="M2 18H0V0h2v18zm14 0h2V0h-2v18zm-6-4H8v4h2v-4zm0-7H8v4h2V7zm0-7H8v4h2V0z"/></symbol><symbol id="tietokanta-18" viewBox="0 0 18 18" fill="currentColor"><path d="M9 2c4.2 0 7 1.8 7 3s-2.8 3-7 3-7-1.8-7-3 2.8-3 7-3m0-2C4 0 0 2.2 0 5s4 5 9 5 9-2.2 9-5-4-5-9-5zm9 7c0 2.8-4 5-9 5S0 9.8 0 7v2c0 2.8 4 5 9 5s9-2.2 9-5V7zm0 4c0 2.8-4 5-9 5s-9-2.2-9-5v2c0 2.8 4 5 9 5s9-2.2 9-5v-2z"/></symbol><symbol id="tilirataosa-18" viewBox="0 0 18 18" fill="currentColor"><path d="M15 0c-1.7 0-3 1.3-3 3 0 .5.1.9.3 1.3L10 6.6V0H0v10h6.6l-2.3 2.3c-.4-.2-.8-.3-1.3-.3-1.7 0-3 1.3-3 3s1.3 3 3 3 3-1.3 3-3c0-.5-.1-.9-.3-1.3L9.4 10h.6v-.6l3.7-3.7c.4.2.8.3 1.3.3 1.7 0 3-1.3 3-3s-1.3-3-3-3zM2 2h6v6H2V2zm1 14c-.6 0-1-.4-1-1s.4-1 1-1 1 .4 1 1-.4 1-1 1zM15 4c-.6 0-1-.4-1-1s.4-1 1-1 1 .4 1 1-.4 1-1 1zM4 4h2v2H4V4z"/></symbol><symbol id="toimialue-18" viewBox="0 0 18 18" fill="currentColor"><path d="M18 8h-4V5H4v3H0v2h4v3h10v-3h4V8zm-6 3H6V7h6v4z"/></symbol><symbol id="toimialueet-18" viewBox="0 0 18 18" fill="currentColor"><path d="M18 16v2H0v-2h9.8c-1.1-.6-2.1-1.2-3.1-2H0v-2h4.6C1.8 8.8 0 4.6 0 0h2c0 8.8 7.2 16 16 16zM6 0H4c0 7.7 6.3 14 14 14v-2C11.4 12 6 6.6 6 0z"/></symbol><symbol id="toimintakortti-18" viewBox="0 0 18 18" fill="currentColor"><path d="M2 0v14h5l2 4 2-4h5V0H2zm12 12H4V2h10v10zm-2-6H6V4h6v2zm0 4H6V8h6v2z"/></symbol><symbol id="tulosta-18" viewBox="0 0 18 18" fill="currentColor"><path d="M6 6H4V0h10v6h-2V2H6v4zm12 10h-4v2H4v-2H0v-4c0-2.2 1.8-4 4-4h10c2.2 0 4 1.8 4 4v4zm-6-2H6v2h6v-2zm4-2c0-1.1-.9-2-2-2H4c-1.1 0-2 .9-2 2v2h2v-2h10v2h2v-2z"/></symbol><symbol id="tunneli-18" viewBox="0 0 18 18" fill="currentColor"><path d="M1.7 17.7L.3 16.3 2 14.6V3.4L.3 1.7 1.7.3 4 2.6v12.8l-2.3 2.3zm16-1.4L16 14.6V3.4l1.7-1.7L16.3.3 14 2.6v12.8l2.3 2.3 1.4-1.4zM8 4H6v2h2V4zm4 0h-2v2h2V4zm-4 8H6v2h2v-2zm4 0h-2v2h2v-2z"/></symbol><symbol id="turvalaitetila-18" viewBox="0 0 18 18" fill="currentColor"><path d="M0 4v14h18V4L9 0 0 4zm16 12H2V5.3l7-3.1 7 3.1V16zm-7-4.5c.8 0 1.5.7 1.5 1.5s-.7 1.5-1.5 1.5-1.5-.7-1.5-1.5.7-1.5 1.5-1.5zM8 5h2v5H8V5z"/></symbol><symbol id="tuulipussi-18" viewBox="0 0 18 18" fill="currentColor"><path d="M18 2.1L2 .1V0H0v18h2V9.9l16-2V2.1zm-8 1l2 .2v3.2l-2 .2V3.1zm-2 4l-2 .3V2.6l2 .2v4.3zm-6-5l2 .2v5.2l-2 .4V2.1zm14 4l-2 .2V3.6l2 .2v2.3z"/></symbol><symbol id="tyohenkilo-18" viewBox="0 0 18 18" fill="currentColor"><path d="M18 7h-2c0-3.9-3.1-7-7-7S2 3.1 2 7H0v2h.6c-.4.6-.6 1.3-.6 2 0 2.1 1.7 3.9 3.8 4 1 1.8 3 3 5.2 3s4.2-1.2 5.2-3c2.1-.1 3.8-1.8 3.8-4 0-.7-.2-1.4-.6-2h.6V7zM8 2.1V4h2V2.1c2.3.5 4 2.5 4 4.9H4c0-2.4 1.7-4.4 4-4.9zM3 12.7c-.6-.3-1-1-1-1.7s.4-1.4 1-1.7V12.7zM9 16c-2.2 0-4-1.8-4-4V9h8v3c0 2.2-1.8 4-4 4zm6-3.3V9.3c.6.3 1 1 1 1.7s-.4 1.4-1 1.7zM8 11c0 .6-.4 1-1 1s-1-.4-1-1 .4-1 1-1 1 .4 1 1zm4 0c0 .6-.4 1-1 1s-1-.4-1-1 .4-1 1-1 1 .4 1 1z"/></symbol><symbol id="tyokone-18" viewBox="0 0 18 18" fill="currentColor"><path d="M2 14c1.1 0 2 .9 2 2s-.9 2-2 2-2-.9-2-2 .9-2 2-2zm4 2c0 1.1.9 2 2 2s2-.9 2-2-.9-2-2-2-2 .9-2 2zm12-2c0 2.2-1.8 4-4 4h-1v-8h1V4h-2.6L8.9 6.5 10 8.8V14H0V8h4V4h3.6l.3.6L10.6 2H14V0h2v10.6c1.2.6 2 1.9 2 3.4zM8 9.2L6.4 6H6v4H2v2h6V9.2zm8 4.8c0-.7-.4-1.4-1-1.7v3.5c.6-.4 1-1.1 1-1.8z"/></symbol><symbol id="tyomaakoppi-18" viewBox="0 0 18 18" fill="currentColor"><path d="M0 4v14h18V4L9 0 0 4zm16 12H2V5.3l7-3.1 7 3.1V16zm-6-4h2c0 1.7-1.3 3-3 3s-3-1.3-3-3h2c0 .6.4 1 1 1s1-.4 1-1zM6 6h6v2h-2v4H8V8H6V6z"/></symbol><symbol id="ulkoinen-linkki-18" viewBox="0 0 18 18" fill="currentColor"><path d="M12 10l2-2v10H0V4h10L8 6H2v10h10v-6zM8 0v2h6.6l-8.3 8.3 1.4 1.4L16 3.4V10h2V0H8z"/></symbol><symbol id="urat-18" viewBox="0 0 18 18" fill="currentColor"><path d="M14 8c0 .6-.4 1-1 1s-1-.4-1-1V7H6v1c0 .6-.4 1-1 1s-1-.4-1-1V7H0v2h2.2c.4 1.2 1.5 2 2.8 2s2.4-.8 2.8-2h2.3c.4 1.2 1.5 2 2.8 2s2.4-.8 2.8-2H18V7h-4v1z"/></symbol><symbol id="vaara-korkeus-18" viewBox="0 0 18 18" fill="currentColor"><path d="M14 14h4v2h-4v-2zm-7 2h4v-2H7v2zm-7 0h4v-2H0v2zM13.9 1.5L12.5.1 9 3.6 5.5.1 4.1 1.5 6.6 4H0v2h6.6L4.1 8.5l1.4 1.4L9 6.4l3.5 3.5 1.4-1.4L11.4 6H18V4h-6.6l2.5-2.5z"/></symbol><symbol id="vaestonsuoja-18" viewBox="0 0 18 18" fill="currentColor"><path d="M0 18h18V0H0v18zM2 2h14v14H2V2zm2 11h10L9 4.3 4 13zm3.5-2L9 8.3l1.5 2.7h-3z"/></symbol><symbol id="vaihde-18" viewBox="0 0 18 18" fill="currentColor"><path d="M14 14L9.7 9.7l6-6-1.4-1.4L2.6 14H0v2h18v-2z"/></symbol><symbol id="vaihteen-kaantopainike-18" viewBox="0 0 18 18" fill="currentColor"><path d="M17.7 7.7l-1.4-1.4L6.6 16H5v-4h3V0H0v12h3v4H0v2h18v-2H9.4l8.3-8.3zM2 2h4v8H2V2zm3 2c0 .6-.4 1-1 1s-1-.4-1-1 .4-1 1-1 1 .4 1 1zm0 4c0 .6-.4 1-1 1s-1-.4-1-1 .4-1 1-1 1 .4 1 1z"/></symbol><symbol id="valikko-18" viewBox="0 0 18 18" fill="currentColor"><path d="M18 4H0V2h18v2zm0 4H0v2h18V8zm0 6H0v2h18v-2z"/></symbol><symbol id="valintaruutu-18" viewBox="0 0 18 18" fill="currentColor"><path d="M18 18H0V0h18v18zM2 16h14V2H2v14z"/></symbol><symbol id="valintaruutu-valittu-18" viewBox="0 0 18 18" fill="currentColor"><path d="M0 0v18h18V0H0zm16 16H2V2h14v14zm-3-3H5V5h8v8z"/></symbol><symbol id="valintaruutu-valittu-osa-18" viewBox="0 0 18 18" fill="currentColor"><path d="M18 18H0V0h18v18zM2 16h14V2H2v14zm11-3H5V5h8v8zm-6-2h4V7H7v4z"/></symbol><symbol id="valo-18" viewBox="0 0 18 18" fill="currentColor"><path d="M9 4C6.2 4 4 6.2 4 9s2.2 5 5 5 5-2.2 5-5-2.2-5-5-5zm0 8c-1.7 0-3-1.3-3-3s1.3-3 3-3 3 1.3 3 3-1.3 3-3 3zm-7-2H0V8h2v2zm14-2h2v2h-2V8zM3.3 13.2l1.4 1.4L3.3 16l-1.4-1.4 1.4-1.4zm11.4-8.4l-1.4-1.4L14.7 2l1.4 1.4-1.4 1.4zM8 16h2v2H8v-2zm2-14H8V0h2v2zm4.7 11.2l1.4 1.4-1.4 1.4-1.4-1.4 1.4-1.4zM3.3 4.8L1.9 3.3l1.4-1.4 1.4 1.4-1.4 1.5z"/></symbol><symbol id="valo-kielto-18" viewBox="0 0 18 18" fill="currentColor"><path d="M2 10H0V8h2v2zm14 0h2V8h-2v2zm-8 8h2v-2H8v2zm2-18H8v2h2V0zm3.2 14.7l1.4 1.4 1.4-1.4-1.4-1.4-1.4 1.4zM4.8 3.3L3.3 1.9 1.9 3.3l1.4 1.4 1.5-1.4zm-.7 6.4l5.6-5.6C9.5 4 9.2 4 9 4 6.2 4 4 6.2 4 9c0 .2 0 .5.1.7zm9.8-1.4l-5.6 5.6c.2.1.5.1.7.1 2.8 0 5-2.2 5-5 0-.2 0-.5-.1-.7zm2.4-8l-16 16 1.4 1.4 16-16L16.3.3z"/></symbol><symbol id="valo-pieni-18" viewBox="0 0 18 18" fill="currentColor"><path d="M9 12c-1.7 0-3-1.3-3-3s1.3-3 3-3 3 1.3 3 3-1.3 3-3 3zm0-4c-.6 0-1 .4-1 1s.4 1 1 1 1-.4 1-1-.4-1-1-1zm1 6H8v2h2v-2zm0-12H8v2h2V2zm0 12H8v2h2v-2zm0-12H8v2h2V2zm4.7 11.2l-1.4-1.4-1.4 1.4 1.4 1.4 1.4-1.4zM6.2 4.8L4.8 3.3 3.3 4.8l1.4 1.4 1.5-1.4zM16 8h-2v2h2V8zM4 8H2v2h2V8zm10.7-3.2l-1.4-1.4-1.4 1.4 1.4 1.4 1.4-1.4zm-8.5 8.4l-1.4-1.4-1.4 1.4 1.4 1.4 1.4-1.4z"/></symbol><symbol id="varoallas-18" viewBox="0 0 18 18" fill="currentColor"><path d="M15 5c-1.7 0-3-1.3-3-3 0 1.7-1.3 3-3 3S6 3.7 6 2c0 1.7-1.3 3-3 3S0 3.7 0 2v5c0 5 4 9 9 9s9-4 9-9V2c0 1.7-1.3 3-3 3zm1 2c0 3.9-3.1 7-7 7s-7-3.1-7-7v-.1c.3.1.7.1 1 .1 1.1 0 2.2-.4 3-1 .8.6 1.9 1 3 1s2.2-.4 3-1c.8.6 1.9 1 3 1 .3 0 .7 0 1-.1V7z"/></symbol><symbol id="vaununsiirto-18" viewBox="0 0 18 18" fill="currentColor"><path d="M0 15c0 1.7 1.3 3 3 3s3-1.3 3-3-1.3-3-3-3-3 1.3-3 3zm3-1c.6 0 1 .4 1 1s-.4 1-1 1-1-.4-1-1 .4-1 1-1zM8 2H0V0h6c1.1 0 2 .9 2 2zm4.7 2.3L17.4 9l-4.7 4.7-1.4-1.4 2.3-2.3H10V8h3.6l-2.3-2.3 1.4-1.4zM6 10v2H0v-2h6zm0-8h2v8c0 1.1-.9 2-2 2V2z"/></symbol><symbol id="vaunuvaaka-18" viewBox="0 0 18 18" fill="currentColor"><path d="M0 8h1.9C.9 8 0 8.9 0 10s.9 2 2 2 2-.9 2-2c0 1.1.9 2 2 2s2-.9 2-2-.8-2-1.9-2h5.8c-1 0-1.9.9-1.9 2s.9 2 2 2 2-.9 2-2c0 1.1.9 2 2 2s2-.9 2-2-.9-1.9-1.9-2H18V0H0v8zm4 2c0-1.1-.9-2-1.9-2h3.8c-1 0-1.9.9-1.9 2zm10 0c0-1.1-.9-1.9-1.9-2h3.8c-1 0-1.9.9-1.9 2zM2 2h14v4H2V2zM0 12h18v2h-6v4h-2v-4H8v4H6v-4H0v-2z"/></symbol><symbol id="vesakko-leikkaus-18" viewBox="0 0 18 18" fill="currentColor"><path d="M11.7 6H9.2l1.2-1.2L11.7 6zM3.5 6h2.8L9 3.3 7.6 1.9 6.2 3.3 3.3.5 1.9 1.9l2.8 2.8L3.5 6zM12 6h2.8l2.7-2.7-1.4-1.4-1.4 1.4L11.9.5l-1.4 1.4 2.8 2.8L12 6zm2.5 6H9.2l5.5 5.5 1.4-1.4-2.8-2.8 1.2-1.3zM6 12H.7l5.5 5.5 1.4-1.4-2.8-2.8L6 12zM1.9 4.8L.7 6h2.5L1.9 4.8zM4 8H0v2h4V8zm3 2h4V8H7v2zm7 0h4V8h-4v2z"/></symbol><symbol id="vesilammikko-18" viewBox="0 0 18 18" fill="currentColor"><path d="M13.6 8.7c-.1-.4-.1-.8-.3-1.2L9 0 4.7 7.5c-.2.4-.2.8-.3 1.2C1.6 9.6 0 11.2 0 13c0 2.9 3.9 5 9 5s9-2.1 9-5c0-1.8-1.6-3.4-4.4-4.3zm-7.1-.3L9 4l2.5 4.4c.1.3.2.6.2.9 0 1.5-1.2 2.7-2.7 2.7s-2.7-1.2-2.7-2.7c0-.3.1-.6.2-.9zM9 16c-4 0-7-1.6-7-3 0-.8 1-1.7 2.6-2.3C5.2 12.6 6.9 14 9 14s3.8-1.4 4.4-3.3c1.6.6 2.6 1.5 2.6 2.3 0 1.4-3 3-7 3z"/></symbol><symbol id="vesipiste-18" viewBox="0 0 18 18" fill="currentColor"><path d="M17.8 13.8L15 9l-2.8 4.8c-.1.4-.2.8-.2 1.2 0 1.7 1.3 3 3 3s3-1.3 3-3c0-.4-.1-.8-.2-1.2zM15 16c-.6 0-1-.4-1-1v-.3l1-1.7 1 1.7v.3c0 .6-.4 1-1 1zM10 2C7.8 2 6 3.8 6 6v12H4v-6H2v2H0V8h2v2h2V6c0-3.3 2.7-6 6-6s6 2.7 6 6h-2c0-2.2-1.8-4-4-4z"/></symbol><symbol id="vesiviskuri-18" viewBox="0 0 18 18" fill="currentColor"><path d="M15 7l-2.8 4.8c-.1.4-.2.8-.2 1.2 0 1.7 1.3 3 3 3s3-1.3 3-3c0-.4-.1-.8-.2-1.2L15 7zm0 7c-.6 0-1-.4-1-1v-.3l1-1.7 1 1.7v.3c0 .6-.4 1-1 1zM9.4 2H12c1.1 0 2 .9 2 2h2c0-2.2-1.8-4-4-4H4C1.8 0 0 1.8 0 4v14h2V9.4L9.4 2zM4 2h2.6L2 6.6V4c0-1.1.9-2 2-2z"/></symbol><symbol id="yhteys-18" viewBox="0 0 18 18" fill="currentColor"><path d="M15.4 8h-8L12 3.4V6h2V0H8v2h2.6l-8 8h8L6 14.6V12H4v6h6v-2H7.4z"/></symbol><symbol id="yhteys-katkonainen-18" viewBox="0 0 18 18" fill="currentColor"><path d="M12 2H8V0h6v6h-2V2zM6 12H4v6h6v-2H6v-4zm4.4-7l1.3-1.3-1.4-1.4L9 3.6 10.4 5zM9 6.4L7.6 5 6.3 6.3l1.4 1.4L9 6.4zM6 8.6l-1-1L2.6 10H6V8.6zM8 10h2V8H8v2zm4-2v1.4l1 1L15.4 8H12zm-5.7 6.3l1.4 1.4L9 14.4 7.6 13l-1.3 1.3zM9 11.6l1.4 1.4 1.3-1.3-1.4-1.4L9 11.6z"/></symbol><symbol id="yllapito-18" viewBox="0 0 18 18" fill="currentColor"><path d="M3.3 15.9c.8 0 1.5-.3 2.1-.9l2.1-2.1-1.4-1.4L9 8.7l4.2 4.2 1.4-1.4-4.2-4.2 2.8-2.8 1.4 1.4L16 4.5 11.8.3l-1.4 1.4 1.4 1.4L9 5.9 3.3.2 1.9 1.6l5.7 5.7-2.8 2.8-1.5-1.4-2.1 2.1c-.6.6-.9 1.3-.9 2.1s.3 1.6.9 2.1c.6.7 1.4.9 2.1.9zm-.7-3.7l.7-.7 1.4 1.4-.7.7c-.4.4-1 .4-1.4 0-.4-.3-.4-1 0-1.4zm12.1-3.5l2.8 2.8-1.4 1.4-2.8-2.8 1.4-1.4zm-2.9 2.8l2.8 2.8-1.4 1.4-2.8-2.8 1.4-1.4z"/></symbol><symbol id="ympyra-huutomerkki-18" viewBox="0 0 18 18" fill="currentColor"><path d="M9 11.5c.8 0 1.5.7 1.5 1.5s-.7 1.5-1.5 1.5-1.5-.7-1.5-1.5.7-1.5 1.5-1.5zM10 4H8v6h2V4zm8 5c0-5-4-9-9-9S0 4 0 9s4 9 9 9 9-4 9-9zm-2 0c0 3.9-3.1 7-7 7s-7-3.1-7-7 3.1-7 7-7 7 3.1 7 7z"/></symbol><symbol id="ympyra-info-18" viewBox="0 0 18 18" fill="currentColor"><path d="M9 3.5c.8 0 1.5.7 1.5 1.5S9.8 6.5 9 6.5 7.5 5.8 7.5 5 8.2 3.5 9 3.5zM10 8H8v6h2V8zm8 1c0-5-4-9-9-9S0 4 0 9s4 9 9 9 9-4 9-9zm-2 0c0 3.9-3.1 7-7 7s-7-3.1-7-7 3.1-7 7-7 7 3.1 7 7z"/></symbol><symbol id="ympyra-kayra-18" viewBox="0 0 18 18" fill="currentColor"><path d="M9 0C4 0 0 4 0 9s4 9 9 9 9-4 9-9-4-9-9-9zm0 2c2.6 0 4.9 1.4 6.1 3.5L11 9.6l-4-4-4.9 4.9c0-.5-.1-1-.1-1.5 0-3.9 3.1-7 7-7zm0 14c-2.6 0-4.9-1.4-6.1-3.5L7 8.4l4 4 4.9-4.9c0 .5.1 1 .1 1.5 0 3.9-3.1 7-7 7z"/></symbol><symbol id="ympyra-kysymysmerkki-18" viewBox="0 0 18 18" fill="currentColor"><path d="M10 11H8v-.3c0-.8.3-1.6.9-2.1l.8-.8c.2-.3.3-.5.3-.8 0-.6-.4-1-1-1s-1 .4-1 1H6c0-1.7 1.3-3 3-3s3 1.3 3 3c0 .8-.3 1.6-.9 2.1l-.8.8c-.2.2-.3.4-.3.7v.4zm-1 .5c-.8 0-1.5.7-1.5 1.5s.7 1.5 1.5 1.5 1.5-.7 1.5-1.5-.7-1.5-1.5-1.5zM18 9c0-5-4-9-9-9S0 4 0 9s4 9 9 9 9-4 9-9zm-2 0c0 3.9-3.1 7-7 7s-7-3.1-7-7 3.1-7 7-7 7 3.1 7 7z"/></symbol><symbol id="ympyra-miinus-18" viewBox="0 0 18 18" fill="currentColor"><path d="M9 18c-5 0-9-4-9-9s4-9 9-9 9 4 9 9-4 9-9 9zM9 2C5.1 2 2 5.1 2 9s3.1 7 7 7 7-3.1 7-7-3.1-7-7-7zm5 6H4v2h10V8z"/></symbol><symbol id="ympyra-plus-18" viewBox="0 0 18 18" fill="currentColor"><path d="M9 0C4 0 0 4 0 9s4 9 9 9 9-4 9-9-4-9-9-9zm0 16c-3.9 0-7-3.1-7-7s3.1-7 7-7 7 3.1 7 7-3.1 7-7 7zm5-8v2h-4v4H8v-4H4V8h4V4h2v4h4z"/></symbol></svg>