<svg xmlns="http://www.w3.org/2000/svg"><symbol id="aani-miinus-36" viewBox="0 0 36 36" fill="currentColor"><path d="M0 10v16h10l10 10V0L10 10H0zm11.4 1.4L18 4.8v26.3l-6.6-6.6-.6-.5H2V12h8.8l.6-.6zM24 17h12v2H24v-2z"/></symbol><symbol id="aani-plus-36" viewBox="0 0 36 36" fill="currentColor"><path d="M0 10v16h10l10 10V0L10 10H0zm11.4 1.4L18 4.8v26.3l-6.6-6.6-.6-.5H2V12h8.8l.6-.6zM31 17h5v2h-5v5h-2v-5h-5v-2h5v-5h2v5z"/></symbol><symbol id="aani-pois-36" viewBox="0 0 36 36" fill="currentColor"><path d="M0 10v16h10l10 10V0L10 10H0zm11.4 1.4L18 4.8v26.3l-6.6-6.6-.6-.5H2V12h8.8l.6-.6zM35 14.5L31.4 18l3.5 3.5-1.4 1.4-3.5-3.5-3.5 3.5-1.4-1.4 3.5-3.5-3.5-3.5 1.4-1.4 3.5 3.5 3.5-3.5 1.5 1.4z"/></symbol><symbol id="aita-36" viewBox="0 0 36 36" fill="currentColor"><path d="M36 10V8h-6V1l-1-1-1 1v7h-9V1l-1-1-1 1v7H8V1L7 0 6 1v7H0v2h6v18H0v2h6v6h2v-6h9v6h2v-6h9v6h2v-6h6v-2h-6V10h6zM8 28V10h9v18H8zm20 0h-9V10h9v18z"/></symbol><symbol id="akselinlaskija-36" viewBox="0 0 36 36" fill="currentColor"><path d="M25 10c-3 0-5.6 1.7-7 4.1-1.4-2.5-4-4.1-7-4.1-4.1 0-7.4 3.1-7.9 7H0v2h3.1c.5 3.9 3.9 7 7.9 7 3 0 5.6-1.7 7-4.1 1.4 2.5 4 4.1 7 4.1 4.1 0 7.4-3.1 7.9-7H36v-2h-3.1c-.5-3.9-3.8-7-7.9-7zM11 24c-3.3 0-6-2.7-6-6s2.7-6 6-6 6 2.7 6 6-2.7 6-6 6zm14 0c-3.3 0-6-2.7-6-6s2.7-6 6-6 6 2.7 6 6-2.7 6-6 6z"/></symbol><symbol id="astinlauta-36" viewBox="0 0 36 36" fill="currentColor"><path d="M0 20h12v2H0v-2zm8-8h9v24h2V12h9v-2H8v2zM24 2h12V0H24v2z"/></symbol><symbol id="baliisit-36" viewBox="0 0 36 36" fill="currentColor"><path d="M0 28.4L18 18 0 7.6zM18 18v10.4L36 18 18 7.6z"/></symbol><symbol id="bussi-36" viewBox="0 0 36 36" fill="currentColor"><path d="M11 23.5c0 1.1-.9 2-2 2s-2-.9-2-2 .9-2 2-2 2 .9 2 2zm16-2c-1.1 0-2 .9-2 2s.9 2 2 2 2-.9 2-2-.9-2-2-2zM34 4v24c0 2.2-1.8 4-4 4v4h-2v-4H8v4H6v-4c-2.2 0-4-1.8-4-4V4c0-2.2 1.8-4 4-4h24c2.2 0 4 1.8 4 4zM4 4v11h28V4c0-1.1-.9-2-2-2H6c-1.1 0-2 .9-2 2zm28 24V17H4v11c0 1.1.9 2 2 2h24c1.1 0 2-.9 2-2z"/></symbol><symbol id="epatasa-36" viewBox="0 0 36 36" fill="currentColor"><path d="M24 19.6l-6-6-6 6-6-6-5.7 5.7 1.4 1.4L6 16.4l6 6 6-6 6 6 6-6 4.3 4.3 1.4-1.4-5.7-5.7z"/></symbol><symbol id="epatasaiset-reunat-36" viewBox="0 0 36 36" fill="currentColor"><path d="M17 28h2v8h-2v-8zm0-6h2v-8h-2v8zm0-14h2V0h-2v8zM3.7.3L2.3 1.7 6.6 6l-6 6 6 6-6 6 6 6-4.3 4.3 1.4 1.4L9.4 30l-6-6 6-6-6-6 6-6L3.7.3zm26 0l-1.4 1.4L32.6 6l-6 6 6 6-6 6 6 6-4.3 4.3 1.4 1.4 5.7-5.7-6-6 6-6-6-6 6-6L29.7.3z"/></symbol><symbol id="halkeama-36" viewBox="0 0 36 36" fill="currentColor"><path d="M21.7 1.7L20.3.3 3.6 17l9 9-8.3 8.3 1.4 1.4 9.7-9.7-9-9 7.1-7.1L29.6 26l-8.3 8.3 1.4 1.4 9.7-9.7L14.9 8.5z"/></symbol><symbol id="harva-pinta-36" viewBox="0 0 36 36" fill="currentColor"><path d="M30 17c0 1.1-.9 2-2 2s-2-.9-2-2v-1h-6v1c0 1.1-.9 2-2 2s-2-.9-2-2v-1h-6v1c0 1.1-.9 2-2 2s-2-.9-2-2v-1H0v2h4.1c.4 1.7 2 3 3.9 3s3.4-1.3 3.9-3h2.3c.4 1.7 2 3 3.9 3s3.4-1.3 3.9-3h2.3c.4 1.7 2 3 3.9 3s3.4-1.3 3.9-3H36v-2h-6v1z"/></symbol><symbol id="henkilo-36" viewBox="0 0 36 36" fill="currentColor"><path d="M22.9 18.7c3-1.7 5.1-5 5.1-8.7 0-5.5-4.5-10-10-10S8 4.5 8 10c0 3.7 2 7 5.1 8.7C5.5 20.8 0 27.8 0 36h36c0-8.2-5.5-15.2-13.1-17.3zM10 10c0-4.4 3.6-8 8-8s8 3.6 8 8-3.6 8-8 8-8-3.6-8-8zm8 10c8.1 0 14.9 6.1 15.9 14H2.1c1-7.9 7.8-14 15.9-14z"/></symbol><symbol id="hiekanantolaite-36" viewBox="0 0 36 36" fill="currentColor"><path d="M18 18L36 0H0l18 18zm0-2.8L4.8 2h26.3L18 15.2zm1.5 6.8c0 .8-.7 1.5-1.5 1.5s-1.5-.7-1.5-1.5.7-1.5 1.5-1.5 1.5.7 1.5 1.5zm0 8c0 .8-.7 1.5-1.5 1.5s-1.5-.7-1.5-1.5.7-1.5 1.5-1.5 1.5.7 1.5 1.5zm-8 0c0 .8-.7 1.5-1.5 1.5s-1.5-.7-1.5-1.5.7-1.5 1.5-1.5 1.5.7 1.5 1.5zm16 0c0 .8-.7 1.5-1.5 1.5s-1.5-.7-1.5-1.5.7-1.5 1.5-1.5 1.5.7 1.5 1.5zm-12-4c0 .8-.7 1.5-1.5 1.5s-1.5-.7-1.5-1.5.7-1.5 1.5-1.5 1.5.7 1.5 1.5zm8 0c0 .8-.7 1.5-1.5 1.5s-1.5-.7-1.5-1.5.7-1.5 1.5-1.5 1.5.7 1.5 1.5zm-8 8c0 .8-.7 1.5-1.5 1.5s-1.5-.7-1.5-1.5.7-1.5 1.5-1.5 1.5.7 1.5 1.5zm-8 0c0 .8-.7 1.5-1.5 1.5s-1.5-.7-1.5-1.5.7-1.5 1.5-1.5 1.5.7 1.5 1.5zm16 0c0 .8-.7 1.5-1.5 1.5s-1.5-.7-1.5-1.5.7-1.5 1.5-1.5 1.5.7 1.5 1.5zm8 0c0 .8-.7 1.5-1.5 1.5s-1.5-.7-1.5-1.5.7-1.5 1.5-1.5 1.5.7 1.5 1.5z"/></symbol><symbol id="huomiokartio-36" viewBox="0 0 36 36" fill="currentColor"><path d="M32.7 34L18 .5 3.3 34H0v2h36v-2h-3.3zm-6.3-9.3H9.6l3.2-7.3h10.4l3.2 7.3zm-4.1-9.4h-8.6L18 5.5l4.3 9.8zM8.7 26.7h18.5l3.2 7.3H5.5l3.2-7.3z"/></symbol><symbol id="ilmoitustaulu-36" viewBox="0 0 36 36" fill="currentColor"><path d="M0 30h8v6h2v-6h16v6h2v-6h8V0H0v30zM2 2h32v26H2V2z"/><circle cx="18" cy="7" r="1.5"/><path d="M17 10h2v14h-2z"/></symbol><symbol id="jarrujen-koettelujarjestelma-36" viewBox="0 0 36 36" fill="currentColor"><path d="M34.4 13c2.1 5.2 2.1 10.9 0 16.1l-1.8-.8c1.9-4.7 1.9-9.9 0-14.5l1.8-.8zm-8.1-1.9c2.3 2.6 3.7 6.1 3.7 9.9 0 8.3-6.7 15-15 15S0 29.3 0 21 6.7 6 15 6c3.8 0 7.2 1.4 9.9 3.7L34.3.3l1.4 1.4-9.4 9.4zm-1.4 1.5L15 22.4l-7.7-7.7 1.4-1.4 6.3 6.3 8.4-8.4C21.2 9.2 18.2 8 15 8 7.8 8 2 13.8 2 21s5.8 13 13 13 13-5.8 13-13c0-3.2-1.2-6.2-3.1-8.4z"/></symbol><symbol id="jyran-jalki-36" viewBox="0 0 36 36" fill="currentColor"><path d="M17 30h19v2H19v4H0v-2h17v-4zm13.6-20H36v6h-5.4c-1.4 5.8-6.5 10-12.6 10S6.7 21.8 5.4 16H0v-6h5.4C6.7 4.2 11.9 0 18 0s11.3 4.2 12.6 10zM7.4 10h21.1C27.3 5.3 23 2 18 2S8.7 5.3 7.4 10zM18 12c-.6 0-1 .4-1 1s.4 1 1 1 1-.4 1-1-.4-1-1-1zM5 14h10.2c-.1-.3-.2-.6-.2-1s.1-.7.2-1H2v2h3zm23.6 2H7.4c1.3 4.7 5.6 8 10.6 8s9.3-3.3 10.6-8zm2.4-4H20.8c.1.3.2.6.2 1s-.1.7-.2 1H34v-2h-3z"/></symbol><symbol id="kaivon-korkeus-36" viewBox="0 0 36 36" fill="currentColor"><path d="M27 17c0-2.9-3.9-5-9-5s-9 2.1-9 5v7H0v2h36v-2h-9v-7zm-9-3c4 0 7 1.6 7 3s-3 3-7 3-7-1.6-7-3 3-3 7-3zm-7 6.2c1.6 1.1 4.1 1.8 7 1.8s5.4-.7 7-1.8V24H11v-3.8z"/></symbol><symbol id="kalenteri-36" viewBox="0 0 36 36" fill="currentColor"><path d="M27 9V0h-2v9H11V0H9v9H1v26h34V9h-8zm6 2v6h-6v-6h6zm-22 8h6v6h-6v-6zm-2 6H3v-6h6v6zm8 2v6h-6v-6h6zm2 0h6v6h-6v-6zm0-2v-6h6v6h-6zm8-6h6v6h-6v-6zm-2-2h-6v-6h6v6zm-8-6v6h-6v-6h6zm-8 0v6H3v-6h6zM3 27h6v6H3v-6zm24 6v-6h6v6h-6z"/></symbol><symbol id="kansio-36" viewBox="0 0 36 36" fill="currentColor"><path d="M12.4 0H0v36h36V4H16.4l-4-4zM34 34H2V2h9.6l4 4H34v28z"/></symbol><symbol id="katos-36" viewBox="0 0 36 36" fill="currentColor"><path d="M2 36V9.3l16-7.1 16 7.1V36h2V8L18 0 0 8v28z"/></symbol><symbol id="kello-36" viewBox="0 0 36 36" fill="currentColor"><path d="M19 17h7v2h-9V6h2v11zm17 1c0 9.9-8.1 18-18 18S0 27.9 0 18 8.1 0 18 0s18 8.1 18 18zm-2 0c0-8.8-7.2-16-16-16S2 9.2 2 18s7.2 16 16 16 16-7.2 16-16z"/></symbol><symbol id="kielto-36" viewBox="0 0 36 36" fill="currentColor"><path d="M18 0C8.1 0 0 8.1 0 18s8.1 18 18 18 18-8.1 18-18S27.9 0 18 0zm0 2c4.1 0 7.7 1.5 10.6 4L6 28.6C3.5 25.7 2 22.1 2 18 2 9.2 9.2 2 18 2zm0 32c-4.1 0-7.7-1.5-10.6-4L30 7.4c2.5 2.8 4 6.5 4 10.6 0 8.8-7.2 16-16 16z"/></symbol><symbol id="kierra-oikea-36" viewBox="0 0 36 36" fill="currentColor"><path d="M34 9.7C31 3.8 24.9 0 18 0 8.1 0 0 8.1 0 18s8.1 18 18 18 18-8.1 18-18h-2c0 8.8-7.2 16-16 16S2 26.8 2 18 9.2 2 18 2c6.6 0 12.4 4 14.8 10H26v2h10V4h-2v5.7z"/></symbol><symbol id="kierra-vasen-36" viewBox="0 0 36 36" fill="currentColor"><path d="M18 0C11.1 0 5 3.8 2 9.7V4H0v10h10v-2H3.2C5.6 6 11.4 2 18 2c8.8 0 16 7.2 16 16s-7.2 16-16 16S2 26.8 2 18H0c0 9.9 8.1 18 18 18s18-8.1 18-18S27.9 0 18 0z"/></symbol><symbol id="kiinteisto-36" viewBox="-279 402.9 36 36" fill="currentColor"><style>.st0{display:none}.st1{display:inline;fill:none;stroke:#00a651;stroke-width:2;stroke-miterlimit:10}</style><g id="Layer_2" class="st0"><path class="st1" d="M-279 437.9h18v-4h18M-278 413.9h34v4h-34zM-249.2 413.9c-.9-5.7-5.9-10-11.8-10s-10.9 4.3-11.8 10h23.6zM-272.8 417.9c1 5.7 5.9 10 11.8 10s10.9-4.3 11.8-10h-23.6z"/><circle class="st1" cx="-261" cy="415.9" r="2"/></g><path d="M-261 416.8l-5.6 5.6v4.1h11.2v-4.1l-5.6-5.6zm0-5.2l9.3 9.3v9.3h-18.6v-9.3l9.3-9.3zm-16.7 20.4h3.7v1.9h1.9v3.7h-5.6V432zm13 1.9h7.4v3.7h-7.4v-3.7zm14.8 0h1.9V432h3.7v5.6h-5.6v-3.7zm1.9-16.7h3.7v7.4h-3.7v-7.4zm0-9.3h-1.9v-3.7h5.6v5.6h-3.7v-1.9zm-16.7-3.8h7.4v3.7h-7.4v-3.7zm-13 0h5.6v3.7h-1.9v1.9h-3.7v-5.6zm0 13.1h3.7v7.4h-3.7v-7.4z"/></symbol><symbol id="kirjaudu-sisaan-36" viewBox="0 0 36 36" fill="currentColor"><path d="M36 0v36H14V21h2v13h18V2H16v13h-2V0h22zM21.6 22.9l1.4 1.4 6.4-6.4-6.4-6.4-1.4 1.4 3.9 3.9H0v2h25.6l-4 4.1z"/></symbol><symbol id="kirjaudu-ulos-36" viewBox="0 0 36 36" fill="currentColor"><path d="M20 21h2v15H0V0h22v15h-2V2H2v32h18V21zm7.1-9.4L25.7 13l3.9 3.9H4v2h25.6l-3.9 3.9 1.4 1.4 6.4-6.4-6.4-6.2z"/></symbol><symbol id="kiskotus-irroita-36" viewBox="0 0 36 36" fill="currentColor"><path d="M4 36c2.2 0 4-1.8 4-4 0-.7-.2-1.4-.6-2l8.6-8.6 2.3 2.3 1.4-1.4-6-6-1.4 1.4 2.3 2.3L6 28.6c-.6-.4-1.3-.6-2-.6-2.2 0-4 1.8-4 4s1.8 4 4 4zm0-6c1.1 0 2 .9 2 2s-.9 2-2 2-2-.9-2-2 .9-2 2-2zM32 0c-2.2 0-4 1.8-4 4 0 .7.2 1.4.6 2L20 14.6l-2.3-2.3-1.4 1.4 6 6 1.4-1.4-2.3-2.3L30 7.4c.6.4 1.3.6 2 .6 2.2 0 4-1.8 4-4s-1.8-4-4-4zm0 6c-1.1 0-2-.9-2-2s.9-2 2-2 2 .9 2 2-.9 2-2 2zm-8 23h12v2H24v-2z"/></symbol><symbol id="kiskotus-liita-36" viewBox="0 0 36 36" fill="currentColor"><path d="M4 36c2.2 0 4-1.8 4-4 0-.7-.2-1.4-.6-2l8.6-8.6 2.3 2.3 1.4-1.4-6-6-1.4 1.4 2.3 2.3L6 28.6c-.6-.4-1.3-.6-2-.6-2.2 0-4 1.8-4 4s1.8 4 4 4zm0-6c1.1 0 2 .9 2 2s-.9 2-2 2-2-.9-2-2 .9-2 2-2zM32 0c-2.2 0-4 1.8-4 4 0 .7.2 1.4.6 2L20 14.6l-2.3-2.3-1.4 1.4 6 6 1.4-1.4-2.3-2.3L30 7.4c.6.4 1.3.6 2 .6 2.2 0 4-1.8 4-4s-1.8-4-4-4zm0 6c-1.1 0-2-.9-2-2s.9-2 2-2 2 .9 2 2-.9 2-2 2zm-1 23h5v2h-5v5h-2v-5h-5v-2h5v-5h2v5z"/></symbol><symbol id="km-merkki-36" viewBox="0 0 36 36" fill="currentColor"><path d="M18 0C8.1 0 0 8.1 0 18s8.1 18 18 18 18-8.1 18-18S27.9 0 18 0zm0 34V18H2C2 9.2 9.2 2 18 2v16h16c0 8.8-7.2 16-16 16z"/></symbol><symbol id="km-merkki-lisaa-36" viewBox="0 0 36 36" fill="currentColor"><path d="M36 18H18V2C9.2 2 2 9.2 2 18h16v18C8.1 36 0 27.9 0 18S8.1 0 18 0s18 8.1 18 18zm-5 6h-2v5h-5v2h5v5h2v-5h5v-2h-5v-5z"/></symbol><symbol id="km-merkki-sijainti-36" viewBox="0 0 36 36" fill="currentColor"><path d="M18 0C8.1 0 0 8.1 0 18s8.1 18 18 18h18V18c0-9.9-8.1-18-18-18zm16 34H18V18H2C2 9.2 9.2 2 18 2v16h16v16z"/></symbol><symbol id="kompassi-36" viewBox="0 0 36 36" fill="currentColor"><path d="M18 36c9.9 0 18-8.1 18-18S27.9 0 18 0 0 8.1 0 18s8.1 18 18 18zm0-34c8.8 0 16 7.2 16 16s-7.2 16-16 16S2 26.8 2 18 9.2 2 18 2z"/><path d="M27.6 8.4l-14.4 4.8-4.8 14.4 14.4-4.8 4.8-14.4zm-6 11.7l-5.7-5.7 8.6-2.9-2.9 8.6zm-7.2-4.2l5.7 5.7-8.6 2.9 2.9-8.6z"/></symbol><symbol id="korkeuspiste-36" viewBox="0 0 36 36" fill="currentColor"><path d="M36 18c0-9.9-8.1-18-18-18S0 8.1 0 18c0 4.6 1.7 8.8 4.6 12L.3 34.3l1.4 1.4L6 31.4c3.2 2.9 7.4 4.6 12 4.6s8.8-1.7 12-4.6l4.3 4.3 1.4-1.4-4.3-4.3c2.9-3.2 4.6-7.4 4.6-12zM2 18C2 9.2 9.2 2 18 2s16 7.2 16 16c0 4.1-1.5 7.7-4 10.6l-12-12-12 12C3.5 25.7 2 22.1 2 18zm16 16c-4.1 0-7.7-1.5-10.6-4L18 19.4 28.6 30c-2.9 2.5-6.5 4-10.6 4z"/></symbol><symbol id="kyna-36" viewBox="0 0 36 36" fill="currentColor"><path d="M34 9.4L26.6 2 28 .6 35.4 8 34 9.4zm-1.3 1.3l-1.4-1.4L6.6 34H2v-4.6L26.7 4.7l-1.4-1.4L0 28.6V36h7.4l25.3-25.3z"/></symbol><symbol id="laikka-36" viewBox="0 0 36 36" fill="currentColor"><path d="M30 24c-3.3 0-6 2.7-6 6s2.7 6 6 6 6-2.7 6-6-2.7-6-6-6zm0 10c-2.2 0-4-1.8-4-4s1.8-4 4-4 4 1.8 4 4-1.8 4-4 4zm1.3-17.5c1.5-2.4 1.4-6-.3-9.9-.1-.2-3.1-6.6-13-6.6S0 8.1 0 18s6.4 12.9 6.6 13c2.1.9 4.1 1.4 5.9 1.4 1.5 0 2.9-.4 4-1.1 1.6-1 2.5-2.7 2.5-4.8 0-4.1 3.4-7.5 7.5-7.5 2.1 0 3.8-.9 4.8-2.5zM17 26.5c0 1.4-.5 2.5-1.6 3.2-1.8 1.1-4.8 1-8-.5C7.2 29.1 2 26.6 2 18 2 9.2 9.2 2 18 2c8.6 0 11.1 5.2 11.2 5.5 1.4 3.2 1.6 6.2.5 8-.7 1-1.7 1.6-3.2 1.6-5.2-.1-9.5 4.2-9.5 9.4z"/></symbol><symbol id="lajittuma-36" viewBox="0 0 36 36" fill="currentColor"><path d="M18 14c3.9 0 7-3.1 7-7s-3.1-7-7-7-7 3.1-7 7 3.1 7 7 7zm0-12c2.8 0 5 2.2 5 5s-2.2 5-5 5-5-2.2-5-5 2.2-5 5-5zM9 26c2.8 0 5-2.2 5-5s-2.2-5-5-5-5 2.2-5 5 2.2 5 5 5zm0-8c1.7 0 3 1.3 3 3s-1.3 3-3 3-3-1.3-3-3 1.3-3 3-3zm13 3c0 2.8 2.2 5 5 5s5-2.2 5-5-2.2-5-5-5-5 2.2-5 5zm5-3c1.7 0 3 1.3 3 3s-1.3 3-3 3-3-1.3-3-3 1.3-3 3-3zm6 12c-1.7 0-3 1.3-3 3s1.3 3 3 3 3-1.3 3-3-1.3-3-3-3zm0 4c-.6 0-1-.4-1-1s.4-1 1-1 1 .4 1 1-.4 1-1 1zm-18-1c0 1.7 1.3 3 3 3s3-1.3 3-3-1.3-3-3-3-3 1.3-3 3zm4 0c0 .6-.4 1-1 1s-1-.4-1-1 .4-1 1-1 1 .4 1 1zM6 33c0-1.7-1.3-3-3-3s-3 1.3-3 3 1.3 3 3 3 3-1.3 3-3zm-4 0c0-.6.4-1 1-1s1 .4 1 1-.4 1-1 1-1-.4-1-1z"/></symbol><symbol id="lammityspistoke-240v-36" viewBox="0 0 36 36" fill="currentColor"><path d="M36 6V4h-6V0c-5.2 0-9.4 3.9-9.9 9H0v2h20.1c.5 5.1 4.8 9 9.9 9v-4h6v-2h-6V6h6zm-8 11.7c-3.4-.9-6-4-6-7.7s2.6-6.9 6-7.7v15.4zM22 22h2v14h-2v-6h-8v-8h2v6h6v-6zm-11.5 7.5L6.1 34H12v2H1.2l7.9-7.9c.6-.5.9-1.3.9-2.1 0-1.7-1.3-3-3-3s-3 1.3-3 3H2c0-2.8 2.2-5 5-5s5 2.2 5 5c0 1.3-.5 2.6-1.5 3.5zM31 21c-2.8 0-5 2.2-5 5v5c0 2.8 2.2 5 5 5s5-2.2 5-5v-5c0-2.8-2.2-5-5-5zm3 10c0 1.7-1.3 3-3 3s-3-1.3-3-3v-5c0-1.7 1.3-3 3-3s3 1.3 3 3v5z"/></symbol><symbol id="lammityspistoke-36" viewBox="0 0 36 36" fill="currentColor"><path d="M8 34h8v2H6V22h2v12zm22-7c0 2.8-2.2 5-5 5l-3 .1V36h-2V22h5c2.8 0 5 2.2 5 5zm-2 0c0-1.7-1.3-3-3-3h-3v6.1l3-.1c1.7 0 3-1.3 3-3zm2-23h6v2h-6v8h6v2h-6v4c-5.2 0-9.4-3.9-9.9-9H0V9h20.1c.5-5.1 4.8-9 9.9-9v4zm-2-1.7c-3.4.9-6 4-6 7.7s2.6 6.9 6 7.7V2.3z"/></symbol><symbol id="lammityspistoke-400v-36" viewBox="0 0 36 36" fill="currentColor"><path d="M30 0c-5.2 0-9.4 3.9-9.9 9H0v2h20.1c.5 5.1 4.8 9 9.9 9v-4h6v-2h-6V6h6V4h-6V0zm-2 17.7c-3.4-.9-6-4-6-7.7s2.6-6.9 6-7.7v15.4zM10 22h2v14h-2v-6H2v-8h2v6h6v-6zm9-1c-2.8 0-5 2.2-5 5v5c0 2.8 2.2 5 5 5s5-2.2 5-5v-5c0-2.8-2.2-5-5-5zm3 10c0 1.7-1.3 3-3 3s-3-1.3-3-3v-5c0-1.7 1.3-3 3-3s3 1.3 3 3v5zm9-10c-2.8 0-5 2.2-5 5v5c0 2.8 2.2 5 5 5s5-2.2 5-5v-5c0-2.8-2.2-5-5-5zm3 10c0 1.7-1.3 3-3 3s-3-1.3-3-3v-5c0-1.7 1.3-3 3-3s3 1.3 3 3v5z"/></symbol><symbol id="lammitysposti-36" viewBox="0 0 36 36" fill="currentColor"><path d="M16 12h-2c0-2.8-2.2-5-5-5-3.9 0-7-3.1-7-7h2c0 2.8 2.2 5 5 5 3.9 0 7 3.1 7 7zm2 13c-2.8 0-5-2.2-5-5h-2c0 3.9 3.1 7 7 7 2.8 0 5 2.2 5 5h2c0-3.9-3.1-7-7-7zm9-20c-2.8 0-5-2.2-5-5h-2c0 3.9 3.1 7 7 7 2.8 0 5 2.2 5 5h2c0-3.9-3.1-7-7-7zm9 11H0v20h36V16zM2 18h32v16H2V18z"/></symbol><symbol id="laskumakijarrut-36" viewBox="0 0 36 36" fill="currentColor"><path d="M34.7 2.7l-1.4-1.4L28.6 6h-9.2l3.3-3.3-1.4-1.4L16.6 6H0v12h4.6l-3.3 3.3 1.4 1.4L7.4 18h9.2l-3.3 3.3 1.4 1.4 4.7-4.7H36V6h-4.6l3.3-3.3zM2 16V8h12.6l-8 8H2zm7.4 0l8-8h9.2l-8 8H9.4zM34 8v8H21.4l8-8H34zM1.3 24l34 10-.6 2-34-10 .6-2z"/></symbol><symbol id="liikennepaikka-36" viewBox="0 0 36 36" fill="currentColor"><path d="M19 29c0 1.1-.9 2-2 2s-2-.9-2-2 .9-2 2-2 2 .9 2 2zm10-2c-1.1 0-2 .9-2 2s.9 2 2 2 2-.9 2-2-.9-2-2-2zm7-14v20c0 1.7-1.3 3-3 3H13c-1.7 0-3-1.3-3-3V13c0-1.7 1.3-3 3-3h20c1.7 0 3 1.3 3 3zm-24 0v9h22v-9c0-.6-.4-1-1-1H13c-.6 0-1 .4-1 1zm22 20v-9H12v9c0 .6.4 1 1 1h20c.6 0 1-.4 1-1zM0 13v23h2V13C2 6.9 6.9 2 13 2h23V0H13C5.8 0 0 5.8 0 13z"/></symbol><symbol id="liikennepaikkavali-36" viewBox="0 0 36 36" fill="currentColor"><path d="M28 12c0 .7.2 1.4.6 2L14 28.6c-.6-.4-1.3-.6-2-.6-2.2 0-4 1.8-4 4s1.8 4 4 4 4-1.8 4-4c0-.7-.2-1.4-.6-2L30 15.4c.6.4 1.3.6 2 .6 2.2 0 4-1.8 4-4s-1.8-4-4-4-4 1.8-4 4zM12 34c-1.1 0-2-.9-2-2s.9-2 2-2 2 .9 2 2-.9 2-2 2zm22-22c0 1.1-.9 2-2 2s-2-.9-2-2 .9-2 2-2 2 .9 2 2zM2 32H0v-8c0-2.2 1.8-4 4-4h8v2H4c-1.1 0-2 .9-2 2v8zm20-20h-2V4c0-2.2 1.8-4 4-4h8v2h-8c-1.1 0-2 .9-2 2v8z"/></symbol><symbol id="liikennesuunnittelualue-36" viewBox="0 0 36 36" fill="currentColor"><path d="M24.5.1l.8 2.5-1.5.5L22.6 2 24.5.1zM11.6 13l1.4 1.4 1.4-1.4-1.4-1.4-1.4 1.4zm2.8-2.8l1.4 1.4 1.4-1.4-1.4-1.4-1.4 1.4zm2.7-2.7l1.4 1.4 1.4-1.4-1.4-1.4-1.4 1.4zm-8.2 8.2l1.4 1.4 1.4-1.4-1.4-1.4-1.4 1.4zm10.9-11l1.4 1.4 1.4-1.4-1.4-1.4-1.4 1.4zM3.4 21.2l1.4 1.4 1.4-1.4-1.4-1.4-1.4 1.4zm2.7-2.7l1.4 1.4 1.4-1.4-1.4-1.4-1.4 1.4zM2 22.6L.1 24.5l2.5.8.5-1.5L2 22.6zm26.7 10.8l2 .6.6-1.9-2-.6-.6 1.9zm-20-6.3l2 .6.6-1.9-2-.6-.6 1.9zm4 1.3l2 .6.6-1.9-2-.6-.6 1.9zm-8-2.5l2 .6.6-1.9-2-.6-.6 1.9zm20 6.2l2 .6.6-1.9-2-.6-.6 1.9zm-4-1.2l2 .6.6-1.9-2-.6-.6 1.9zm-4-1.3l2 .6.6-1.9-2-.6-.6 1.9zm16.5 3.6l-.5 1.5 2.8.9-.9-2.8-1.4.4zm.8-2.5l-.6-2-1.9.6.6 2 1.9-.6zm-3.8-5.4l.6 2 1.9-.6-.6-2-1.9.6zm-1.2-4l.6 2 1.9-.6-.6-2-1.9.6zm-5-16l.6 2 1.9-.6-.6-2-1.9.6zm3.7 12l.6 2 1.9-.6-.6-2-1.9.6zm-1.2-4l.6 2 1.9-.6-.6-2-1.9.6zm-1.3-4l.6 2 1.9-.6-.6-2-1.9.6z"/></symbol><symbol id="liikenneyksikko-0-36" viewBox="0 0 36 36" fill="currentColor"><path d="M18 36l18-18L18 0z"/></symbol><symbol id="liikenneyksikko-1-36" viewBox="0 0 36 36" fill="currentColor"><path d="M18 0l18 18-18 18V0zm-6 32h2V4h-2v28z"/></symbol><symbol id="liikenneyksikko-2-36" viewBox="0 0 36 36" fill="currentColor"><path d="M18 0l18 18-18 18V0zM6 28h2V8H6v20zm6 4h2V4h-2v28z"/></symbol><symbol id="liikenneyksikko-3-36" viewBox="0 0 36 36" fill="currentColor"><path d="M18 0l18 18-18 18V0zM0 24h2V12H0v12zm6 4h2V8H6v20zm6 4h2V4h-2v28z"/></symbol><symbol id="lista-36" viewBox="0 0 36 36" fill="currentColor"><path d="M5 2h31v2H5V2zM0 3c0-.8.7-1.5 1.5-1.5S3 2.2 3 3s-.7 1.5-1.5 1.5S0 3.8 0 3zm5 7h31V8H5v2zM0 9c0-.8.7-1.5 1.5-1.5S3 8.2 3 9s-.7 1.5-1.5 1.5S0 9.8 0 9zm5 7h31v-2H5v2zm-5-1c0-.8.7-1.5 1.5-1.5S3 14.2 3 15s-.7 1.5-1.5 1.5S0 15.8 0 15zm5 7h31v-2H5v2zm-5-1c0-.8.7-1.5 1.5-1.5S3 20.2 3 21s-.7 1.5-1.5 1.5S0 21.8 0 21zm5 7h31v-2H5v2zm-5-1c0-.8.7-1.5 1.5-1.5S3 26.2 3 27s-.7 1.5-1.5 1.5S0 27.8 0 27zm5 7h31v-2H5v2zm-5-1c0-.8.7-1.5 1.5-1.5S3 32.2 3 33s-.7 1.5-1.5 1.5S0 33.8 0 33z"/></symbol><symbol id="lumi-36" viewBox="0 0 36 36" fill="currentColor"><path d="M26.8 14.1l7.8 2.1.5-2-5.8-1.5 4.8-2.8-1-1.8-4.8 2.8 1.5-5.8-1.9-.6-2.1 7.8-6.8 4V8.4l5.7-5.7-1.4-1.4L19 5.6V0h-2v5.6l-4.3-4.3-1.4 1.4L17 8.4v7.9l-6.8-4-2.1-7.8-1.9.6 1.5 5.8-4.8-2.8-1 1.8 4.8 2.8-5.8 1.5.5 2 7.8-2.1L16 18l-6.8 3.9-7.8-2.1-.5 2 5.8 1.5-4.8 2.8 1 1.8 4.8-2.8-1.5 5.8 1.9.6 2.1-7.8 6.8-4v7.9l-5.7 5.7 1.4 1.4 4.3-4.3V36h2v-5.6l4.3 4.3 1.4-1.4-5.7-5.7v-7.9l6.8 4 2.1 7.8 1.9-.6-1.5-5.8 4.8 2.8 1-1.8-4.8-2.8 5.8-1.5-.5-2-7.8 2.1L20 18z"/></symbol><symbol id="maasto-36" viewBox="-279 402.9 36 36" fill="currentColor"><style>.st0{display:none}.st1{display:inline;fill:none;stroke:#00a651;stroke-width:2;stroke-miterlimit:10}</style><g id="Layer_2" class="st0"><path class="st1" d="M-279 437.9h18v-4h18M-278 413.9h34v4h-34zM-249.2 413.9c-.9-5.7-5.9-10-11.8-10s-10.9 4.3-11.8 10h23.6zM-272.8 417.9c1 5.7 5.9 10 11.8 10s10.9-4.3 11.8-10h-23.6z"/><circle class="st1" cx="-261" cy="415.9" r="2"/></g><path d="M-275 419.1l9.9-9.9 2.4 2.4 2.6-2.6-5.1-5-12.5 12.5 2.7 2.6zm12.3-2.6l8.8-8.8 8.8 8.8-2.6 2.6-6.2-6.2-6.2 6.2-2.6-2.6zm-4.3 1.3c0 1 .4 1.9 1.1 2.6s1.6 1.1 2.6 1.1c2.1 0 4 .4 5.8 1.2 1.8.8 3.4 1.9 4.8 3.2 1.4 1.3 2.4 2.9 3.2 4.8.8 1.8 1.2 3.7 1.2 5.8h-3.7c0-1.5-.3-3-.9-4.4-.6-1.4-1.4-2.5-2.4-3.6-1-1-2.2-1.8-3.6-2.4s-2.8-.9-4.4-.9c-.7 0-1.3-.1-1.9-.3-.6-.2-1.2-.4-1.6-.7.2.8.6 1.5 1.3 2 .7.5 1.4.8 2.3.8 1.6 0 2.9.5 4 1.6s1.6 2.4 1.6 4v3.7h-3.7v-3.7c0-.6-.2-1-.5-1.4-.3-.3-.8-.5-1.4-.5-1 0-2-.2-2.9-.6s-1.7-.9-2.4-1.6c-.7-.7-1.2-1.5-1.6-2.4s-.6-1.9-.6-2.9v-5.6h3.7v.2z"/></symbol><symbol id="masto-36" viewBox="0 0 36 36" fill="currentColor"><path d="M14 36h8V0h-8v36zm2-34h4v8h-4V2zm0 10h4v4h-4v-4zm0 6h4v4h-4v-4zm0 6h4v4h-4v-4zm0 6h4v4h-4v-4z"/></symbol><symbol id="miinus-36" viewBox="0 0 36 36" fill="currentColor"><path d="M0 17h36v2H0z"/></symbol><symbol id="mitta-36" viewBox="0 0 36 36" fill="currentColor"><path d="M10 1h2v34h-2V1zm16 2V1H14v34h12v-2H16v-2h10v-2H16v-2h10v-2H16v-2h10v-2H16v-2h10v-2H16v-2h10v-2H16v-2h10V9H16V7h10V5H16V3h10z"/></symbol><symbol id="muuntaja-36" viewBox="0 0 36 36" fill="currentColor"><path d="M32 4H4v8H0v2h4v3H0v2h4v3H0v2h4v8h28v-8h4v-2h-4v-3h4v-2h-4v-3h4v-2h-4V4zm-2 13h-4v2h4v3h-4v2h4v6H6v-6h4v-2H6v-3h4v-2H6v-3h4v-2H6V6h24v6h-4v2h4v3z"/></symbol><symbol id="nopeusrajoitus-36" viewBox="0 0 36 36" fill="currentColor"><path d="M18 0C8.1 0 0 8.1 0 18s8.1 18 18 18 18-8.1 18-18S27.9 0 18 0zm0 34C9.2 34 2 26.8 2 18S9.2 2 18 2s16 7.2 16 16-7.2 16-16 16zm6.5-21.5C24.5 8.9 21.6 6 18 6s-6.5 2.9-6.5 6.5c0 2.3 1.2 4.3 3.1 5.5-1.8 1.2-3.1 3.2-3.1 5.5 0 3.6 2.9 6.5 6.5 6.5s6.5-2.9 6.5-6.5c0-2.3-1.2-4.3-3.1-5.5 1.9-1.2 3.1-3.2 3.1-5.5zm-2 11c0 2.5-2 4.5-4.5 4.5s-4.5-2-4.5-4.5 2-4.5 4.5-4.5 4.5 2 4.5 4.5zM18 17c-2.5 0-4.5-2-4.5-4.5S15.5 8 18 8s4.5 2 4.5 4.5-2 4.5-4.5 4.5z"/></symbol><symbol id="nuolet-rasti-36" viewBox="0 0 36 36" fill="currentColor"><path d="M18 19.4l8.6 8.6H20v2h10V20h-2v6.6L19.4 18 28 9.4V16h2V6H20v2h6.6L18 16.6 9.4 8H16V6H6v10h2V9.4l8.6 8.6L8 26.6V20H6v10h10v-2H9.4z"/></symbol><symbol id="nuolet-risti-36" viewBox="0 0 36 36" fill="currentColor"><path d="M26.9 12.3l4.7 4.7H19V4.4l4.7 4.7 1.4-1.4L18 .6l-7.1 7.1 1.4 1.4L17 4.4V17H4.4l4.7-4.7-1.4-1.4L.6 18l7.1 7.1 1.4-1.4L4.4 19H17v12.6l-4.7-4.7-1.4 1.4 7.1 7.1 7.1-7.1-1.4-1.4-4.7 4.7V19h12.6l-4.7 4.7 1.4 1.4 7.1-7.1-7.1-7.1z"/></symbol><symbol id="opaste-36" viewBox="0 0 36 36" fill="currentColor"><path d="M27 9c0-5-4-9-9-9S9 4 9 9c0 4.6 3.5 8.4 8 8.9V34h-7v2h16v-2h-7V17.9c4.5-.5 8-4.3 8-8.9zM11 9c0-3.9 3.1-7 7-7s7 3.1 7 7-3.1 7-7 7-7-3.1-7-7z"/></symbol><symbol id="paallystys-36" viewBox="0 0 36 36" fill="currentColor"><path d="M0 26h36v2H0v-2zm8-4h2v-6h6v-2h-6V8H8v6H2v2h6v6zm18 0h2v-6h6v-2h-6V8h-2v6h-6v2h6v6z"/></symbol><symbol id="paineilmakeskus-36" viewBox="0 0 36 36" fill="currentColor"><path d="M0 8v28h36V8L18 0 0 8zm34 26H2V9.3l16-7.1 16 7.1V34zm-12-4v-2c2.2 0 4-1.8 4-4s-1.8-4-4-4v-2c2.2 0 4-1.8 4-4s-1.8-4-4-4V8c3.3 0 6 2.7 6 6 0 2.1-1.1 3.9-2.7 5 1.6 1.1 2.7 2.9 2.7 5 0 3.3-2.7 6-6 6zM6 18h4v2H6v-2zm8 0h4v2h-4v-2z"/></symbol><symbol id="paineilmaposti-36" viewBox="0 0 36 36" fill="currentColor"><path d="M36 22c0 4.4-3.6 8-8 8v-2c3.3 0 6-2.7 6-6s-2.7-6-6-6v-2c3.3 0 6-2.7 6-6s-2.7-6-6-6V0c4.4 0 8 3.6 8 8 0 3-1.7 5.6-4.1 7 2.4 1.4 4.1 4 4.1 7zm-16-6h4v-2h-4v2zm-8-2h4v2h-4v20H0V6c0-3.3 2.7-6 6-6s6 2.7 6 6v8zm-2-8c0-2.2-1.8-4-4-4S2 3.8 2 6v28h8V6z"/></symbol><symbol id="paivita-36" viewBox="0 0 36 36" fill="currentColor"><path d="M36 4v10H26v-2h6.8C30.4 6 24.6 2 18 2 9.2 2 2 9.2 2 18H0C0 8.1 8.1 0 18 0c6.9 0 13 3.8 16 9.7V4h2zM18 34c-6.6 0-12.4-4-14.8-10H10v-2H0v10h2v-5.7c3 5.9 9.1 9.7 16 9.7 9.9 0 18-8.1 18-18h-2c0 8.8-7.2 16-16 16z"/></symbol><symbol id="palovesijarjestelma-36" viewBox="0 0 36 36" fill="currentColor"><path d="M18 0L8.3 17H0v2h7.1l-.1.3c-.6 1.4-1 3-1 4.7 0 6.6 5.4 12 12 12s12-5.4 12-12c0-1.7-.3-3.2-1-4.7l-.1-.3H36v-2h-8.3L18 0zm0 34c-5.5 0-10-4.5-10-10 0-1.3.3-2.6.8-3.8L18 4l9.2 16.2c.5 1.2.8 2.5.8 3.8 0 5.5-4.5 10-10 10z"/><path d="M18 30v2c4.4 0 8-3.6 8-8h-2c0 3.3-2.7 6-6 6z"/></symbol><symbol id="pintakuivatus-puute-36" viewBox="0 0 36 36" fill="currentColor"><path d="M18 30c5.5 0 10-4.5 10-10 0-1.4-.3-2.7-.8-3.9L18 0 8.8 16.1C8.3 17.3 8 18.6 8 20c0 5.5 4.5 10 10 10zm-7.4-13L18 4l7.4 13c.4 1 .6 2 .6 3 0 4.4-3.6 8-8 8s-8-3.6-8-8c0-1 .2-2.1.6-3zm7.4 9v-2c2.2 0 4-1.8 4-4h2c0 3.3-2.7 6-6 6zm16.6 2.1l.7 1.9-16.1 6h-2.4L.6 29.9l.7-1.9 15.9 6h1.6l15.8-5.9z"/></symbol><symbol id="plus-36" viewBox="0 0 36 36" fill="currentColor"><path d="M19 0h-2v17H0v2h17v17h2V19h17v-2H19z"/></symbol><symbol id="pm-merkki-36" viewBox="0 0 36 36" fill="currentColor"><path d="M34 4.2H2c-1.1 0-2 .9-2 2v23.5c0 1.1.9 2 2 2h32c1.1 0 2-.9 2-2V6.2c0-1.1-.9-2-2-2zm0 25.6H2V6.2h32v23.6zM8 20h3c2.8 0 5-2.2 5-5s-2.2-5-5-5H6v16h2v-6zm0-8h3c1.7 0 3 1.3 3 3s-1.3 3-3 3H8v-6zm12 14h-2V9.6l6 6 6-6V26h-2V14.4l-4 4-4-4V26z"/></symbol><symbol id="puhekupla-teksti-36" viewBox="0 0 36 36" fill="currentColor"><path d="M18 2c8.8 0 16 5.4 16 12s-7.2 12-16 12c-1 0-2-.1-3-.2l-.7-.1-.6.3-9.5 5.3 2.9-6.6.6-1.4-1.2-1C3.6 20.1 2 17.1 2 14 2 7.4 9.2 2 18 2m0-2C8.1 0 0 6.3 0 14c0 3.9 2 7.4 5.3 9.9L0 36l14.7-8.2c1.1.2 2.2.2 3.3.2 9.9 0 18-6.3 18-14S27.9 0 18 0zm-6 13H8v2h4v-2zm8 0h-4v2h4v-2zm8 0h-4v2h4v-2z"/></symbol><symbol id="radat-36" viewBox="0 0 36 36" fill="currentColor"><path d="M.606 24.083l34.028-14.014.762 1.85L1.367 25.932z"/></symbol><symbol id="raidemateriaali-36" viewBox="0 0 36 36" fill="currentColor"><path d="M8 36h2v-6h16v6h2v-6h4v-2h-4v-9h4v-2h-4V8h4V6h-4V0h-2v6H10V0H8v6H4v2h4v9H4v2h4v9H4v2h4v6zm2-28h16v9H10V8zm0 11h16v9H10v-9z"/></symbol><symbol id="raili-36" viewBox="0 0 36 36" fill="currentColor"><path d="M20 0v4H10c-1.1 0-2 .9-2 2v28c0 1.1.9 2 2 2h16c1.1 0 2-.9 2-2V6c0-1.1-.9-2-2-2h-4V0h-2zm-4 28v-4h4v4h-4zm4 2v4h-4v-4h4zm-6-2h-4v-4h4v4zm8-4h4v4h-4v-4zm0-2v-4h4v4h-4zm-2 0h-4v-4h4v4zm-6 0h-4v-4h4v4zm-4 8h4v4h-4v-4zm12 4v-4h4v4h-4zm4-18H10V6h16v10z"/></symbol><symbol id="raiteet-36" viewBox="0 0 36 36" fill="currentColor"><path d="M34.6 10.1l.8 1.8-34 14-.8-1.8 34-14zm-34 24l.8 1.8 34-14-.8-1.8-34 14zm0-20l.8 1.8 34-14-.8-1.8-34 14z"/></symbol><symbol id="rata-36" viewBox="0 0 36 36" fill="currentColor"><path d="M32 0c-2.2 0-4 1.8-4 4 0 .7.2 1.4.6 2L20 14.6c-.6-.4-1.3-.6-2-.6-2.2 0-4 1.8-4 4 0 .7.2 1.4.6 2L6 28.6c-.6-.4-1.3-.6-2-.6-2.2 0-4 1.8-4 4s1.8 4 4 4 4-1.8 4-4c0-.7-.2-1.4-.6-2l8.5-8.5c.6.4 1.3.6 2 .6 2.2 0 4-1.8 4-4 0-.7-.2-1.4-.6-2L30 7.4c.6.4 1.3.6 2 .6 2.2 0 4-1.8 4-4s-1.8-4-4-4zM4 34c-1.1 0-2-.9-2-2s.9-2 2-2 2 .9 2 2-.9 2-2 2zm14-14c-1.1 0-2-.9-2-2s.9-2 2-2 2 .9 2 2-.9 2-2 2zM32 6c-1.1 0-2-.9-2-2s.9-2 2-2 2 .9 2 2-.9 2-2 2z"/></symbol><symbol id="rata-osa-36" viewBox="0 0 36 36" fill="currentColor"><path d="M32 0c-2.2 0-4 1.8-4 4 0 .7.2 1.4.6 2l-4.7 4.7c-.3-.1-.6-.2-.9-.2-1.4 0-2.5 1.1-2.5 2.5 0 .3.1.6.2.9l-6.8 6.8c-.3-.1-.6-.2-.9-.2-1.4 0-2.5 1.1-2.5 2.5 0 .3.1.6.2.9L6 28.6c-.6-.4-1.3-.6-2-.6-2.2 0-4 1.8-4 4s1.8 4 4 4 4-1.8 4-4c0-.7-.2-1.4-.6-2l4.7-4.7c.3.1.6.2.9.2 1.4 0 2.5-1.1 2.5-2.5 0-.3-.1-.6-.2-.9l6.8-6.8c.3.1.6.2.9.2 1.4 0 2.5-1.1 2.5-2.5 0-.3-.1-.6-.2-.9L30 7.4c.6.4 1.3.6 2 .6 2.2 0 4-1.8 4-4s-1.8-4-4-4zM4 34c-1.1 0-2-.9-2-2s.9-2 2-2 2 .9 2 2-.9 2-2 2zM32 6c-1.1 0-2-.9-2-2s.9-2 2-2 2 .9 2 2-.9 2-2 2z"/></symbol><symbol id="rata-risteys-36" viewBox="0 0 36 36" fill="currentColor"><path d="M32 0c-2.2 0-4 1.8-4 4 0 .7.2 1.4.6 2L6 28.6c-.3-.2-.7-.3-1-.4V7.9c1.7-.4 3-2 3-3.9 0-2.2-1.8-4-4-4S0 1.8 0 4c0 1.9 1.3 3.4 3 3.9v20.3c-1.7.4-3 2-3 3.9 0 2.2 1.8 4 4 4s4-1.8 4-4c0-.7-.2-1.4-.6-2L30 7.4c.6.4 1.3.6 2 .6 2.2 0 4-1.8 4-4s-1.8-4-4-4zM2 4c0-1.1.9-2 2-2s2 .9 2 2-.9 2-2 2-2-.9-2-2zm2 30c-1.1 0-2-.9-2-2s.9-2 2-2 2 .9 2 2-.9 2-2 2zM32 6c-1.1 0-2-.9-2-2s.9-2 2-2 2 .9 2 2-.9 2-2 2z"/></symbol><symbol id="rata-sivuraide-36" viewBox="0 0 36 36" fill="currentColor"><path d="M32 0c-1.9 0-3.4 1.3-3.9 3H16.5c-.3 0-.5.1-.7.3L3.3 15.8c-.2.2-.3.4-.3.7v11.6c-1.7.4-3 2-3 3.9 0 2.2 1.8 4 4 4s4-1.8 4-4c0-.7-.2-1.4-.5-1.9L30.1 7.5c.5.3 1.2.5 1.9.5 2.2 0 4-1.8 4-4s-1.8-4-4-4zM16.9 5h11.2c.1.4.3.8.5 1.1L6.1 28.6c-.3-.2-.7-.4-1.1-.5V16.9L16.9 5zM4 34c-1.1 0-2-.9-2-2s.9-2 2-2 2 .9 2 2-.9 2-2 2zM32 6c-1.1 0-2-.9-2-2s.9-2 2-2 2 .9 2 2-.9 2-2 2z"/></symbol><symbol id="rata-vali-36" viewBox="0 0 36 36" fill="currentColor"><path d="M32 0c-2.2 0-4 1.8-4 4 0 .8.2 1.5.6 2.1L6.1 28.6c-.6-.4-1.3-.6-2.1-.6-2.2 0-4 1.8-4 4s1.8 4 4 4 4-1.8 4-4c0-.7-.2-1.4-.5-1.9L30.1 7.5c.5.3 1.2.5 1.9.5 2.2 0 4-1.8 4-4s-1.8-4-4-4zM4 34c-1.1 0-2-.9-2-2s.9-2 2-2 2 .9 2 2-.9 2-2 2zM32 6c-1.1 0-2-.9-2-2s.9-2 2-2 2 .9 2 2-.9 2-2 2z"/></symbol><symbol id="rata-yhdista-36" viewBox="0 0 36 36" fill="currentColor"><path d="M19 7.9c1.7-.4 3-2 3-3.9 0-2.2-1.8-4-4-4s-4 1.8-4 4c0 1.9 1.3 3.4 3 3.9V15H0v6h9v7.1c-1.7.4-3 2-3 3.9 0 2.2 1.8 4 4 4s4-1.8 4-4c0-1.9-1.3-3.4-3-3.9V21h14v7.1c-1.7.4-3 2-3 3.9 0 2.2 1.8 4 4 4s4-1.8 4-4c0-1.9-1.3-3.4-3-3.9V21h9v-6H19V7.9zM16 4c0-1.1.9-2 2-2s2 .9 2 2-.9 2-2 2-2-.9-2-2zm-4 28c0 1.1-.9 2-2 2s-2-.9-2-2 .9-2 2-2 2 .9 2 2zm16 0c0 1.1-.9 2-2 2s-2-.9-2-2 .9-2 2-2 2 .9 2 2zm6-13H2v-2h32v2z"/></symbol><symbol id="ratapihakehitys-36" viewBox="0 0 36 36" fill="currentColor"><path d="M0 0v36h36V0H0zm34 15.3L2 28.5v-7.8L34 7.5v7.8zM34 2v3.3l-20 8.2V6H6v8h6.9L2 18.5V2h32zM12 8v4H8V8h4zM2 34v-3.3l20-8.2V30h8v-8h-6.9L34 17.5V34H2zm22-6v-4h4v4h-4z"/></symbol><symbol id="ratas-36" viewBox="0 0 36 36" fill="currentColor"><path d="M28.6 8.8L31.4 6 30 4.6l-2.9 2.9c-2.2-1.9-5-3.2-8.2-3.4V0h-2v4.1c-3.1.2-5.9 1.5-8.2 3.4L6 4.6 4.6 6l2.9 2.9c-1.9 2.2-3.2 5-3.4 8.2H0v2h4.1c.2 3.1 1.5 5.9 3.4 8.2L4.6 30 6 31.4l2.9-2.9c2.2 1.9 5 3.2 8.2 3.4V36h2v-4.1c3.1-.2 5.9-1.5 8.2-3.4l2.9 2.9 1.4-1.4-2.9-2.9c1.9-2.2 3.2-5 3.4-8.2H36v-2h-4.1c-.2-3-1.4-5.8-3.3-8.1zM18 6c6.6 0 12 5.4 12 12s-5.4 12-12 12S6 24.6 6 18 11.4 6 18 6z"/></symbol><symbol id="ratatyo-36" viewBox="0 0 36 36" fill="currentColor"><path d="M22.7 14.7L30 7.4c.6.4 1.3.6 2 .6 2.2 0 4-1.8 4-4s-1.8-4-4-4-4 1.8-4 4c0 .7.2 1.4.6 2l-7.3 7.3 1.4 1.4zM32 2c1.1 0 2 .9 2 2s-.9 2-2 2-2-.9-2-2 .9-2 2-2zM13.3 21.3L6 28.6c-.6-.4-1.3-.6-2-.6-2.2 0-4 1.8-4 4s1.8 4 4 4 4-1.8 4-4c0-.7-.2-1.4-.6-2l7.3-7.3-1.4-1.4zM4 34c-1.1 0-2-.9-2-2s.9-2 2-2 2 .9 2 2-.9 2-2 2zm26-12.5L26.5 25 5.4 4l2.1-2.1L6.1.5.5 6.1l1.4 1.4L4 5.4l21.1 21.1-3.6 3.5 4.2 4.2c1.1 1.1 2.6 1.8 4.2 1.8s3.1-.6 4.2-1.8c1.1-1.1 1.8-2.6 1.8-4.2s-.6-3.1-1.8-4.2L30 21.5zm2.8 11.3c-1.5 1.5-4.1 1.5-5.7 0L24.3 30l5.7-5.7 2.8 2.8c.8.8 1.2 1.8 1.2 2.8s-.4 2.2-1.2 2.9z"/></symbol><symbol id="roskakatos-36" viewBox="0 0 36 36" fill="currentColor"><path d="M14 10v2H6v2h2v22h20V14h2v-2h-8v-2h-8zm12 4v20H10V14h16zM14 30V18h2v12h-2zm8 0h-2V18h2v12zM0 36V8l18-8 18 8v28h-2V9.3L18 2.2 2 9.3V36H0z"/></symbol><symbol id="sahko-z-36" viewBox="0 0 36 36" fill="currentColor"><path d="M6 0v2h22.1l-24 34H30v-2H7.9l24-34z"/></symbol><symbol id="salama-36" viewBox="0 0 36 36" fill="currentColor"><path d="M24 0H12L4 24h12l-4 12 20-24H20l4-12zm3.7 14L17.2 26.6l1.5-4.6h-12l6.7-20h7.8l-4 12h10.5z"/></symbol><symbol id="saumavirhe-36" viewBox="0 0 36 36" fill="currentColor"><path d="M34 .6L17.6 17H12C5.4 17 0 22.4 0 29v7h2v-.6L18.4 19H24c6.6 0 12-5.4 12-12V0h-2v.6zm-32 32V29c0-5.5 4.5-10 10-10h3.6L2 32.6zM24 17h-3.6L34 3.4V7c0 5.5-4.5 10-10 10z"/></symbol><symbol id="silma-36" viewBox="0 0 36 36" fill="currentColor"><path d="M18 8c2.7 0 5.2 1 7.1 2.9l7.1 7.1-7.1 7.1C23.2 27 20.7 28 18 28c-2.7 0-5.2-1-7.1-2.9l-7-7.1 7.1-7.1C12.8 9 15.3 8 18 8m0-2c-3.1 0-6.1 1.2-8.5 3.5L1 18l8.5 8.5c2.3 2.3 5.4 3.5 8.5 3.5s6.1-1.2 8.5-3.5L35 18l-8.5-8.5C24.1 7.2 21.1 6 18 6zm0 10c1.1 0 2 .9 2 2s-.9 2-2 2-2-.9-2-2 .9-2 2-2m0-2c-2.2 0-4 1.8-4 4s1.8 4 4 4 4-1.8 4-4-1.8-4-4-4z"/></symbol><symbol id="suurennuslasi-36" viewBox="0 0 36 36" fill="currentColor"><path d="M35.7 34.3L22.9 21.4c2-2.3 3.1-5.2 3.1-8.4 0-7.2-5.8-13-13-13S0 5.8 0 13s5.8 13 13 13c3.2 0 6.2-1.2 8.4-3.1l12.8 12.8 1.5-1.4zM13 24C6.9 24 2 19.1 2 13S6.9 2 13 2s11 4.9 11 11-4.9 11-11 11z"/></symbol><symbol id="tallenna-36" viewBox="0 0 36 36" fill="currentColor"><path d="M18 0h-1v21.6l-3.9-4-1.5 1.5 6.4 6.3 6.4-6.3-1.5-1.5-3.9 4V2h15v32H2V2h10V0H0v36h36V0H19z"/></symbol><symbol id="talo-36" viewBox="0 0 36 36" fill="currentColor"><path d="M18 2.8l16 16V34H24V22H12v12H2V18.8l16-16M18 0L0 18v18h14V24h8v12h14V18L18 0z"/></symbol><symbol id="tankkauspiste-36" viewBox="0 0 36 36" fill="currentColor"><path d="M30 0h-2v2h2c2.2 0 4 1.8 4 4v2h-4c-1.1 0-2 .9-2 2v8c0 1.1.9 2 2 2h4v6c0 4.4-3.6 8-8 8s-8-3.6-8-8V14h2V0H0v14h2v22h16v-4c1.8 2.4 4.7 4 8 4 5.5 0 10-4.5 10-10V6c0-3.3-2.7-6-6-6zM16 34H4V14h12v20zM2 12V2h16v10H2zm32 6h-4v-8h4v8z"/></symbol><symbol id="tasoristeys-36" viewBox="0 0 36 36" fill="currentColor"><path d="M26 0h-2v17H12V0h-2v17H0v2h10v17h2V19h12v17h2V19h10v-2H26z"/></symbol><symbol id="tiemerkinta-36" viewBox="0 0 36 36" fill="currentColor"><path d="M2 36H0V0h2v36zm32 0h2V0h-2v36zm-15-8h-2v8h2v-8zm0-14h-2v8h2v-8zm0-14h-2v8h2V0z"/></symbol><symbol id="tilirataosa-36" viewBox="0 0 36 36" fill="currentColor"><path d="M18 6H4V4h14v2zm0 2H4v2h14V8zm0 4H4v2h14v-2zm0 4H4v2h14v-2zM36 4c0 2.2-1.8 4-4 4-.7 0-1.4-.2-1.9-.5l-8.1 8V22h-6.5l-8.1 8.1c.4.5.6 1.2.6 1.9 0 2.2-1.8 4-4 4s-4-1.8-4-4 1.8-4 4-4c.8 0 1.5.2 2.1.6l6.6-6.6H0V0h22v12.7l6.6-6.6c-.4-.6-.6-1.3-.6-2.1 0-2.2 1.8-4 4-4s4 1.8 4 4zM6 32c0-1.1-.9-2-2-2s-2 .9-2 2 .9 2 2 2 2-.9 2-2zM20 2H2v18h18V2zm14 2c0-1.1-.9-2-2-2s-2 .9-2 2 .9 2 2 2 2-.9 2-2z"/></symbol><symbol id="toimialue-36" viewBox="0 0 36 36" fill="currentColor"><path d="M28 11H8v6H0v2h8v6h20v-6h8v-2h-8v-6zm-2 12H10V13h16v10z"/></symbol><symbol id="toimialueet-36" viewBox="0 0 36 36" fill="currentColor"><path d="M36 34v2H0v-2h24.2c-1.6-.6-3.2-1.2-4.6-2H0v-2h16.1C6.4 23.5 0 12.5 0 0h2c0 18.7 15.3 34 34 34zM6 0H4c0 17.6 14.4 32 32 32v-2C19.5 30 6 16.5 6 0z"/></symbol><symbol id="toimintakortti-36" viewBox="0 0 36 36" fill="currentColor"><path d="M5 26h8l5 10 5-10h8V0H5v26zM7 2h22v22H7V2zm2 2h18v2H9V4zm0 4h18v2H9V8zm0 4h18v2H9v-2zm0 4h18v2H9v-2zm0 4h18v2H9v-2z"/></symbol><symbol id="tulosta-36" viewBox="0 0 36 36" fill="currentColor"><path d="M10 12H8V0h20v12h-2V2H10v10zm26 12v8h-8v4H8v-4H0v-8c0-4.4 3.6-8 8-8h20c4.4 0 8 3.6 8 8zm-10 4H10v6h16v-6zm8-4c0-3.3-2.7-6-6-6H8c-3.3 0-6 2.7-6 6v6h6v-4h20v4h6v-6z"/></symbol><symbol id="tunneli-36" viewBox="0 0 36 36" fill="currentColor"><path d="M7 30.4l-5.3 5.3-1.4-1.4L5 29.6V6.4L.3 1.7 1.7.3 7 5.6v24.8zM35.7 1.7L34.3.3 29 5.6v24.8l5.3 5.3 1.4-1.4-4.7-4.7V6.4l4.7-4.7zM11 7H9v2h2V7zm4 0h-2v2h2V7zM9 29h2v-2H9v2zm4 0h2v-2h-2v2zm6-22h-2v2h2V7zm-2 22h2v-2h-2v2zm6-22h-2v2h2V7zm-2 22h2v-2h-2v2zm6-22h-2v2h2V7zm-2 22h2v-2h-2v2z"/></symbol><symbol id="turvalaitetila-36" viewBox="0 0 36 36" fill="currentColor"><path d="M0 8v28h36V8L18 0 0 8zm34 26H2V9.3l16-7.1 16 7.1V34zm-16-7.5c.8 0 1.5.7 1.5 1.5s-.7 1.5-1.5 1.5-1.5-.7-1.5-1.5.7-1.5 1.5-1.5zM17 10h2v14h-2V10z"/></symbol><symbol id="tuulipussi-36" viewBox="0 0 36 36" fill="currentColor"><path d="M2 17.9l32-4V4.1L2 .1V0H0v36h2V17.9zm14-3.8l-6 .8V3.1l6 .8v10.2zm2-10l6 .8v8.2l-6 .8V4.1zm14 8l-6 .8V5.1l6 .8v6.2zM8 2.9v12.2l-6 .8V2.1l6 .8z"/></symbol><symbol id="tyomaakoppi-36" viewBox="0 0 36 36" fill="currentColor"><path d="M0 8v28h36V8L18 0 0 8zm34 26H2V9.3l16-7.1 16 7.1V34zM22 10V8h-8v2h3v10h-5v4c0 3.3 2.7 6 6 6s6-2.7 6-6v-4h-5V10h3zm0 12v2c0 2.2-1.8 4-4 4s-4-1.8-4-4v-2h8z"/></symbol><symbol id="vaara-korkeus-36" viewBox="0 0 36 36" fill="currentColor"><path d="M16 24h4v2h-4v-2zm8 2h4v-2h-4v2zM8 26h4v-2H8v2zm-8 0h4v-2H0v2zm32 0h4v-2h-4v2zM25.1 5.3l-1.4-1.4L18 9.6l-5.7-5.7-1.4 1.4 4.7 4.7H0v2h15.6l-4.7 4.7 1.4 1.4 5.7-5.7 5.7 5.7 1.4-1.4-4.7-4.7H36v-2H20.4l4.7-4.7z"/></symbol><symbol id="vaestonsuoja-36" viewBox="0 0 36 36" fill="currentColor"><path d="M0 36h36V0H0v36zM2 2h32v32H2V2z"/><path d="M6 28h24L18 7.2 6 28zm3.5-2L18 11.2 26.5 26h-17z"/></symbol><symbol id="vaihde-36" viewBox="0 0 36 36" fill="currentColor"><path d="M18.7 17.7l12-12-1.4-1.4L5.6 28H0v2h36v-2h-7z"/></symbol><symbol id="valikko-36" viewBox="0 0 36 36" fill="currentColor"><path d="M0 6h36v2H0V6zm0 13h36v-2H0v2zm0 11h36v-2H0v2z"/></symbol><symbol id="valo-36" viewBox="0 0 36 36" fill="currentColor"><path d="M18 10c-4.4 0-8 3.6-8 8s3.6 8 8 8 8-3.6 8-8-3.6-8-8-8zm0 14c-3.3 0-6-2.7-6-6s2.7-6 6-6 6 2.7 6 6-2.7 6-6 6zm1-18h-2V0h2v6zm-2 24h2v6h-2v-6zM8.8 10.2L4.6 6 6 4.6l4.2 4.2-1.4 1.4zm18.4 15.6l4.2 4.2-1.4 1.4-4.2-4.2 1.4-1.4zM6 19H0v-2h6v2zm30-2v2h-6v-2h6zM8.8 25.8l1.4 1.4L6 31.4 4.6 30l4.2-4.2zm18.4-15.6l-1.4-1.4L30 4.6 31.4 6l-4.2 4.2z"/></symbol><symbol id="valomasto-36" viewBox="0 0 36 36" fill="currentColor"><path d="M2 5h6v2H2zM28 5h6v2h-6zM18 0c-3.3 0-6 2.7-6 6 0 1.8.8 3.4 2 4.5V36h8V10.5c1.2-1.1 2-2.7 2-4.5 0-3.3-2.7-6-6-6zm2 34h-4v-4h4v4zm0-6h-4v-4h4v4zm0-6h-4v-4h4v4zm0-10v4h-4v-4h4zm-2-2c-2.2 0-4-1.8-4-4s1.8-4 4-4 4 1.8 4 4-1.8 4-4 4zM24.374 13.778l1.415-1.414 4.242 4.243-1.414 1.414zM5.98 16.617l4.242-4.242 1.414 1.414-4.243 4.243z"/></symbol><symbol id="varoallas-36" viewBox="0 0 36 36" fill="currentColor"><path d="M30 10c-3.3 0-6-2.7-6-6 0 3.3-2.7 6-6 6s-6-2.7-6-6c0 3.3-2.7 6-6 6S0 7.3 0 4v10c0 9.9 8.1 18 18 18s18-8.1 18-18V4c0 3.3-2.7 6-6 6zm4 4c0 8.8-7.2 16-16 16S2 22.8 2 14v-3.1c1.2.7 2.5 1.1 4 1.1 2.4 0 4.5-1.1 6-2.7 1.5 1.7 3.6 2.7 6 2.7s4.5-1.1 6-2.7c1.5 1.7 3.6 2.7 6 2.7 1.5 0 2.8-.4 4-1.1V14z"/></symbol><symbol id="vaunuvaaka-36" viewBox="0 0 36 36" fill="currentColor"><path d="M0 18h2.6c-.4.6-.6 1.3-.6 2 0 2.2 1.8 4 4 4 1.2 0 2.3-.5 3-1.4.7.8 1.8 1.4 3 1.4 2.2 0 4-1.8 4-4 0-.7-.2-1.4-.6-2h5.1c-.3.6-.6 1.3-.6 2 0 2.2 1.8 4 4 4 1.2 0 2.3-.5 3-1.4.7.8 1.8 1.4 3 1.4 2.2 0 4-1.8 4-4 0-.7-.2-1.4-.6-2H36V0H0v18zm6 4c-1.1 0-2-.9-2-2s.9-2 2-2 2 .9 2 2-.9 2-2 2zm8-2c0 1.1-.9 2-2 2s-2-.9-2-2 .9-2 2-2 2 .9 2 2zm10 2c-1.1 0-2-.9-2-2s.9-2 2-2 2 .9 2 2-.9 2-2 2zm8-2c0 1.1-.9 2-2 2s-2-.9-2-2 .9-2 2-2 2 .9 2 2zM2 2h32v14H2V2zm22 22h12v2H22v10h-2V26h-4v10h-2V26H0v-2h24z"/></symbol><symbol id="vesilammikko-36" viewBox="0 0 36 36" fill="currentColor"><path d="M27.9 18.5c-.1-.9-.3-1.7-.7-2.4L18 0 8.8 16.1c-.3.8-.5 1.6-.7 2.4C3 20.3 0 23.2 0 26.5 0 31.8 7.9 36 18 36s18-4.2 18-9.5c0-3.3-3-6.2-8.1-8zM10.6 17L18 4l7.4 13c.4 1 .6 2 .6 3 0 4.4-3.6 8-8 8s-8-3.6-8-8c0-1 .2-2.1.6-3zM18 34c-8.7 0-16-3.4-16-7.5 0-2.2 2.3-4.4 6-5.8.4 5.2 4.7 9.3 10 9.3s9.6-4.1 10-9.3c3.8 1.4 6 3.6 6 5.8 0 4.1-7.3 7.5-16 7.5zm0-8v-2c2.2 0 4-1.8 4-4h2c0 3.3-2.7 6-6 6z"/></symbol><symbol id="yllapito-36" viewBox="0 0 36 36" fill="currentColor"><path d="M8.1 19.4l-4.2 4.2c-2.3 2.3-2.3 6.1 0 8.5 1.1 1.1 2.6 1.8 4.2 1.8s3.1-.6 4.2-1.8l4.2-4.2-3.5-3.5 4.9-4.9 6.4 6.4-3.5 3.5 1.4 1.4 4.2 4.2 1.4-1.4-4.2-4.2 2.1-2.1 4.2 4.2 1.4-1.4-4.2-4.2 2.1-2.1 4.2 4.2 1.4-1.4-4.2-4.2-1.4-1.4-3.5 3.5-6.3-6.5 12-12 2.1 2.1L35 6.7 29.3 1l-1.4 1.4L30 4.6l-12 12L4.6 3.2 3.2 4.6 16.6 18l-5 5-3.5-3.6zm2.8 11.3c-1.5 1.5-4.1 1.5-5.7 0-1.6-1.6-1.6-4.1 0-5.7L8 22.2l5.7 5.7-2.8 2.8z"/></symbol></svg>