<svg xmlns="http://www.w3.org/2000/svg"><symbol id="aani-24" viewBox="0 0 24 24" fill="currentColor"><path d="M12 4.8v14.3L8.8 16H2V8h6.8L12 4.8M14 0L8 6H0v12h8l6 6V0zm10 11h-8v2h8v-2zm-.5 11.1l-5.7-5.7-1.4 1.4 5.7 5.7 1.4-1.4zm.4-20.6L22.5.1 16.6 6 18 7.4l5.9-5.9z"/></symbol><symbol id="aani-miinus-24" viewBox="0 0 24 24" fill="currentColor"><path d="M12 4.8v14.3L8.8 16H2V8h6.8L12 4.8M14 0L8 6H0v12h8l6 6V0zm10 11h-8v2h8v-2z"/></symbol><symbol id="aani-plus-24" viewBox="0 0 24 24" fill="currentColor"><path d="M0 6v12h8l6 6V0L8 6H0zm12-1.2v14.3L8.8 16H2V8h6.8L12 4.8zM24 13h-3v3h-2v-3h-3v-2h3V8h2v3h3v2z"/></symbol><symbol id="aani-pois-24" viewBox="0 0 24 24" fill="currentColor"><path d="M0 6v12h8l6 6V0L8 6H0zm12-1.2v14.3L8.8 16H2V8h6.8L12 4.8zm9.4 7.2l2.1 2.1-1.4 1.4-2.1-2.1-2.1 2.1-1.4-1.4 2.1-2.1-2.1-2.1 1.4-1.4 2.1 2.1 2.1-2.1 1.4 1.4-2.1 2.1z"/></symbol><symbol id="aita-24" viewBox="0 0 24 24" fill="currentColor"><path d="M24 8V6h-4V1l-1-1-1 1v5h-5V1l-1-1-1 1v5H6V1L5 0 4 1v5H0v2h4v10H0v2h4v4h2v-4h5v4h2v-4h5v4h2v-4h4v-2h-4V8h4zM6 18V8h5v10H6zm12 0h-5V8h5v10z"/></symbol><symbol id="akselinlaskija-24" viewBox="0 0 24 24" fill="currentColor"><path d="M24 11h-2.1c-.5-2.6-2.7-4.5-5.4-4.5-1.9 0-3.5.9-4.5 2.3-1-1.4-2.6-2.3-4.5-2.3-2.7 0-4.9 1.9-5.4 4.5H0v2h2.1c.5 2.6 2.7 4.5 5.4 4.5 1.9 0 3.5-.9 4.5-2.3 1 1.4 2.6 2.3 4.5 2.3 2.7 0 4.9-1.9 5.4-4.5H24v-2zM7.5 15.5C5.6 15.5 4 13.9 4 12s1.6-3.5 3.5-3.5S11 10.1 11 12s-1.6 3.5-3.5 3.5zm9 0c-1.9 0-3.5-1.6-3.5-3.5s1.6-3.5 3.5-3.5S20 10.1 20 12s-1.6 3.5-3.5 3.5z"/></symbol><symbol id="alipainetyhjennys-24" viewBox="0 0 24 24" fill="currentColor"><path d="M23 24h-8V10h-2V8h2V4c0-2.2 1.8-4 4-4s4 1.8 4 4v20zm-6-2h4V4c0-1.1-.9-2-2-2s-2 .9-2 2v18zM10.4 9L1.7.3.3 1.7 7.6 9 .3 16.3l1.4 1.4L10.4 9z"/></symbol><symbol id="askelpalautin-24" viewBox="0 0 24 24" fill="currentColor"><path d="M8.5 0L.8 12l7.6 12H24V0H8.5zM22 22H9.5L3.2 12 9.5 2H22v20zM10.2 7.4l3.2 3.2 3.2-3.2L18 8.8 14.8 12l3.2 3.2-1.4 1.4-3.2-3.2-3.2 3.2-1.4-1.4L12 12 8.8 8.8l1.4-1.4z"/></symbol><symbol id="astinlauta-24" viewBox="0 0 24 24" fill="currentColor"><path d="M0 12h8v2H0v-2zm6-4h5v16h2V8h5V6H6v2zm10-6h8V0h-8v2z"/></symbol><symbol id="auraus-24" viewBox="0 0 24 24" fill="currentColor"><path d="M8 2H6V0h2v2zM4 20h2v-2H4v2zm0 4h2v-2H4v2zM18 0h-2v2h2V0zm0 20h2v-2h-2v2zM4 16h2v-2H4v2zm14 0h2v-2h-2v2zm0 8h2v-2h-2v2zM.3 12.3l1.4 1.4L12 3.4l10.3 10.3 1.4-1.4L12 .6.3 12.3z"/></symbol><symbol id="baliisit-24" viewBox="0 0 24 24" fill="currentColor"><path d="M0 5.1L12 12 0 18.9V5.1zm12 0V19l12-7-12-6.9z"/></symbol><symbol id="bussi-24" viewBox="0 0 24 24" fill="currentColor"><path d="M5.5 14c0-.8.7-1.5 1.5-1.5s1.5.7 1.5 1.5-.7 1.5-1.5 1.5-1.5-.7-1.5-1.5zM17 15.5c.8 0 1.5-.7 1.5-1.5s-.7-1.5-1.5-1.5-1.5.7-1.5 1.5.7 1.5 1.5 1.5zM22 4v12c0 2.2-1.8 4-4 4v4h-2v-4H8v4H6v-4c-2.2 0-4-1.8-4-4V4c0-2.2 1.8-4 4-4h12c2.2 0 4 1.8 4 4zm-2 7H4v5c0 1.1.9 2 2 2h12c1.1 0 2-.9 2-2v-5zm0-7c0-1.1-.9-2-2-2H6c-1.1 0-2 .9-2 2v5h16V4z"/></symbol><symbol id="dokumentti-24" viewBox="0 0 24 24" fill="currentColor"><path d="M22 24H2V0h20v24zM4 22h16V2H4v20zM18 6H6v2h12V6zm0 5H6v2h12v-2zm0 5H6v2h12v-2z"/></symbol><symbol id="dokumentti-plus-24" viewBox="0 0 24 24" fill="currentColor"><path d="M23 13h-3v3h-2v-3h-3v-2h3V8h2v3h3v2zm-5 9H2V2h16v4h2V0H0v24h20v-6h-2v4zM16 6H4v2h12V6zM4 13h9v-2H4v2zm0 5h12v-2H4v2z"/></symbol><symbol id="epatasa-24" viewBox="0 0 24 24" fill="currentColor"><path d="M16 12.6l-4-4-4 4-4-4-4 4v2.8l4-4 4 4 4-4 4 4 4-4 4 4v-2.8l-4-4z"/></symbol><symbol id="epatasa-kielto-24" viewBox="0 0 24 24" fill="currentColor"><path d="M4 11.4l-4 4v-2.8l4-4L7.4 12 6 13.4l-2-2zM14.6 14l1.4 1.4 4-4 4 4v-2.8l-4-4-5.4 5.4zM22.3.3l-22 22 1.4 1.4 22-22L22.3.3z"/></symbol><symbol id="epatasaiset-reunat-24" viewBox="0 0 24 24" fill="currentColor"><path d="M11 18h2v6h-2v-6zm0-3h2V9h-2v6zm0-9h2V0h-2v6zM3.7.3L2.3 1.7 4.6 4l-4 4 4 4-4 4 4 4-2.3 2.3 1.4 1.4L7.4 20l-4-4 4-4-4-4 4-4L3.7.3zm16 0l-1.4 1.4L20.6 4l-4 4 4 4-4 4 4 4-2.3 2.3 1.4 1.4 3.7-3.7-4-4 4-4-4-4 4-4L19.7.3z"/></symbol><symbol id="erotusjakso-24" viewBox="0 0 24 24" fill="currentColor"><path d="M18.7 6.7l-12 12-1.4-1.4 12-12 1.4 1.4zm-6 0l-1.4-1.4L5.6 11H0v2h6.4l6.3-6.3zm-1.4 10.6l1.4 1.4 5.7-5.7H24v-2h-6.4l-6.3 6.3z"/></symbol><symbol id="erotuskentta-24" viewBox="0 0 24 24" fill="currentColor"><path d="M14.7 6.7L8.4 13H0v-2h7.6l5.7-5.7 1.4 1.4zM9.3 17.3l1.4 1.4 5.7-5.7H24v-2h-8.4l-6.3 6.3z"/></symbol><symbol id="etaisyys-24" viewBox="0 0 24 24" fill="currentColor"><path d="M22 11H2V6H0v12h2v-5h20v5h2V6h-2z"/></symbol><symbol id="gps-1-24" viewBox="0 0 24 24" fill="currentColor"><path d="M0 2v2c2.2 0 4-1.8 4-4H2c0 1.1-.9 2-2 2z"/></symbol><symbol id="gps-2-24" viewBox="0 0 24 24" fill="currentColor"><path d="M7 0h2c0 5-4 9-9 9V7c3.9 0 7-3.1 7-7zM4 0H2c0 1.1-.9 2-2 2v2c2.2 0 4-1.8 4-4z"/></symbol><symbol id="gps-3-24" viewBox="0 0 24 24" fill="currentColor"><path d="M12 0h2c0 7.7-6.3 14-14 14v-2c6.6 0 12-5.4 12-12zM9 0H7c0 3.9-3.1 7-7 7v2c5 0 9-4 9-9zM4 0H2c0 1.1-.9 2-2 2v2c2.2 0 4-1.8 4-4z"/></symbol><symbol id="gps-4-24" viewBox="0 0 24 24" fill="currentColor"><path d="M17 0h2c0 10.5-8.5 19-19 19v-2c9.4 0 17-7.6 17-17zm-3 0h-2c0 6.6-5.4 12-12 12v2c7.7 0 14-6.3 14-14zM9 0H7c0 3.9-3.1 7-7 7v2c5 0 9-4 9-9zM4 0H2c0 1.1-.9 2-2 2v2c2.2 0 4-1.8 4-4z"/></symbol><symbol id="gps-5-24" viewBox="0 0 24 24" fill="currentColor"><path d="M22 0h2c0 13.2-10.8 24-24 24v-2c12.1 0 22-9.9 22-22zm-3 0h-2c0 9.4-7.6 17-17 17v2c10.5 0 19-8.5 19-19zm-5 0h-2c0 6.6-5.4 12-12 12v2c7.7 0 14-6.3 14-14zM9 0H7c0 3.9-3.1 7-7 7v2c5 0 9-4 9-9zM4 0H2c0 1.1-.9 2-2 2v2c2.2 0 4-1.8 4-4z"/></symbol><symbol id="halkeama-24" viewBox="0 0 24 24" fill="currentColor"><path d="M14.7 1.7L13.3.3 2.6 11l6 6-5.3 5.3 1.4 1.4 6.7-6.7-6-6L9 7.4l9.6 9.6-5.3 5.3 1.4 1.4 6.7-6.7-11-11z"/></symbol><symbol id="halytysvalo-24" viewBox="0 0 24 24" fill="currentColor"><path d="M20 11h4v2h-4zM0 11h4v2H0zM16.95 5.595l2.828-2.828 1.414 1.414-2.828 2.828zM11 0h2v4h-2zM2.767 4.222L4.18 2.807l2.828 2.828L5.595 7.05zM18 12c0-3.3-2.7-6-6-6s-6 2.7-6 6v6H4v6h16v-6h-2v-6zM8 12c0-2.2 1.8-4 4-4s4 1.8 4 4v6H8v-6zm10 10H6v-2h12v2z"/><path d="M12 10v6h2v-4c0-1.1-.9-2-2-2z"/></symbol><symbol id="harja-24" viewBox="0 0 24 24" fill="currentColor"><path d="M13 16V0h-2v16H3v8h2v-6h2v6h2v-6h2v6h2v-6h2v6h2v-6h2v6h2v-8z"/></symbol><symbol id="harva-pinta-24" viewBox="0 0 24 24" fill="currentColor"><path d="M20 11c0 .6-.4 1-1 1s-1-.4-1-1v-1h-5v1c0 .6-.4 1-1 1s-1-.4-1-1v-1H6v1c0 .6-.4 1-1 1s-1-.4-1-1v-1H0v2h2.2c.4 1.2 1.5 2 2.8 2s2.4-.8 2.8-2h1.3c.4 1.2 1.5 2 2.8 2s2.4-.8 2.8-2H16c.4 1.2 1.5 2 2.8 2s2.4-.8 2.8-2H24v-2h-4v1z"/></symbol><symbol id="heina-leikkaus-24" viewBox="0 0 24 24" fill="currentColor"><path d="M9 11h6v2H9v-2zm9 2h6v-2h-6v2zM0 13h6v-2H0v2zm2 11h2v-8H2v8zm6 0h2v-8H8v8zm6 0h2v-8h-2v8zm6 0h2v-8h-2v8zM10.7 1.7L9.3.3l-7 7 1.4 1.4 7-7zm-1 7l7-7L15.3.3l-7 7 1.4 1.4zm6 0l7-7L21.3.3l-7 7 1.4 1.4zm4.6-1.4l1.4 1.4 2-2-1.4-1.4-2 2z"/></symbol><symbol id="heina-silma-24" viewBox="0 0 24 24" fill="currentColor"><path d="M2 14h2v10H2V14zm6 10h2V14H8v10zm6 0h2V14h-2v10zm6 0h2V14h-2v10zM12 6c-1.1 0-2 .9-2 2s.9 2 2 2 2-.9 2-2-.9-2-2-2zm0-6c-2 0-4.1.8-5.7 2.3L.7 8l4 4h2.8l-4-4 4.2-4.2C8.9 2.6 10.4 2 12 2s3.1.6 4.2 1.8L20.5 8l-4 4h2.8l4-4-5.7-5.7C16.1.8 14 0 12 0z"/></symbol><symbol id="henkilo-24" viewBox="0 0 24 24" fill="currentColor"><path d="M16 12.7c1.8-1.3 3-3.4 3-5.7 0-3.9-3.1-7-7-7S5 3.1 5 7c0 2.4 1.2 4.4 3 5.7-4.7 1.7-8 6.1-8 11.3h24c0-5.2-3.3-9.6-8-11.3zM7 7c0-2.8 2.2-5 5-5s5 2.2 5 5-2.2 5-5 5-5-2.2-5-5zm5 7c4.8 0 8.9 3.4 9.8 8H2.2c.9-4.6 5-8 9.8-8z"/></symbol><symbol id="hiekanantolaite-24" viewBox="0 0 24 24" fill="currentColor"><path d="M12 12L24 0H0l12 12zm0-2.8L4.8 2h14.3L12 9.2zm1.5 4.8c0 .8-.7 1.5-1.5 1.5s-1.5-.7-1.5-1.5.7-1.5 1.5-1.5 1.5.7 1.5 1.5zm0 8c0 .8-.7 1.5-1.5 1.5s-1.5-.7-1.5-1.5.7-1.5 1.5-1.5 1.5.7 1.5 1.5zm-8.3 0c0 .8-.7 1.5-1.5 1.5s-1.5-.7-1.5-1.5.7-1.5 1.5-1.5 1.5.7 1.5 1.5zm16.3 0c0 .8-.7 1.5-1.5 1.5s-1.5-.7-1.5-1.5.7-1.5 1.5-1.5 1.5.7 1.5 1.5zm-12-4c0 .8-.7 1.5-1.5 1.5s-1.5-.7-1.5-1.5.7-1.5 1.5-1.5 1.5.7 1.5 1.5zm8 0c0 .8-.7 1.5-1.5 1.5s-1.5-.7-1.5-1.5.7-1.5 1.5-1.5 1.5.7 1.5 1.5z"/></symbol><symbol id="huomiokartio-24" viewBox="0 0 24 24" fill="currentColor"><path d="M21.2 22L12 .5 2.8 22H0v2h24v-2h-2.8zm-4.7-6h-9l1.7-4h5.5l1.8 4zm-2.6-6h-3.8L12 5.5l1.9 4.5zm-7.2 8h10.7l1.7 4H4.9l1.8-4z"/></symbol><symbol id="huutomerkki-24" viewBox="0 0 24 24" fill="currentColor"><path d="M12 20.5c.8 0 1.5.7 1.5 1.5s-.7 1.5-1.5 1.5-1.5-.7-1.5-1.5.7-1.5 1.5-1.5zM13 0h-2v18h2V0z"/></symbol><symbol id="ilmoitustaulu-24" viewBox="0 0 24 24" fill="currentColor"><path d="M0 20h4v4h2v-4h12v4h2v-4h4V0H0v20zM2 2h20v16H2V2zm11.5 3c0 .8-.7 1.5-1.5 1.5s-1.5-.7-1.5-1.5.7-1.5 1.5-1.5 1.5.7 1.5 1.5zM11 8h2v8h-2V8z"/></symbol><symbol id="info-24" viewBox="0 0 24 24" fill="currentColor"><path d="M12 .5c.8 0 1.5.7 1.5 1.5s-.7 1.5-1.5 1.5-1.5-.7-1.5-1.5S11.2.5 12 .5zM13 6h-2v18h2V6z"/></symbol><symbol id="jakoavain-24" viewBox="0 0 24 24" fill="currentColor"><path d="M23.7 22.3L10.9 9.5c.7-1 1.1-2.2 1.1-3.5 0-3.3-2.7-6-6-6v2c2.2 0 4 1.8 4 4s-1.8 4-4 4-4-1.8-4-4H0c0 3.3 2.7 6 6 6 1.3 0 2.5-.4 3.5-1.1l12.8 12.8 1.4-1.4z"/></symbol><symbol id="jarrujen-koettelujarjestelma-24" viewBox="0 0 24 24" fill="currentColor"><path d="M22.9 9.3c1.5 3.7 1.5 7.8 0 11.5L21 20c1.3-3.2 1.3-6.7 0-9.9l1.9-.8zm-6.9.1c1.2 1.5 2 3.5 2 5.6 0 5-4 9-9 9s-9-4-9-9 4-9 9-9c2.1 0 4.1.7 5.6 2L22.3.3l1.4 1.4L16 9.4zm-1.4 1.4L9 16.4l-3.7-3.7 1.4-1.4L9 13.6l4.2-4.2C12 8.5 10.6 8 9 8c-3.9 0-7 3.1-7 7s3.1 7 7 7 7-3.1 7-7c0-1.6-.5-3-1.4-4.2z"/></symbol><symbol id="juna-24" viewBox="0 0 24 24" fill="currentColor"><path d="M4 22h16v2H4v-2zm3-6.5c.8 0 1.5-.7 1.5-1.5s-.7-1.5-1.5-1.5-1.5.7-1.5 1.5.7 1.5 1.5 1.5zm10 0c.8 0 1.5-.7 1.5-1.5s-.7-1.5-1.5-1.5-1.5.7-1.5 1.5.7 1.5 1.5 1.5zM22 4v12c0 2.2-1.8 4-4 4H6c-2.2 0-4-1.8-4-4V4c0-2.2 1.8-4 4-4h12c2.2 0 4 1.8 4 4zm-2 7H4v5c0 1.1.9 2 2 2h12c1.1 0 2-.9 2-2v-5zm0-7c0-1.1-.9-2-2-2H6c-1.1 0-2 .9-2 2v5h16V4z"/></symbol><symbol id="jyran-jalki-24" viewBox="0 0 24 24" fill="currentColor"><path d="M11 20h13v2H13v2H0v-2h11v-2zm9.5-14H24v6h-3.5c-1.3 3.6-4.6 6-8.5 6s-7.2-2.4-8.5-6H0V6h3.5C4.8 2.4 8.2 0 12 0s7.2 2.4 8.5 6zM5.7 6h12.6c-1.1-2.4-3.6-4-6.3-4S6.8 3.6 5.7 6zM12 8c-.6 0-1 .4-1 1s.4 1 1 1 1-.4 1-1-.4-1-1-1zm-9 2h6.2c-.1-.3-.2-.6-.2-1s.1-.7.2-1H2v2h1zm15.3 2H5.7c1.1 2.4 3.6 4 6.3 4s5.2-1.6 6.3-4zM21 8h-6.2c.1.3.2.6.2 1s-.1.7-.2 1H22V8h-1z"/></symbol><symbol id="kaantopoyta-24" viewBox="0 0 24 24" fill="currentColor"><path d="M12 18c3.3 0 6-2.7 6-6 0-1.3-.4-2.5-1.1-3.5l6.8-6.8L22.3.3l-6.8 6.8C14.5 6.4 13.3 6 12 6c-3.3 0-6 2.7-6 6s2.7 6 6 6zm4-6c0 2.2-1.8 4-4 4-.7 0-1.4-.2-2-.6l5.5-5.5c.3.7.5 1.4.5 2.1zm-4-4c.7 0 1.4.2 2 .6L8.6 14c-.4-.6-.6-1.3-.6-2 0-2.2 1.8-4 4-4zm12 4c0 6.6-5.4 12-12 12S0 18.6 0 12h2c0 5.5 4.5 10 10 10s10-4.5 10-10h2z"/></symbol><symbol id="kahdeksankulmio-24" viewBox="0 0 24 24" fill="currentColor"><path d="M6.9 0L0 6.9V17l6.9 7H17l6.9-6.9V6.9L17.1 0H6.9zM22 16.2L16.2 22H7.8L2 16.2V7.8L7.8 2h8.5L22 7.8v8.4z"/></symbol><symbol id="kaidevaurio-24" viewBox="0 0 24 24" fill="currentColor"><path d="M21 7c-1.7 0-3-1.3-3-3 0 1.7-1.3 3-3 3s-3-1.3-3-3H0v8h4v8h2v-8h12v8h2v-8h4V4c0 1.7-1.3 3-3 3zm1 3H2V6h8.4c.8 1.8 2.6 3 4.6 3 1.1 0 2.2-.4 3-1 .8.6 1.9 1 3 1 .3 0 .7 0 1-.1V10z"/></symbol><symbol id="kaivon-korkeus-24" viewBox="0 0 24 24" fill="currentColor"><path d="M19 10c0-2.3-3-4-7-4s-7 1.7-7 4v6H0v2h24v-2h-5v-6zm-7-2c3.1 0 5 1.2 5 2s-1.9 2-5 2-5-1.2-5-2 1.9-2 5-2zm-5 4.9c1.3.7 3 1.1 5 1.1s3.7-.4 5-1.1V16H7v-3.1z"/></symbol><symbol id="kalenteri-24" viewBox="0 0 24 24" fill="currentColor"><path d="M18 2V0h-2v2H8V0H6v2H1v22h22V2h-5zm-2 5h-3V4h3v3zm-5 2v3H8V9h3zM8 7V4h3v3H8zm3 7v3H8v-3h3zm0 5v3H8v-3h3zm2 0h3v3h-3v-3zm0-2v-3h3v3h-3zm0-5V9h3v3h-3zM3 4h3v3H3V4zm0 5h3v3H3V9zm0 5h3v3H3v-3zm0 5h3v3H3v-3zm18 3h-3v-3h3v3zm0-5h-3v-3h3v3zm0-5h-3V9h3v3zm-3-5V4h3v3h-3z"/></symbol><symbol id="kamera-24" viewBox="0 0 24 24" fill="currentColor"><path d="M12 8c-3.3 0-6 2.7-6 6s2.7 6 6 6 6-2.7 6-6-2.7-6-6-6zm0 10c-2.2 0-4-1.8-4-4s1.8-4 4-4 4 1.8 4 4-1.8 4-4 4zm3.4-16H8.6l-5 5H0v17h24V7h-3.6l-5-5zM22 22H2V9h2.4l5-5h5.2l5 5H22v13z"/></symbol><symbol id="kansio-24" viewBox="0 0 24 24" fill="currentColor"><path d="M24 24H0V0h8.4l3 3H24v21zM2 22h20V5H10.6l-3-3H2v20z"/></symbol><symbol id="karkikolmio-huutomerkki-24" viewBox="0 0 24 24" fill="currentColor"><path d="M12 11.5c.8 0 1.5.7 1.5 1.5s-.7 1.5-1.5 1.5-1.5-.7-1.5-1.5.7-1.5 1.5-1.5zM13 4h-2v6h2V4zm7.8-2H3.2L12 19.5 20.8 2M24 0L12 24 0 0h24z"/></symbol><symbol id="kartta-24" viewBox="0 0 24 24" fill="currentColor"><path d="M16 0L8 4 0 0v20l8 4 8-4 8 4V4l-8-4zM9 5.7l6-3v15.5l-6 3V5.7zM2 3.2l5 2.5v15.5l-5-2.5V3.2zm20 17.6l-5-2.5V2.7l5 2.5v15.6z"/></symbol><symbol id="katos-24" viewBox="0 0 24 24" fill="currentColor"><path d="M2 24V6.3l10-4.1 10 4.1V24h2V5L12 0 0 5v19z"/></symbol><symbol id="kelirikko-24" viewBox="0 0 24 24" fill="currentColor"><path d="M19 1c0 1.1-.9 2-2 2s-2-.9-2-2V0H9.6L7 2.6 4.4 0H0v2h3.6L7 5.4l2-2L10.6 5l-4 4 5 5-5.3 5.3 1.4 1.4 2.3-2.3 5.3 5.3 1.4-1.4-5.3-5.3 3-3-5-5 4-4-3-3h2.7c.4 1.7 2 3 3.9 3s3.4-1.3 3.9-3H24V0h-5v1z"/></symbol><symbol id="kello-24" viewBox="0 0 24 24" fill="currentColor"><path d="M18 13h-7V4h2v7h5v2zm6-1c0-6.6-5.4-12-12-12S0 5.4 0 12s5.4 12 12 12 12-5.4 12-12zm-2 0c0 5.5-4.5 10-10 10S2 17.5 2 12 6.5 2 12 2s10 4.5 10 10z"/></symbol><symbol id="kielto-24" viewBox="0 0 24 24" fill="currentColor"><path d="M12 0C5.4 0 0 5.4 0 12s5.4 12 12 12 12-5.4 12-12S18.6 0 12 0zm0 2c2.4 0 4.6.8 6.3 2.3l-14 14C2.8 16.6 2 14.4 2 12 2 6.5 6.5 2 12 2zm0 20c-2.4 0-4.6-.8-6.3-2.3l14-14C21.2 7.4 22 9.6 22 12c0 5.5-4.5 10-10 10z"/></symbol><symbol id="kierra-oikea-24" viewBox="0 0 24 24" fill="currentColor"><path d="M16 10h8V2h-2v3.4C19.8 2.1 16.1 0 12 0 5.4 0 0 5.4 0 12s5.4 12 12 12 12-5.4 12-12h-2c0 5.5-4.5 10-10 10S2 17.5 2 12 6.5 2 12 2c4 0 7.6 2.4 9.2 6H16v2z"/></symbol><symbol id="kierra-vasen-24" viewBox="0 0 24 24" fill="currentColor"><path d="M12 0C7.9 0 4.2 2.1 2 5.4V2H0v8h8V8H2.8C4.4 4.4 8 2 12 2c5.5 0 10 4.5 10 10s-4.5 10-10 10S2 17.5 2 12H0c0 6.6 5.4 12 12 12s12-5.4 12-12S18.6 0 12 0z"/></symbol><symbol id="kiinteistoraja-24" viewBox="0 0 24 24" fill="currentColor"><path d="M18 12v6H6v-6l6-6 6 6zm-2 .8l-4-4-4 4V16h3v-2h2v2h3v-3.2zM10 2h4V0h-4v2zm0 22h4v-2h-4v2zM22 0h-4v2h4v4h2V0h-2zm0 14h2v-4h-2v4zm0 8h-4v2h6v-6h-2v4zM0 0v6h2V2h4V0H0zm2 10H0v4h2v-4zm0 8H0v6h6v-2H2v-4z"/></symbol><symbol id="kirjaudu-sisaan-24" viewBox="0 0 24 24" fill="currentColor"><path d="M24 0v24H8v-9h2v7h12V2H10v7H8V0h16zM13.4 15.2l1.4 1.4 4.6-4.6-4.6-4.6-1.4 1.4 2.2 2.2H0v2h15.6l-2.2 2.2z"/></symbol><symbol id="kirjaudu-ulos-24" viewBox="0 0 24 24" fill="currentColor"><path d="M14 15h2v9H0V0h16v9h-2V2H2v20h12v-7zm4.8-7.6l-1.4 1.4 2.2 2.2H4v2h15.6l-2.2 2.2 1.4 1.4 4.6-4.6-4.6-4.6z"/></symbol><symbol id="kirjekuori-24" viewBox="0 0 24 24" fill="currentColor"><path d="M0 2v20h24V2H0zm12 11.6L2.4 4h19.2L12 13.6zM7.6 12L2 17.6V6.4L7.6 12zM9 13.4l3 3 3-3 6.6 6.6H2.4L9 13.4zm7.4-1.4L22 6.4v11.2L16.4 12z"/></symbol><symbol id="kiskotus-irroita-24" viewBox="0 0 24 24" fill="currentColor"><path d="M7.3 12.7L8.6 14l-4.3 4.3c-.4-.2-.8-.3-1.3-.3-1.7 0-3 1.3-3 3s1.3 3 3 3 3-1.3 3-3c0-.5-.1-.9-.3-1.3l4.3-4.3 1.3 1.3 1.4-1.4-4-4-1.4 1.4zM3 22c-.6 0-1-.4-1-1s.4-1 1-1 1 .4 1 1-.4 1-1 1zm12.4-12l4.3-4.3c.4.2.8.3 1.3.3 1.7 0 3-1.3 3-3s-1.3-3-3-3-3 1.3-3 3c0 .5.1.9.3 1.3L14 8.6l-1.3-1.3-1.4 1.4 4 4 1.4-1.4-1.3-1.3zM21 2c.6 0 1 .4 1 1s-.4 1-1 1-1-.4-1-1 .4-1 1-1zm-5 17h8v2h-8v-2z"/></symbol><symbol id="kiskotus-liita-24" viewBox="0 0 24 24" fill="currentColor"><path d="M7.3 12.7L8.6 14l-4.3 4.3c-.4-.2-.8-.3-1.3-.3-1.7 0-3 1.3-3 3s1.3 3 3 3 3-1.3 3-3c0-.5-.1-.9-.3-1.3l4.3-4.3 1.3 1.3 1.4-1.4-4-4-1.4 1.4zM3 22c-.6 0-1-.4-1-1s.4-1 1-1 1 .4 1 1-.4 1-1 1zm12.4-12l4.3-4.3c.4.2.8.3 1.3.3 1.7 0 3-1.3 3-3s-1.3-3-3-3-3 1.3-3 3c0 .5.1.9.3 1.3L14 8.6l-1.3-1.3-1.4 1.4 4 4 1.4-1.4-1.3-1.3zM21 2c.6 0 1 .4 1 1s-.4 1-1 1-1-.4-1-1 .4-1 1-1zm0 17h3v2h-3v3h-2v-3h-3v-2h3v-3h2v3z"/></symbol><symbol id="kiveysvaurio-24" viewBox="0 0 24 24" fill="currentColor"><path d="M21 11c-1.7 0-3-1.3-3-3 0 1.7-1.3 3-3 3s-3-1.3-3-3H8c-1.1 0-2 .9-2 2 0-1.1-.9-2-2-2H0v2h4v4H0v2h4c1.1 0 2-.9 2-2 0 1.1.9 2 2 2h14c1.1 0 2-.9 2-2v-4c0-.3-.1-.6-.2-.9-.5 1.1-1.5 1.9-2.8 1.9zm1 3H8v-4h2.4c.8 1.8 2.5 3 4.6 3 1.1 0 2.2-.4 3-1 .8.6 1.9 1 3 1 .3 0 .7 0 1-.1V14z"/></symbol><symbol id="klemmari-24" viewBox="0 0 24 24" fill="currentColor"><path d="M7.8 7.8l1.4-1.4 5.7 5.7c1.6 1.6 1.6 4.1 0 5.7-1.6 1.6-4.1 1.6-5.7 0l-7.1-7.1c-2.3-2.3-2.3-6.1 0-8.5s6.1-2.3 8.5 0l11.3 11.3c2.3 2.3 2.3 6.1 0 8.5s-6.1 2.3-8.5 0l1.4-1.4c1.6 1.6 4.1 1.6 5.7 0s1.6-4.1 0-5.7L9.2 3.5C7.6 2 5.1 2 3.5 3.5S2 7.6 3.5 9.2l7.1 7.1c.8.8 2 .8 2.8 0 .8-.8.8-2 0-2.8L7.8 7.8z"/></symbol><symbol id="km-merkki-24" viewBox="0 0 24 24" fill="currentColor"><path d="M12 0C5.4 0 0 5.4 0 12s5.4 12 12 12 12-5.4 12-12S18.6 0 12 0zm0 22V12H2C2 6.5 6.5 2 12 2v10h10c0 5.5-4.5 10-10 10z"/></symbol><symbol id="km-merkki-lisaa-24" viewBox="0 0 24 24" fill="currentColor"><path d="M12 12V2C6.5 2 2 6.5 2 12h10v12C5.4 24 0 18.6 0 12S5.4 0 12 0s12 5.4 12 12H12zm8 2h-2v4h-4v2h4v4h2v-4h4v-2h-4v-4z"/></symbol><symbol id="km-merkki-sijainti-24" viewBox="0 0 24 24" fill="currentColor"><path d="M12 0C5.4 0 0 5.4 0 12s5.4 12 12 12h12V12c0-6.6-5.4-12-12-12zm10 22H12V12H2C2 6.5 6.5 2 12 2v10h10v10z"/></symbol><symbol id="kohouma-24" viewBox="0 0 24 24" fill="currentColor"><path d="M18.7 3.8C20.1 5.2 22 6 24 6v2c-2.5 0-4.9-1-6.7-2.8-2.9-2.9-7.7-2.9-10.6 0C4.9 7 2.5 8 0 8V6c2 0 3.9-.8 5.3-2.2C9 .1 15 .1 18.7 3.8zM5.3 17.3l1.4 1.4 4.3-4.3V24h2v-9.6l4.3 4.3 1.4-1.4-6.7-6.7-6.7 6.7z"/></symbol><symbol id="kohouma-vaara-24" viewBox="0 0 24 24" fill="currentColor"><path d="M24 22v2c-2.5 0-4.9-1-6.7-2.8-2.9-2.9-7.7-2.9-10.6 0C4.9 23 2.5 24 0 24v-2c2 0 3.9-.8 5.3-2.2 3.7-3.7 9.7-3.7 13.4 0C20.1 21.2 22 22 24 22zm-5.1-10H5.1L12 0l6.9 12zM8.5 10h6.9L12 4l-3.5 6z"/></symbol><symbol id="kolmio-huutomerkki-24" viewBox="0 0 24 24" fill="currentColor"><path d="M12 17.5c.8 0 1.5.7 1.5 1.5s-.7 1.5-1.5 1.5-1.5-.7-1.5-1.5.7-1.5 1.5-1.5zm1-7.5h-2v6h2v-6zm-1-5.5L3.2 22h17.5L12 4.5M12 0l12 24H0L12 0z"/></symbol><symbol id="kolmio-miinus-24" viewBox="0 0 24 24" fill="currentColor"><path d="M16 17H8v-2h8v2zM12 4.5L3.2 22h17.5L12 4.5M12 0l12 24H0L12 0z"/></symbol><symbol id="kolmio-plus-24" viewBox="0 0 24 24" fill="currentColor"><path d="M16 17h-3v3h-2v-3H8v-2h3v-3h2v3h3v2zm8 7H0L12 0l12 24zM3.2 22h17.5L12 4.5 3.2 22z"/></symbol><symbol id="kompassi-24" viewBox="0 0 24 24" fill="currentColor"><path d="M12 0C5.4 0 0 5.4 0 12s5.4 12 12 12 12-5.4 12-12S18.6 0 12 0zm0 22C6.5 22 2 17.5 2 12S6.5 2 12 2s10 4.5 10 10-4.5 10-10 10zm-5.6-4.4l8.4-2.8 2.8-8.4-8.4 2.8-2.8 8.4zm4-5.7l1.7 1.7-2.6.9.9-2.6zm3.2.2l-1.7-1.7 2.6-.9-.9 2.6z"/></symbol><symbol id="kopio-24" viewBox="0 0 24 24" fill="currentColor"><path d="M22 24H6V4h16v20zM8 22h12V6H8v16zM4 2h14V0H2v20h2V2z"/></symbol><symbol id="korkeuspiste-24" viewBox="0 0 24 24" fill="currentColor"><path d="M24 12c0-6.6-5.4-12-12-12S0 5.4 0 12c0 3 1.1 5.7 2.8 7.7L.3 22.2l1.4 1.4 2.5-2.5C6.3 22.9 9 24 12 24s5.7-1.1 7.7-2.8l2.5 2.5 1.4-1.4-2.5-2.5C22.9 17.7 24 15 24 12zM2 12C2 6.5 6.5 2 12 2s10 4.5 10 10c0 2.4-.8 4.6-2.3 6.3L12 10.6l-7.7 7.7C2.8 16.6 2 14.4 2 12zm10 10c-2.4 0-4.6-.8-6.3-2.3l6.3-6.3 6.3 6.3C16.6 21.2 14.4 22 12 22z"/></symbol><symbol id="kukka-kuihtunut-24" viewBox="0 0 24 24" fill="currentColor"><path d="M23.5 6c.3-.6.5-1.3.5-2 0-2.2-1.8-4-4-4-4.1 0-7.5 3.1-7.9 7C5.3 7.5 0 13.1 0 20v4h2v-4c0-1.6.4-3.2 1-4.6.2 4.8 4.2 8.6 9 8.6h1v-1c0-5-4-9-9-9h-.2c1.8-2.8 4.8-4.7 8.3-5 .5 3.9 3.9 7 7.9 7 2.2 0 4-1.8 4-4 0-.7-.2-1.4-.5-2 .3-.6.5-1.3.5-2s-.2-1.4-.5-2zM10.9 21.9c-3-.5-5.4-2.8-5.8-5.8 3 .5 5.3 2.8 5.8 5.8zM22 8c0 1.1-.9 2-2 2 1.1 0 2 .9 2 2s-.9 2-2 2c-3.3 0-6-2.7-6-6s2.7-6 6-6c1.1 0 2 .9 2 2s-.9 2-2 2c1.1 0 2 .9 2 2z"/></symbol><symbol id="kuu-24" viewBox="0 0 24 24" fill="currentColor"><path d="M15.6 0c1.4 4.3.5 9.2-3 12.6-2.4 2.4-5.6 3.6-8.7 3.6-1.3 0-2.7-.2-3.9-.6.6 1.7 1.6 3.4 3 4.8 2.4 2.4 5.6 3.6 8.7 3.6 3.2 0 6.3-1.2 8.7-3.6 4.8-4.8 4.8-12.6 0-17.4-1.4-1.4-3-2.4-4.8-3zM19 19c-1.9 1.9-4.5 3-7.3 3s-5.3-1.1-7.3-3l-.7-.7h.2c3.8 0 7.4-1.5 10.1-4.2 2.8-2.8 4.3-6.5 4.2-10.3.2.2.5.4.7.7 1.9 1.9 3 4.5 3 7.3S20.9 17 19 19z"/></symbol><symbol id="kyna-24" viewBox="0 0 24 24" fill="currentColor"><path d="M22 6.4L17.6 2 19 .6 23.4 5 22 6.4zm-1.3 1.3l-1.4-1.4L3.6 22H2v-1.6L17.7 4.7l-1.4-1.4L0 19.6V24h4.4L20.7 7.7z"/></symbol><symbol id="kysymysmerkki-24" viewBox="0 0 24 24" fill="currentColor"><path d="M13 18h-2v-1.4c0-1.7.7-3.4 1.9-4.6l2.3-2.3c.8-.9 1.3-2 1.3-3.2C16.5 4 14.5 2 12 2S7.5 4 7.5 6.5h-2C5.5 2.9 8.4 0 12 0s6.5 2.9 6.5 6.5c0 1.7-.7 3.4-1.9 4.6l-2.3 2.3c-.8.9-1.3 2-1.3 3.2V18zm-1 2.5c-.8 0-1.5.7-1.5 1.5s.7 1.5 1.5 1.5 1.5-.7 1.5-1.5-.7-1.5-1.5-1.5z"/></symbol><symbol id="kytkentaryhma-24" viewBox="0 0 24 24" fill="currentColor"><path d="M23.7 9.7l-1.4-1.4-2.7 2.7h-3.7c-.4-1.7-2-3-3.9-3s-3.4 1.3-3.9 3H3.6L.3 14.3l1.4 1.4L4.4 13h3.7c.4 1.7 2 3 3.9 3s3.4-1.3 3.9-3h4.6l3.2-3.3zM12 14c-1.1 0-2-.9-2-2s.9-2 2-2 2 .9 2 2-.9 2-2 2z"/></symbol><symbol id="lahenna-24" viewBox="0 0 24 24" fill="currentColor"><path d="M14 8v2h-4v4H8v-4H4V8h4V4h2v4h4zm8.3 15.7L14.6 16c-1.5 1.2-3.5 2-5.6 2-5 0-9-4-9-9s4-9 9-9 9 4 9 9c0 2.1-.7 4.1-2 5.6l7.7 7.7-1.4 1.4zM16 9c0-3.9-3.1-7-7-7S2 5.1 2 9s3.1 7 7 7 7-3.1 7-7z"/></symbol><symbol id="laikka-24" viewBox="0 0 24 24" fill="currentColor"><path d="M20 16c-2.2 0-4 1.8-4 4s1.8 4 4 4 4-1.8 4-4-1.8-4-4-4zm0 6c-1.1 0-2-.9-2-2s.9-2 2-2 2 .9 2 2-.9 2-2 2zm1.1-10.8c1-1.5 1-3.7-.1-6C21 5 18.6 0 12 0S0 5.4 0 12s5 9 5.2 9.1c1.2.5 2.3.8 3.3.8s1.9-.2 2.6-.7c1.2-.8 1.8-2 1.8-3.6 0-2.5 2-4.5 4.5-4.5 1.7-.1 3-.7 3.7-1.9zM11 17.5c0 .9-.3 1.5-.9 1.9-.9.6-2.5.6-4.1-.2 0 0-4-1.9-4-7.2C2 6.5 6.5 2 12 2c5.3 0 7.2 3.9 7.2 4 .7 1.6.8 3.2.2 4.1-.4.6-1 .9-1.9.9-3.6 0-6.5 2.9-6.5 6.5z"/></symbol><symbol id="laipanvoitelu-24" viewBox="0 0 24 24" fill="currentColor"><path d="M20 8l-3.7 6.4c-.2.5-.3 1-.3 1.6 0 2.2 1.8 4 4 4s4-1.8 4-4c0-.6-.1-1.1-.3-1.6L20 8zm0 10c-1.1 0-2-.9-2-2 0-.2 0-.5.1-.7L20 12l1.9 3.3c.1.2.1.5.1.7 0 1.1-.9 2-2 2zM6 0H4v11H0v2h4v11h2v-2.5l4-3V6.6l-4-4V0zm2 7.4v10.1L6 19V5.4l2 2zM24 0v2c-1.7 0-3 1.3-3 3h-2c0-2.8 2.2-5 5-5z"/></symbol><symbol id="lajittuma-24" viewBox="0 0 24 24" fill="currentColor"><path d="M12 10c2.8 0 5-2.2 5-5s-2.2-5-5-5-5 2.2-5 5 2.2 5 5 5zm0-8c1.7 0 3 1.3 3 3s-1.3 3-3 3-3-1.3-3-3 1.3-3 3-3zM7 18c2.2 0 4-1.8 4-4s-1.8-4-4-4-4 1.8-4 4 1.8 4 4 4zm0-6c1.1 0 2 .9 2 2s-.9 2-2 2-2-.9-2-2 .9-2 2-2zm6 2c0 2.2 1.8 4 4 4s4-1.8 4-4-1.8-4-4-4-4 1.8-4 4zm6 0c0 1.1-.9 2-2 2s-2-.9-2-2 .9-2 2-2 2 .9 2 2zm2 4c-1.7 0-3 1.3-3 3s1.3 3 3 3 3-1.3 3-3-1.3-3-3-3zm0 4c-.6 0-1-.4-1-1s.4-1 1-1 1 .4 1 1-.4 1-1 1zm-9-4c-1.7 0-3 1.3-3 3s1.3 3 3 3 3-1.3 3-3-1.3-3-3-3zm0 4c-.6 0-1-.4-1-1s.4-1 1-1 1 .4 1 1-.4 1-1 1zm-6-1c0-1.7-1.3-3-3-3s-3 1.3-3 3 1.3 3 3 3 3-1.3 3-3zm-4 0c0-.6.4-1 1-1s1 .4 1 1-.4 1-1 1-1-.4-1-1z"/></symbol><symbol id="lammityspistoke-24" viewBox="0 0 24 24" fill="currentColor"><path d="M6 22h4v2H4V14h2v8zm14-4c0 2.2-1.8 4-4 4l-2-.1V24h-2V14h4c2.2 0 4 1.8 4 4zm-2 0c0-1.1-.9-2-2-2h-2v3.9l2 .1c1.1 0 2-.9 2-2zm2-16h4v2h-4v4h4v2h-4v2c-3 0-5.4-2.2-5.9-5H0V5h14.1c.5-2.8 2.9-5 5.9-5v2zm-2 .5c-1.2.7-2 2-2 3.5s.8 2.8 2 3.5v-7z"/></symbol><symbol id="lammityspistoke-240v-24" viewBox="0 0 24 24" fill="currentColor"><path d="M24 4V2h-4V0c-3 0-5.4 2.2-5.9 5H0v2h14.1c.5 2.8 2.9 5 5.9 5v-2h4V8h-4V4h4zm-6 5.5c-1.2-.7-2-2-2-3.5s.8-2.8 2-3.5v7zM14 14h2v10h-2v-4h-4v-6h2v4h2v-4zm-6.9 5.1L4.2 22H8v2H2v-2.6l3.7-3.7c.2-.2.3-.4.3-.7 0-.6-.4-1-1-1s-1 .4-1 1H2c0-1.7 1.3-3 3-3s3 1.3 3 3c0 .8-.3 1.6-.9 2.1zM21 14c-1.7 0-3 1.3-3 3v4c0 1.7 1.3 3 3 3s3-1.3 3-3v-4c0-1.7-1.3-3-3-3zm1 7c0 .6-.4 1-1 1s-1-.4-1-1v-4c0-.6.4-1 1-1s1 .4 1 1v4z"/></symbol><symbol id="lammityspistoke-400v-24" viewBox="0 0 24 24" fill="currentColor"><path d="M20 0c-3 0-5.4 2.2-5.9 5H0v2h14.1c.5 2.8 2.9 5 5.9 5v-2h4V8h-4V4h4V2h-4V0zm-2 9.5c-1.2-.7-2-2-2-3.5s.8-2.8 2-3.5v7zM6 14h2v10H6v-4H2v-6h2v4h2v-4zm7 0c-1.7 0-3 1.3-3 3v4c0 1.7 1.3 3 3 3s3-1.3 3-3v-4c0-1.7-1.3-3-3-3zm1 7c0 .6-.4 1-1 1s-1-.4-1-1v-4c0-.6.4-1 1-1s1 .4 1 1v4zm7-7c-1.7 0-3 1.3-3 3v4c0 1.7 1.3 3 3 3s3-1.3 3-3v-4c0-1.7-1.3-3-3-3zm1 7c0 .6-.4 1-1 1s-1-.4-1-1v-4c0-.6.4-1 1-1s1 .4 1 1v4z"/></symbol><symbol id="lammitysposti-24" viewBox="0 0 24 24" fill="currentColor"><path d="M10 6H8c0-1.1-.9-2-2-2-2.2 0-4-1.8-4-4h2c0 1.1.9 2 2 2 2.2 0 4 1.8 4 4zm2 10c-1.1 0-2-.9-2-2H8c0 2.2 1.8 4 4 4 1.1 0 2 .9 2 2h2c0-2.2-1.8-4-4-4zm6-14c-1.1 0-2-.9-2-2h-2c0 2.2 1.8 4 4 4 1.1 0 2 .9 2 2h2c0-2.2-1.8-4-4-4zm6 8H0v14h24V10zM2 12h20v10H2V12z"/></symbol><symbol id="laskumakijarrut-24" viewBox="0 0 24 24" fill="currentColor"><path d="M22.7 2.7l-1.4-1.4L18.6 4h-5.2l1.3-1.3-1.4-1.4L10.6 4H0v8h2.6l-1.3 1.3 1.4 1.4L5.4 12h5.2l-1.3 1.3 1.4 1.4 2.7-2.7H24V4h-2.6l1.3-1.3zM2 10V6h6.6l-4 4H2zm5.4 0l4-4h5.2l-4 4H7.4zM22 6v4h-6.6l4-4H22zM1.3 16l22 6-.6 2-22-6 .6-2z"/></symbol><symbol id="liikennemerkki-24" viewBox="0 0 24 24" fill="currentColor"><path d="M12 0L1.6 18H11v6h2v-6h9.4L12 0zM5.1 16L12 4l6.9 12H5.1z"/></symbol><symbol id="liikennemerkki-kielto-24" viewBox="0 0 24 24" fill="currentColor"><path d="M20 8c0-4.4-3.6-8-8-8S4 3.6 4 8c0 4.1 3.1 7.4 7 7.9V24h2v-8.1c3.9-.5 7-3.8 7-7.9zm-8-6c1.3 0 2.5.4 3.5 1.1l-8.4 8.4C6.4 10.5 6 9.3 6 8c0-3.3 2.7-6 6-6zm0 12c-1.3 0-2.5-.4-3.5-1.1l8.4-8.4c.7 1 1.1 2.2 1.1 3.5 0 3.3-2.7 6-6 6z"/></symbol><symbol id="liikennemerkki-lika-24" viewBox="0 0 24 24" fill="currentColor"><path d="M18.7 11.6l3.7 6.4H13v6h-2v-6H1.6l3.7-6.4 1.7 1L5 16h13.9l-2-3.4 1.8-1zM5.4 7.9c0-.1-1.1-3 1.7-5.8 2.7-2.7 7.2-2.7 9.9 0 2.8 2.8 1.7 5.7 1.7 5.8-.6 1.5-1.6 2.5-2.7 2.8-.2 0-.4.1-.5.1-.7 0-1.4-.3-1.9-.9-.8-.8-2.1-.8-2.8 0-.7.7-1.6 1-2.5.8C7 10.4 6 9.4 5.4 7.9zm1.9-.7c.4 1 .9 1.4 1.3 1.5.1 0 .4 0 .6-.3.8-.8 1.8-1.2 2.8-1.2s2 .4 2.8 1.2c.3.3.5.3.6.3.3-.1.9-.5 1.3-1.5 0-.1.6-1.9-1.2-3.7-1.9-1.9-5.1-1.9-7.1 0-1.8 1.8-1.2 3.6-1.1 3.7z"/></symbol><symbol id="liikennemerkki-lumi-24" viewBox="0 0 24 24" fill="currentColor"><path d="M22.9 9.5l-.5 1.9-5.1-1.4-5.3 3.2-5.3-3.1-5.1 1.4-.5-2 3.1-.8-3.1-1.8 1-1.7L5.2 7l-.8-3.2 1.9-.5 1.4 5.1 3.3 1.9V6.4L7.3 2.7l1.4-1.4L11 3.6V0h2v3.6l2.3-2.3 1.4 1.4L13 6.4v3.9l3.3-1.9 1.4-5.1 1.9.5-.8 3.1 3.1-1.8 1 1.7-3.1 1.8 3.1.9zM17 12.6l2 3.4H5.1l2-3.4-1.7-1L1.6 18H11v6h2v-6h9.4l-3.7-6.4-1.7 1z"/></symbol><symbol id="liikennemerkki-rikki-24" viewBox="0 0 24 24" fill="currentColor"><path d="M17.8 10c-.5.1-1 .2-1.6.2-1.5 0-3-.6-4.2-1.7-1.2 1.2-2.7 1.7-4.2 1.7-.5 0-1.1-.1-1.6-.2l-4.6 8H11v6h2v-6h9.4l-4.6-8zM11 16H5.1l2.2-3.8h.5c1.5 0 3-.4 4.2-1.2 1.2.8 2.7 1.2 4.2 1.2h.5l2.2 3.8H11z"/></symbol><symbol id="liikennemerkki-vino-24" viewBox="0 0 24 24" fill="currentColor"><path d="M10.6 12L.3 22.3l1.4 1.4L12 13.4l6.6 6.6L24 0 3.9 5.4l6.7 6.6zm7 4.2L7.8 6.4l13.4-3.6-3.6 13.4z"/></symbol><symbol id="liikennepaikka-24" viewBox="0 0 24 24" fill="currentColor"><path d="M12.5 19c0 .8-.7 1.5-1.5 1.5s-1.5-.7-1.5-1.5.7-1.5 1.5-1.5 1.5.7 1.5 1.5zm6.5-1.5c-.8 0-1.5.7-1.5 1.5s.7 1.5 1.5 1.5 1.5-.7 1.5-1.5-.7-1.5-1.5-1.5zM24 9v12c0 1.7-1.3 3-3 3H9c-1.7 0-3-1.3-3-3V9c0-1.7 1.3-3 3-3h12c1.7 0 3 1.3 3 3zM8 9v5h14V9c0-.6-.4-1-1-1H9c-.6 0-1 .4-1 1zm14 12v-5H8v5c0 .6.4 1 1 1h12c.6 0 1-.4 1-1zM9 0C4 0 0 4 0 9v15h2V9c0-3.9 3.1-7 7-7h15V0H9z"/></symbol><symbol id="liikennepaikkavali-24" viewBox="0 0 24 24" fill="currentColor"><path d="M21 6c-1.7 0-3 1.3-3 3 0 .5.1.9.3 1.3l-8 8c-.4-.2-.8-.3-1.3-.3-1.7 0-3 1.3-3 3s1.3 3 3 3 3-1.3 3-3c0-.5-.1-.9-.3-1.3l8-8c.4.2.8.3 1.3.3 1.7 0 3-1.3 3-3s-1.3-3-3-3zM9 22c-.6 0-1-.4-1-1s.4-1 1-1 1 .4 1 1-.4 1-1 1zm12-12c-.6 0-1-.4-1-1s.4-1 1-1 1 .4 1 1-.4 1-1 1zM9 14H3c-.6 0-1 .4-1 1v6H0v-6c0-1.7 1.3-3 3-3h6v2zm5-5h-2V3c0-1.7 1.3-3 3-3h6v2h-6c-.6 0-1 .4-1 1v6z"/></symbol><symbol id="liikennesuunnittelualue-24" viewBox="0 0 24 24" fill="currentColor"><path d="M15.7 3.1L14.6 2 16.5.1l.8 2.6-1.6.4zM6.2 13.2l-1.4-1.4-1.4 1.4 1.4 1.4 1.4-1.4zM9 10.4L7.6 9l-1.4 1.4 1.4 1.4L9 10.4zm2.8-2.8l-1.4-1.4L9 7.6 10.4 9l1.4-1.4zm2.8-2.8l-1.4-1.4-1.4 1.4 1.4 1.4 1.4-1.4zM3.1 15.7L2 14.6.1 16.5l2.6.8.4-1.6zm16.2 4.5l-2-.6-.6 1.9 2 .6.6-1.9zm-4-1.3l-2-.6-.6 1.9 2 .6.6-1.9zm-4-1.2l-2-.6-.6 1.9 2 .6.6-1.9zm-4-1.2l-2-.6-.6 1.9 2 .6.6-1.9zm15.4 4.3l-1.5.4-.4 1.5 2.7.8-.8-2.7zm-.6-2.1l-.6-2-1.9.6.6 2 1.9-.6zm-1.2-4l-.6-2-1.9.6.6 2 1.9-.6zm-1.2-4l-.6-2-1.9.6.6 2 1.9-.6zm-1.2-4l-.6-2-1.9.6.6 2 1.9-.6z"/></symbol><symbol id="liikenneyksikko-0-24" viewBox="0 0 24 24" fill="currentColor"><path d="M12 0v24l12-12L12 0z"/></symbol><symbol id="liikenneyksikko-1-24" viewBox="0 0 24 24" fill="currentColor"><path d="M12 0l12 12-12 12V0zm-2 2H8v20h2V2z"/></symbol><symbol id="liikenneyksikko-2-24" viewBox="0 0 24 24" fill="currentColor"><path d="M12 0l12 12-12 12V0zM6 4H4v16h2V4zm4-2H8v20h2V2z"/></symbol><symbol id="liikenneyksikko-3-24" viewBox="0 0 24 24" fill="currentColor"><path d="M12 0l12 12-12 12V0zM2 6H0v12h2V6zm4-2H4v16h2V4zm4-2H8v20h2V2z"/></symbol><symbol id="lista-24" viewBox="0 0 24 24" fill="currentColor"><path d="M24 4H5V2h19v2zM3 3c0-.8-.7-1.5-1.5-1.5S0 2.2 0 3s.7 1.5 1.5 1.5S3 3.8 3 3zm21 5H5v2h19V8zM3 9c0-.8-.7-1.5-1.5-1.5S0 8.2 0 9s.7 1.5 1.5 1.5S3 9.8 3 9zm21 5H5v2h19v-2zM3 15c0-.8-.7-1.5-1.5-1.5S0 14.2 0 15s.7 1.5 1.5 1.5S3 15.8 3 15zm21 5H5v2h19v-2zM3 21c0-.8-.7-1.5-1.5-1.5S0 20.2 0 21s.7 1.5 1.5 1.5S3 21.8 3 21z"/></symbol><symbol id="liukas-24 2" viewBox="0 0 24 24" fill="currentColor"><path d="M12 9C8.7 9 6 6.3 6 3V0H0v6h.4c1.4 5.3 6.1 9 11.6 9 3.3 0 6 2.7 6 6v3h2v-3c0-4.4-3.6-8-8-8s-8.2-2.9-9.5-7h2.1c1.2 2.9 4.1 5 7.4 5 5.5 0 10 4.5 10 10v3h2v-3c0-6.6-5.4-12-12-12zM4 4H2V2h2v2z"/></symbol><symbol id="liukas-24" viewBox="0 0 24 24" fill="currentColor"><path d="M20 21v3h-2v-3c0-3.3-2.7-6-6-6C5.4 15 0 9.6 0 3V0h2v3c0 5.5 4.5 10 10 10 4.4 0 8 3.6 8 8zM12 9C8.7 9 6 6.3 6 3V0H4v3c0 4.4 3.6 8 8 8 5.5 0 10 4.5 10 10v3h2v-3c0-6.6-5.4-12-12-12z"/></symbol><symbol id="liukas-kielto-24 2" viewBox="0 0 24 24" fill="currentColor"><path d="M24 21v3h-2v-3c0-4-2.3-7.4-5.7-9l1.5-1.5c3.7 2 6.2 6 6.2 10.5zm-9.3-7.5l-1.6 1.6c2.8.5 4.9 3 4.9 5.9v3h2v-3c0-3.4-2.2-6.4-5.3-7.5zm9-11.8L22.3.3l-22 22 1.4 1.4 22-22zM4.6 6H2.5c.8 2.7 2.7 4.8 5.2 6l-1.5 1.5C3.3 11.9 1.2 9.2.4 6H0V0h6v3c0 2.9 2.1 5.4 4.9 5.9l-1.6 1.6C7.1 9.7 5.5 8.1 4.6 6zM4 3V2H2v2h2V3z"/></symbol><symbol id="liukas-kielto-24" viewBox="0 0 24 24" fill="currentColor"><path d="M0 3V0h2v3c0 4 2.3 7.4 5.7 9l-1.5 1.5C2.5 11.5 0 7.5 0 3zm9.3 7.5l1.6-1.6C8.1 8.4 6 5.9 6 3V0H4v3c0 3.4 2.2 6.4 5.3 7.5zm8.5 0L16.3 12c3.4 1.6 5.7 5 5.7 9v3h2v-3c0-4.5-2.5-8.5-6.2-10.5zm-3.1 3l-1.6 1.6c2.8.5 4.9 3 4.9 5.9v3h2v-3c0-3.4-2.2-6.4-5.3-7.5zM22.3.3l-22 22 1.4 1.4 22-22L22.3.3z"/></symbol><symbol id="loitonna-24" viewBox="0 0 24 24" fill="currentColor"><path d="M23.7 22.3L16 14.6c1.2-1.5 2-3.5 2-5.6 0-5-4-9-9-9S0 4 0 9s4 9 9 9c2.1 0 4.1-.7 5.6-2l7.7 7.7 1.4-1.4zM9 16c-3.9 0-7-3.1-7-7s3.1-7 7-7 7 3.1 7 7-3.1 7-7 7zm5-8v2H4V8h10z"/></symbol><symbol id="lumi-24" viewBox="0 0 24 24" fill="currentColor"><path d="M17.3 10.1l5.1 1.3.5-1.9-3.1-.8 3.1-1.8-1-1.8-3.1 1.8.8-3.1-1.9-.5-1.4 5-3.3 2V6.4l3.7-3.7-1.4-1.4L13 3.6V0h-2v3.6L8.7 1.3 7.3 2.7 11 6.4v3.9l-3.3-2-1.4-5-1.9.5.8 3.1-3.1-1.8-1 1.8 3.1 1.8-3.1.8.5 1.9 5.1-1.3L10 12l-3.3 1.9-5.1-1.3-.5 1.9 3.1.8-3.1 1.8 1 1.8 3.1-1.8-.8 3.1 1.9.5 1.4-5 3.3-2v3.9l-3.7 3.7 1.4 1.4 2.3-2.3V24h2v-3.6l2.3 2.3 1.4-1.4-3.7-3.7v-3.9l3.3 2 1.4 5 1.9-.5-.8-3.1 3.1 1.8 1-1.8-3.1-1.8 3.1-.8-.5-1.9-5.1 1.3L14 12z"/></symbol><symbol id="lumi-kielto-24" viewBox="0 0 24 24" fill="currentColor"><path d="M1.1 9.5l3.1-.8-3.1-1.8 1-1.7L5.2 7l-.8-3.2 1.9-.5 1.4 5.1 2.2 1.2-1.5 1.5-1.7-1-5.1 1.4-.5-2zM11 8.4l5.7-5.7-1.4-1.4L13 3.6V0h-2v3.6L8.7 1.3 7.3 2.7 11 6.4v2zM13 24v-3.6l2.3 2.3 1.4-1.4-3.7-3.7v-2l-5.7 5.7 1.4 1.4 2.3-2.3V24h2zm9.4-11.4L17.3 14l-1.7-1-1.5 1.5 2.2 1.2 1.4 5.1 1.9-.5-.8-3.1 3.1 1.8 1-1.7-3.1-1.8 3.1-.8-.5-2.1zm1.3-10.9L22.3.3l-22 22 1.4 1.4 22-22z"/></symbol><symbol id="lvi-posti-24" viewBox="0 0 24 24" fill="currentColor"><path d="M8 10H2V0h2v8h4v2zM20 0h-2v10h2V0zM0 14h24v10H0V14zm2 8h20v-6H2v6zm11-12l3-10h-2l-2 6.5L10 0H8l3 10h2z"/></symbol><symbol id="maakivi-24" viewBox="0 0 24 24" fill="currentColor"><path d="M9 11h6v2H9v-2zm3-5c-4 0-7.5 2-9.7 5H0v2h1.1C.4 14.5 0 16.2 0 18h2c0-1.8.5-3.5 1.4-5H6v-2H4.9C6.7 9.2 9.2 8 12 8s5.3 1.2 7.1 3H18v2h2.6c.9 1.5 1.4 3.2 1.4 5h2c0-1.8-.4-3.5-1.1-5H24v-2h-2.3C19.5 8 16 6 12 6z"/></symbol><symbol id="maalitaulu-24" viewBox="0 0 24 24" fill="currentColor"><path d="M12 24C5.4 24 0 18.6 0 12S5.4 0 12 0s12 5.4 12 12-5.4 12-12 12zm0-22C6.5 2 2 6.5 2 12s4.5 10 10 10 10-4.5 10-10S17.5 2 12 2zm0 17c-3.9 0-7-3.1-7-7s3.1-7 7-7 7 3.1 7 7-3.1 7-7 7zm0-12c-2.8 0-5 2.2-5 5s2.2 5 5 5 5-2.2 5-5-2.2-5-5-5zm0 3c-1.1 0-2 .9-2 2s.9 2 2 2 2-.9 2-2-.9-2-2-2z"/></symbol><symbol id="maasto-24" viewBox="0 0 24 24" fill="currentColor"><path d="M22.3 10.7L15 3.4l-2.3 2.3-1.4-1.4L15 .6l8.7 8.7-1.4 1.4zm-8.6-1.4L7 2.6.3 9.3l1.4 1.4L7 5.4l5.3 5.3 1.4-1.4zm2.3.7c0 2.2-1.8 4-4 4-5.5 0-10 4.5-10 10h2c0-4.4 3.6-8 8-8 1.5 0 2.9-.6 3.9-1.5-.2 2-1.9 3.5-3.9 3.5-2.2 0-4 1.8-4 4v2h2v-2c0-1.1.9-2 2-2 3.3 0 6-2.7 6-6v-4h-2z"/></symbol><symbol id="masto-24" viewBox="0 0 24 24" fill="currentColor"><path d="M8 24h8V0H8v24zm2-22h4v4h-4V2zm0 6h4v3h-4V8zm0 5h4v3h-4v-3zm0 5h4v4h-4v-4z"/></symbol><symbol id="miinus-24" viewBox="0 0 24 24" fill="currentColor"><path d="M0 11h24v2H0z"/></symbol><symbol id="mitta-24" viewBox="0 0 24 24" fill="currentColor"><path d="M6 1h2v22H6V1zm12 2V1h-8v22h8v-2h-6v-2h6v-2h-6v-2h6v-2h-6v-2h6V9h-6V7h6V5h-6V3h6z"/></symbol><symbol id="muuntaja-24" viewBox="0 0 24 24" fill="currentColor"><path d="M22 2H2v4H0v2h2v3H0v2h2v3H0v2h2v4h20v-4h2v-2h-2v-3h2v-2h-2V8h2V6h-2V2zm-2 9h-2v2h2v3h-2v2h2v2H4v-2h2v-2H4v-3h2v-2H4V8h2V6H4V4h16v2h-2v2h2v3z"/></symbol><symbol id="nasta-24" viewBox="0 0 24 24" fill="currentColor"><path d="M17 14V2h2V0H5v2h2v12H2v2h7l3 8 3-8h7v-2h-5zm-8 0V2h6v12H9z"/></symbol><symbol id="navigaatio-nuoli-24" viewBox="0 0 24 24" fill="currentColor"><path d="M0 24l12-6 12 6L12 0 0 24zm12.9-7.8l-.9-.4-.9.4-6.6 3.3 7.5-15 7.5 15.1-6.6-3.4z"/></symbol><symbol id="nelio-info-24" viewBox="0 0 24 24" fill="currentColor"><path d="M24 24H0V0h24v24zM2 22h20V2H2v20zM12 4.5c-.8 0-1.5.7-1.5 1.5s.7 1.5 1.5 1.5 1.5-.7 1.5-1.5-.7-1.5-1.5-1.5zm1 5.5h-2v10h2V10z"/></symbol><symbol id="nelio-miinus-24" viewBox="0 0 24 24" fill="currentColor"><path d="M24 24H0V0h24v24zM2 22h20V2H2v20zm16-11H6v2h12v-2z"/></symbol><symbol id="nelio-plus-24" viewBox="0 0 24 24" fill="currentColor"><path d="M0 0v24h24V0H0zm22 22H2V2h20v20zm-11-9H6v-2h5V6h2v5h5v2h-5v5h-2v-5z"/></symbol><symbol id="nelio-rasti-24" viewBox="0 0 24 24" fill="currentColor"><path d="M0 0v24h24V0H0zm22 22H2V2h20v20zM7.1 15.5l3.5-3.5-3.5-3.5 1.4-1.4 3.5 3.5 3.5-3.5 1.4 1.4-3.5 3.5 3.5 3.5-1.4 1.4-3.5-3.5-3.5 3.5-1.4-1.4z"/></symbol><symbol id="nopeusmittari-24" viewBox="0 0 24 24" fill="currentColor"><path d="M10.6 10.6l12.1-9.3-9.3 12.1c-.4.4-.9.6-1.4.6s-1-.2-1.4-.6c-.8-.8-.8-2 0-2.8zm10.1-3.5c.8 1.5 1.3 3.1 1.3 4.9 0 5.5-4.5 10-10 10S2 17.5 2 12 6.5 2 12 2c1.8 0 3.4.5 4.9 1.3L18.6 2C16.7.8 14.5 0 12 0 5.4 0 0 5.4 0 12s5.4 12 12 12 12-5.4 12-12c0-2.4-.7-4.7-2-6.6l-1.3 1.7z"/></symbol><symbol id="nopeusrajoitus-24" viewBox="0 0 24 24" fill="currentColor"><path d="M12 0C5.4 0 0 5.4 0 12s5.4 12 12 12 12-5.4 12-12S18.6 0 12 0zm0 22C6.5 22 2 17.5 2 12S6.5 2 12 2s10 4.5 10 10-4.5 10-10 10zm4-13c0-2.2-1.8-4-4-4S8 6.8 8 9c0 1.2.5 2.3 1.4 3-.8.7-1.4 1.8-1.4 3 0 2.2 1.8 4 4 4s4-1.8 4-4c0-1.2-.5-2.3-1.4-3 .9-.7 1.4-1.8 1.4-3zm-2 6c0 1.1-.9 2-2 2s-2-.9-2-2 .9-2 2-2 2 .9 2 2zm-4-6c0-1.1.9-2 2-2s2 .9 2 2-.9 2-2 2-2-.9-2-2z"/></symbol><symbol id="nuolet-laajenna-24" viewBox="0 0 24 24" fill="currentColor"><path d="M3.4 22H10v2H0V14h2v6.6l6.3-6.3 1.4 1.4L3.4 22zM14 0v2h6.6l-6.3 6.3 1.4 1.4L22 3.4V10h2V0H14z"/></symbol><symbol id="nuolet-myota-alaviiva-24" viewBox="0 0 24 24" fill="currentColor"><path d="M0 22h24v2H0v-2zm4-6c1.9 2.5 4.8 4 8 4 5.5 0 10-4.5 10-10h-2c0 4.4-3.6 8-8 8-2.9 0-5.5-1.6-6.9-4H8v-2H2v6h2v-2zm8-14c2.9 0 5.5 1.6 6.9 4H16v2h6V2h-2v2c-1.9-2.5-4.8-4-8-4C6.5 0 2 4.5 2 10h2c0-4.4 3.6-8 8-8z"/></symbol><symbol id="nuolet-oikea-vasen-24" viewBox="0 0 24 24" fill="currentColor"><path d="M23.4 10l-7.1 7.1-1.4-1.4 4.7-4.7H11V9h8.6l-4.7-4.7 1.4-1.4 7.1 7.1zM9.1 8.3L7.7 6.9.6 14l7.1 7.1 1.4-1.4L4.4 15H13v-2H4.4l4.7-4.7z"/></symbol><symbol id="nuolet-rasti-24" viewBox="0 0 24 24" fill="currentColor"><path d="M20 10V4h-6v2h2.6L12 10.6 7.4 6H10V4H4v6h2V7.4l4.6 4.6L6 16.6V14H4v6h6v-2H7.4l4.6-4.6 4.6 4.6H14v2h6v-6h-2v2.6L13.4 12 18 7.4V10z"/></symbol><symbol id="nuolet-risti-24" viewBox="0 0 24 24" fill="currentColor"><path d="M19.2 7.8l-1.4 1.4 1.8 1.8H13V4.4l1.8 1.8 1.4-1.4L12 .6 7.8 4.8l1.4 1.4L11 4.4V11H4.4l1.8-1.8-1.4-1.4L.6 12l4.2 4.2 1.4-1.4L4.4 13H11v6.6l-1.8-1.8-1.4 1.4 4.2 4.2 4.2-4.2-1.4-1.4-1.8 1.8V13h6.6l-1.8 1.8 1.4 1.4 4.2-4.2z"/></symbol><symbol id="nuolet-tiivista-24" viewBox="0 0 24 24" fill="currentColor"><path d="M0 14h10v10H8v-6.6l-6.3 6.3-1.4-1.4L6.6 16H0v-2zm17.4-6l6.3-6.3L22.3.3 16 6.6V0h-2v10h10V8h-6.6z"/></symbol><symbol id="nuoli-alaoikea-24" viewBox="0 0 24 24" fill="currentColor"><path d="M17 6v9.6L6.7 5.3 5.3 6.7 15.6 17H6v2h13V6z"/></symbol><symbol id="nuoli-alaoikea-alaviiva-24" viewBox="0 0 24 24" fill="currentColor"><path d="M16.6 18L3.3 4.7l1.4-1.4L18 16.6V4h2v16H4v-2h12.6zM0 24h24v-2H0v2z"/></symbol><symbol id="nuoli-alas-24" viewBox="0 0 24 24" fill="currentColor"><path d="M20.5 11.1L13 18.6V3h-2v15.6l-7.5-7.5-1.4 1.4 9.9 9.9 9.9-9.9z"/></symbol><symbol id="nuoli-alavasen-24" viewBox="0 0 24 24" fill="currentColor"><path d="M18.7 6.7l-1.4-1.4L7 15.6V6H5v13h13v-2H8.4z"/></symbol><symbol id="nuoli-alavasen-alaviiva-24" viewBox="0 0 24 24" fill="currentColor"><path d="M20 20H4V4h2v12.6L19.3 3.3l1.4 1.4L7.4 18H20v2zM0 22v2h24v-2H0z"/></symbol><symbol id="nuoli-aloitus-24" viewBox="0 0 24 24" fill="currentColor"><path d="M0 0h2v24H0V0zm13.5 2.1l-1.4 1.4 7.5 7.5H4v2h15.6l-7.5 7.5 1.4 1.4 9.9-9.9-9.9-9.9z"/></symbol><symbol id="nuoli-kaannos-eteenpain-24" viewBox="0 0 24 24" fill="currentColor"><path d="M2 16c0-3.3 2.7-6 6-6h11.6l-6.1 6.1 1.4 1.4L23.4 9 14.9.5l-1.4 1.4L19.6 8H8c-4.4 0-8 3.6-8 8s3.6 8 8 8h11.2v-2H8c-3.3 0-6-2.7-6-6z"/></symbol><symbol id="nuoli-kaannos-taaksepain-24" viewBox="0 0 24 24" fill="currentColor"><path d="M16 8H4.4l6.1-6.1L9.1.5.6 9l8.5 8.5 1.4-1.4L4.4 10H16c3.3 0 6 2.7 6 6s-2.7 6-6 6H4.8v2H16c4.4 0 8-3.6 8-8s-3.6-8-8-8z"/></symbol><symbol id="nuoli-lopetus-24" viewBox="0 0 24 24" fill="currentColor"><path d="M24 0v24h-2V0h2zM8.1 3.5l7.5 7.5H0v2h15.6l-7.5 7.5 1.4 1.4 9.9-9.9-9.9-9.9-1.4 1.4z"/></symbol><symbol id="nuoli-oikea-24" viewBox="0 0 24 24" fill="currentColor"><path d="M12.5 2.1l-1.4 1.4 7.5 7.5H3v2h15.6l-7.5 7.5 1.4 1.4 9.9-9.9z"/></symbol><symbol id="nuoli-oikea-alaviiva-24" viewBox="0 0 24 24" fill="currentColor"><path d="M19.5 12H2v-2h17.6l-8.3-8.3L12.7.3 23.4 11 12.7 21.3l-1.4-1.4 8.2-7.9zM0 24h24v-2H0v2z"/></symbol><symbol id="nuoli-vasen-24" viewBox="0 0 24 24" fill="currentColor"><path d="M21 11H5.4l7.5-7.5-1.4-1.4L1.6 12l9.9 9.9 1.4-1.4L5.4 13H21z"/></symbol><symbol id="nuoli-vasen-oikea-24" viewBox="0 0 24 24" fill="currentColor"><path d="M16.2 4.9l-1.4 1.4 4.7 4.7h-15l4.7-4.7-1.4-1.4L.7 12l7.1 7.1 1.4-1.4L4.5 13h15l-4.7 4.7 1.4 1.4 7.1-7.1z"/></symbol><symbol id="nuoli-ylaoikea-24" viewBox="0 0 24 24" fill="currentColor"><path d="M6 5v2h9.6L5.3 17.3l1.4 1.4L17 8.4V18h2V5z"/></symbol><symbol id="nuoli-ylaoikea-ylaviiva-24" viewBox="0 0 24 24" fill="currentColor"><path d="M3.3 19.3L16.6 6H4V4h16v16h-2V7.4L4.7 20.7l-1.4-1.4zM0 24h24v-2H0v2z"/></symbol><symbol id="nuoli-ylavasen-24" viewBox="0 0 24 24" fill="currentColor"><path d="M18.7 17.3L8.4 7H18V5H5v13h2V8.4l10.3 10.3z"/></symbol><symbol id="nuoli-ylavasen-alaviiva-24" viewBox="0 0 24 24" fill="currentColor"><path d="M6 20H4V4h16v2H7.4l13.3 13.3-1.4 1.4L6 7.4V20zm-6 4h24v-2H0v2z"/></symbol><symbol id="nuoli-ylos-24" viewBox="0 0 24 24" fill="currentColor"><path d="M21.9 11.5L12 1.6l-9.9 9.9 1.4 1.4L11 5.4V21h2V5.4l7.5 7.5z"/></symbol><symbol id="nuoli-ylos-alas-24" viewBox="0 0 24 24" fill="currentColor"><path d="M13 19.5v-15l4.7 4.7 1.4-1.4L12 .7 4.9 7.8l1.4 1.4L11 4.5v15l-4.7-4.7-1.4 1.4 7.1 7.1 7.1-7.1-1.4-1.4z"/></symbol><symbol id="nuoli-ylos-alaviiva-24" viewBox="0 0 24 24" fill="currentColor"><path d="M0 22h24v2H0v-2zM11 4.4V20h2V4.4l7.5 7.5 1.4-1.4L12 .6l-9.9 9.9 1.4 1.4L11 4.4z"/></symbol><symbol id="nuoli-ylos-ylaviiva-24" viewBox="0 0 24 24" fill="currentColor"><path d="M24 0v2H0V0h24zM2.1 14.5l1.4 1.4L11 8.4V24h2V8.4l7.5 7.5 1.4-1.4L12 4.6l-9.9 9.9z"/></symbol><symbol id="oja-tukossa-24" viewBox="0 0 24 24" fill="currentColor"><path d="M8.5 12.1l2.1-2.1-2.1-2.1 1.4-1.4L12 8.6l2.1-2.1 1.4 1.4-2.1 2.1 2.1 2.1-1.4 1.4-2.1-2.1-2.1 2.1-1.4-1.4zM20 10c0 4.4-3.6 8-8 8s-8-3.6-8-8V8H0v2h2c0 5.5 4.5 10 10 10s10-4.5 10-10h2V8h-4v2z"/></symbol><symbol id="opastin-24" viewBox="0 0 24 24" fill="currentColor"><path d="M13 11.9c2.8-.5 5-2.9 5-5.9 0-3.3-2.7-6-6-6S6 2.7 6 6c0 3 2.2 5.4 5 5.9V22H6v2h12v-2h-5V11.9zM8 6c0-2.2 1.8-4 4-4s4 1.8 4 4-1.8 4-4 4-4-1.8-4-4z"/></symbol><symbol id="paallystys-24" viewBox="0 0 24 24" fill="currentColor"><path d="M0 18h24v2H0v-2zm4-4h2v-4h4V8H6V4H4v4H0v2h4v4zM20 4h-2v4h-4v2h4v4h2v-4h4V8h-4V4z"/></symbol><symbol id="paineilmakeskus-24" viewBox="0 0 24 24" fill="currentColor"><path d="M0 5.3V24h24V5.3L12 0 0 5.3zM22 22H2V6.6l10-4.4 10 4.4V22z"/><path d="M18 16c0-1.2-.5-2.3-1.4-3 .8-.7 1.4-1.8 1.4-3 0-2.2-1.8-4-4-4v2c1.1 0 2 .9 2 2s-.9 2-2 2v2c1.1 0 2 .9 2 2s-.9 2-2 2v2c2.2 0 4-1.8 4-4zM6 12h2v2H6zM10 12h2v2h-2z"/></symbol><symbol id="paineilmaposti-24" viewBox="0 0 24 24" fill="currentColor"><path d="M23 13c0 2.8-2.2 5-5 5v-2c1.7 0 3-1.3 3-3s-1.3-3-3-3h-2V8h2c1.7 0 3-1.3 3-3s-1.3-3-3-3V0c2.8 0 5 2.2 5 5 0 1.6-.8 3.1-2 4 1.2.9 2 2.4 2 4zm-11-3h2V8h-2v2zM8 8h2v2H8v14H0V4c0-2.2 1.8-4 4-4s4 1.8 4 4v4zM6 4c0-1.1-.9-2-2-2s-2 .9-2 2v18h4V4z"/></symbol><symbol id="paivita-24" viewBox="0 0 24 24" fill="currentColor"><path d="M24 2v8h-8V8h5.2C19.6 4.4 16 2 12 2 6.5 2 2 6.5 2 12H0C0 5.4 5.4 0 12 0c4.1 0 7.8 2.1 10 5.4V2h2zM12 22c-4 0-7.6-2.4-9.2-6H8v-2H0v8h2v-3.4C4.2 21.9 7.9 24 12 24c6.6 0 12-5.4 12-12h-2c0 5.5-4.5 10-10 10z"/></symbol><symbol id="palovesijarjestelma-24" viewBox="0 0 24 24" fill="currentColor"><path d="M12 0L5.7 11H0v2h4.6c-.4.9-.6 1.9-.6 3 0 4.4 3.6 8 8 8s8-3.6 8-8c0-1.1-.2-2.1-.6-3H24v-2h-5.7L12 0zm0 22c-3.3 0-6-2.7-6-6 0-.8.1-1.5.4-2.2L12 4l5.6 9.7c.3.7.4 1.5.4 2.2 0 3.4-2.7 6.1-6 6.1zm2-6h2c0 2.2-1.8 4-4 4v-2c1.1 0 2-.9 2-2z"/></symbol><symbol id="pinta-hiekka-24" viewBox="0 0 24 24" fill="currentColor"><path d="M24 18H0v-2h24v2zM18 7c0-1.1-.9-2-2-2s-2 .9-2 2 .9 2 2 2 2-.9 2-2zm-2 0zm-6 0c0-1.1-.9-2-2-2s-2 .9-2 2 .9 2 2 2 2-.9 2-2zM8 7zm14 5c0-1.1-.9-2-2-2s-2 .9-2 2 .9 2 2 2 2-.9 2-2zm-2 0zm-6 0c0-1.1-.9-2-2-2s-2 .9-2 2 .9 2 2 2 2-.9 2-2zm-2 0zm-6 0c0-1.1-.9-2-2-2s-2 .9-2 2 .9 2 2 2 2-.9 2-2zm-2 0z"/></symbol><symbol id="pinta-hiekka-kielto-24" viewBox="0 0 24 24" fill="currentColor"><path d="M8 9c-1.1 0-2-.9-2-2s.9-2 2-2 2 .9 2 2-.9 2-2 2zm0-2zm12 7c-1.1 0-2-.9-2-2s.9-2 2-2 2 .9 2 2-.9 2-2 2zm0-2zM4 14c-1.1 0-2-.9-2-2s.9-2 2-2 2 .9 2 2-.9 2-2 2zm0-2zM23.7 1.7L22.3.3l-22 22 1.4 1.4 22-22zM10.2 18H24v-2H12.2l-2 2zm-6.4-2H0v2h1.8l2-2z"/></symbol><symbol id="pinta-lumi-24" viewBox="0 0 24 24" fill="currentColor"><path d="M24 16v2H0v-2h24zM1.6 11.4L6.7 10l5.3 3.1 5.3-3.1 5.1 1.4.5-1.9-3.1-.8 3.1-1.8-1-1.7L18.8 7l.8-3.1-1.9-.5-1.4 5.1-3.3 1.8V6.4l3.7-3.7-1.4-1.4L13 3.6V0h-2v3.6L8.7 1.3 7.3 2.7 11 6.4v3.9l-3.3-2-1.4-5-1.9.5.8 3.1-3.1-1.8-1 1.7 3.1 1.8-3.1.9.5 1.9z"/></symbol><symbol id="pintakuivatus-puute-24" viewBox="0 0 24 24" fill="currentColor"><path d="M12 18c3.3 0 6-2.7 6-6 0-.8-.2-1.6-.5-2.3L12 0 6.5 9.7c-.3.7-.5 1.5-.5 2.3 0 3.3 2.7 6 6 6zm-3.7-7.5L12 4l3.7 6.5c.2.5.3 1 .3 1.5 0 2.2-1.8 4-4 4s-4-1.8-4-4c0-.5.1-1 .3-1.5zM12 14v-2h2c0 1.1-.9 2-2 2zm10.6 4.1l.7 1.9-10.1 4h-2.4L.6 19.9l.7-1.9 9.8 3.9h1.6l9.9-3.8z"/></symbol><symbol id="plus-24" viewBox="0 0 24 24" fill="currentColor"><path d="M24 11H13V0h-2v11H0v2h11v11h2V13h11z"/></symbol><symbol id="pm-merkki-24" viewBox="0 0 24 24" fill="currentColor"><path d="M22 2.8H2c-1.1 0-2 .9-2 2v14.5c0 1.1.9 2 2 2h20c1.1 0 2-.9 2-2V4.8c0-1.2-.9-2-2-2zm0 16.4H2V4.8h20v14.4zM6 14h1c1.7 0 3-1.3 3-3S8.7 8 7 8H4v8h2v-2zm0-4h1c.6 0 1 .4 1 1s-.4 1-1 1H6v-2zm8 6h-2V7.6l4 4 4-4V16h-2v-3.6l-2 2-2-2V16z"/></symbol><symbol id="polanne-24" viewBox="0 0 24 24" fill="currentColor"><path d="M24 8v2h-6.4L12 4.4 6.4 10H0V8h5.6L12 1.6 18.4 8H24zm-1.6 4.6L17.3 14 12 10.8l-5.3 3.1-5.1-1.4-.5 1.9 3.1.8L1.1 17l1 1.7 3.1-1.8-.8 3.1 1.9.5 1.4-5.1 3.3-1.9v3.9l-3.7 3.7 1.4 1.4 2.3-2.3V24h2v-3.6l2.3 2.3 1.4-1.4-3.7-3.7v-3.9l3.3 1.9 1.4 5.1 1.9-.5-.8-3.1 3.1 1.8 1-1.7-3.1-1.8 3.1-.8-.5-2z"/></symbol><symbol id="puhekupla-24" viewBox="0 0 24 24" fill="currentColor"><path d="M12 2c5.5 0 10 3.3 10 7.3s-4.5 7.3-10 7.3c-.6 0-1.3 0-1.9-.1l-.7-.1-5.2 2.9 1.8-4-1.2-1C3 13 2 11.2 2 9.3 2 5.3 6.5 2 12 2m0-2C5.4 0 0 4.2 0 9.3c0 2.6 1.3 4.9 3.5 6.6L0 24l9.8-5.5c.7.1 1.5.2 2.2.2 6.6 0 12-4.2 12-9.3S18.6 0 12 0z"/></symbol><symbol id="puhekupla-teksti-24" viewBox="0 0 24 24" fill="currentColor"><path d="M12 2c5.5 0 10 3.3 10 7.3s-4.5 7.3-10 7.3c-.6 0-1.3 0-1.9-.1l-.7-.1-.6.3-4.6 2.6 1.1-2.6.7-1.4-1.2-1C3 13 2 11.2 2 9.3 2 5.3 6.5 2 12 2m0-2C5.4 0 0 4.2 0 9.3c0 2.6 1.3 4.9 3.5 6.6L0 24l9.8-5.5c.7.1 1.5.2 2.2.2 6.6 0 12-4.2 12-9.3C24 4.2 18.6 0 12 0zM8 8H4v2h4V8zm6 0h-4v2h4V8zm6 0h-4v2h4V8z"/></symbol><symbol id="puhelin-24" viewBox="0 0 24 24" fill="currentColor"><path d="M19 14c-2.8 0-5 2.2-5 5 0 .9.2 1.7.6 2.4-5.8-1.5-10.5-6.2-12-12 .7.4 1.5.6 2.4.6 2.8 0 5-2.2 5-5L5 0C2.2 0 0 2.2 0 5c0 10.5 8.5 19 19 19 2.8 0 5-2.2 5-5l-5-5zM4.3 2.1l3.6 3.6C7.6 7 6.4 8 5 8 3.3 8 2 6.7 2 5c0-1.4 1-2.6 2.3-2.9zM19 22c-1.7 0-3-1.3-3-3 0-1.4 1-2.6 2.3-2.9l3.6 3.6C21.6 21 20.4 22 19 22z"/></symbol><symbol id="puhelin-tarkistus-24" viewBox="0 0 24 24" fill="currentColor"><path d="M19 14c-2.8 0-5 2.2-5 5 0 .9.2 1.7.6 2.4-5.8-1.5-10.5-6.2-12-12 .7.4 1.5.6 2.4.6 2.8 0 5-2.2 5-5L5 0C2.2 0 0 2.2 0 5c0 10.5 8.5 19 19 19 2.8 0 5-2.2 5-5l-5-5zM4.3 2.1l3.6 3.6C7.6 7 6.4 8 5 8 3.3 8 2 6.7 2 5c0-1.4 1-2.6 2.3-2.9zM19 22c-1.7 0-3-1.3-3-3 0-1.4 1-2.6 2.3-2.9l3.6 3.6C21.6 21 20.4 22 19 22zm-2-10.6l-3.7-3.7 1.4-1.4L17 8.6l5.3-5.3 1.4 1.4-6.7 6.7z"/></symbol><symbol id="puhelu-lahteva-24" viewBox="0 0 24 24" fill="currentColor"><path d="M14 19c0 .9.2 1.7.6 2.4-5.8-1.5-10.5-6.2-12-12 .7.4 1.5.6 2.4.6 2.8 0 5-2.2 5-5L5 0C2.2 0 0 2.2 0 5c0 10.5 8.5 19 19 19 2.8 0 5-2.2 5-5l-5-5c-2.8 0-5 2.2-5 5zM4.3 2.1l3.6 3.6C7.6 7 6.4 8 5 8 3.3 8 2 6.7 2 5c0-1.4 1-2.6 2.3-2.9zM19 22c-1.7 0-3-1.3-3-3 0-1.4 1-2.6 2.3-2.9l3.6 3.6C21.6 21 20.4 22 19 22zM14 0h10v10h-2V3.4l-6.3 6.3-1.4-1.4L20.6 2H14V0z"/></symbol><symbol id="puhelu-saapuva-24" viewBox="0 0 24 24" fill="currentColor"><path d="M14 19c0 .9.2 1.7.6 2.4-5.8-1.5-10.5-6.2-12-12 .7.4 1.5.6 2.4.6 2.8 0 5-2.2 5-5L5 0C2.2 0 0 2.2 0 5c0 10.5 8.5 19 19 19 2.8 0 5-2.2 5-5l-5-5c-2.8 0-5 2.2-5 5zM4.3 2.1l3.6 3.6C7.6 7 6.4 8 5 8 3.3 8 2 6.7 2 5c0-1.4 1-2.6 2.3-2.9zM19 22c-1.7 0-3-1.3-3-3 0-1.4 1-2.6 2.3-2.9l3.6 3.6C21.6 21 20.4 22 19 22zM17.4 8H24v2H14V0h2v6.6L22.3.3l1.4 1.4L17.4 8z"/></symbol><symbol id="pysakki-24" viewBox="0 0 24 24" fill="currentColor"><path d="M4 24h2V12h14V0H4v24zM6 2h12v8H6V2zm10 4H8V4h8v2zm-6 0c.6 0 1 .4 1 1s-.4 1-1 1-1-.4-1-1 .4-1 1-1zm4 0c.6 0 1 .4 1 1s-.4 1-1 1-1-.4-1-1 .4-1 1-1z"/></symbol><symbol id="pysakointi-24" viewBox="0 0 24 24" fill="currentColor"><path d="M0 24h24V0H0v24zM2 2h20v20H2V2zm10 4H8v12h2v-4h2c2.2 0 4-1.8 4-4s-1.8-4-4-4zm0 6h-2V8h2c1.1 0 2 .9 2 2s-.9 2-2 2z"/></symbol><symbol id="pysakointi-rikki-24" viewBox="0 0 24 24" fill="currentColor"><path d="M0 0v24h13c0-2.8 2.2-5 5-5h1v-1c0-2.8 2.2-5 5-5V0H0zm17.1 17.1c-2.7.4-5 2.3-5.8 4.9H2V2h20v9.3c-2.6.8-4.6 3-4.9 5.8zM12 6H8v12h2v-4h2c2.2 0 4-1.8 4-4s-1.8-4-4-4zm0 6h-2V8h2c1.1 0 2 .9 2 2s-.9 2-2 2z"/></symbol><symbol id="radat-24" viewBox="0 0 24 24" fill="currentColor"><path d="M.662 15.059l21.992-7.996.683 1.88-21.991 7.995z"/></symbol><symbol id="radiovalinta-24" viewBox="0 0 24 24" fill="currentColor"><path d="M12 24C5.4 24 0 18.6 0 12S5.4 0 12 0s12 5.4 12 12-5.4 12-12 12zm0-22C6.5 2 2 6.5 2 12s4.5 10 10 10 10-4.5 10-10S17.5 2 12 2z"/></symbol><symbol id="radiovalinta-valittu-24" viewBox="0 0 24 24" fill="currentColor"><path d="M12 0C5.4 0 0 5.4 0 12s5.4 12 12 12 12-5.4 12-12S18.6 0 12 0zm0 22C6.5 22 2 17.5 2 12S6.5 2 12 2s10 4.5 10 10-4.5 10-10 10zm6-10c0 3.3-2.7 6-6 6s-6-2.7-6-6 2.7-6 6-6 6 2.7 6 6z"/></symbol><symbol id="raideleveyden-vaihto-24" viewBox="0 0 24 24" fill="currentColor"><path d="M18.9 10H20V8h-2V6h2V4h-2V2h2V0H4v2h2v2H4v2h2v2H4v2h1.1l-2.7 4H0v2h2v2H0v2h2v2H0v2h24v-2h-2v-2h2v-2h-2v-2h2v-2h-2.5l-2.6-4zM8 2h8v2H8V2zm0 4h8v2H8V6zm-.5 4h8.9l2.7 4H4.9l2.6-4zM20 22H4v-2h16v2zm0-4H4v-2h16v2z"/></symbol><symbol id="raidemateriaali-24" viewBox="0 0 24 24" fill="currentColor"><path d="M4 24h2v-4h12v4h2v-4h2v-2h-2v-5h2v-2h-2V6h2V4h-2V0h-2v4H6V0H4v4H2v2h2v5H2v2h2v5H2v2h2v4zM6 6h12v5H6V6zm0 7h12v5H6v-5z"/></symbol><symbol id="raili-24" viewBox="0 0 24 24" fill="currentColor"><path d="M17 2h-2V0h-2v2H7c-1.1 0-2 .9-2 2v18c0 1.1.9 2 2 2h10c1.1 0 2-.9 2-2V4c0-1.1-.9-2-2-2zm0 2v6H7V4h10zm-6 14v-2h2v2h-2zm2 2v2h-2v-2h2zm0-8v2h-2v-2h2zm-4 2H7v-2h2v2zm0 2v2H7v-2h2zm6 0h2v2h-2v-2zm0-2v-2h2v2h-2zm-8 6h2v2H7v-2zm8 2v-2h2v2h-2z"/></symbol><symbol id="raiteet-24" viewBox="0 0 24 24" fill="currentColor"><path d="M1.3 16.9L.6 15l22-8 .7 1.9-22 8zm22-1l-.7-1.9-22 8 .7 1.9 22-8zm0-14L22.6 0 .6 8l.7 1.9 22-8z"/></symbol><symbol id="rasti-24" viewBox="0 0 24 24" fill="currentColor"><path d="M21.2 4.2l-1.4-1.4-7.8 7.8-7.8-7.8-1.4 1.4 7.8 7.8-7.8 7.8 1.4 1.4 7.8-7.8 7.8 7.8 1.4-1.4-7.8-7.8z"/></symbol><symbol id="rata-24" viewBox="0 0 24 24" fill="currentColor"><path d="M21 0c-1.7 0-3 1.3-3 3 0 .5.1.9.3 1.3l-5 5c-.4-.2-.8-.3-1.3-.3-1.7 0-3 1.3-3 3 0 .5.1.9.3 1.3l-5 5c-.4-.2-.8-.3-1.3-.3-1.7 0-3 1.3-3 3s1.3 3 3 3 3-1.3 3-3c0-.5-.1-.9-.3-1.3l5-5c.4.2.8.3 1.3.3 1.7 0 3-1.3 3-3 0-.5-.1-.9-.3-1.3l5-5c.4.2.8.3 1.3.3 1.7 0 3-1.3 3-3s-1.3-3-3-3zM3 22c-.6 0-1-.4-1-1s.4-1 1-1 1 .4 1 1-.4 1-1 1zm9-9c-.6 0-1-.4-1-1s.4-1 1-1 1 .4 1 1-.4 1-1 1zm9-9c-.6 0-1-.4-1-1s.4-1 1-1 1 .4 1 1-.4 1-1 1z"/></symbol><symbol id="rata-osa-24" viewBox="0 0 24 24" fill="currentColor"><path d="M21 0c-1.7 0-3 1.3-3 3 0 .5.1.9.3 1.3l-2.5 2.5c-.3-.1-.5-.2-.8-.2-1.3 0-2.4 1.1-2.4 2.4 0 .3.1.6.2.8l-3 3c-.3-.1-.5-.2-.8-.2-1.3 0-2.4 1.1-2.4 2.4 0 .3.1.6.2.8l-2.5 2.5c-.4-.2-.8-.3-1.3-.3-1.7 0-3 1.3-3 3s1.3 3 3 3 3-1.3 3-3c0-.5-.1-.9-.3-1.3l2.5-2.5c.3.1.5.2.8.2 1.3 0 2.4-1.1 2.4-2.4 0-.3-.1-.6-.2-.8l3-3c.3.1.5.2.8.2 1.3 0 2.4-1.1 2.4-2.4 0-.3-.1-.6-.2-.8l2.5-2.5c.4.2.8.3 1.3.3 1.7 0 3-1.3 3-3s-1.3-3-3-3zM3 22c-.6 0-1-.4-1-1s.4-1 1-1 1 .4 1 1-.4 1-1 1zM21 4c-.6 0-1-.4-1-1s.4-1 1-1 1 .4 1 1-.4 1-1 1z"/></symbol><symbol id="rata-risteys-24" viewBox="0 0 24 24" fill="currentColor"><path d="M21 0c-1.7 0-3 1.3-3 3 0 .5.1.9.3 1.3l-14 14c-.1-.1-.2-.1-.3-.1V5.8C5.2 5.4 6 4.3 6 3c0-1.7-1.3-3-3-3S0 1.3 0 3c0 1.3.8 2.4 2 2.8v12.4c-1.2.4-2 1.5-2 2.8 0 1.7 1.3 3 3 3s3-1.3 3-3c0-.5-.1-.9-.3-1.3l14-14c.4.2.8.3 1.3.3 1.7 0 3-1.3 3-3s-1.3-3-3-3zM3 2c.6 0 1 .4 1 1s-.4 1-1 1-1-.4-1-1 .4-1 1-1zm0 20c-.6 0-1-.4-1-1s.4-1 1-1 1 .4 1 1-.4 1-1 1zM21 4c-.6 0-1-.4-1-1s.4-1 1-1 1 .4 1 1-.4 1-1 1z"/></symbol><symbol id="rata-sivuraide-24" viewBox="0 0 24 24" fill="currentColor"><path d="M21 0c-1.3 0-2.4.8-2.8 2H11c-.3 0-.5.1-.7.3l-8 8c-.2.2-.3.4-.3.7v7.2c-1.2.4-2 1.5-2 2.8 0 1.7 1.3 3 3 3s3-1.3 3-3c0-.5-.1-.9-.3-1.3l14-14c.4.2.8.3 1.3.3 1.7 0 3-1.3 3-3s-1.3-3-3-3zM3 22c-.6 0-1-.4-1-1s.4-1 1-1 1 .4 1 1-.4 1-1 1zM18.3 4.3l-14 14c-.1-.1-.2-.1-.3-.1v-6.8L11.4 4h6.8c0 .1.1.2.1.3zM21 4c-.6 0-1-.4-1-1s.4-1 1-1 1 .4 1 1-.4 1-1 1z"/></symbol><symbol id="rata-vali-24" viewBox="0 0 24 24" fill="currentColor"><path d="M21 0c-1.7 0-3 1.3-3 3 0 .5.1.9.3 1.3l-14 14c-.4-.2-.8-.3-1.3-.3-1.7 0-3 1.3-3 3s1.3 3 3 3 3-1.3 3-3c0-.5-.1-.9-.3-1.3l14-14c.4.2.8.3 1.3.3 1.7 0 3-1.3 3-3s-1.3-3-3-3zM3 22c-.6 0-1-.4-1-1s.4-1 1-1 1 .4 1 1-.4 1-1 1zM21 4c-.6 0-1-.4-1-1s.4-1 1-1 1 .4 1 1-.4 1-1 1z"/></symbol><symbol id="rata-yhdista-24" viewBox="0 0 24 24" fill="currentColor"><path d="M24 15V9H13V5.8c1.2-.4 2-1.5 2-2.8 0-1.7-1.3-3-3-3S9 1.3 9 3c0 1.3.8 2.4 2 2.8V9H0v6h6v3.2c-1.2.4-2 1.5-2 2.8 0 1.7 1.3 3 3 3s3-1.3 3-3c0-1.3-.8-2.4-2-2.8V15h8v3.2c-1.2.4-2 1.5-2 2.8 0 1.7 1.3 3 3 3s3-1.3 3-3c0-1.3-.8-2.4-2-2.8V15h6zM12 2c.6 0 1 .4 1 1s-.4 1-1 1-1-.4-1-1 .4-1 1-1zM7 22c-.6 0-1-.4-1-1s.4-1 1-1 1 .4 1 1-.4 1-1 1zm10 0c-.6 0-1-.4-1-1s.4-1 1-1 1 .4 1 1-.4 1-1 1zM2 11h20v2H2v-2z"/></symbol><symbol id="ratapihakehitys-24" viewBox="0 0 24 24" fill="currentColor"><path d="M0 0v24h24V0H0zm22 10.8L2 18.1v-4.9l20-7.3v4.9zM18 16v2h-2v-2h2zM6 8V6h2v2H6zm16-6v1.8L10 8.2V4H4v6h.9L2 11.1V2h20zM2 22v-1.8l12-4.4V20h6v-6h-.9l2.9-1.1V22H2z"/></symbol><symbol id="ratas-24" viewBox="0 0 24 24" fill="currentColor"><path d="M24 13v-2h-2.1c-.2-2-1-3.8-2.2-5.3l1.5-1.5-1.4-1.4-1.5 1.5C16.8 3 15 2.3 13 2.1V0h-2v2.1c-2 .2-3.8.9-5.3 2.2L4.2 2.8 2.8 4.2l1.5 1.5C3 7.2 2.3 9 2.1 11H0v2h2.1c.2 2 1 3.8 2.2 5.3l-1.5 1.5 1.4 1.4 1.5-1.5c1.5 1.2 3.3 2 5.3 2.2V24h2v-2.1c2-.2 3.8-1 5.3-2.2l1.5 1.5 1.4-1.4-1.5-1.5c1.2-1.5 2-3.3 2.2-5.3H24zM12 4c4.4 0 8 3.6 8 8s-3.6 8-8 8-8-3.6-8-8 3.6-8 8-8z"/></symbol><symbol id="ratatyo-24" viewBox="0 0 24 24" fill="currentColor"><path d="M14.3 8.3l1.4 1.4 4-4c.4.2.8.3 1.3.3 1.7 0 3-1.3 3-3s-1.3-3-3-3-3 1.3-3 3c0 .5.1.9.3 1.3l-4 4zM21 2c.6 0 1 .4 1 1s-.4 1-1 1-1-.4-1-1 .4-1 1-1zM9.7 15.7l-1.4-1.4-4 4c-.4-.2-.8-.3-1.3-.3-1.7 0-3 1.3-3 3s1.3 3 3 3 3-1.3 3-3c0-.5-.1-.9-.3-1.3l4-4zM3 22c-.6 0-1-.4-1-1s.4-1 1-1 1 .4 1 1-.4 1-1 1zm16.7-9.4l-2.8 2.8L4.4 3l1.4-1.4L4.4.2.2 4.4l1.4 1.4L3 4.4l12.5 12.5-2.8 2.8 2.8 2.8c.9.9 2.2 1.5 3.5 1.5s2.6-.5 3.5-1.5c1.9-1.9 1.9-5.1 0-7.1l-2.8-2.8zm1.4 8.5c-1.1 1.1-3.1 1.1-4.2 0l-1.4-1.4 4.2-4.2 1.4 1.4c1.2 1.1 1.2 3.1 0 4.2z"/></symbol><symbol id="reika-24" viewBox="0 0 24 24" fill="currentColor"><path d="M12 4.5L4.6.6 6 8.8l-6 5.8 12 8.7 3.7-7.5 8.3-1.2-4.6-14L12 4.5zm3.4 9.4l-1 .2-.5.9-2.7 5.4L3 14.5l4.3-4.2.8-.7L8 8.5l-.8-4.3 3.8 2 1 .5.9-.5 5.3-2.8 3.1 9.6-5.9.9z"/></symbol><symbol id="reikajono-24" viewBox="0 0 24 24" fill="currentColor"><path d="M14 10.9l.5-2.8L12 9.5 9.5 8.2 8 12.9l2.8.4 1.2 2.5 4-2.9-2-2zm6 5.5l-1.2 2.5-2.8.4 2 1.9-.5 2.8h4.9l-.4-2.8 2-1.9-4-2.9zM6 2.8L6.5 0h-5L2 2.8 0 4.7l4 2.9 1.2-2.5L8 4.7 6 2.8z"/></symbol><symbol id="reunapaalu-lika-24" viewBox="0 0 24 24" fill="currentColor"><path d="M14 12h2v12H8V12h2v10h4V12zm2.9-9.9c2.8 2.8 1.7 5.7 1.7 5.8-.6 1.5-1.6 2.5-2.7 2.8-.2 0-.4.1-.5.1-.7 0-1.4-.3-1.9-.9-.8-.8-2.1-.8-2.8 0-.7.7-1.6 1-2.5.8C7 10.4 6 9.4 5.4 7.9c0-.1-1.1-3 1.7-5.8 2.7-2.8 7.1-2.8 9.8 0zm-1.4 1.4c-1.9-1.9-5.1-1.9-7.1 0-1.8 1.8-1.2 3.6-1.1 3.7.4 1 .9 1.4 1.3 1.5.1 0 .4 0 .6-.3.8-.8 1.8-1.2 2.8-1.2s2 .4 2.8 1.2c.3.3.5.3.6.3.3-.1.9-.5 1.3-1.5.1-.1.7-1.9-1.2-3.7z"/></symbol><symbol id="reunapaalu-rikki-24" viewBox="0 0 24 24" fill="currentColor"><path d="M16 12V0H8v24h8c-1.7 0-3-1.3-3-3s1.3-3 3-3c-1.7 0-3-1.3-3-3s1.3-3 3-3zM14 2v1.6l-4 4V2h4zm-3 13c0 1.1.4 2.2 1 3-.6.8-1 1.9-1 3 0 .3 0 .7.1 1H10V10.4l4-4v4c-1.8.8-3 2.6-3 4.6z"/></symbol><symbol id="reunapaalu-vino-24" viewBox="0 0 24 24" fill="currentColor"><path d="M.7 17.7l5.7 5.7 17-17L17.7.7l-17 17zm2.8 0l8.2-8.2h5.7l-11 11-2.9-2.8zM19.4 7.5h-5.7l3.9-3.9 2.8 2.8-1 1.1z"/></symbol><symbol id="reunapalle-24" viewBox="0 0 24 24" fill="currentColor"><path d="M0 18h2v6H0v-6zm0-3h2V9H0v6zm0-9h2V0H0v6zm13 .1V0h-2v24h2c0-6.1 4.9-11 11-11v-2c-4.6 0-8.7 2.4-11 6.1V13c0-6.1 4.9-11 11-11V0c-4.6 0-8.7 2.4-11 6.1z"/></symbol><symbol id="reunapuute-24" viewBox="0 0 24 24" fill="currentColor"><path d="M11 0h2v24h-2V0zM0 24h2v-6H0v6zm0-9h2V9H0v6zm0-9h2V0H0v6zm17.3-4.3c2.6 2.6 2.6 6.9 0 9.6-3.4 3.4-3.4 9 0 12.4l1.4-1.4c-2.6-2.6-2.6-6.9 0-9.6 3.4-3.4 3.4-9 0-12.4l-1.4 1.4z"/></symbol><symbol id="roskakatos-24" viewBox="0 0 24 24" fill="currentColor"><path d="M9 6v2H4v2h1v14h14V10h1V8h-5V6H9zm8 4v12H7V10h10zM9 20v-8h2v8H9zm6 0h-2v-8h2v8zM0 24V5l12-5 12 5v19h-2V6.3L12 2.2 2 6.3V24H0z"/></symbol><symbol id="roskakori-24" viewBox="0 0 24 24" fill="currentColor"><path d="M22 2h-6V0H8v2H2v2h2v20h16V4h2V2zm-4 20H6V4h12v18zm-9-4V8h2v10H9zm6 0h-2V8h2v10z"/></symbol><symbol id="rumpu-tukossa-24" viewBox="0 0 24 24" fill="currentColor"><path d="M12 4C6.5 4 2 8.5 2 14s4.5 10 10 10 10-4.5 10-10S17.5 4 12 4zm0 18c-4.4 0-8-3.6-8-8s3.6-8 8-8 8 3.6 8 8-3.6 8-8 8zm3.5-10.1L13.4 14l2.1 2.1-1.4 1.4-2.1-2.1-2.1 2.1-1.4-1.4 2.1-2.1-2.1-2.1 1.4-1.4 2.1 2.1 2.1-2.1 1.4 1.4zM0 0h24v2H0V0z"/></symbol><symbol id="sahko-z-24" viewBox="0 0 24 24" fill="currentColor"><path d="M20 24H2L18 2H4V0h18L6 22h14z"/></symbol><symbol id="sahkoposti-24" viewBox="0 0 24 24" fill="currentColor"><path d="M24 12c0-6.6-5.4-12-12-12S0 5.4 0 12s5.4 12 12 12v-2C6.5 22 2 17.5 2 12S6.5 2 12 2s10 4.5 10 10c0 2.2-.7 4.3-2 6-1.3-1.7-2-3.7-2-6 0-1.5.3-2.8.9-4.1-.4-.6-.8-1.2-1.4-1.7-.3.6-.6 1.3-.9 2C15.5 6.9 13.9 6 12 6c-3.3 0-6 2.7-6 6s2.7 6 6 6c1.9 0 3.5-.9 4.6-2.2.7 2 1.8 3.7 3.4 5.1.2-.1.3-.3.5-.5 2.3-2.2 3.5-5.2 3.5-8.4zm-12 4c-2.2 0-4-1.8-4-4s1.8-4 4-4 4 1.8 4 4-1.8 4-4 4z"/></symbol><symbol id="salama-24" viewBox="0 0 24 24" fill="currentColor"><path d="M13.2 2l-2.7 8H17l-3.8 4.6.2-.6h-8l4-12h3.8M16 0H8L2.7 16h8L8 24 21.3 8h-8L16 0z"/></symbol><symbol id="satelliitti-24" viewBox="0 0 24 24" fill="currentColor"><path d="M15 13.6l8.7 8.7-1.4 1.4-7.3-7.3-2.3 2.3-1.4-1.4 3.7-3.7zM.3 22.3l1.4 1.4L7 18.4l5.3 5.3 1.4-1.4L7 15.6.3 22.3zM2 0H0v2c1.1 0 2-.9 2-2zm5 0H5c0 2.8-2.2 5-5 5v2c3.9 0 7-3.1 7-7zm5 0h-2c0 5.5-4.5 10-10 10v2c6.6 0 12-5.4 12-12z"/></symbol><symbol id="saumavirhe-24" viewBox="0 0 24 24" fill="currentColor"><path d="M22 .6L11.6 11H8c-4.4 0-8 3.6-8 8v5h2v-.6L12.4 13H16c4.4 0 8-3.6 8-8V0h-2v.6zm-20 20V19c0-3.3 2.7-6 6-6h1.6L2 20.6zM16 11h-1.6L22 3.4V5c0 3.3-2.7 6-6 6z"/></symbol><symbol id="sijainti-24" viewBox="0 0 24 24" fill="currentColor"><path d="M12 2c3.3 0 6 2.7 6 6 0 .8-.1 1.5-.4 2.2L12 20l-5.6-9.7C6.1 9.5 6 8.8 6 8c0-3.3 2.7-6 6-6m0-2C7.6 0 4 3.6 4 8c0 1.1.2 2.2.6 3.1L12 24l7.4-12.9c.4-1 .6-2 .6-3.1 0-4.4-3.6-8-8-8z"/></symbol><symbol id="silma-24" viewBox="0 0 24 24" fill="currentColor"><path d="M12 6c1.6 0 3.1.6 4.2 1.8l4.2 4.2-4.2 4.2C15.1 17.4 13.6 18 12 18s-3.1-.6-4.2-1.8L3.5 12l4.2-4.2C8.9 6.6 10.4 6 12 6m0-2c-2 0-4.1.8-5.7 2.3L.7 12l5.7 5.7C7.9 19.2 10 20 12 20c2 0 4.1-.8 5.7-2.3l5.7-5.7-5.7-5.7C16.1 4.8 14 4 12 4zm0 6c-1.1 0-2 .9-2 2s.9 2 2 2 2-.9 2-2-.9-2-2-2z"/></symbol><symbol id="soittokello-24" viewBox="0 0 24 24" fill="currentColor"><path d="M20 14V8c0-4.4-3.6-8-8-8S4 3.6 4 8v6c0 2.2-1.8 4-4 4v2h8c0 2.2 1.8 4 4 4s4-1.8 4-4h8v-2c-2.2 0-4-1.8-4-4zm-8 8c-1.1 0-2-.9-2-2h4c0 1.1-.9 2-2 2zm-7.5-4c1-1.1 1.5-2.5 1.5-4V8c0-3.3 2.7-6 6-6s6 2.7 6 6v6c0 1.5.6 2.9 1.5 4h-15z"/></symbol><symbol id="suunta-alas-24" viewBox="0 0 24 24" fill="currentColor"><path d="M12 18L2.1 8.1l1.4-1.4 8.5 8.5 8.5-8.5 1.4 1.4z"/></symbol><symbol id="suunta-alkuun-24" viewBox="0 0 24 24" fill="currentColor"><path d="M6 24H4V0h2v24zm13.9-3.5L11.4 12l8.5-8.5-1.4-1.4L8.6 12l9.9 9.9 1.4-1.4z"/></symbol><symbol id="suunta-loppuun-24" viewBox="0 0 24 24" fill="currentColor"><path d="M20 24h-2V0h2v24zm-4.6-12L5.5 2.1 4.1 3.5l8.5 8.5-8.5 8.5 1.4 1.4 9.9-9.9z"/></symbol><symbol id="suunta-oikea-24" viewBox="0 0 24 24" fill="currentColor"><path d="M8.1 21.9l-1.4-1.4 8.5-8.5-8.5-8.5 1.4-1.4L18 12z"/></symbol><symbol id="suunta-vasen-24" viewBox="0 0 24 24" fill="currentColor"><path d="M15.9 21.9L6 12l9.9-9.9 1.4 1.4L8.8 12l8.5 8.5z"/></symbol><symbol id="suunta-ylos-24" viewBox="0 0 24 24" fill="currentColor"><path d="M20.5 17.3L12 8.8l-8.5 8.5-1.4-1.4L12 6l9.9 9.9z"/></symbol><symbol id="suurennuslasi-24" viewBox="0 0 24 24" fill="currentColor"><path d="M23.7 22.3L16 14.6c1.2-1.5 2-3.5 2-5.6 0-5-4-9-9-9S0 4 0 9s4 9 9 9c2.1 0 4.1-.7 5.6-2l7.7 7.7 1.4-1.4zM9 16c-3.9 0-7-3.1-7-7s3.1-7 7-7 7 3.1 7 7-3.1 7-7 7z"/></symbol><symbol id="tahtain-24" viewBox="0 0 24 24" fill="currentColor"><path d="M24 11h-2.1c-.5-4.7-4.2-8.5-8.9-8.9V0h-2v2.1c-4.7.4-8.5 4.2-8.9 8.9H0v2h2.1c.5 4.7 4.2 8.5 8.9 8.9V24h2v-2.1c4.7-.5 8.5-4.2 8.9-8.9H24v-2zm-11 8.9L12 16l-1 3.9c-3.6-.4-6.5-3.3-6.9-6.9L8 12l-3.9-1c.4-3.6 3.3-6.5 6.9-6.9L12 8l1-3.9c3.6.4 6.5 3.3 6.9 6.9L16 12l3.9 1c-.4 3.6-3.3 6.5-6.9 6.9z"/></symbol><symbol id="tahti-24" viewBox="0 0 24 24" fill="currentColor"><path d="M12 7.1l1.4 4.2h4.4l-3.6 2.6 1.4 4.2-3.6-2.6-3.6 2.6 1.4-4.2-3.6-2.6h4.4L12 7.1m0-6.5L9.2 9.3H0l7.4 5.4-2.9 8.7L12 18l7.4 5.4-2.9-8.7L24 9.3h-9.2L12 .6z"/></symbol><symbol id="tallenna-24" viewBox="0 0 24 24" fill="currentColor"><path d="M11 0v11.6L8.8 9.4l-1.4 1.4 4.6 4.6 4.6-4.6-1.4-1.4-2.2 2.2V2h9v20H2V2h5.9V0H0v24h24V0z"/></symbol><symbol id="talo-24" viewBox="0 0 24 24" fill="currentColor"><path d="M12 2.8l10 10V22h-6v-8H8v8H2v-9.2l10-10M12 0L0 12v12h10v-8h4v8h10V12L12 0z"/></symbol><symbol id="tankkauspiste-24" viewBox="0 0 24 24" fill="currentColor"><path d="M20 0h-2v2h2c1.1 0 2 .9 2 2v2h-2c-1.1 0-2 .9-2 2v6c0 1.1.9 2 2 2h2v1c0 2.8-2.2 5-5 5s-5-2.2-5-5v-7h2V0H0v10h2v14h10v-2.1c1.3 1.3 3 2.1 5 2.1 3.9 0 7-3.1 7-7V4c0-2.2-1.8-4-4-4zM10 22H4V10h6v12zM2 8V2h10v6H2zm20 6h-2V8h2v6z"/></symbol><symbol id="tarkistus-24" viewBox="0 0 24 24" fill="currentColor"><path d="M8.5 20.5L.7 12.7l1.4-1.4 6.4 6.4L21.9 4.2l1.4 1.4z"/></symbol><symbol id="tasoristeys-24" viewBox="0 0 24 24" fill="currentColor"><path d="M24 11h-6V0h-2v11H8V0H6v11H0v2h6v11h2V13h8v11h2V13h6z"/></symbol><symbol id="tie-rikki-24" viewBox="0 0 24 24" fill="currentColor"><path d="M0 0h2v24H0V0zm22 11.3c-2.6.8-4.6 3-4.9 5.8-1.6.2-3 1-4.1 2.1V18h-2v6h2c0-2.8 2.2-5 5-5h1v-1c0-2.8 2.2-5 5-5V0h-2v11.3zM13 9h-2v6h2V9zm0-9h-2v6h2V0z"/></symbol><symbol id="tiedosto-24" viewBox="0 0 24 24" fill="currentColor"><path d="M22 24H2V0h14.4L22 5.6V24zM4 22h16V6.4L15.6 2H4v20z"/></symbol><symbol id="tiedosto-info-24" viewBox="0 0 24 24" fill="currentColor"><path d="M22 5.6L16.4 0H2v24h20V5.6zM20 22H4V2h11.6L20 6.4V22zM13.5 6c0 .8-.7 1.5-1.5 1.5s-1.5-.7-1.5-1.5.7-1.5 1.5-1.5 1.5.7 1.5 1.5zM11 10h2v10h-2V10z"/></symbol><symbol id="tiedosto-sisalto-24" viewBox="0 0 24 24" fill="currentColor"><path d="M16 6l2 2H6V6h10zm6-.4L16.4 0H2v24h20V5.6zM4 2h11.6L20 6.4V22H4V2zm14 9H6v2h12v-2zm0 5H6v2h12v-2z"/></symbol><symbol id="tiedostolataus-alas-24" viewBox="0 0 24 24" fill="currentColor"><path d="M12 19.4l-4.9-4.9 1.4-1.4 2.5 2.5V0h2v15.6l2.5-2.5 1.4 1.4-4.9 4.9zM22 16v6H2v-6H0v8h24v-8h-2z"/></symbol><symbol id="tiedostolataus-ylos-24" viewBox="0 0 24 24" fill="currentColor"><path d="M8.5 6.9L7.1 5.5 12 .6l4.9 4.9-1.4 1.4L13 4.4V20h-2V4.4L8.5 6.9zM22 16v6H2v-6H0v8h24v-8h-2z"/></symbol><symbol id="tiemerkinta-24" viewBox="0 0 24 24" fill="currentColor"><path d="M2 24H0V0h2v24zm20 0h2V0h-2v24zm-9-6h-2v6h2v-6zm0-9h-2v6h2V9zm0-9h-2v6h2V0z"/></symbol><symbol id="tietokanta-24" viewBox="0 0 24 24" fill="currentColor"><path d="M12 2c5.9 0 10 2.6 10 5s-4.1 5-10 5S2 9.4 2 7s4.1-5 10-5m0-2C5.4 0 0 3.1 0 7s5.4 7 12 7 12-3.1 12-7-5.4-7-12-7zM0 15v2c0 3.9 5.4 7 12 7s12-3.1 12-7v-2c0 3.6-4.8 6.6-10.9 7h-2.2C4.8 21.6 0 18.6 0 15zm0-5v2c0 3.9 5.4 7 12 7s12-3.1 12-7v-2c0 3.6-4.8 6.6-10.9 7h-2.2C4.8 16.6 0 13.6 0 10z"/></symbol><symbol id="tilirataosa-24" viewBox="0 0 24 24" fill="currentColor"><path d="M10 6H4V4h6v2zm0 2H4v2h6V8zm14-5c0 1.7-1.3 3-3 3-.5 0-.9-.1-1.3-.3L14 11.4V14h-2.6l-5.7 5.7c.2.4.3.8.3 1.3 0 1.7-1.3 3-3 3s-3-1.3-3-3 1.3-3 3-3c.5 0 .9.1 1.3.3L8.6 14H0V0h14v8.6l4.3-4.3c-.2-.4-.3-.8-.3-1.3 0-1.7 1.3-3 3-3s3 1.3 3 3zM4 21c0-.6-.4-1-1-1s-1 .4-1 1 .4 1 1 1 1-.4 1-1zm8-19H2v10h10V2zm10 1c0-.6-.4-1-1-1s-1 .4-1 1 .4 1 1 1 1-.4 1-1z"/></symbol><symbol id="toimialue-24" viewBox="0 0 24 24" fill="currentColor"><path d="M24 11h-5V7H5v4H0v2h5v4h14v-4h5v-2zm-7 4H7V9h10v6z"/></symbol><symbol id="toimialueet-24" viewBox="0 0 24 24" fill="currentColor"><path d="M24 22v2H0v-2h14.4c-1.3-.6-2.5-1.2-3.7-2H0v-2h8.2C3.2 13.6 0 7.2 0 0h2c0 12.1 9.9 22 22 22zM6 0H4c0 11 9 20 20 20v-2C14.1 18 6 9.9 6 0z"/></symbol><symbol id="toimintakortti-24" viewBox="0 0 24 24" fill="currentColor"><path d="M3 0v18h6l3 6 3-6h6V0H3zm16 16H5V2h14v14zM17 6H7V4h10v2zm0 4H7V8h10v2zm0 4H7v-2h10v2z"/></symbol><symbol id="tulosta-24" viewBox="0 0 24 24" fill="currentColor"><path d="M7 9H5V0h14v9h-2V2H7v7zm17 12h-5v3H5v-3H0v-5c0-2.8 2.2-5 5-5h14c2.8 0 5 2.2 5 5v5zm-7-3H7v4h10v-4zm5-2c0-1.7-1.3-3-3-3H5c-1.7 0-3 1.3-3 3v3h3v-3h14v3h3v-3z"/></symbol><symbol id="tunneli-24" viewBox="0 0 24 24" fill="currentColor"><path d="M1.7 23.7L.3 22.3 3 19.6V4.4L.3 1.7 1.7.3 5 3.6v16.8l-3.3 3.3zm22-1.4L21 19.6V4.4l2.7-2.7L22.3.3 19 3.6v16.8l3.3 3.3 1.4-1.4zM9 5H7v2h2V5zm4 0h-2v2h2V5zM9 17H7v2h2v-2zm4 0h-2v2h2v-2zm4-12h-2v2h2V5zm0 12h-2v2h2v-2z"/></symbol><symbol id="turvalaitetila-24" viewBox="0 0 24 24" fill="currentColor"><path d="M0 5.3V24h24V5.3L12 0 0 5.3zM22 22H2V6.6l10-4.4 10 4.4V22zm-10-6.5c.8 0 1.5.7 1.5 1.5s-.7 1.5-1.5 1.5-1.5-.7-1.5-1.5.7-1.5 1.5-1.5zM11 7h2v7h-2V7z"/></symbol><symbol id="tuulipussi-24" viewBox="0 0 24 24" fill="currentColor"><path d="M22 3.1L2 .1V0H0v24h2V12.9l20-3V3.1zm-10 .6l3 .5V9l-3 .5V3.7zm-2 5.9l-3 .5V2.9l3 .5v6.2zM2 2.2l3 .5v7.8L2 11V2.2zm18 5.9l-3 .5V4.4l3 .5v3.2z"/></symbol><symbol id="tyohenkilo-24" viewBox="0 0 24 24" fill="currentColor"><path d="M24 10h-2c0-5.5-4.5-10-10-10S2 4.5 2 10H0v2h1c-.6.8-1 1.9-1 3 0 2.8 2.2 5 5 5h.1c1.4 2.4 4 4 6.9 4s5.5-1.6 6.9-4h.1c2.8 0 5-2.2 5-5 0-1.1-.4-2.2-1-3h1v-2zM9 2.6V6h2V2.1c.3-.1.7-.1 1-.1s.7 0 1 .1V6h2V2.6c2.9 1.2 5 4.1 5 7.4H4c0-3.3 2.1-6.2 5-7.4zM4 17.8c-1.2-.4-2-1.5-2-2.8s.8-2.4 2-2.8v5.6zm8 4.2c-3.3 0-6-2.7-6-6v-4h12v4c0 3.3-2.7 6-6 6zm8-4.2v-5.6c1.2.4 2 1.5 2 2.8s-.8 2.4-2 2.8zM9.5 13c-.8 0-1.5.7-1.5 1.5S8.7 16 9.5 16s1.5-.7 1.5-1.5-.7-1.5-1.5-1.5zm5 0c-.8 0-1.5.7-1.5 1.5s.7 1.5 1.5 1.5 1.5-.7 1.5-1.5-.7-1.5-1.5-1.5z"/></symbol><symbol id="tyokone-24" viewBox="0 0 24 24" fill="currentColor"><path d="M0 21c0 1.7 1.3 3 3 3s3-1.3 3-3-1.3-3-3-3-3 1.3-3 3zm3-1c.6 0 1 .4 1 1s-.4 1-1 1-1-.4-1-1 .4-1 1-1zm7 1c0 1.7 1.3 3 3 3s3-1.3 3-3-1.3-3-3-3-3 1.3-3 3zm3-1c.6 0 1 .4 1 1s-.4 1-1 1-1-.4-1-1 .4-1 1-1zm9-5V0h-2v2h-4.4l-4 4H8v6H0v6h16v-5.2l-2.1-6.3L16.4 4H20v10.1c-.3-.1-.7-.1-1-.1h-1v10h1c2.8 0 5-2.2 5-5 0-1.6-.8-3.1-2-4zm-8 1H2v-2h8V8h2.3l1.7 5.2V16zm6 5.8v-5.7c1.2.4 2 1.5 2 2.8s-.8 2.5-2 2.9z"/></symbol><symbol id="tyomaakoppi-24" viewBox="0 0 24 24" fill="currentColor"><path d="M15 8V6H9v2h2v6H8v2c0 2.2 1.8 4 4 4s4-1.8 4-4v-2h-3V8h2zm-1 8c0 1.1-.9 2-2 2s-2-.9-2-2h4zM0 5.3V24h24V5.3L12 0 0 5.3zM22 22H2V6.6l10-4.4 10 4.4V22z"/></symbol><symbol id="ulkoinen-linkki-24" viewBox="0 0 24 24" fill="currentColor"><path d="M18 10l2-2v16H0V4h16l-2 2H2v16h16V10zM12 0v2h8.6L9.3 13.3l1.4 1.4L22 3.4V12h2V0H12z"/></symbol><symbol id="urat-24" viewBox="0 0 24 24" fill="currentColor"><path d="M19 11c0 1.1-.9 2-2 2s-2-.9-2-2v-1H9v1c0 1.1-.9 2-2 2s-2-.9-2-2v-1H0v2h3.1c.4 1.7 2 3 3.9 3s3.4-1.3 3.9-3h2.3c.4 1.7 2 3 3.9 3s3.4-1.3 3.9-3h3v-2h-5v1z"/></symbol><symbol id="vaara-korkeus-24" viewBox="0 0 24 24" fill="currentColor"><path d="M18 16h6v2h-6v-2zM0 18h6v-2H0v2zm9 0h6v-2H9v2zm8.7-15.2l-1.4-1.4L12 5.6 7.8 1.3 6.3 2.8 9.6 6H0v2h9.6l-3.2 3.2 1.4 1.4L12 8.4l4.2 4.2 1.4-1.4L14.4 8H24V6h-9.6l3.3-3.2z"/></symbol><symbol id="vaestonsuoja-24" viewBox="0 0 24 24" fill="currentColor"><path d="M0 24h24V0H0v24zM2 2h20v20H2V2zm3.1 16H19L12 6 5.1 18zm3.4-2l3.5-6 3.5 6h-7z"/></symbol><symbol id="vaihde-24" viewBox="0 0 24 24" fill="currentColor"><path d="M19 18l-6.3-6.3 8-8-1.4-1.4L3.6 18H0v2h24v-2z"/></symbol><symbol id="vaihteen-kaantopainike-24" viewBox="0 0 24 24" fill="currentColor"><path d="M23.7 9.7l-1.4-1.4L8.6 22H6v-8h4V0H0v14h4v8H0v2h24v-2H11.4L23.7 9.7zM2 2h6v10H2V2zm4 3c0 .6-.4 1-1 1s-1-.4-1-1 .4-1 1-1 1 .4 1 1zm0 4c0 .6-.4 1-1 1s-1-.4-1-1 .4-1 1-1 1 .4 1 1z"/></symbol><symbol id="valikko-24" viewBox="0 0 24 24" fill="currentColor"><path d="M24 6H0V4h24v2zm0 5H0v2h24v-2zm0 7H0v2h24v-2z"/></symbol><symbol id="valintaruutu-24" viewBox="0 0 24 24" fill="currentColor"><path d="M24 24H0V0h24v24zM2 22h20V2H2v20z"/></symbol><symbol id="valintaruutu-valittu-24" viewBox="0 0 24 24" fill="currentColor"><path d="M0 0v24h24V0H0zm22 22H2V2h20v20zm-4-4H6V6h12v12z"/></symbol><symbol id="valintaruutu-valittu-osa-24" viewBox="0 0 24 24" fill="currentColor"><path d="M24 24H0V0h24v24zM2 22h20V2H2v20zm16-4H6V6h12v12zM8 16h8V8H8v8z"/></symbol><symbol id="valo-24" viewBox="0 0 24 24" fill="currentColor"><path d="M12 6c-3.3 0-6 2.7-6 6s2.7 6 6 6 6-2.7 6-6-2.7-6-6-6zm0 10c-2.2 0-4-1.8-4-4s1.8-4 4-4 4 1.8 4 4-1.8 4-4 4zm1-12h-2V0h2v4zm-2 16h2v4h-2v-4zM5.6 7.1L2.8 4.2l1.4-1.4L7 5.6 5.6 7.1zm12.8 9.8l2.8 2.8-1.4 1.4-2.8-2.7 1.4-1.5zM4 13H0v-2h4v2zm16-2h4v2h-4v-2zM5.6 16.9L7 18.4l-2.8 2.8-1.4-1.4 2.8-2.9zm12.8-9.8L17 5.7l2.8-2.8 1.4 1.4-2.8 2.8z"/></symbol><symbol id="valo-kielto-24" viewBox="0 0 24 24" fill="currentColor"><path d="M4 13H0v-2h4v2zm2.2.5L8 11.7c.1-2 1.7-3.6 3.7-3.7l1.8-1.8c-.4-.1-1-.2-1.5-.2-3.3 0-6 2.7-6 6 0 .5.1 1.1.2 1.5zm.9-7.9L4.2 2.8 2.8 4.2 5.6 7l1.5-1.4zM13 0h-2v4h2V0zm4 18.4l2.8 2.8 1.4-1.4-2.8-2.8-1.4 1.4zM11 24h2v-4h-2v4zm9-11h4v-2h-4v2zm-2.2-2.5L16 12.3c-.1 2-1.7 3.6-3.7 3.7l-1.8 1.8c.5.1 1 .2 1.5.2 3.3 0 6-2.7 6-6 0-.5-.1-1.1-.2-1.5zM22.3.3l-22 22 1.4 1.4 22-22L22.3.3z"/></symbol><symbol id="valo-pieni-24" viewBox="0 0 24 24" fill="currentColor"><path d="M12 8c-2.2 0-4 1.8-4 4s1.8 4 4 4 4-1.8 4-4-1.8-4-4-4zm0 6c-1.1 0-2-.9-2-2s.9-2 2-2 2 .9 2 2-.9 2-2 2zm-1 4h2v2h-2v-2zm2-12h-2V4h2v2zm4 9.5l1.4 1.4-1.4 1.4-1.4-1.4 1.4-1.4zm-10-7L5.6 7 7 5.6 8.4 7 7 8.5zM18 11h2v2h-2v-2zM6 13H4v-2h2v2zm11-4.5l-1.4-1.4L17 5.7 18.4 7 17 8.5zm-10 7l1.4 1.4L7 18.3 5.6 17 7 15.5z"/></symbol><symbol id="valomasto-24" viewBox="0 0 24 24" fill="currentColor"><path d="M4 5H0V3h4v2zm16 0h4V3h-4v2zm-4-1c0 .7-.2 1.4-.6 2h.6v18H8V6h.6C8.2 5.4 8 4.7 8 4c0-2.2 1.8-4 4-4s4 1.8 4 4zm-4 2c1.1 0 2-.9 2-2s-.9-2-2-2-2 .9-2 2 .9 2 2 2zm2 12h-4v4h4v-4zm0-5h-4v3h4v-3zm0-5h-4v3h4V8zm3 2.4l2.8 2.8 1.4-1.4L18.4 9 17 10.4zM2.8 11.8l1.4 1.4L7 10.4 5.6 9l-2.8 2.8z"/></symbol><symbol id="varoallas-24" viewBox="0 0 24 24" fill="currentColor"><path d="M20 6.7c-2.2 0-4-1.8-4-4 0 2.2-1.8 4-4 4s-4-1.8-4-4c0 2.2-1.8 4-4 4s-4-1.8-4-4v6.7c0 6.6 5.4 12 12 12s12-5.4 12-12V2.7c0 2.2-1.8 4-4 4zm2 2.6c0 5.5-4.5 10-10 10S2 14.8 2 9.3v-1c.6.2 1.3.3 2 .3 1.5 0 2.9-.6 4-1.5 1.1 1 2.5 1.5 4 1.5s2.9-.6 4-1.5c1.1 1 2.5 1.5 4 1.5.7 0 1.4-.1 2-.3v1z"/></symbol><symbol id="vaununsiirto-24" viewBox="0 0 24 24" fill="currentColor"><path d="M0 20c0 2.2 1.8 4 4 4s4-1.8 4-4-1.8-4-4-4-4 1.8-4 4zm4-2c1.1 0 2 .9 2 2s-.9 2-2 2-2-.9-2-2 .9-2 2-2zm6-14v8c0 2.2-1.8 4-4 4H0v-2h6c1.1 0 2-.9 2-2V4c0-1.1-.9-2-2-2H0V0h6c2.2 0 4 1.8 4 4zm7.7 2.3l5.7 5.7-5.7 5.7-1.4-1.4 3.3-3.3H14v-2h5.6l-3.3-3.3 1.4-1.4z"/></symbol><symbol id="vaunuvaaka-24" viewBox="0 0 24 24" fill="currentColor"><path d="M0 12h1.2c-.1.3-.2.6-.2 1 0 1.7 1.3 3 3 3 .8 0 1.5-.3 2-.8.5.5 1.2.8 2 .8 1.7 0 3-1.3 3-3 0-.4-.1-.7-.2-1h2.4c-.1.3-.2.6-.2 1 0 1.7 1.3 3 3 3 .8 0 1.5-.3 2-.8.5.5 1.2.8 2 .8 1.7 0 3-1.3 3-3 0-.4-.1-.7-.2-1H24V0H0v12zm4 2c-.6 0-1-.4-1-1s.4-1 1-1 1 .4 1 1-.4 1-1 1zm5-1c0 .6-.4 1-1 1s-1-.4-1-1 .4-1 1-1 1 .4 1 1zm7 1c-.6 0-1-.4-1-1s.4-1 1-1 1 .4 1 1-.4 1-1 1zm5-1c0 .6-.4 1-1 1s-1-.4-1-1 .4-1 1-1 1 .4 1 1zM2 2h20v8H2V2zm14 14h8v2h-8v6h-2v-6h-4v6H8v-6H0v-2h16z"/></symbol><symbol id="vesakko-leikkaus-24" viewBox="0 0 24 24" fill="currentColor"><path d="M19.2 9l2.7-2.7 1.4 1.4L22.1 9h-2.9zM12 7.8l-1.4-1.4L7.9 9h2.8L12 7.8zm1.4-4.3L12 4.9 16.1 9h2.8l-1.2-1.2 5.7-5.7L22 .7l-2.8 2.8L16.4.7 15 2.1l2.8 2.8-1.4 1.4-3-2.8zM7.6 9L6.3 7.8 12 2.1 10.6.7 7.8 3.5 4.9.7 3.5 2.1l2.8 2.8-1.4 1.4-2.8-2.8L.7 4.9 4.8 9h2.8zm8.8 6l1.2 1.2-1.4 1.4-2.6-2.6h-.3L12 16.2l7.1 7.1 1.4-1.4-2.8-2.8 4.1-4.1h-5.4zM5.1 15l1.2 1.2-1.4 1.4L2.3 15h-.4L.7 16.2l7.1 7.1 1.4-1.4-2.8-2.8 4.1-4.1H5.1zM18 13h6v-2h-6v2zm-3-2H9v2h6v-2zm-9 0H0v2h6v-2z"/></symbol><symbol id="vesilammikko-24" viewBox="0 0 24 24" fill="currentColor"><path d="M18 11.9c0-.8-.2-1.5-.5-2.2L12 0 6.5 9.7c-.3.6-.5 1.4-.5 2.2-3.8 1.1-6 3.2-6 5.6C0 21.1 5.3 24 12 24s12-2.9 12-6.5c0-2.4-2.2-4.5-6-5.6zm-9.7-1.4L12 4l3.7 6.5c.2.5.3 1 .3 1.5 0 2.2-1.8 4-4 4s-4-1.8-4-4c0-.5.1-1 .3-1.5zM12 22c-5.9 0-10-2.4-10-4.5 0-1.4 1.7-2.8 4.3-3.6.8 2.4 3 4.1 5.7 4.1s4.9-1.7 5.7-4.1c2.6.9 4.3 2.3 4.3 3.6 0 2.1-4.1 4.5-10 4.5zm0-8v-2h2c0 1.1-.9 2-2 2z"/></symbol><symbol id="vesipiste-24" viewBox="0 0 24 24" fill="currentColor"><path d="M23.7 18.4L20 12l-3.7 6.4c-.2.5-.3 1-.3 1.6 0 2.2 1.8 4 4 4s4-1.8 4-4c0-.6-.1-1.1-.3-1.6zM20 22c-1.1 0-2-.9-2-2 0-.2 0-.5.1-.7L20 16l1.9 3.3c.1.2.1.5.1.7 0 1.1-.9 2-2 2zM13.5 2.5C10.5 2.5 8 5 8 8v16H6v-8H2v4H0V10h2v4h4V8C6 3.9 9.4.5 13.5.5S21 3.9 21 8h-2c0-3-2.5-5.5-5.5-5.5z"/></symbol><symbol id="vesiviskuri-24" viewBox="0 0 24 24" fill="currentColor"><path d="M20 8l-3.7 6.4c-.2.5-.3 1-.3 1.6 0 2.2 1.8 4 4 4s4-1.8 4-4c0-.6-.1-1.1-.3-1.6L20 8zm0 10c-1.1 0-2-.9-2-2 0-.2 0-.5.1-.7L20 12l1.9 3.3c.1.2.1.5.1.7 0 1.1-.9 2-2 2zM12.4 2H16c1.7 0 3 1.3 3 3h2c0-2.8-2.2-5-5-5H5C2.2 0 0 2.2 0 5v19h2V12.4L12.4 2zM5 2h4.6L2 9.6V5c0-1.7 1.3-3 3-3z"/></symbol><symbol id="yhteys-24" viewBox="0 0 24 24" fill="currentColor"><path d="M20.4 11h-12L16 3.4V8h2V0h-8v2h4.6l-11 11h12L8 20.6V16H6v8h8v-2H9.4z"/></symbol><symbol id="yhteys-katkonainen-24" viewBox="0 0 24 24" fill="currentColor"><path d="M16 2h-6V0h8v8h-2V2zM8 16H6v8h8v-2H8v-6zm6.2-13.6l-1.4 1.4 1.4 1.4 1.4-1.4-1.4-1.4zm-1.3 4.1l-1.4-1.4-1.4 1.4 1.4 1.4 1.4-1.4zm-2.7 2.8L8.7 7.8 7.4 9.2l1.4 1.4 1.4-1.3zM7 11.6l-1-1L3.6 13H7v-1.4zm4-.6H9v2h2v-2zm2 2h2v-2h-2v2zm4-2v1.4l1 1 2.4-2.4H17zm-3.2 3.7l1.4 1.4 1.4-1.4-1.4-1.4-1.4 1.4zm-4 6.9l1.4-1.4-1.4-1.4-1.4 1.4 1.4 1.4zm4.1-4.1l-1.4-1.4-1.4 1.4 1.4 1.4 1.4-1.4z"/></symbol><symbol id="yllapito-24" viewBox="0 0 24 24" fill="currentColor"><path d="M21.2 14.1l-1.4-1.4-2.8 2.8-3.6-3.5 5.7-5.7 1.4 1.4 1.4-1.4-4.2-4.2-1.4 1.4 1.4 1.4-5.7 5.7-7.8-7.8-1.4 1.4 7.8 7.8-2.8 2.8L4.9 12l-2.8 2.8c-1.9 1.9-1.9 5.1 0 7.1 1 1 2.3 1.5 3.5 1.5 1.3 0 2.6-.5 3.5-1.5l2.8-2.8-2.8-2.8 2.8-2.8 3.5 3.5-2.8 2.8 1.4 1.4 2.8 2.8 1.4-1.4-2.8-2.8 1.4-1.4 2.8 2.8 1.4-1.4-2.8-2.8 1.4-1.4 2.8 2.8 1.4-1.4-2.6-2.9zM7.8 20.5c-1.2 1.2-3.1 1.2-4.2 0-1.2-1.2-1.2-3.1 0-4.2L5 14.9l4.2 4.2-1.4 1.4z"/></symbol><symbol id="ympyra-huutomerkki-24" viewBox="0 0 24 24" fill="currentColor"><path d="M12 16.5c.8 0 1.5.7 1.5 1.5s-.7 1.5-1.5 1.5-1.5-.7-1.5-1.5.7-1.5 1.5-1.5zM13 4h-2v10h2V4zm11 8c0-6.6-5.4-12-12-12S0 5.4 0 12s5.4 12 12 12 12-5.4 12-12zm-2 0c0 5.5-4.5 10-10 10S2 17.5 2 12 6.5 2 12 2s10 4.5 10 10z"/></symbol><symbol id="ympyra-info-24" viewBox="0 0 24 24" fill="currentColor"><path d="M12 4.5c.8 0 1.5.7 1.5 1.5s-.7 1.5-1.5 1.5-1.5-.7-1.5-1.5.7-1.5 1.5-1.5zm1 5.5h-2v10h2V10zm11 2c0-6.6-5.4-12-12-12S0 5.4 0 12s5.4 12 12 12 12-5.4 12-12zm-2 0c0 5.5-4.5 10-10 10S2 17.5 2 12 6.5 2 12 2s10 4.5 10 10z"/></symbol><symbol id="ympyra-kayra-24" viewBox="0 0 24 24" fill="currentColor"><path d="M12 0C5.4 0 0 5.4 0 12s5.4 12 12 12 12-5.4 12-12S18.6 0 12 0zm0 2c3.9 0 7.3 2.3 9 5.6l-6 6-6-6-6.7 6.7c-.2-.7-.3-1.5-.3-2.3C2 6.5 6.5 2 12 2zm0 20c-3.9 0-7.3-2.3-9-5.6l6-6 6 6 6.7-6.7c.2.7.3 1.5.3 2.3 0 5.5-4.5 10-10 10z"/></symbol><symbol id="ympyra-kysymysmerkki-24" viewBox="0 0 24 24" fill="currentColor"><path d="M13 14h-2v-.5c0-1.1.4-2.1 1.2-2.8l1.2-1.2c.4-.5.6-1 .6-1.5 0-1.1-.9-2-2-2s-2 .9-2 2H8c0-2.2 1.8-4 4-4s4 1.8 4 4c0 1.1-.4 2.1-1.2 2.8L13.6 12c-.4.4-.6 1-.6 1.5v.5zm-1 2.5c-.8 0-1.5.7-1.5 1.5s.7 1.5 1.5 1.5 1.5-.7 1.5-1.5-.7-1.5-1.5-1.5zM24 12c0-6.6-5.4-12-12-12S0 5.4 0 12s5.4 12 12 12 12-5.4 12-12zm-2 0c0 5.5-4.5 10-10 10S2 17.5 2 12 6.5 2 12 2s10 4.5 10 10z"/></symbol><symbol id="ympyra-miinus-24" viewBox="0 0 24 24" fill="currentColor"><path d="M12 24C5.4 24 0 18.6 0 12S5.4 0 12 0s12 5.4 12 12-5.4 12-12 12zm0-22C6.5 2 2 6.5 2 12s4.5 10 10 10 10-4.5 10-10S17.5 2 12 2zm6 9H6v2h12v-2z"/></symbol><symbol id="ympyra-plus-24" viewBox="0 0 24 24" fill="currentColor"><path d="M12 0C5.4 0 0 5.4 0 12s5.4 12 12 12 12-5.4 12-12S18.6 0 12 0zm0 22C6.5 22 2 17.5 2 12S6.5 2 12 2s10 4.5 10 10-4.5 10-10 10zm1-11h5v2h-5v5h-2v-5H6v-2h5V6h2v5z"/></symbol></svg>