<?xml version="1.0" encoding="utf-8"?>
<!-- Generator: Adobe Illustrator 19.2.1, SVG Export Plug-In . SVG Version: 6.00 Build 0)  -->
<!DOCTYPE svg PUBLIC "-//W3C//DTD SVG 1.1//EN" "http://www.w3.org/Graphics/SVG/1.1/DTD/svg11.dtd">
<svg version="1.1" xmlns="http://www.w3.org/2000/svg" xmlns:xlink="http://www.w3.org/1999/xlink" x="0px" y="0px"
	 viewBox="0 0 24 24" enable-background="new 0 0 24 24" xml:space="preserve">
<g id="Layer_1">
	<path d="M12,6c-3.3,0-6,2.7-6,6s2.7,6,6,6s6-2.7,6-6S15.3,6,12,6z M12,16c-2.2,0-4-1.8-4-4s1.8-4,4-4s4,1.8,4,4S14.2,16,12,16z
		 M13,4h-2V0h2V4z M11,20h2v4h-2V20z M5.6,7.1L2.8,4.2l1.4-1.4l2.8,2.8L5.6,7.1z M18.4,16.9l2.8,2.8l-1.4,1.4L17,18.4L18.4,16.9z
		 M4,13H0v-2h4V13z M20,11h4v2h-4V11z M5.6,16.9L7,18.4l-2.8,2.8l-1.4-1.4L5.6,16.9z M18.4,7.1l-1.4-1.4l2.8-2.8l1.4,1.4L18.4,7.1z"
		/>
</g>
<g id="Layer_2" display="none">
	<circle display="inline" fill="none" stroke="#ED1C24" stroke-width="2" stroke-miterlimit="10" cx="12" cy="12" r="5"/>
	<line display="inline" fill="none" stroke="#ED1C24" stroke-width="2" stroke-miterlimit="10" x1="12" y1="0" x2="12" y2="4"/>
	<line display="inline" fill="none" stroke="#ED1C24" stroke-width="2" stroke-miterlimit="10" x1="12" y1="20" x2="12" y2="24"/>
	
		<line display="inline" fill="none" stroke="#ED1C24" stroke-width="2" stroke-miterlimit="10" x1="3.5" y1="3.5" x2="6.3" y2="6.3"/>
	
		<line display="inline" fill="none" stroke="#ED1C24" stroke-width="2" stroke-miterlimit="10" x1="17.7" y1="17.7" x2="20.5" y2="20.5"/>
	<line display="inline" fill="none" stroke="#ED1C24" stroke-width="2" stroke-miterlimit="10" x1="0" y1="12" x2="4" y2="12"/>
	<line display="inline" fill="none" stroke="#ED1C24" stroke-width="2" stroke-miterlimit="10" x1="20" y1="12" x2="24" y2="12"/>
	
		<line display="inline" fill="none" stroke="#ED1C24" stroke-width="2" stroke-miterlimit="10" x1="3.5" y1="20.5" x2="6.3" y2="17.7"/>
	
		<line display="inline" fill="none" stroke="#ED1C24" stroke-width="2" stroke-miterlimit="10" x1="17.7" y1="6.3" x2="20.5" y2="3.5"/>
</g>
</svg>
