<?xml version="1.0" encoding="utf-8"?>
<!-- Generator: Adobe Illustrator 20.1.0, SVG Export Plug-In . SVG Version: 6.00 Build 0)  -->
<!DOCTYPE svg PUBLIC "-//W3C//DTD SVG 1.1//EN" "http://www.w3.org/Graphics/SVG/1.1/DTD/svg11.dtd">
<svg version="1.1" xmlns="http://www.w3.org/2000/svg" xmlns:xlink="http://www.w3.org/1999/xlink" x="0px" y="0px"
	 viewBox="0 0 24 24" enable-background="new 0 0 24 24" xml:space="preserve">
<g id="Layer_1">
	<path d="M18,16h6v2h-6V16z M0,18h6v-2H0V18z M9,18h6v-2H9V18z M17.7,2.8l-1.4-1.4L12,5.6L7.8,1.3L6.3,2.8L9.6,6H0v2h9.6l-3.2,3.2
		l1.4,1.4L12,8.4l4.2,4.2l1.4-1.4L14.4,8H24V6h-9.6L17.7,2.8z"/>
</g>
<g id="Layer_2" display="none">
	
		<line display="inline" fill="none" stroke="#00A651" stroke-width="2" stroke-miterlimit="10" stroke-dasharray="6,3" x1="0" y1="17" x2="24" y2="17"/>
	<line display="inline" fill="none" stroke="#00A651" stroke-width="2" stroke-miterlimit="10" x1="0" y1="7" x2="24" y2="7"/>
	
		<line display="inline" fill="none" stroke="#00A651" stroke-width="2" stroke-miterlimit="10" x1="7.1" y1="11.9" x2="16.9" y2="2.1"/>
	
		<line display="inline" fill="none" stroke="#00A651" stroke-width="2" stroke-miterlimit="10" x1="7.1" y1="2.1" x2="16.9" y2="11.9"/>
</g>
</svg>
