<?xml version="1.0" encoding="utf-8"?>
<!-- Generator: Adobe Illustrator 20.1.0, SVG Export Plug-In . SVG Version: 6.00 Build 0)  -->
<!DOCTYPE svg PUBLIC "-//W3C//DTD SVG 1.1//EN" "http://www.w3.org/Graphics/SVG/1.1/DTD/svg11.dtd">
<svg version="1.1" xmlns="http://www.w3.org/2000/svg" xmlns:xlink="http://www.w3.org/1999/xlink" x="0px" y="0px"
	 viewBox="0 0 24 24" enable-background="new 0 0 24 24" xml:space="preserve">
<g id="Layer_1">
	<path d="M18,11.9c0-0.8-0.2-1.5-0.5-2.2L12,0L6.5,9.7C6.2,10.3,6,11.1,6,11.9c-3.8,1.1-6,3.2-6,5.6C0,21.1,5.3,24,12,24
		s12-2.9,12-6.5C24,15.1,21.8,13,18,11.9z M8.3,10.5L12,4l3.7,6.5c0.2,0.5,0.3,1,0.3,1.5c0,2.2-1.8,4-4,4c-2.2,0-4-1.8-4-4
		C8,11.5,8.1,11,8.3,10.5z M12,22c-5.9,0-10-2.4-10-4.5c0-1.4,1.7-2.8,4.3-3.6c0.8,2.4,3,4.1,5.7,4.1c2.7,0,4.9-1.7,5.7-4.1
		c2.6,0.9,4.3,2.3,4.3,3.6C22,19.6,17.9,22,12,22z M12,14v-2h2C14,13.1,13.1,14,12,14z"/>
</g>
<g id="Layer_2" display="none">
	<g display="inline">
		<g>
			<path fill="#00A651" d="M12,4l3.7,6.5c0.2,0.5,0.3,1,0.3,1.5c0,2.2-1.8,4-4,4s-4-1.8-4-4c0-0.5,0.1-1,0.3-1.5L12,4 M12,0L6.5,9.7
				C6.2,10.4,6,11.2,6,12c0,3.3,2.7,6,6,6s6-2.7,6-6c0-0.8-0.2-1.6-0.5-2.3L12,0L12,0z"/>
		</g>
	</g>
	<path display="inline" fill="none" stroke="#00A651" stroke-width="2" stroke-miterlimit="10" d="M6.5,12.7c-3.3,1-5.5,2.7-5.5,4.8
		c0,3,4.9,5.5,11,5.5s11-2.5,11-5.5c0-2-2.2-3.8-5.5-4.8"/>
	<path display="inline" fill="none" stroke="#00A651" stroke-width="2" stroke-miterlimit="10" d="M13,12c0,0.6-0.4,1-1,1"/>
</g>
</svg>
