<?xml version="1.0" encoding="utf-8"?>
<svg id="Layer_1" x="0px" y="0px" width="100px" height="100px" viewBox="0 -5 95 95" xmlns="http://www.w3.org/2000/svg">
  <path d="M 81.232 15.389 L 18.769 15.389 C 16.887 15.389 15.362 16.914 15.362 18.796 L 15.362 21.939 C 15.362 23.82 16.887 25.346 18.769 25.346 L 81.232 25.346 C 83.113 25.346 84.639 23.821 84.639 21.939 L 84.639 18.796 C 84.639 16.914 83.113 15.389 81.232 15.389 Z" style="fill: rgb(255, 255, 255); stroke: rgb(255, 255, 255);"/>
  <path d="M 81.232 35.144 L 18.769 35.144 C 16.887 35.144 15.362 36.669 15.362 38.551 L 15.362 41.694 C 15.362 43.575 16.887 45.101 18.769 45.101 L 81.232 45.101 C 83.113 45.101 84.639 43.576 84.639 41.694 L 84.639 38.551 C 84.639 36.67 83.113 35.144 81.232 35.144 Z" style="stroke: rgb(255, 255, 255); fill: rgb(255, 255, 255);"/>
  <path d="M 81.232 54.899 L 18.769 54.899 C 16.887 54.899 15.362 56.424 15.362 58.306 L 15.362 61.449 C 15.362 63.33 16.887 64.856 18.769 64.856 L 81.232 64.856 C 83.113 64.856 84.639 63.331 84.639 61.449 L 84.639 58.306 C 84.639 56.425 83.113 54.899 81.232 54.899 Z" style="fill: rgb(255, 255, 255); stroke: rgb(255, 255, 255);"/>
</svg>