<svg width="24" height="24" viewBox="0 0 24 24" fill="none" xmlns="http://www.w3.org/2000/svg">
<path d="M12 6C13.6 6 15.1 6.6 16.2 7.8L20.4 12L16.2 16.2C15.1 17.4 13.6 18 12 18C10.4 18 8.90001 17.4 7.80001 16.2L3.50001 12L7.70001 7.8C8.90001 6.6 10.4 6 12 6ZM12 4C10 4 7.90001 4.8 6.30001 6.3L0.700012 12L6.40001 17.7C7.90001 19.2 10 20 12 20C14 20 16.1 19.2 17.7 17.7L23.4 12L17.7 6.3C16.1 4.8 14 4 12 4ZM12 10C10.9 10 10 10.9 10 12C10 13.1 10.9 14 12 14C13.1 14 14 13.1 14 12C14 10.9 13.1 10 12 10Z" fill="#004D99"/>
</svg>
