<svg width="24" height="24" viewBox="0 0 24 24" fill="none" xmlns="http://www.w3.org/2000/svg">
<g clip-path="url(#clip0)">
<rect y="19" width="2" height="6" transform="rotate(-90 0 19)" fill="#004D99"/>
<rect x="8" y="19" width="2" height="7" transform="rotate(-90 8 19)" fill="#004D99"/>
<rect x="17" y="19" width="2" height="7" transform="rotate(-90 17 19)" fill="#004D99"/>
<path d="M9.55261 4.0677C9.11248 6.08601 10.1278 7.60278 11.3028 7.83515C12.4778 8.06753 14.0434 7.06117 14.4835 5.04286C14.9237 3.02455 13.9083 1.50778 12.7333 1.2754C11.5583 1.04303 9.99273 2.04939 9.55261 4.0677Z" stroke="#004D99" stroke-width="2"/>
<path d="M14.5836 6.56158L11.5652 7.06466L8.48783 23.0993L10.559 22.1569L14.5836 6.56158Z" fill="#004D99"/>
<path d="M19.9638 13.8269C18.9358 14.0577 17.9678 13.9461 17.244 13.6259C16.5204 13.3059 16.0988 12.8127 15.9707 12.2793C15.8426 11.7458 15.9962 11.1235 16.4999 10.528C17.0038 9.93216 17.8218 9.41959 18.8498 9.18881C19.8778 8.95802 20.8458 9.06964 21.5696 9.38981C22.2932 9.70985 22.7148 10.203 22.8429 10.7365C22.971 11.2699 22.8174 11.8922 22.3137 12.4878C21.8098 13.0836 20.9918 13.5962 19.9638 13.8269Z" stroke="#004D99" stroke-width="2"/>
<path d="M16.3911 9.70715L16.596 12.0954L0.176058 15.3297L1.50371 13.1016L16.3911 9.70715Z" fill="#004D99"/>
<circle cx="12" cy="12" r="1" fill="#FFFDFD"/>
</g>
<defs>
<clipPath id="clip0">
<rect width="24" height="24" fill="white" transform="translate(0 24) rotate(-90)"/>
</clipPath>
</defs>
</svg>
