<?xml version="1.0" encoding="utf-8"?>
<svg id="Layer_1" x="0px" y="0px" width="100px" height="100px" viewBox="0 0 100 100" xmlns="http://www.w3.org/2000/svg">
  <rect width="95" height="95" style="stroke-linejoin: round; fill: rgb(61, 183, 228); stroke: rgb(61, 183, 228); stroke-width: 5;" y="2.5" x="2.5"/>
  <g transform="matrix(0.707107, 0.707107, -0.707107, 0.707107, 50.000706, -20.710384)">
    <path d="M 50.868 78.016 L 87.286 51.961 C 87.946 51.49 88.335 50.728 88.337 49.918 C 88.337 49.912 88.337 49.912 88.337 49.912 C 88.335 49.097 87.941 48.337 87.278 47.864 L 50.86 21.977 C 50.093 21.431 49.084 21.361 48.248 21.794 C 47.413 22.22 46.887 23.086 46.887 24.03 L 46.887 36.213 L 14.178 36.212 C 12.788 36.212 11.663 37.337 11.663 38.728 L 11.664 61.269 C 11.663 62.658 12.788 63.784 14.18 63.785 L 46.886 63.785 L 46.886 75.972 C 46.886 76.912 47.416 77.775 48.252 78.209 C 49.089 78.641 50.1 78.567 50.868 78.016 Z" transform="matrix(-0.000001, -1, 1, -0.000001, -0.000974, 100.001028)" style="fill: rgb(255, 255, 255); stroke: rgb(255, 255, 255);"/>
  </g>
</svg>