<?xml version="1.0" encoding="utf-8"?>
<!-- Generator: Adobe Illustrator 19.2.1, SVG Export Plug-In . SVG Version: 6.00 Build 0)  -->
<!DOCTYPE svg PUBLIC "-//W3C//DTD SVG 1.1//EN" "http://www.w3.org/Graphics/SVG/1.1/DTD/svg11.dtd">
<svg version="1.1" id="Layer_1" xmlns="http://www.w3.org/2000/svg" xmlns:xlink="http://www.w3.org/1999/xlink" x="0px" y="0px"
	 width="24px" height="24px" viewBox="0 0 24 24" style="enable-background:new 0 0 24 24;" xml:space="preserve">
<style type="text/css">
	.st0{fill:#FFFFFF;}
	.st1{fill:#FF0000;}
	.st2{fill:#FFFF00;}
	.st3{fill:#FF8000;}
	.st4{fill:#80FF00;}
	.st5{fill:#00FF00;}
	.st6{fill:#00E180;}
	.st7{fill:#00FFFF;}
	.st8{fill:#0080FF;}
	.st9{fill:#0000FF;}
	.st10{fill:#8000FF;}
	.st11{fill:#FF00FF;}
	.st12{fill:#FF0080;}
</style>
<path class="st1" d="M12,0.5C7.9,0.5,4.5,3.9,4.5,8c0,1,0.2,2,0.6,2.9L12,23l6.9-12.1C19.3,10,19.5,9,19.5,8
	C19.5,3.9,16.1,0.5,12,0.5z"/>
<path d="M12,1c3.9,0,7,3.1,7,7c0,0.9-0.2,1.8-0.5,2.7L12,22L5.5,10.7C5.2,9.8,5,8.9,5,8C5,4.1,8.1,1,12,1 M12,0C7.6,0,4,3.6,4,8
	c0,1.1,0.2,2.2,0.6,3.1L12,24l7.4-12.9c0.4-1,0.6-2,0.6-3.1C20,3.6,16.4,0,12,0L12,0z"/>
<circle class="st2" cx="12" cy="8" r="5"/>
</svg>
