<?xml version="1.0" encoding="utf-8"?>
<!-- Generator: Adobe Illustrator 19.1.0, SVG Export Plug-In . SVG Version: 6.00 Build 0)  -->
<!DOCTYPE svg PUBLIC "-//W3C//DTD SVG 1.1//EN" "http://www.w3.org/Graphics/SVG/1.1/DTD/svg11.dtd">
<svg version="1.1" xmlns="http://www.w3.org/2000/svg" xmlns:xlink="http://www.w3.org/1999/xlink" x="0px" y="0px" width="40px"
	 height="40px" viewBox="0 0 40 40" style="enable-background:new 0 0 40 40;" xml:space="preserve">
<style type="text/css">
	.st0{display:none;}
	.st1{fill:#FFFFFF;}
	.st2{display:inline;}
	.st3{fill:#8800BB;}
	.st4{fill:#0066CC;}
	.st5{fill:none;stroke:#0066CC;stroke-miterlimit:10;}
	.st6{fill:#AFAFAF;}
	.st7{fill:#DD0000;}
	.st8{fill:#ED1C24;}
	.st9{fill:#F15A22;}
	.st10{fill:#F68B1F;}
	.st11{fill:#FDB913;}
	.st12{fill:#FFF200;}
	.st13{fill:#CBDB2A;}
	.st14{fill:#00A651;}
	.st15{fill:#6DC8BF;}
	.st16{fill:#00ADDC;}
	.st17{fill:#524FA1;}
	.st18{fill:#662D91;}
	.st19{fill:#B72467;}
	.st20{fill:#FF0000;}
	.st21{fill:#FF8000;}
	.st22{fill:#FFFF00;}
	.st23{fill:#80FF00;}
	.st24{fill:#00FF00;}
	.st25{fill:#00E180;}
	.st26{fill:#00FFFF;}
	.st27{fill:#0080FF;}
	.st28{fill:#0000FF;}
	.st29{fill:#8000FF;}
	.st30{fill:#FF00FF;}
	.st31{fill:#FF0080;}
	.st32{fill:#FF9900;}
	.st33{fill:#009900;}
	.st34{fill:#DD8000;}
	.st35{fill:#DDDD00;}
	.st36{fill:#80DD00;}
	.st37{fill:#00DD00;}
	.st38{fill:#00DD80;}
	.st39{fill:#00DDDD;}
	.st40{fill:#0080DD;}
	.st41{fill:#0000DD;}
	.st42{fill:#8000DD;}
	.st43{fill:#DD00DD;}
	.st44{fill:#DD0080;}
	.st45{fill:#00BB00;}
	.st46{fill:#007700;}
	.st47{fill:#005500;}
	.st48{fill:#003300;}
	.st49{fill:#FF2200;}
	.st50{fill:#BB0000;}
	.st51{fill:#990000;}
	.st52{fill:#191919;}
	.st53{fill:#323232;}
	.st54{fill:#4B4B4B;}
	.st55{fill:#646464;}
	.st56{fill:#7D7D7D;}
	.st57{fill:#969696;}
	.st58{fill:#C8C8C8;}
	.st59{fill:#E1E1E1;}
	.st60{fill:#FAFAFA;}
	.st61{fill:#0088CC;}
	.st62{fill:#00AACC;}
	.st63{fill:#0044CC;}
	.st64{fill:#0022CC;}
	.st65{fill:#0000CC;}
	.st66{fill:#6600BB;}
	.st67{fill:#E6E6E6;}
	.st68{fill:#EBEBEB;}
	.st69{fill:#F0F0F0;}
	.st70{fill:#F5F5F5;}
	.st71{fill:#00CCCC;}
	.st72{fill:#770000;}
	.st73{fill:#FF4400;}
	.st74{fill:#FF7700;}
	.st75{fill:#FF5500;}
	.st76{fill:#FF3300;}
	.st77{fill:#FFBB00;}
	.st78{fill:#FFDD00;}
	.st79{fill:#4400BB;}
	.st80{fill:#2200BB;}
	.st81{fill:#AA00BB;}
	.st82{fill:#CC00BB;}
	.st83{fill:#EE00BB;}
	.st84{fill:none;stroke:#000000;stroke-width:2;stroke-miterlimit:10;}
</style>
<g id="sticker-suunta" class="st0">
	<path class="st2" d="M36,20c0-8.8-7.2-16-16-16S4,11.2,4,20c0,7.2,4.8,13.3,11.3,15.3L20,40l4.7-4.7C31.2,33.3,36,27.2,36,20z"/>
	<g class="st2">
		<circle class="st1" cx="20" cy="20" r="15"/>
	</g>
</g>
<g id="tack-pinni">
	<g>
		<path class="st3" d="M36,20c0-8.8-7.2-16-16-16S4,11.2,4,20c0,4.4,1.8,8.4,4.7,11.3l0,0C11.8,34.4,20,40,20,40s8.2-5.6,11.3-8.7h0
			l0,0C34.2,28.4,36,24.4,36,20z"/>
	</g>
	<g>
		<path class="st1" d="M9.4,30.6c2.6,2.6,8.7,6.9,10.6,8.2c1.9-1.3,8.1-5.6,10.6-8.2C33.4,27.8,35,24,35,20c0-8.3-6.7-15-15-15
			S5,11.7,5,20C5,24,6.6,27.8,9.4,30.6z"/>
	</g>
</g>
<g id="Layer_3">
	<path class="st3" d="M32,20h-4.8h-1.4h-4.9h-0.4c0-5.2,3.4-9.6,8.1-11c-0.3-0.3-0.6-0.5-1-0.7c-3.7,1.4-6.6,4.4-7.7,8.2
		c-1.1-3.8-4-6.9-7.7-8.2c-0.3,0.2-0.7,0.5-1,0.7c4.7,1.4,8.1,5.8,8.1,11h-0.4h-4.9h-1.4H8v1h4.8l-3.1,3.1l0.7,0.7l3.9-3.9h4.9
		l-2.5,4.3l-5.3,1.4l0.3,1l4.3-1.2l-2.4,4.2l0.9,0.5l2.4-4.2l1.2,4.3l1-0.3l-1.4-5.3l2.5-4.3l2.5,4.3L21.1,31l1,0.3l1.2-4.3l2.4,4.2
		l0.9-0.5L24,26.5l4.3,1.2l0.3-1l-5.3-1.4L20.9,21h4.9l3.9,3.9l0.7-0.7L27.2,21H32V20z"/>
</g>
<g id="Layer_4">
</g>
</svg>
