<?xml version="1.0" encoding="utf-8"?>
<!-- Generator: Adobe Illustrator 19.1.0, SVG Export Plug-In . SVG Version: 6.00 Build 0)  -->
<!DOCTYPE svg PUBLIC "-//W3C//DTD SVG 1.1//EN" "http://www.w3.org/Graphics/SVG/1.1/DTD/svg11.dtd">
<svg version="1.1" xmlns="http://www.w3.org/2000/svg" xmlns:xlink="http://www.w3.org/1999/xlink" x="0px" y="0px" width="40px"
	 height="40px" viewBox="0 0 40 40" style="enable-background:new 0 0 40 40;" xml:space="preserve">
<style type="text/css">
	.st0{display:none;}
	.st1{display:inline;}
	.st2{fill:#FF9900;}
	.st3{fill:#FFFFFF;}
	.st4{display:inline;fill:none;stroke:#000000;stroke-width:2;stroke-miterlimit:10;}
	.st5{display:inline;fill:#FF9900;}
	.st6{display:inline;fill:#AFAFAF;}
	.st7{display:inline;fill:#009900;}
	.st8{display:inline;fill:#00BB00;}
	.st9{display:inline;fill:#00DD00;}
	.st10{display:inline;fill:#007700;}
	.st11{display:inline;fill:#005500;}
	.st12{display:inline;fill:#003300;}
	.st13{display:inline;fill:#FF0000;}
	.st14{display:inline;fill:#FF2200;}
	.st15{display:inline;fill:#DD0000;}
	.st16{display:inline;fill:#BB0000;}
	.st17{display:inline;fill:#990000;}
	.st18{display:inline;fill:#191919;}
	.st19{display:inline;fill:#323232;}
	.st20{display:inline;fill:#4B4B4B;}
	.st21{display:inline;fill:#646464;}
	.st22{display:inline;fill:#7D7D7D;}
	.st23{display:inline;fill:#969696;}
	.st24{display:inline;fill:#C8C8C8;}
	.st25{display:inline;fill:#E1E1E1;}
	.st26{display:inline;fill:#FAFAFA;}
	.st27{display:inline;fill:#FFFFFF;}
	.st28{display:inline;fill:#0088CC;}
	.st29{display:inline;fill:#00AACC;}
	.st30{display:inline;fill:#0044CC;}
	.st31{display:inline;fill:#0022CC;}
	.st32{display:inline;fill:#0000CC;}
	.st33{display:inline;fill:#6600BB;}
	.st34{display:inline;fill:#0066CC;}
	.st35{fill:#191919;}
	.st36{display:inline;fill:#E6E6E6;}
	.st37{display:inline;fill:#EBEBEB;}
	.st38{display:inline;fill:#F0F0F0;}
	.st39{display:inline;fill:#F5F5F5;}
	.st40{display:inline;fill:#00CCCC;}
	.st41{display:inline;fill:#00FF00;}
	.st42{display:inline;fill:#770000;}
	.st43{display:inline;fill:#FF4400;}
	.st44{display:inline;fill:#FF7700;}
	.st45{display:inline;fill:#FF5500;}
	.st46{display:inline;fill:#FF3300;}
	.st47{display:inline;fill:#FFBB00;}
	.st48{display:inline;fill:#FFDD00;}
	.st49{display:inline;fill:#FFFF00;}
	.st50{display:inline;fill:#4400BB;}
	.st51{display:inline;fill:#2200BB;}
	.st52{display:inline;fill:#8800BB;}
	.st53{display:inline;fill:#AA00BB;}
	.st54{display:inline;fill:#CC00BB;}
	.st55{display:inline;fill:#EE00BB;}
	.st56{fill:#8800BB;}
	.st57{fill:#DD0000;}
	.st58{fill:#009900;}
	.st59{fill:#0066CC;}
	.st60{fill:none;stroke:#0066CC;stroke-miterlimit:10;}
</style>
<g id="Layer_2" class="st0">
	<path class="st1" d="M36,20c0-8.8-7.2-16-16-16S4,11.2,4,20c0,7.2,4.8,13.3,11.3,15.3L20,40l4.7-4.7C31.2,33.3,36,27.2,36,20z"/>
	<g class="st1">
		<circle class="st3" cx="20" cy="20" r="15"/>
	</g>
</g>
<g id="Layer_3">
	<g>
		<path d="M17.3,14.7l-2.7-6.5c0.3-0.1,0.6-0.3,0.9-0.4l2.7,6.5C17.9,14.4,17.5,14.5,17.3,14.7z M20.5,14V7c-0.2,0-0.3,0-0.5,0
			c-0.2,0-0.3,0-0.5,0v7c0.2,0,0.3,0,0.5,0C20.2,14,20.3,14,20.5,14z M16.1,15.4l-5-5c-0.2,0.2-0.5,0.5-0.7,0.7l5,5
			C15.6,15.9,15.9,15.6,16.1,15.4z M14.7,17.3l-6.5-2.7c-0.1,0.3-0.3,0.6-0.4,0.9l6.5,2.7C14.4,17.9,14.5,17.5,14.7,17.3z M25.4,8.2
			c-0.3-0.1-0.6-0.3-0.9-0.4l-2.7,6.5c0.3,0.1,0.6,0.2,0.9,0.4L25.4,8.2z M19.5,35.5c0.2,0,0.3,0,0.5,0s0.3,0,0.5,0V33h-1V35.5z
			 M20.5,25h-1v2h1V25z M19.5,31h1v-2h-1V31z M32.2,15.5c-0.1-0.3-0.2-0.6-0.4-0.9l-6.5,2.7c0.2,0.3,0.3,0.6,0.4,0.9L32.2,15.5z
			 M29.5,11.2c-0.2-0.2-0.5-0.5-0.7-0.7l-4.9,4.9c0.3,0.2,0.5,0.5,0.7,0.7L29.5,11.2z M12,21v12.3c0.3,0.2,0.7,0.4,1,0.6V21h6.5v2h1
			v-2H27v12.8c0.3-0.2,0.7-0.4,1-0.6V21h7.4c0-0.3,0.1-0.7,0.1-1h-31c0,0.3,0,0.7,0.1,1H12z"/>
	</g>
</g>
<g id="Layer_4">
</g>
</svg>
