<?xml version="1.0" encoding="utf-8"?>
<!-- Generator: Adobe Illustrator 19.1.0, SVG Export Plug-In . SVG Version: 6.00 Build 0)  -->
<!DOCTYPE svg PUBLIC "-//W3C//DTD SVG 1.1//EN" "http://www.w3.org/Graphics/SVG/1.1/DTD/svg11.dtd">
<svg version="1.1" xmlns="http://www.w3.org/2000/svg" xmlns:xlink="http://www.w3.org/1999/xlink" x="0px" y="0px" width="40px"
	 height="40px" viewBox="0 0 40 40" style="enable-background:new 0 0 40 40;" xml:space="preserve">
<style type="text/css">
	.st0{fill:#FF9900;}
	.st1{display:none;fill:#FFFFFF;}
	.st2{fill:none;stroke:#000000;stroke-width:2;stroke-miterlimit:10;}
	.st3{fill:#0066CC;}
	.st4{fill:#AFAFAF;}
	.st5{fill:#FFFFFF;}
	.st6{fill:#009900;}
	.st7{fill:#00BB00;}
	.st8{fill:#00DD00;}
	.st9{fill:#007700;}
	.st10{fill:#005500;}
	.st11{fill:#003300;}
	.st12{fill:#FF0000;}
	.st13{fill:#FF2200;}
	.st14{fill:#DD0000;}
	.st15{fill:#BB0000;}
	.st16{fill:#990000;}
	.st17{fill:#191919;}
	.st18{fill:#323232;}
	.st19{fill:#4B4B4B;}
	.st20{fill:#646464;}
	.st21{fill:#7D7D7D;}
	.st22{fill:#969696;}
	.st23{fill:#C8C8C8;}
	.st24{fill:#E1E1E1;}
	.st25{fill:#FAFAFA;}
	.st26{fill:#0088CC;}
	.st27{fill:#00AACC;}
	.st28{fill:#0044CC;}
	.st29{fill:#0022CC;}
	.st30{fill:#0000CC;}
	.st31{fill:#6600BB;}
	.st32{fill:#E6E6E6;}
	.st33{fill:#EBEBEB;}
	.st34{fill:#F0F0F0;}
	.st35{fill:#F5F5F5;}
	.st36{fill:#00CCCC;}
	.st37{fill:#00FF00;}
	.st38{fill:#770000;}
	.st39{fill:#FF4400;}
	.st40{fill:#FF7700;}
	.st41{fill:#FF5500;}
	.st42{fill:#FF3300;}
	.st43{fill:#FFBB00;}
	.st44{fill:#FFDD00;}
	.st45{fill:#FFFF00;}
	.st46{fill:#4400BB;}
	.st47{fill:#2200BB;}
	.st48{fill:#8800BB;}
	.st49{fill:#AA00BB;}
	.st50{fill:#CC00BB;}
	.st51{fill:#EE00BB;}
	.st52{fill:none;stroke:#0066CC;stroke-miterlimit:10;}
</style>
<g id="Layer_2">
	<g>
		<g>
			<path class="st48" d="M36,20c0-8.8-7.2-16-16-16S4,11.2,4,20c0,4.4,1.8,8.4,4.7,11.3l0,0C11.8,34.4,20,40,20,40s8.2-5.6,11.3-8.7
				h0l0,0C34.2,28.4,36,24.4,36,20z"/>
		</g>
		<g>
			<path class="st5" d="M9.4,30.6c2.6,2.6,8.7,6.9,10.6,8.2c1.9-1.3,8.1-5.6,10.6-8.2C33.4,27.8,35,24,35,20c0-8.3-6.7-15-15-15
				S5,11.7,5,20C5,24,6.6,27.8,9.4,30.6z"/>
		</g>
	</g>
</g>
<g id="Layer_3">
	<polygon class="st48" points="16,16 14,16 14,14 13,14 13,16 11,16 11,17 13,17 13,19 14,19 14,17 16,17 	"/>
	<polygon class="st48" points="29,16 27,16 27,14 26,14 26,16 24,16 24,17 26,17 26,19 27,19 27,17 29,17 	"/>
	<path class="st48" d="M35.5,20H30h-0.5H29c0,1.4-1.1,2.5-2.5,2.5c-1.4,0-2.5-1.1-2.5-2.5h-0.5H23h-6h-0.5H16c0,1.4-1.1,2.5-2.5,2.5
		c-1.4,0-2.5-1.1-2.5-2.5h-0.5H10H4.5v1h5.7c0.4,1.4,1.8,2.5,3.3,2.5s2.9-1.1,3.3-2.5h6.3c0.4,1.4,1.8,2.5,3.3,2.5s2.9-1.1,3.3-2.5
		h5.7V20z"/>
</g>
<g id="Layer_4">
</g>
</svg>
