<?xml version="1.0" encoding="utf-8"?>
<!-- Generator: Adobe Illustrator 19.1.0, SVG Export Plug-In . SVG Version: 6.00 Build 0)  -->
<!DOCTYPE svg PUBLIC "-//W3C//DTD SVG 1.1//EN" "http://www.w3.org/Graphics/SVG/1.1/DTD/svg11.dtd">
<svg version="1.1" xmlns="http://www.w3.org/2000/svg" xmlns:xlink="http://www.w3.org/1999/xlink" x="0px" y="0px" width="40px"
	 height="40px" viewBox="0 0 40 40" style="enable-background:new 0 0 40 40;" xml:space="preserve">
<style type="text/css">
	.st0{display:none;}
	.st1{display:inline;fill:#FFFFFF;}
	.st2{display:inline;}
	.st3{fill:#FF9900;}
	.st4{fill:#FFFFFF;}
	.st5{display:inline;fill:none;stroke:#000000;stroke-width:2;stroke-miterlimit:10;}
	.st6{display:inline;fill:#FF9900;}
	.st7{fill:#DD0000;}
	.st8{display:inline;fill:#DD0000;}
	.st9{fill:#FF0000;}
	.st10{fill:#FF4400;}
	.st11{display:inline;fill:#0066CC;}
	.st12{fill:#0066CC;}
	.st13{fill:#FAFAFA;}
	.st14{fill:#0088CC;}
	.st15{fill:#00AACC;}
	.st16{fill:#009900;}
	.st17{fill:#660099;}
	.st18{fill:#00BB00;}
	.st19{fill:#00DD00;}
	.st20{fill:#007700;}
	.st21{fill:#005500;}
	.st22{fill:#003300;}
	.st23{fill:url(#SVGID_1_);}
	.st24{fill:url(#SVGID_2_);}
	.st25{fill:#BB0000;}
	.st26{fill:#990000;}
	.st27{fill:url(#SVGID_3_);}
	.st28{fill:url(#SVGID_4_);}
	.st29{fill:url(#SVGID_5_);}
	.st30{fill:url(#SVGID_6_);}
	.st31{fill:url(#SVGID_7_);}
	.st32{fill:url(#SVGID_8_);}
	.st33{fill:url(#SVGID_9_);}
	.st34{fill:url(#SVGID_10_);}
	.st35{fill:url(#SVGID_11_);}
	.st36{fill:url(#SVGID_12_);}
	.st37{fill:url(#SVGID_13_);}
	.st38{fill:url(#SVGID_14_);}
	.st39{fill:#191919;}
	.st40{fill:#323232;}
	.st41{fill:#4B4B4B;}
	.st42{fill:#646464;}
	.st43{fill:#7D7D7D;}
	.st44{fill:#969696;}
	.st45{fill:#AFAFAF;}
	.st46{fill:#C8C8C8;}
	.st47{fill:#E1E1E1;}
	.st48{fill:#0044CC;}
	.st49{fill:#0022CC;}
	.st50{fill:#0000CC;}
	.st51{fill:#1A1A1A;}
	.st52{fill:#F0F0F0;}
	.st53{fill:#770000;}
	.st54{fill:url(#SVGID_15_);}
	.st55{fill:none;stroke:#0066CC;stroke-miterlimit:10;}
</style>
<g id="Layer_2" class="st0">
	<g class="st2">
		<path class="st12" d="M36,20c0-8.8-7.2-16-16-16S4,11.2,4,20c0,7.2,4.8,13.3,11.3,15.3L20,40l4.7-4.7C31.2,33.3,36,27.2,36,20z"/>
		<g>
			<circle class="st4" cx="20" cy="20" r="15"/>
		</g>
	</g>
</g>
<g id="Layer_3">
	<path class="st12" d="M20,11c1.1,0,2,0.9,2,2s-0.9,2-2,2s-2-0.9-2-2S18.9,11,20,11 M20,10c-1.7,0-3,1.3-3,3s1.3,3,3,3s3-1.3,3-3
		S21.7,10,20,10L20,10z M20,18c1.1,0,2,0.9,2,2s-0.9,2-2,2s-2-0.9-2-2S18.9,18,20,18 M20,17c-1.7,0-3,1.3-3,3s1.3,3,3,3s3-1.3,3-3
		S21.7,17,20,17L20,17z M20,25c1.1,0,2,0.9,2,2s-0.9,2-2,2s-2-0.9-2-2S18.9,25,20,25 M20,24c-1.7,0-3,1.3-3,3s1.3,3,3,3s3-1.3,3-3
		S21.7,24,20,24L20,24z M24,9v22h-8V9H24 M25,8H15v24h10V8L25,8z"/>
</g>
<g id="Layer_4">
</g>
</svg>
