<?xml version="1.0" encoding="utf-8"?>
<!-- Generator: Adobe Illustrator 19.1.0, SVG Export Plug-In . SVG Version: 6.00 Build 0)  -->
<!DOCTYPE svg PUBLIC "-//W3C//DTD SVG 1.1//EN" "http://www.w3.org/Graphics/SVG/1.1/DTD/svg11.dtd">
<svg version="1.1" xmlns="http://www.w3.org/2000/svg" xmlns:xlink="http://www.w3.org/1999/xlink" x="0px" y="0px" width="40px"
	 height="40px" viewBox="0 0 40 40" style="enable-background:new 0 0 40 40;" xml:space="preserve">
<style type="text/css">
	.st0{display:none;}
	.st1{display:inline;}
	.st2{fill:#FF9900;}
	.st3{fill:#FFFFFF;}
	.st4{display:inline;fill:none;stroke:#000000;stroke-width:2;stroke-miterlimit:10;}
	.st5{display:inline;fill:#FF9900;}
	.st6{display:inline;fill:#0066CC;}
	.st7{fill:#0066CC;}
	.st8{display:inline;fill:#009900;}
	.st9{display:inline;fill:#00BB00;}
	.st10{display:inline;fill:#00DD00;}
	.st11{display:inline;fill:#007700;}
	.st12{display:inline;fill:#005500;}
	.st13{display:inline;fill:#003300;}
	.st14{display:inline;fill:#FF0000;}
	.st15{display:inline;fill:#FF2200;}
	.st16{display:inline;fill:#DD0000;}
	.st17{display:inline;fill:#BB0000;}
	.st18{display:inline;fill:#990000;}
	.st19{display:inline;fill:#191919;}
	.st20{display:inline;fill:#323232;}
	.st21{display:inline;fill:#4B4B4B;}
	.st22{display:inline;fill:#646464;}
	.st23{display:inline;fill:#7D7D7D;}
	.st24{display:inline;fill:#969696;}
	.st25{display:inline;fill:#AFAFAF;}
	.st26{display:inline;fill:#C8C8C8;}
	.st27{display:inline;fill:#E1E1E1;}
	.st28{display:inline;fill:#FAFAFA;}
	.st29{display:inline;fill:#FFFFFF;}
	.st30{display:inline;fill:#0088CC;}
	.st31{display:inline;fill:#00AACC;}
	.st32{display:inline;fill:#0044CC;}
	.st33{display:inline;fill:#0022CC;}
	.st34{display:inline;fill:#0000CC;}
	.st35{display:inline;fill:#6600BB;}
	.st36{fill:#191919;}
	.st37{display:inline;fill:#E6E6E6;}
	.st38{display:inline;fill:#EBEBEB;}
	.st39{display:inline;fill:#F0F0F0;}
	.st40{display:inline;fill:#F5F5F5;}
	.st41{display:inline;fill:#00CCCC;}
	.st42{display:inline;fill:#00FF00;}
	.st43{display:inline;fill:#770000;}
	.st44{display:inline;fill:#FF4400;}
	.st45{display:inline;fill:#FF7700;}
	.st46{display:inline;fill:#FF5500;}
	.st47{display:inline;fill:#FF3300;}
	.st48{display:inline;fill:#FFBB00;}
	.st49{display:inline;fill:#FFDD00;}
	.st50{display:inline;fill:#FFFF00;}
	.st51{display:inline;fill:#4400BB;}
	.st52{display:inline;fill:#2200BB;}
	.st53{display:inline;fill:#8800BB;}
	.st54{display:inline;fill:#AA00BB;}
	.st55{display:inline;fill:#CC00BB;}
	.st56{display:inline;fill:#EE00BB;}
	.st57{fill:#8800BB;}
	.st58{fill:#DD0000;}
	.st59{fill:#009900;}
	.st60{fill:none;stroke:#0066CC;stroke-miterlimit:10;}
</style>
<g id="Layer_2" class="st0">
	<g class="st1">
		<path class="st7" d="M36,20c0-8.8-7.2-16-16-16S4,11.2,4,20c0,7.2,4.8,13.3,11.3,15.3L20,40l4.7-4.7C31.2,33.3,36,27.2,36,20z"/>
		<g>
			<circle class="st3" cx="20" cy="20" r="15"/>
		</g>
	</g>
</g>
<g id="Layer_3">
	<g>
		<g>
			<path class="st7" d="M12,6.7C12,6.7,12,6.7,12,6.7l0,7.3h1V6.2h-0.1c0,0,0,0,0,0C12.6,6.4,12.3,6.6,12,6.7z"/>
		</g>
		<g>
			<path class="st7" d="M28,6.7C28,6.7,28,6.7,28,6.7c-0.3-0.2-0.6-0.3-0.9-0.5c0,0,0,0,0,0H27V14h1V6.7z"/>
		</g>
		<g>
			<path class="st7" d="M25,5.3C25,5.3,25,5.3,25,5.3c-0.3-0.1-0.7-0.2-1-0.3c0,0,0,0,0,0v9h1V5.3z"/>
		</g>
		<g>
			<path class="st7" d="M16,5C16,5,16,5,16,5c-0.3,0.1-0.7,0.2-1,0.3c0,0,0,0,0,0V14h1V5z"/>
		</g>
		<g>
			<path class="st7" d="M22,4.6c-0.3,0-0.7-0.1-1-0.1V14h1V4.6z"/>
		</g>
		<g>
			<rect x="19.5" y="25" class="st7" width="1" height="2"/>
		</g>
		<g>
			<path class="st7" d="M19.5,35.5c0.2,0,0.3,0,0.5,0s0.3,0,0.5,0V33h-1V35.5z"/>
		</g>
		<g>
			<path class="st7" d="M4.9,21l-0.4,0.4c0,0.4,0.1,0.8,0.2,1.2c0,0,0,0,0,0L6.3,21h1.4L5,23.8c0.1,0.4,0.2,0.7,0.3,1.1c0,0,0,0,0,0
				L9.2,21h1.4l-4.9,4.9c0.1,0.3,0.3,0.6,0.4,1c0,0,0,0,0,0L12,21h0v1.4l-5.4,5.4c0.2,0.3,0.3,0.6,0.5,0.9l4.8-4.8v1.4l-4.2,4.2
				c0,0,0,0,0,0C8,29.7,8.2,30,8.4,30.3c0,0,0,0,0,0l3.6-3.6v1.4L9.1,31c0.2,0.2,0.5,0.4,0.7,0.6c0,0,0,0,0,0l2.2-2.2v1.4l-1.4,1.4
				c0,0,0,0,0,0c0.3,0.2,0.5,0.4,0.8,0.6c0,0,0,0,0,0l0.6-0.6v0.9c0.3,0.2,0.7,0.4,1,0.6V21h6.5v2h1v-2H27v12.8
				c0.3-0.2,0.7-0.4,1-0.6v-0.9l0.6,0.6c0,0,0,0,0,0c0.3-0.2,0.5-0.4,0.8-0.6c0,0,0,0,0,0L28,30.9v-1.4l2.2,2.2c0,0,0,0,0,0
				c0.2-0.2,0.5-0.4,0.7-0.6L28,28.1v-1.4l3.6,3.6c0,0,0,0,0,0c0.2-0.3,0.4-0.5,0.6-0.8c0,0,0,0,0,0L28,25.2v-1.4l4.8,4.8
				c0.2-0.3,0.4-0.6,0.5-0.9L28,22.4V21h0l5.9,5.9c0,0,0,0,0,0c0.2-0.3,0.3-0.6,0.4-1L29.4,21h1.4l3.9,3.9c0,0,0,0,0,0
				c0.1-0.4,0.2-0.7,0.3-1.1L32.2,21h1.4l1.6,1.6c0,0,0,0,0,0c0.1-0.4,0.1-0.8,0.2-1.2L35.1,21h0.4c0-0.3,0.1-0.7,0.1-1h-31
				c0,0.3,0,0.7,0.1,1H4.9z"/>
		</g>
		<g>
			<rect x="19.5" y="29" class="st7" width="1" height="2"/>
		</g>
		<g>
			<path class="st7" d="M19,4.6c-0.3,0-0.7,0.1-1,0.1V14h1V4.6z"/>
		</g>
	</g>
</g>
<g id="Layer_4">
</g>
</svg>
