<?xml version="1.0" encoding="utf-8"?>
<!-- Generator: Adobe Illustrator 19.1.0, SVG Export Plug-In . SVG Version: 6.00 Build 0)  -->
<!DOCTYPE svg PUBLIC "-//W3C//DTD SVG 1.1//EN" "http://www.w3.org/Graphics/SVG/1.1/DTD/svg11.dtd">
<svg version="1.1" xmlns="http://www.w3.org/2000/svg" xmlns:xlink="http://www.w3.org/1999/xlink" x="0px" y="0px" width="40px"
	 height="40px" viewBox="0 0 40 40" style="enable-background:new 0 0 40 40;" xml:space="preserve">
<style type="text/css">
	.st0{display:none;}
	.st1{fill:#FFFFFF;}
	.st2{display:inline;}
	.st3{fill:#8800BB;}
	.st4{fill:#DD0000;}
	.st5{fill:#FF9900;}
	.st6{fill:#AFAFAF;}
	.st7{fill:#0066CC;}
	.st8{fill:none;stroke:#0066CC;stroke-miterlimit:10;}
	.st9{display:inline;fill:#ED1C24;}
	.st10{display:inline;fill:#F15A22;}
	.st11{display:inline;fill:#F68B1F;}
	.st12{display:inline;fill:#FDB913;}
	.st13{display:inline;fill:#FFF200;}
	.st14{display:inline;fill:#CBDB2A;}
	.st15{display:inline;fill:#00A651;}
	.st16{display:inline;fill:#6DC8BF;}
	.st17{display:inline;fill:#00ADDC;}
	.st18{display:inline;fill:#524FA1;}
	.st19{display:inline;fill:#662D91;}
	.st20{display:inline;fill:#B72467;}
	.st21{display:inline;fill:#FF0000;}
	.st22{display:inline;fill:#FF8000;}
	.st23{display:inline;fill:#FFFF00;}
	.st24{display:inline;fill:#80FF00;}
	.st25{display:inline;fill:#00FF00;}
	.st26{display:inline;fill:#00E180;}
	.st27{display:inline;fill:#00FFFF;}
	.st28{display:inline;fill:#0080FF;}
	.st29{display:inline;fill:#0000FF;}
	.st30{display:inline;fill:#8000FF;}
	.st31{display:inline;fill:#FF00FF;}
	.st32{display:inline;fill:#FF0080;}
	.st33{display:inline;fill:#AFAFAF;}
	.st34{display:inline;fill:#8800BB;}
	.st35{display:inline;fill:#DD0000;}
	.st36{display:inline;fill:#FF9900;}
	.st37{display:inline;fill:#009900;}
	.st38{display:inline;fill:#0066CC;}
	.st39{display:inline;fill:#DD8000;}
	.st40{display:inline;fill:#DDDD00;}
	.st41{display:inline;fill:#80DD00;}
	.st42{display:inline;fill:#00DD00;}
	.st43{display:inline;fill:#00DD80;}
	.st44{display:inline;fill:#00DDDD;}
	.st45{display:inline;fill:#0080DD;}
	.st46{display:inline;fill:#0000DD;}
	.st47{display:inline;fill:#8000DD;}
	.st48{display:inline;fill:#DD00DD;}
	.st49{display:inline;fill:#DD0080;}
	.st50{display:inline;fill:#00BB00;}
	.st51{display:inline;fill:#007700;}
	.st52{display:inline;fill:#005500;}
	.st53{display:inline;fill:#003300;}
	.st54{display:inline;fill:#FF2200;}
	.st55{display:inline;fill:#BB0000;}
	.st56{display:inline;fill:#990000;}
	.st57{display:inline;fill:#191919;}
	.st58{display:inline;fill:#323232;}
	.st59{display:inline;fill:#4B4B4B;}
	.st60{display:inline;fill:#646464;}
	.st61{display:inline;fill:#7D7D7D;}
	.st62{display:inline;fill:#969696;}
	.st63{display:inline;fill:#C8C8C8;}
	.st64{display:inline;fill:#E1E1E1;}
	.st65{display:inline;fill:#FAFAFA;}
	.st66{display:inline;fill:#FFFFFF;}
	.st67{display:inline;fill:#0088CC;}
	.st68{display:inline;fill:#00AACC;}
	.st69{display:inline;fill:#0044CC;}
	.st70{display:inline;fill:#0022CC;}
	.st71{display:inline;fill:#0000CC;}
	.st72{display:inline;fill:#6600BB;}
	.st73{fill:#191919;}
	.st74{display:inline;fill:#E6E6E6;}
	.st75{display:inline;fill:#EBEBEB;}
	.st76{display:inline;fill:#F0F0F0;}
	.st77{display:inline;fill:#F5F5F5;}
	.st78{display:inline;fill:#00CCCC;}
	.st79{display:inline;fill:#770000;}
	.st80{display:inline;fill:#FF4400;}
	.st81{display:inline;fill:#FF7700;}
	.st82{display:inline;fill:#FF5500;}
	.st83{display:inline;fill:#FF3300;}
	.st84{display:inline;fill:#FFBB00;}
	.st85{display:inline;fill:#FFDD00;}
	.st86{display:inline;fill:#4400BB;}
	.st87{display:inline;fill:#2200BB;}
	.st88{display:inline;fill:#AA00BB;}
	.st89{display:inline;fill:#CC00BB;}
	.st90{display:inline;fill:#EE00BB;}
	.st91{display:inline;fill:none;stroke:#000000;stroke-width:2;stroke-miterlimit:10;}
</style>
<g id="nimet">
</g>
<g id="sticker-suunta" class="st0">
	<path class="st2" d="M36,20c0-8.8-7.2-16-16-16S4,11.2,4,20c0,7.2,4.8,13.3,11.3,15.3L20,40l4.7-4.7C31.2,33.3,36,27.2,36,20z"/>
	<g class="st2">
		<circle class="st1" cx="20" cy="20" r="15"/>
	</g>
</g>
<g id="tack-pinni">
	<g>
		<path class="st4" d="M36,20c0-8.8-7.2-16-16-16S4,11.2,4,20c0,4.4,1.8,8.4,4.7,11.3l0,0C11.8,34.4,20,40,20,40s8.2-5.6,11.3-8.7h0
			l0,0C34.2,28.4,36,24.4,36,20z"/>
	</g>
	<g>
		<path class="st1" d="M9.4,30.6c2.6,2.6,8.7,6.9,10.6,8.2c1.9-1.3,8.1-5.6,10.6-8.2C33.4,27.8,35,24,35,20c0-8.3-6.7-15-15-15
			S5,11.7,5,20C5,24,6.6,27.8,9.4,30.6z"/>
	</g>
</g>
<g id="ikonit">
	<path class="st4" d="M20,15c1.3,0,2.6,0.5,3.5,1.5l3.5,3.5l-3.5,3.5C22.6,24.5,21.3,25,20,25c-1.3,0-2.6-0.5-3.5-1.5L12.9,20
		l3.5-3.5C17.4,15.5,18.7,15,20,15 M20,14c-1.5,0-3.1,0.6-4.2,1.8L11.5,20l4.2,4.2c1.2,1.2,2.7,1.8,4.2,1.8s3.1-0.6,4.2-1.8l4.2-4.2
		l-4.2-4.2C23.1,14.6,21.5,14,20,14L20,14z M20,18c1.1,0,2,0.9,2,2s-0.9,2-2,2s-2-0.9-2-2S18.9,18,20,18 M20,17c-1.7,0-3,1.3-3,3
		s1.3,3,3,3s3-1.3,3-3S21.7,17,20,17L20,17z"/>
</g>
<g id="extra" class="st0">
</g>
</svg>
