<?xml version="1.0" encoding="utf-8"?>
<!-- Generator: Adobe Illustrator 19.1.0, SVG Export Plug-In . SVG Version: 6.00 Build 0)  -->
<!DOCTYPE svg PUBLIC "-//W3C//DTD SVG 1.1//EN" "http://www.w3.org/Graphics/SVG/1.1/DTD/svg11.dtd">
<svg version="1.1" xmlns="http://www.w3.org/2000/svg" xmlns:xlink="http://www.w3.org/1999/xlink" x="0px" y="0px" width="40px"
	 height="40px" viewBox="0 0 40 40" style="enable-background:new 0 0 40 40;" xml:space="preserve">
<style type="text/css">
	.st0{fill:#FF0080;}
	.st1{display:none;}
	.st2{fill:#FFFFFF;}
	.st3{display:inline;}
	.st4{fill:#8800BB;}
	.st5{fill:#DD0000;}
	.st6{fill:#FF9900;}
	.st7{fill:#009900;}
	.st8{fill:#AFAFAF;}
	.st9{fill:#0066CC;}
	.st10{fill:none;stroke:#0066CC;stroke-miterlimit:10;}
	.st11{fill:#ED1C24;}
	.st12{fill:#F15A22;}
	.st13{fill:#F68B1F;}
	.st14{fill:#FDB913;}
	.st15{fill:#FFF200;}
	.st16{fill:#CBDB2A;}
	.st17{fill:#00A651;}
	.st18{fill:#6DC8BF;}
	.st19{fill:#00ADDC;}
	.st20{fill:#524FA1;}
	.st21{fill:#662D91;}
	.st22{fill:#B72467;}
	.st23{fill:#FF0000;}
	.st24{fill:#FF8000;}
	.st25{fill:#FFFF00;}
	.st26{fill:#80FF00;}
	.st27{fill:#00FF00;}
	.st28{fill:#00E180;}
	.st29{fill:#00FFFF;}
	.st30{fill:#0080FF;}
	.st31{fill:#0000FF;}
	.st32{fill:#8000FF;}
	.st33{fill:#FF00FF;}
	.st34{fill:#DD8000;}
	.st35{fill:#DDDD00;}
	.st36{fill:#80DD00;}
	.st37{fill:#00DD00;}
	.st38{fill:#00DD80;}
	.st39{fill:#00DDDD;}
	.st40{fill:#0080DD;}
	.st41{fill:#0000DD;}
	.st42{fill:#8000DD;}
	.st43{fill:#DD00DD;}
	.st44{fill:#DD0080;}
	.st45{fill:#00BB00;}
	.st46{fill:#007700;}
	.st47{fill:#005500;}
	.st48{fill:#003300;}
	.st49{fill:#FF2200;}
	.st50{fill:#BB0000;}
	.st51{fill:#990000;}
	.st52{fill:#191919;}
	.st53{fill:#323232;}
	.st54{fill:#4B4B4B;}
	.st55{fill:#646464;}
	.st56{fill:#7D7D7D;}
	.st57{fill:#969696;}
	.st58{fill:#C8C8C8;}
	.st59{fill:#E1E1E1;}
	.st60{fill:#FAFAFA;}
	.st61{fill:#0088CC;}
	.st62{fill:#00AACC;}
	.st63{fill:#0044CC;}
	.st64{fill:#0022CC;}
	.st65{fill:#0000CC;}
	.st66{fill:#6600BB;}
	.st67{fill:#E6E6E6;}
	.st68{fill:#EBEBEB;}
	.st69{fill:#F0F0F0;}
	.st70{fill:#F5F5F5;}
	.st71{fill:#00CCCC;}
	.st72{fill:#770000;}
	.st73{fill:#FF4400;}
	.st74{fill:#FF7700;}
	.st75{fill:#FF5500;}
	.st76{fill:#FF3300;}
	.st77{fill:#FFBB00;}
	.st78{fill:#FFDD00;}
	.st79{fill:#4400BB;}
	.st80{fill:#2200BB;}
	.st81{fill:#AA00BB;}
	.st82{fill:#CC00BB;}
	.st83{fill:#EE00BB;}
	.st84{fill:none;stroke:#000000;stroke-width:2;stroke-miterlimit:10;}
</style>
<g id="nimet">
</g>
<g id="sticker-suunta" class="st1">
	<path class="st3" d="M36,20c0-8.8-7.2-16-16-16S4,11.2,4,20c0,7.2,4.8,13.3,11.3,15.3L20,40l4.7-4.7C31.2,33.3,36,27.2,36,20z"/>
	<g class="st3">
		<circle class="st2" cx="20" cy="20" r="15"/>
	</g>
</g>
<g id="tack-pinni">
	<g>
		<path class="st4" d="M36,20c0-8.8-7.2-16-16-16S4,11.2,4,20c0,4.4,1.8,8.4,4.7,11.3l0,0C11.8,34.4,20,40,20,40s8.2-5.6,11.3-8.7h0
			l0,0C34.2,28.4,36,24.4,36,20z"/>
	</g>
	<g>
		<path class="st2" d="M9.4,30.6c2.6,2.6,8.7,6.9,10.6,8.2c1.9-1.3,8.1-5.6,10.6-8.2C33.4,27.8,35,24,35,20c0-8.3-6.7-15-15-15
			S5,11.7,5,20C5,24,6.6,27.8,9.4,30.6z"/>
	</g>
</g>
<g id="ikonit">
	<path class="st4" d="M20.5,27h-1v-2h1V27z M19.5,34c0.2,0,0.3,0,0.5,0s0.3,0,0.5,0v-1h-1V34z M6.3,21h1.4l-1.5,1.5
		c0.1,0.4,0.2,0.8,0.3,1.2L9.2,21h1.4l-3.7,3.7c0.1,0.3,0.3,0.7,0.4,1L12,21h0v1.4l-4.3,4.3c0.2,0.3,0.3,0.6,0.5,0.9l3.8-3.8v1.4
		l-3.2,3.2c0.2,0.3,0.4,0.5,0.6,0.8l2.5-2.5v1.4l-1.9,1.9c0.2,0.2,0.5,0.5,0.7,0.7l1.1-1.1v1.4l-0.3,0.3c0.4,0.3,0.9,0.6,1.3,0.9V21
		h6.5v2h1v-2H27v11.1c0.5-0.3,0.9-0.6,1.3-0.9L28,30.9v-1.4l1.1,1.1c0.3-0.2,0.5-0.4,0.7-0.7L28,28.1v-1.4l2.5,2.5
		c0.2-0.3,0.4-0.5,0.6-0.8L28,25.2v-1.4l3.8,3.8c0.2-0.3,0.4-0.6,0.5-0.9L28,22.4V21h0l4.8,4.8c0.1-0.3,0.3-0.7,0.4-1L29.4,21h1.4
		l2.7,2.7c0.1-0.4,0.2-0.8,0.3-1.2L32.2,21h1.4l0.3,0.3c0-0.4,0.1-0.8,0.1-1.3H6c0,0.4,0,0.9,0.1,1.3L6.3,21z M19.5,31h1v-2h-1V31z
		 M16,11h-2V9h-1v2h-2v1h2v2h1v-2h2V11z M29,11h-2V9h-1v2h-2v1h2v2h1v-2h2V11z M33.1,15l-3.8,0l-2.8,2.4L23.7,15h-7.4l-2.8,2.3
		L10.7,15H6.9c-0.1,0.3-0.2,0.7-0.3,1h3.7l3.2,2.7l3.2-2.7h6.6l3.2,2.7l3.2-2.6l3.7,0C33.3,15.7,33.2,15.4,33.1,15z"/>
</g>
<g id="extra">
</g>
</svg>
