<?xml version="1.0" encoding="utf-8"?>
<!-- Generator: Adobe Illustrator 19.1.0, SVG Export Plug-In . SVG Version: 6.00 Build 0)  -->
<!DOCTYPE svg PUBLIC "-//W3C//DTD SVG 1.1//EN" "http://www.w3.org/Graphics/SVG/1.1/DTD/svg11.dtd">
<svg version="1.1" xmlns="http://www.w3.org/2000/svg" xmlns:xlink="http://www.w3.org/1999/xlink" x="0px" y="0px" width="40px"
	 height="40px" viewBox="0 0 40 40" style="enable-background:new 0 0 40 40;" xml:space="preserve">
<style type="text/css">
	.st0{fill:#FF9900;}
	.st1{display:none;fill:#FFFFFF;}
	.st2{fill:none;stroke:#000000;stroke-width:2;stroke-miterlimit:10;}
	.st3{fill:#0066CC;}
	.st4{fill:#AFAFAF;}
	.st5{fill:#FFFFFF;}
	.st6{fill:#009900;}
	.st7{fill:#00BB00;}
	.st8{fill:#00DD00;}
	.st9{fill:#007700;}
	.st10{fill:#005500;}
	.st11{fill:#003300;}
	.st12{fill:#FF0000;}
	.st13{fill:#FF2200;}
	.st14{fill:#DD0000;}
	.st15{fill:#BB0000;}
	.st16{fill:#990000;}
	.st17{fill:#191919;}
	.st18{fill:#323232;}
	.st19{fill:#4B4B4B;}
	.st20{fill:#646464;}
	.st21{fill:#7D7D7D;}
	.st22{fill:#969696;}
	.st23{fill:#C8C8C8;}
	.st24{fill:#E1E1E1;}
	.st25{fill:#FAFAFA;}
	.st26{fill:#0088CC;}
	.st27{fill:#00AACC;}
	.st28{fill:#0044CC;}
	.st29{fill:#0022CC;}
	.st30{fill:#0000CC;}
	.st31{fill:#6600BB;}
	.st32{fill:#E6E6E6;}
	.st33{fill:#EBEBEB;}
	.st34{fill:#F0F0F0;}
	.st35{fill:#F5F5F5;}
	.st36{fill:#00CCCC;}
	.st37{fill:#00FF00;}
	.st38{fill:#770000;}
	.st39{fill:#FF4400;}
	.st40{fill:#FF7700;}
	.st41{fill:#FF5500;}
	.st42{fill:#FF3300;}
	.st43{fill:#FFBB00;}
	.st44{fill:#FFDD00;}
	.st45{fill:#FFFF00;}
	.st46{fill:#4400BB;}
	.st47{fill:#2200BB;}
	.st48{fill:#8800BB;}
	.st49{fill:#AA00BB;}
	.st50{fill:#CC00BB;}
	.st51{fill:#EE00BB;}
	.st52{fill:none;stroke:#0066CC;stroke-miterlimit:10;}
</style>
<g id="Layer_2">
	<g>
		<g>
			<path class="st48" d="M36,20c0-8.8-7.2-16-16-16S4,11.2,4,20c0,4.4,1.8,8.4,4.7,11.3l0,0C11.8,34.4,20,40,20,40s8.2-5.6,11.3-8.7
				h0l0,0C34.2,28.4,36,24.4,36,20z"/>
		</g>
		<g>
			<path class="st5" d="M9.4,30.6c2.6,2.6,8.7,6.9,10.6,8.2c1.9-1.3,8.1-5.6,10.6-8.2C33.4,27.8,35,24,35,20c0-8.3-6.7-15-15-15
				S5,11.7,5,20C5,24,6.6,27.8,9.4,30.6z"/>
		</g>
	</g>
</g>
<g id="Layer_3">
	<path class="st48" d="M18,25c1.8,0,3.4-0.6,4.6-1.7l4.7,4.7l0.7-0.7l-4.7-4.7c1.1-1.2,1.7-2.8,1.7-4.6c0-3.9-3.1-7-7-7
		c-3.9,0-7,3.1-7,7C11,21.9,14.1,25,18,25z M18,12c3.3,0,6,2.7,6,6s-2.7,6-6,6s-6-2.7-6-6S14.7,12,18,12z"/>
	<path class="st48" d="M10.8,29.2l0.7-0.7c-4.7-4.7-4.7-12.3,0-17l-0.7-0.7C5.7,15.9,5.7,24.1,10.8,29.2z"/>
	<path class="st48" d="M29.2,10.8l-0.7,0.7c4.7,4.7,4.7,12.3,0,17l0.7,0.7C34.3,24.1,34.3,15.9,29.2,10.8z"/>
</g>
<g id="Layer_4">
</g>
</svg>
