<?xml version="1.0" encoding="utf-8"?>
<!-- Generator: Adobe Illustrator 19.1.0, SVG Export Plug-In . SVG Version: 6.00 Build 0)  -->
<!DOCTYPE svg PUBLIC "-//W3C//DTD SVG 1.1//EN" "http://www.w3.org/Graphics/SVG/1.1/DTD/svg11.dtd">
<svg version="1.1" xmlns="http://www.w3.org/2000/svg" xmlns:xlink="http://www.w3.org/1999/xlink" x="0px" y="0px" width="40px"
	 height="40px" viewBox="0 0 40 40" style="enable-background:new 0 0 40 40;" xml:space="preserve">
<style type="text/css">
	.st0{display:none;}
	.st1{fill:#FFFFFF;}
	.st2{display:inline;}
	.st3{fill:#8800BB;}
	.st4{fill:#0066CC;}
	.st5{fill:none;stroke:#0066CC;stroke-miterlimit:10;}
	.st6{fill:#AFAFAF;}
	.st7{fill:#DD0000;}
	.st8{display:inline;fill:#ED1C24;}
	.st9{display:inline;fill:#F15A22;}
	.st10{display:inline;fill:#F68B1F;}
	.st11{display:inline;fill:#FDB913;}
	.st12{display:inline;fill:#FFF200;}
	.st13{display:inline;fill:#CBDB2A;}
	.st14{display:inline;fill:#00A651;}
	.st15{display:inline;fill:#6DC8BF;}
	.st16{display:inline;fill:#00ADDC;}
	.st17{display:inline;fill:#524FA1;}
	.st18{display:inline;fill:#662D91;}
	.st19{display:inline;fill:#B72467;}
	.st20{display:inline;fill:#FF0000;}
	.st21{display:inline;fill:#FF8000;}
	.st22{display:inline;fill:#FFFF00;}
	.st23{display:inline;fill:#80FF00;}
	.st24{display:inline;fill:#00FF00;}
	.st25{display:inline;fill:#00E180;}
	.st26{display:inline;fill:#00FFFF;}
	.st27{display:inline;fill:#0080FF;}
	.st28{display:inline;fill:#0000FF;}
	.st29{display:inline;fill:#8000FF;}
	.st30{display:inline;fill:#FF00FF;}
	.st31{display:inline;fill:#FF0080;}
	.st32{display:inline;fill:#AFAFAF;}
	.st33{display:inline;fill:#8800BB;}
	.st34{display:inline;fill:#DD0000;}
	.st35{display:inline;fill:#FF9900;}
	.st36{display:inline;fill:#009900;}
	.st37{display:inline;fill:#0066CC;}
	.st38{display:inline;fill:#DD8000;}
	.st39{display:inline;fill:#DDDD00;}
	.st40{display:inline;fill:#80DD00;}
	.st41{display:inline;fill:#00DD00;}
	.st42{display:inline;fill:#00DD80;}
	.st43{display:inline;fill:#00DDDD;}
	.st44{display:inline;fill:#0080DD;}
	.st45{display:inline;fill:#0000DD;}
	.st46{display:inline;fill:#8000DD;}
	.st47{display:inline;fill:#DD00DD;}
	.st48{display:inline;fill:#DD0080;}
	.st49{display:inline;fill:#00BB00;}
	.st50{display:inline;fill:#007700;}
	.st51{display:inline;fill:#005500;}
	.st52{display:inline;fill:#003300;}
	.st53{display:inline;fill:#FF2200;}
	.st54{display:inline;fill:#BB0000;}
	.st55{display:inline;fill:#990000;}
	.st56{display:inline;fill:#191919;}
	.st57{display:inline;fill:#323232;}
	.st58{display:inline;fill:#4B4B4B;}
	.st59{display:inline;fill:#646464;}
	.st60{display:inline;fill:#7D7D7D;}
	.st61{display:inline;fill:#969696;}
	.st62{display:inline;fill:#C8C8C8;}
	.st63{display:inline;fill:#E1E1E1;}
	.st64{display:inline;fill:#FAFAFA;}
	.st65{display:inline;fill:#FFFFFF;}
	.st66{display:inline;fill:#0088CC;}
	.st67{display:inline;fill:#00AACC;}
	.st68{display:inline;fill:#0044CC;}
	.st69{display:inline;fill:#0022CC;}
	.st70{display:inline;fill:#0000CC;}
	.st71{display:inline;fill:#6600BB;}
	.st72{fill:#191919;}
	.st73{display:inline;fill:#E6E6E6;}
	.st74{display:inline;fill:#EBEBEB;}
	.st75{display:inline;fill:#F0F0F0;}
	.st76{display:inline;fill:#F5F5F5;}
	.st77{display:inline;fill:#00CCCC;}
	.st78{display:inline;fill:#770000;}
	.st79{display:inline;fill:#FF4400;}
	.st80{display:inline;fill:#FF7700;}
	.st81{display:inline;fill:#FF5500;}
	.st82{display:inline;fill:#FF3300;}
	.st83{display:inline;fill:#FFBB00;}
	.st84{display:inline;fill:#FFDD00;}
	.st85{display:inline;fill:#4400BB;}
	.st86{display:inline;fill:#2200BB;}
	.st87{display:inline;fill:#AA00BB;}
	.st88{display:inline;fill:#CC00BB;}
	.st89{display:inline;fill:#EE00BB;}
	.st90{fill:#FF9900;}
	.st91{display:inline;fill:none;stroke:#000000;stroke-width:2;stroke-miterlimit:10;}
</style>
<g id="nimet">
</g>
<g id="sticker-suunta" class="st0">
	<path class="st2" d="M36,20c0-8.8-7.2-16-16-16S4,11.2,4,20c0,7.2,4.8,13.3,11.3,15.3L20,40l4.7-4.7C31.2,33.3,36,27.2,36,20z"/>
	<g class="st2">
		<circle class="st1" cx="20" cy="20" r="15"/>
	</g>
</g>
<g id="tack-pinni" class="st0">
	<g class="st2">
		<path class="st3" d="M36,20c0-8.8-7.2-16-16-16S4,11.2,4,20c0,4.4,1.8,8.4,4.7,11.3l0,0C11.8,34.4,20,40,20,40s8.2-5.6,11.3-8.7h0
			l0,0C34.2,28.4,36,24.4,36,20z"/>
	</g>
	<g class="st2">
		<path class="st1" d="M9.4,30.6c2.6,2.6,8.7,6.9,10.6,8.2c1.9-1.3,8.1-5.6,10.6-8.2C33.4,27.8,35,24,35,20c0-8.3-6.7-15-15-15
			S5,11.7,5,20C5,24,6.6,27.8,9.4,30.6z"/>
	</g>
</g>
<g id="ikonit">
	<g>
		<rect x="12" y="26" class="st4" width="4" height="1"/>
		<rect x="13" y="23" class="st4" width="2" height="1"/>
		<path class="st4" d="M11,29H9.3c0.3,0.3,0.6,0.7,0.9,1H11V29z"/>
		<path class="st4" d="M16,32h-3.2c0.6,0.4,1.3,0.7,2,1H16V32z"/>
		<rect x="13" y="29" class="st4" width="2" height="1"/>
		<rect x="18" y="26" class="st4" width="4" height="1"/>
		<path class="st4" d="M29,29v1h0.8c0.3-0.3,0.6-0.7,0.9-1H29z"/>
		<path class="st4" d="M33.9,21c0-0.3,0.1-0.7,0.1-1H6c0,0.3,0,0.7,0.1,1H33.9z"/>
		<path class="st4" d="M7.9,27H10v-1H7.4C7.5,26.3,7.7,26.7,7.9,27z"/>
		<path class="st4" d="M6.6,24H7v-1H6.3C6.4,23.3,6.5,23.7,6.6,24z"/>
		<rect x="9" y="23" class="st4" width="2" height="1"/>
		<rect x="21" y="29" class="st4" width="2" height="1"/>
		<path class="st4" d="M30,26v1h2.1c0.2-0.3,0.4-0.7,0.5-1H30z"/>
		<rect x="25" y="23" class="st4" width="2" height="1"/>
		<rect x="25" y="29" class="st4" width="2" height="1"/>
		<rect x="29" y="23" class="st4" width="2" height="1"/>
		<rect x="21" y="23" class="st4" width="2" height="1"/>
		<path class="st4" d="M33,23v1h0.4c0.1-0.3,0.2-0.7,0.3-1H33z"/>
		<rect x="17" y="23" class="st4" width="2" height="1"/>
		<rect x="24" y="26" class="st4" width="4" height="1"/>
		<rect x="17" y="29" class="st4" width="2" height="1"/>
		<path class="st4" d="M24,32v1h1.2c0.7-0.3,1.4-0.6,2-1H24z"/>
		<rect x="18" y="32" class="st4" width="4" height="1"/>
	</g>
</g>
<g id="extra" class="st0">
</g>
</svg>
