<?xml version="1.0" encoding="utf-8"?>
<!-- Generator: Adobe Illustrator 19.1.0, SVG Export Plug-In . SVG Version: 6.00 Build 0)  -->
<!DOCTYPE svg PUBLIC "-//W3C//DTD SVG 1.1//EN" "http://www.w3.org/Graphics/SVG/1.1/DTD/svg11.dtd">
<svg version="1.1" xmlns="http://www.w3.org/2000/svg" xmlns:xlink="http://www.w3.org/1999/xlink" x="0px" y="0px" width="40px"
	 height="40px" viewBox="0 0 40 40" style="enable-background:new 0 0 40 40;" xml:space="preserve">
<style type="text/css">
	.st0{fill:#FFFFFF;}
	.st1{fill:#FF9900;}
	.st2{display:none;fill:#FFFFFF;}
	.st3{fill:none;stroke:#000000;stroke-width:2;stroke-miterlimit:10;}
	.st4{fill:#DD0000;}
	.st5{fill:#FF0000;}
	.st6{fill:#FF4400;}
	.st7{fill:#0066CC;}
	.st8{fill:#009900;}
	.st9{fill:#00BB00;}
	.st10{fill:#00DD00;}
	.st11{fill:#007700;}
	.st12{fill:#005500;}
	.st13{fill:#003300;}
	.st14{fill:#FF2200;}
	.st15{fill:#BB0000;}
	.st16{fill:#990000;}
	.st17{fill:#191919;}
	.st18{fill:#323232;}
	.st19{fill:#4B4B4B;}
	.st20{fill:#646464;}
	.st21{fill:#7D7D7D;}
	.st22{fill:#969696;}
	.st23{fill:#AFAFAF;}
	.st24{fill:#C8C8C8;}
	.st25{fill:#E1E1E1;}
	.st26{fill:#FAFAFA;}
	.st27{fill:#0088CC;}
	.st28{fill:#00AACC;}
	.st29{fill:#0044CC;}
	.st30{fill:#0022CC;}
	.st31{fill:#0000CC;}
	.st32{fill:#6600BB;}
	.st33{fill:#E6E6E6;}
	.st34{fill:#EBEBEB;}
	.st35{fill:#F0F0F0;}
	.st36{fill:#F5F5F5;}
	.st37{fill:#00CCCC;}
	.st38{fill:#00FF00;}
	.st39{fill:#770000;}
	.st40{fill:#FF7700;}
	.st41{fill:#FF5500;}
	.st42{fill:#FF3300;}
	.st43{fill:#FFBB00;}
	.st44{fill:#FFDD00;}
	.st45{fill:#FFFF00;}
	.st46{fill:#4400BB;}
	.st47{fill:#2200BB;}
	.st48{fill:#8800BB;}
	.st49{fill:#AA00BB;}
	.st50{fill:#CC00BB;}
	.st51{fill:#EE00BB;}
	.st52{fill:none;stroke:#0066CC;stroke-miterlimit:10;}
</style>
<g id="Layer_2">
	<g>
		<g>
			<path class="st48" d="M36,20c0-8.8-7.2-16-16-16S4,11.2,4,20c0,4.4,1.8,8.4,4.7,11.3l0,0C11.8,34.4,20,40,20,40s8.2-5.6,11.3-8.7
				h0l0,0C34.2,28.4,36,24.4,36,20z"/>
		</g>
		<g>
			<path class="st0" d="M9.4,30.6c2.6,2.6,8.7,6.9,10.6,8.2c1.9-1.3,8.1-5.6,10.6-8.2C33.4,27.8,35,24,35,20c0-8.3-6.7-15-15-15
				S5,11.7,5,20C5,24,6.6,27.8,9.4,30.6z"/>
		</g>
	</g>
</g>
<g id="Layer_3">
	<g>
		<path class="st48" d="M13.3,25.1h-1v-7.7H9.6v-0.9H16v0.9h-2.7V25.1z"/>
		<path class="st48" d="M22.7,19c0,0.9-0.3,1.5-0.9,2s-1.4,0.7-2.5,0.7h-1v3.4h-1v-8.6h2.2C21.6,16.6,22.7,17.4,22.7,19z M18.3,20.9
			h0.9c0.9,0,1.5-0.1,1.9-0.4s0.6-0.7,0.6-1.4c0-0.6-0.2-1-0.6-1.3s-0.9-0.4-1.7-0.4h-1.1V20.9z"/>
		<path class="st48" d="M29.9,19c0,0.9-0.3,1.5-0.9,2s-1.4,0.7-2.5,0.7h-1v3.4h-1v-8.6h2.2C28.9,16.6,29.9,17.4,29.9,19z M25.5,20.9
			h0.9c0.9,0,1.5-0.1,1.9-0.4s0.6-0.7,0.6-1.4c0-0.6-0.2-1-0.6-1.3s-0.9-0.4-1.7-0.4h-1.1V20.9z"/>
	</g>
</g>
<g id="Layer_4">
</g>
</svg>
