<?xml version="1.0" encoding="utf-8"?>
<!-- Generator: Adobe Illustrator 18.1.1, SVG Export Plug-In . SVG Version: 6.00 Build 0)  -->
<!DOCTYPE svg PUBLIC "-//W3C//DTD SVG 1.1//EN" "http://www.w3.org/Graphics/SVG/1.1/DTD/svg11.dtd">
<svg version="1.1" id="Layer_1" xmlns="http://www.w3.org/2000/svg" xmlns:xlink="http://www.w3.org/1999/xlink" x="0px" y="0px"
	 width="109px" height="32px" viewBox="0 0 109 32" style="enable-background:new 0 0 109 32;" xml:space="preserve">
<style type="text/css">
	.st0{fill:#191919;}
	.st1{fill:url(#SVGID_1_);}
	.st2{fill:#FFFFFF;}
</style>
<g>
	<path class="st0" d="M75,6L75,6h-6v21h3v-6h3c1.7,0,3,1.3,3,3v3h3v-3c0-1.8-0.8-3.4-2-4.5c1.2-1.1,2-2.7,2-4.5v-3
		C81,8.7,78.3,6,75,6z M78,15c0,1.7-1.3,3-3,3h-3V9h3c1.7,0,3,1.3,3,3V15z"/>
	<path class="st0" d="M61,6c-3.3,0-6,2.7-6,6v15h3v-6h6v6h3V12C67,8.7,64.3,6,61,6z M64,18h-6v-6c0-1.7,1.3-3,3-3c1.7,0,3,1.3,3,3
		V18z"/>
	<path class="st0" d="M103,6c-3.3,0-6,2.7-6,6v15h3v-6h6v6h3V12C109,8.7,106.3,6,103,6z M100,18v-6c0-1.7,1.3-3,3-3c1.7,0,3,1.3,3,3
		v6H100z"/>
	
		<linearGradient id="SVGID_1_" gradientUnits="userSpaceOnUse" x1="2489.1875" y1="3693.2446" x2="2457.1875" y2="3693.2446" gradientTransform="matrix(4.489700e-11 1 -1 4.489700e-11 3709.2446 -2457.1875)">
		<stop  offset="0" style="stop-color:#CC7A00"/>
		<stop  offset="0.5" style="stop-color:#FF9900"/>
		<stop  offset="1" style="stop-color:#FFAD33"/>
	</linearGradient>
	<path class="st1" d="M6,32c-3.3,0-6-2.7-6-6L0,6c0-3.3,2.7-6,6-6l20,0c3.3,0,6,2.7,6,6v20c0,3.3-2.7,6-6,6H6z"/>
	<polygon class="st0" points="50,6 50,15 43,15 43,6 40,6 40,27 43,27 43,18 50,18 50,27 53,27 53,6 	"/>
	<path class="st0" d="M92,21c0,1.7-1.3,3-3,3c-1.7,0-3-1.3-3-3v-3h-3v3c0,3.3,2.7,6,6,6c3.3,0,6-2.7,6-6V6h-3V21z"/>
	<g>
		<rect x="11" y="20" class="st2" width="1" height="6"/>
		<rect x="8" y="20" class="st2" width="1" height="6"/>
		<rect x="14" y="20" class="st2" width="1" height="6"/>
		<rect x="17" y="20" class="st2" width="1" height="6"/>
		<rect x="20" y="20" class="st2" width="1" height="6"/>
		<rect x="23" y="20" class="st2" width="1" height="6"/>
		<polygon class="st2" points="17,16 17,0 15,0 15,16 8,16 8,18 24,18 24,16 		"/>
	</g>
</g>
</svg>
