<svg width="24" height="24" viewBox="0 0 24 24" fill="none" xmlns="http://www.w3.org/2000/svg">
<path d="M12 2C17.9 2 22 4.6 22 7C22 9.4 17.9 12 12 12C6.1 12 2 9.4 2 7C2 4.6 6.1 2 12 2ZM12 0C5.4 0 0 3.1 0 7C0 10.9 5.4 14 12 14C18.6 14 24 10.9 24 7C24 3.1 18.6 0 12 0ZM0 15V17C0 20.9 5.4 24 12 24C18.6 24 24 20.9 24 17V15C24 18.6 19.2 21.6 13.1 22C12.7 22 12.4 22 12 22C11.6 22 11.2 22 10.9 22C4.8 21.6 0 18.6 0 15ZM0 10V12C0 15.9 5.4 19 12 19C18.6 19 24 15.9 24 12V10C24 13.6 19.2 16.6 13.1 17C12.7 17 12.4 17 12 17C11.6 17 11.2 17 10.9 17C4.8 16.6 0 13.6 0 10Z" fill="#004D99"/>
</svg>
