<svg width="24" height="24" viewBox="0 0 24 24" fill="none" xmlns="http://www.w3.org/2000/svg">
<path d="M0 21C0 22.7 1.3 24 3 24C4.7 24 6 22.7 6 21C6 19.3 4.7 18 3 18C1.3 18 0 19.3 0 21ZM3 20C3.6 20 4 20.4 4 21C4 21.6 3.6 22 3 22C2.4 22 2 21.6 2 21C2 20.4 2.4 20 3 20ZM10 21C10 22.7 11.3 24 13 24C14.7 24 16 22.7 16 21C16 19.3 14.7 18 13 18C11.3 18 10 19.3 10 21ZM13 20C13.6 20 14 20.4 14 21C14 21.6 13.6 22 13 22C12.4 22 12 21.6 12 21C12 20.4 12.4 20 13 20ZM22 15V0H20V2H15.6L11.6 6H8V12H0V18H3H13H16V12.8L13.9 6.5L16.4 4H20V14.1C19.7 14 19.3 14 19 14H18V24H19C21.8 24 24 21.8 24 19C24 17.4 23.2 15.9 22 15ZM14 16H2V14H10V8H12.3L14 13.2V16ZM20 21.8V16.1C21.2 16.5 22 17.6 22 18.9C22 20.2 21.2 21.4 20 21.8Z" fill="#004D99"/>
</svg>
