<svg width="24" height="24" viewBox="0 0 24 24" fill="none" xmlns="http://www.w3.org/2000/svg">
<path d="M21.2001 14.1L19.8 12.7L17 15.5L13.4 12L19.1 6.3L20.5 7.7L21.9 6.3L17.7001 2.1L16.3 3.5L17.7001 4.9L12 10.6L4.20005 2.8L2.80005 4.2L10.6 12L7.80005 14.8L4.90005 12L2.10005 14.8C0.200049 16.7 0.200049 19.9 2.10005 21.9C3.10005 22.9 4.40005 23.4 5.60005 23.4C6.90005 23.4 8.20005 22.9 9.10005 21.9L11.9 19.1L9.10005 16.3L11.9 13.5L15.4 17L12.6 19.8L14 21.2L16.8 24L18.2001 22.6L15.4 19.8L16.8 18.4L19.6 21.2L21 19.8L18.2001 17L19.6 15.6L22.4 18.4L23.8 17L21.2001 14.1ZM7.80005 20.5C6.60005 21.7 4.70005 21.7 3.60005 20.5C2.40005 19.3 2.40005 17.4 3.60005 16.3L5.00005 14.9L9.20005 19.1L7.80005 20.5Z" fill="#004D99"/>
</svg>
