<svg width="24" height="24" viewBox="0 0 24 24" fill="none" xmlns="http://www.w3.org/2000/svg">
<path d="M24 10H22C22 4.5 17.5 0 12 0C6.5 0 2 4.5 2 10H0V12H1C0.4 12.8 0 13.9 0 15C0 17.8 2.2 20 5 20H5.1C6.5 22.4 9.1 24 12 24C14.9 24 17.5 22.4 18.9 20H19C21.8 20 24 17.8 24 15C24 13.9 23.6 12.8 23 12H24V10ZM9 2.6V6H11V2.1C11.3 2 11.7 2 12 2C12.3 2 12.7 2 13 2.1V6H15V2.6C17.9 3.8 20 6.7 20 10H19H18H6H5H4C4 6.7 6.1 3.8 9 2.6ZM4 17.8C2.8 17.4 2 16.3 2 15C2 13.7 2.8 12.6 4 12.2V16V17.8ZM12 22C8.7 22 6 19.3 6 16V12H18V16C18 19.3 15.3 22 12 22ZM20 17.8V16V12.2C21.2 12.6 22 13.7 22 15C22 16.3 21.2 17.4 20 17.8ZM9.5 13C8.7 13 8 13.7 8 14.5C8 15.3 8.7 16 9.5 16C10.3 16 11 15.3 11 14.5C11 13.7 10.3 13 9.5 13ZM14.5 13C13.7 13 13 13.7 13 14.5C13 15.3 13.7 16 14.5 16C15.3 16 16 15.3 16 14.5C16 13.7 15.3 13 14.5 13Z" fill="#004D99"/>
</svg>
