<?xml version="1.0" encoding="utf-8"?>
<!-- Generator: Adobe Illustrator 19.1.0, SVG Export Plug-In . SVG Version: 6.00 Build 0)  -->
<svg version="1.1" id="Layer_1" xmlns="http://www.w3.org/2000/svg" xmlns:xlink="http://www.w3.org/1999/xlink" x="0px" y="0px"
	 viewBox="0 0 35.1 31" enable-background="new 0 0 35.1 31" xml:space="preserve">
<g>
	<ellipse fill="#FFFFFF" cx="11.6" cy="15.8" rx="1.1" ry="1.1"/>
	<ellipse fill="#FFFFFF" cx="14.4" cy="15.2" rx="1.1" ry="1.1"/>
	<ellipse fill="#FFFFFF" cx="12.7" cy="13.4" rx="1.1" ry="1.1"/>
	<ellipse fill="#FFFFFF" cx="23.4" cy="15.8" rx="1.1" ry="1.1"/>
	<ellipse fill="#FFFFFF" cx="16.6" cy="14.1" rx="1.1" ry="1.1"/>
	<ellipse fill="#FFFFFF" cx="17.8" cy="15.8" rx="1.1" ry="1.1"/>
	<ellipse fill="#FFFFFF" cx="20.6" cy="15.2" rx="1.1" ry="1.1"/>
	<ellipse fill="#FFFFFF" cx="18.9" cy="13.4" rx="1.1" ry="1.1"/>
	<ellipse fill="#FFFFFF" cx="22.7" cy="14.1" rx="1.1" ry="1.1"/>
	<ellipse fill="#FFFFFF" cx="25.7" cy="14.7" rx="1.1" ry="1.1"/>
	<g>
		<path fill="none" stroke="#FFFFFF" stroke-width="2" stroke-miterlimit="10" d="M10.2,17.8c-0.5,2.5-1.9,4.3-3.5,4.3
			c-2,0-3.7-2.9-3.7-6.5c0-2.2,0.6-4.1,1.5-5.2"/>
		<line fill="none" stroke="#FFFFFF" stroke-width="2" stroke-miterlimit="10" x1="9.2" y1="18.4" x2="30.3" y2="18.5"/>
		<line fill="none" stroke="#FFFFFF" stroke-width="2" stroke-miterlimit="10" x1="7.3" y1="22.1" x2="30.3" y2="22.2"/>
		<line fill="none" stroke="#FFFFFF" stroke-width="2" stroke-miterlimit="10" x1="3.9" y1="10.7" x2="30.3" y2="10.7"/>
	</g>
</g>
</svg>
