<?xml version="1.0" encoding="utf-8"?>
<!-- Generator: Adobe Illustrator 19.1.0, SVG Export Plug-In . SVG Version: 6.00 Build 0)  -->
<svg version="1.1" id="Layer_1" xmlns="http://www.w3.org/2000/svg" xmlns:xlink="http://www.w3.org/1999/xlink" x="0px" y="0px"
	 viewBox="0 0 35.1 31" enable-background="new 0 0 35.1 31" xml:space="preserve">
<g>
	<path fill="none" stroke="#FFFFFF" stroke-width="2" stroke-miterlimit="10" d="M9.8,18.1c-0.5,2.5-1.9,4.3-3.5,4.3
		c-2,0-3.7-2.9-3.7-6.5c0-2.2,0.6-4.1,1.5-5.2"/>
	<line fill="none" stroke="#FFFFFF" stroke-width="2" stroke-miterlimit="10" x1="8.9" y1="18.7" x2="30" y2="18.8"/>
	<line fill="none" stroke="#FFFFFF" stroke-width="2" stroke-miterlimit="10" x1="6.9" y1="22.4" x2="30" y2="22.5"/>
	<line fill="none" stroke="#FFFFFF" stroke-width="2" stroke-miterlimit="10" x1="3.6" y1="11" x2="30" y2="11"/>
</g>
<path fill="#EC1C24" d="M28.5,16.5H7.8c-0.8,0-1.5-0.7-1.5-1.5v0c0-0.8,0.7-1.5,1.5-1.5h20.7c0.8,0,1.5,0.7,1.5,1.5v0
	C30,15.8,29.3,16.5,28.5,16.5z"/>
</svg>
