<?xml version="1.0" encoding="utf-8"?>
<!-- Generator: Adobe Illustrator 20.1.0, SVG Export Plug-In . SVG Version: 6.00 Build 0)  -->
<!DOCTYPE svg PUBLIC "-//W3C//DTD SVG 1.1//EN" "http://www.w3.org/Graphics/SVG/1.1/DTD/svg11.dtd">
<svg version="1.1" xmlns="http://www.w3.org/2000/svg" xmlns:xlink="http://www.w3.org/1999/xlink" x="0px" y="0px"
	 viewBox="0 0 24 24" enable-background="new 0 0 24 24" xml:space="preserve">
<g id="Layer_1">
	<path d="M20,16c-2.2,0-4,1.8-4,4s1.8,4,4,4s4-1.8,4-4S22.2,16,20,16z M20,22c-1.1,0-2-0.9-2-2s0.9-2,2-2s2,0.9,2,2S21.1,22,20,22z
		 M21.1,11.2c1-1.5,1-3.7-0.1-6C21,5,18.6,0,12,0C5.4,0,0,5.4,0,12c0,6.6,5,9,5.2,9.1c1.2,0.5,2.3,0.8,3.3,0.8c1,0,1.9-0.2,2.6-0.7
		c1.2-0.8,1.8-2,1.8-3.6c0-2.5,2-4.5,4.5-4.5C19.1,13,20.4,12.4,21.1,11.2z M11,17.5c0,0.9-0.3,1.5-0.9,1.9C9.2,20,7.6,20,6,19.2
		c0,0-4-1.9-4-7.2C2,6.5,6.5,2,12,2c5.3,0,7.2,3.9,7.2,4c0.7,1.6,0.8,3.2,0.2,4.1c-0.4,0.6-1,0.9-1.9,0.9C13.9,11,11,13.9,11,17.5z"
		/>
</g>
<g id="Layer_2" display="none">
	<circle display="inline" fill="none" stroke="#00A651" stroke-width="2" stroke-miterlimit="10" cx="20" cy="20" r="3"/>
	<g display="inline">
		<path fill="none" stroke="#00A651" stroke-width="2" stroke-miterlimit="10" d="M12,17.5c0-3,2.5-5.5,5.5-5.5s4.2-2.9,2.6-6.4
			c0,0-2.1-4.6-8.1-4.6S1,5.9,1,12s4.6,8.1,4.6,8.1C9.1,21.7,12,20.5,12,17.5z"/>
	</g>
</g>
</svg>
