<?xml version="1.0" encoding="utf-8"?>
<!-- Generator: Adobe Illustrator 20.1.0, SVG Export Plug-In . SVG Version: 6.00 Build 0)  -->
<!DOCTYPE svg PUBLIC "-//W3C//DTD SVG 1.1//EN" "http://www.w3.org/Graphics/SVG/1.1/DTD/svg11.dtd">
<svg version="1.1" xmlns="http://www.w3.org/2000/svg" xmlns:xlink="http://www.w3.org/1999/xlink" x="0px" y="0px"
	 viewBox="0 0 24 24" enable-background="new 0 0 24 24" xml:space="preserve">
<g id="Layer_1">
	<path d="M11,20h13v2H13v2H0v-2h11V20z M20.5,6H24v6h-3.5c-1.3,3.6-4.6,6-8.5,6s-7.2-2.4-8.5-6H0V6h3.5C4.8,2.4,8.2,0,12,0
		S19.2,2.4,20.5,6z M5.7,6h12.6c-1.1-2.4-3.6-4-6.3-4S6.8,3.6,5.7,6z M12,8c-0.6,0-1,0.4-1,1s0.4,1,1,1s1-0.4,1-1S12.6,8,12,8z
		 M3,10h6.2C9.1,9.7,9,9.4,9,9s0.1-0.7,0.2-1H3H2v2H3z M18.3,12H5.7c1.1,2.4,3.6,4,6.3,4S17.2,14.4,18.3,12z M21,8h-6.2
		C14.9,8.3,15,8.6,15,9s-0.1,0.7-0.2,1H21h1V8H21z"/>
</g>
<g id="Layer_2" display="none">
	<polyline display="inline" fill="none" stroke="#00A651" stroke-width="2" stroke-miterlimit="10" points="0,23 12,23 12,21 24,21 
			"/>
	<rect x="1" y="7" display="inline" fill="none" stroke="#00A651" stroke-width="2" stroke-miterlimit="10" width="22" height="4"/>
	<path display="inline" fill="none" stroke="#00A651" stroke-width="2" stroke-miterlimit="10" d="M19.7,7c-0.9-3.4-4-6-7.7-6
		S5.2,3.6,4.3,7H19.7z"/>
	<path display="inline" fill="none" stroke="#00A651" stroke-width="2" stroke-miterlimit="10" d="M4.3,11c0.9,3.4,4,6,7.7,6
		s6.8-2.6,7.7-6H4.3z"/>
	<circle display="inline" fill="none" stroke="#00A651" stroke-width="2" stroke-miterlimit="10" cx="12" cy="9" r="2"/>
</g>
</svg>
