<?xml version="1.0" encoding="utf-8"?>
<!-- Generator: Adobe Illustrator 20.1.0, SVG Export Plug-In . SVG Version: 6.00 Build 0)  -->
<!DOCTYPE svg PUBLIC "-//W3C//DTD SVG 1.1//EN" "http://www.w3.org/Graphics/SVG/1.1/DTD/svg11.dtd">
<svg version="1.1" xmlns="http://www.w3.org/2000/svg" xmlns:xlink="http://www.w3.org/1999/xlink" x="0px" y="0px"
	 viewBox="0 0 24 24" enable-background="new 0 0 24 24" xml:space="preserve">
<g id="Layer_1">
	<path d="M12,10c2.8,0,5-2.2,5-5s-2.2-5-5-5S7,2.2,7,5S9.2,10,12,10z M12,2c1.7,0,3,1.3,3,3s-1.3,3-3,3S9,6.7,9,5S10.3,2,12,2z
		 M7,18c2.2,0,4-1.8,4-4s-1.8-4-4-4s-4,1.8-4,4S4.8,18,7,18z M7,12c1.1,0,2,0.9,2,2s-0.9,2-2,2s-2-0.9-2-2S5.9,12,7,12z M13,14
		c0,2.2,1.8,4,4,4s4-1.8,4-4s-1.8-4-4-4S13,11.8,13,14z M19,14c0,1.1-0.9,2-2,2s-2-0.9-2-2s0.9-2,2-2S19,12.9,19,14z M21,18
		c-1.7,0-3,1.3-3,3s1.3,3,3,3s3-1.3,3-3S22.7,18,21,18z M21,22c-0.6,0-1-0.4-1-1s0.4-1,1-1s1,0.4,1,1S21.6,22,21,22z M12,18
		c-1.7,0-3,1.3-3,3s1.3,3,3,3s3-1.3,3-3S13.7,18,12,18z M12,22c-0.6,0-1-0.4-1-1s0.4-1,1-1s1,0.4,1,1S12.6,22,12,22z M6,21
		c0-1.7-1.3-3-3-3s-3,1.3-3,3s1.3,3,3,3S6,22.7,6,21z M2,21c0-0.6,0.4-1,1-1s1,0.4,1,1s-0.4,1-1,1S2,21.6,2,21z"/>
</g>
<g id="Layer_2" display="none">
	<circle display="inline" fill="none" stroke="#00A651" stroke-width="2" stroke-miterlimit="10" cx="12" cy="5" r="4"/>
	<circle display="inline" fill="none" stroke="#00A651" stroke-width="2" stroke-miterlimit="10" cx="7" cy="14" r="3"/>
	<circle display="inline" fill="none" stroke="#00A651" stroke-width="2" stroke-miterlimit="10" cx="17" cy="14" r="3"/>
	<circle display="inline" fill="none" stroke="#00A651" stroke-width="2" stroke-miterlimit="10" cx="21" cy="21" r="2"/>
	<circle display="inline" fill="none" stroke="#00A651" stroke-width="2" stroke-miterlimit="10" cx="12" cy="21" r="2"/>
	<circle display="inline" fill="none" stroke="#00A651" stroke-width="2" stroke-miterlimit="10" cx="3" cy="21" r="2"/>
</g>
</svg>
