<?xml version="1.0" encoding="utf-8"?>
<!-- Generator: Adobe Illustrator 20.1.0, SVG Export Plug-In . SVG Version: 6.00 Build 0)  -->
<!DOCTYPE svg PUBLIC "-//W3C//DTD SVG 1.1//EN" "http://www.w3.org/Graphics/SVG/1.1/DTD/svg11.dtd">
<svg version="1.1" xmlns="http://www.w3.org/2000/svg" xmlns:xlink="http://www.w3.org/1999/xlink" x="0px" y="0px"
	 viewBox="0 0 24 24" enable-background="new 0 0 24 24" xml:space="preserve">
<g id="Layer_1">
	<path d="M12,18c3.3,0,6-2.7,6-6c0-0.8-0.2-1.6-0.5-2.3L12,0L6.5,9.7C6.2,10.4,6,11.2,6,12C6,15.3,8.7,18,12,18z M8.3,10.5L12,4
		l3.7,6.5c0.2,0.5,0.3,1,0.3,1.5c0,2.2-1.8,4-4,4s-4-1.8-4-4C8,11.5,8.1,11,8.3,10.5z M12,14v-2h2C14,13.1,13.1,14,12,14z
		 M22.6,18.1l0.7,1.9L13.2,24h-2.4L0.6,19.9l0.7-1.9l9.8,3.9h1.6L22.6,18.1z"/>
</g>
<g id="Layer_2" display="none">
	<g display="inline">
		<g>
			<path fill="#00A651" d="M12,4l3.7,6.5c0.2,0.5,0.3,1,0.3,1.5c0,2.2-1.8,4-4,4s-4-1.8-4-4c0-0.5,0.1-1,0.3-1.5L12,4 M12,0L6.5,9.7
				C6.2,10.4,6,11.2,6,12c0,3.3,2.7,6,6,6s6-2.7,6-6c0-0.8-0.2-1.6-0.5-2.3L12,0L12,0z"/>
		</g>
	</g>
	<path display="inline" fill="none" stroke="#00A651" stroke-width="2" stroke-miterlimit="10" d="M13,12c0,0.6-0.4,1-1,1"/>
	<polyline display="inline" fill="none" stroke="#00A651" stroke-width="2" stroke-miterlimit="10" points="1,19 11,23 13,23 23,19 
			"/>
</g>
</svg>
