<?xml version="1.0" encoding="utf-8"?>
<!-- Generator: Adobe Illustrator 19.1.0, SVG Export Plug-In . SVG Version: 6.00 Build 0)  -->
<svg version="1.1" id="Layer_1" xmlns="http://www.w3.org/2000/svg" xmlns:xlink="http://www.w3.org/1999/xlink" x="0px" y="0px"
	 viewBox="0 0 35.1 31" enable-background="new 0 0 35.1 31" xml:space="preserve">
<g>
	<line fill="none" stroke="#FFFFFF" stroke-width="2" stroke-miterlimit="10" x1="6.3" y1="22.1" x2="28.3" y2="12.8"/>
	<ellipse fill="#FFFFFF" cx="8.4" cy="16.5" rx="0.9" ry="0.9"/>
	<ellipse fill="#FFFFFF" cx="11.4" cy="15.4" rx="0.9" ry="0.9"/>
	<ellipse fill="#FFFFFF" cx="14.4" cy="14.2" rx="0.9" ry="0.9"/>
	<ellipse fill="#FFFFFF" cx="17.3" cy="13.1" rx="0.9" ry="0.9"/>
	<ellipse fill="#FFFFFF" cx="20.3" cy="11.7" rx="0.9" ry="0.9"/>
	<ellipse fill="#FFFFFF" cx="23.3" cy="10.4" rx="0.9" ry="0.9"/>
	<ellipse fill="#FFFFFF" cx="26.3" cy="9.1" rx="0.9" ry="0.9"/>
	<line fill="none" stroke="#FFFFFF" stroke-width="2" stroke-miterlimit="10" x1="7.5" y1="24" x2="12.3" y2="25.4"/>
	<line fill="none" stroke="#FFFFFF" stroke-width="2" stroke-miterlimit="10" x1="12" y1="25.4" x2="13.5" y2="22.1"/>
	<line fill="none" stroke="#FFFFFF" stroke-width="2" stroke-miterlimit="10" x1="13.5" y1="22.1" x2="17.3" y2="23.4"/>
	<line fill="none" stroke="#FFFFFF" stroke-width="2" stroke-miterlimit="10" x1="17.3" y1="23.4" x2="18.3" y2="19.8"/>
	<line fill="none" stroke="#FFFFFF" stroke-width="2" stroke-miterlimit="10" x1="18.4" y1="19.8" x2="23.2" y2="21.2"/>
	<line fill="none" stroke="#FFFFFF" stroke-width="2" stroke-miterlimit="10" x1="22.8" y1="21.2" x2="24.3" y2="17.9"/>
	<line fill="none" stroke="#FFFFFF" stroke-width="2" stroke-miterlimit="10" x1="24.3" y1="17.9" x2="28.2" y2="19.2"/>
	<line fill="none" stroke="#FFFFFF" stroke-width="2" stroke-miterlimit="10" x1="28.2" y1="19.2" x2="29.1" y2="15.6"/>
</g>
</svg>
