<?xml version="1.0" encoding="utf-8"?>
<!-- Generator: Adobe Illustrator 19.1.0, SVG Export Plug-In . SVG Version: 6.00 Build 0)  -->
<svg version="1.1" id="Layer_1" xmlns="http://www.w3.org/2000/svg" xmlns:xlink="http://www.w3.org/1999/xlink" x="0px" y="0px"
	 viewBox="0 0 35.1 31" enable-background="new 0 0 35.1 31" xml:space="preserve">
<g>
	<g>
		<path fill="#FFFFFF" d="M8.9,23.2c1.6-1.1,3.2-2.2,4-4c0.5-1.1,0.5-2.3,0.9-3.4c0.5-1.4,1.7-2.2,2.9-3c1.3-0.9,0.1-3-1.3-2.2
			c-1.6,1.1-3.2,2.2-4,4.1c-0.4,1.1-0.4,2.4-0.9,3.4c-0.6,1.3-1.8,2.1-3,2.8C6.3,22,7.5,24.1,8.9,23.2L8.9,23.2z"/>
	</g>
</g>
<g>
	<g>
		<path fill="#FFFFFF" d="M12.3,26.6c1.8-1.1,3.7-2.4,4.6-4.4c0.6-1.2,0.5-2.7,1.1-3.9c0.7-1.2,2-2,3.2-2.7c1.4-0.8,0.1-3-1.3-2.2
			c-1.8,1.1-3.6,2.3-4.4,4.3c-0.5,1.3-0.4,2.8-1.2,4c-0.7,1.2-2.1,2-3.2,2.7C9.7,25.3,10.9,27.5,12.3,26.6L12.3,26.6z"/>
	</g>
</g>
<rect x="16.1" y="6.2" fill="none" stroke="#FFFFFF" stroke-width="2" stroke-miterlimit="10" width="10.2" height="7.8"/>
</svg>
