<?xml version="1.0" encoding="utf-8"?>
<!-- Generator: Adobe Illustrator 20.1.0, SVG Export Plug-In . SVG Version: 6.00 Build 0)  -->
<!DOCTYPE svg PUBLIC "-//W3C//DTD SVG 1.1//EN" "http://www.w3.org/Graphics/SVG/1.1/DTD/svg11.dtd">
<svg version="1.1" xmlns="http://www.w3.org/2000/svg" xmlns:xlink="http://www.w3.org/1999/xlink" x="0px" y="0px"
	 viewBox="0 0 24 24" enable-background="new 0 0 24 24" xml:space="preserve">
<g id="Layer_1">
	<path d="M21.2,14.1l-1.4-1.4l-2.8,2.8L13.4,12l5.7-5.7l1.4,1.4l1.4-1.4l-4.2-4.2l-1.4,1.4l1.4,1.4L12,10.6L4.2,2.8L2.8,4.2l7.8,7.8
		l-2.8,2.8L4.9,12l-2.8,2.8c-1.9,1.9-1.9,5.1,0,7.1c1,1,2.3,1.5,3.5,1.5c1.3,0,2.6-0.5,3.5-1.5l2.8-2.8l-2.8-2.8l2.8-2.8l3.5,3.5
		l-2.8,2.8l1.4,1.4l0,0l2.8,2.8l1.4-1.4l-2.8-2.8l1.4-1.4l2.8,2.8l1.4-1.4l-2.8-2.8l1.4-1.4l2.8,2.8l1.4-1.4L21.2,14.1L21.2,14.1z
		 M7.8,20.5c-1.2,1.2-3.1,1.2-4.2,0c-1.2-1.2-1.2-3.1,0-4.2l1.4-1.4l4.2,4.2L7.8,20.5z"/>
</g>
<g id="Layer_2" display="none">
	<path display="inline" fill="none" stroke="#00A651" stroke-width="2" stroke-miterlimit="10" d="M8.5,21.2c-1.6,1.6-4.1,1.6-5.7,0
		s-1.6-4.1,0-5.7l2.1-2.1l5.7,5.7L8.5,21.2z"/>
	
		<line display="inline" fill="none" stroke="#00A651" stroke-width="2" stroke-miterlimit="10" x1="7.8" y1="16.2" x2="19.1" y2="4.9"/>
	
		<line display="inline" fill="none" stroke="#00A651" stroke-width="2" stroke-miterlimit="10" x1="13.4" y1="20.5" x2="20.5" y2="13.4"/>
	
		<line display="inline" fill="none" stroke="#00A651" stroke-width="2" stroke-miterlimit="10" x1="20.5" y1="20.5" x2="3.5" y2="3.5"/>
	
		<line display="inline" fill="none" stroke="#00A651" stroke-width="2" stroke-miterlimit="10" x1="21.2" y1="7.1" x2="16.9" y2="2.8"/>
	
		<line display="inline" fill="none" stroke="#00A651" stroke-width="2" stroke-miterlimit="10" x1="23.3" y1="17.7" x2="19.8" y2="14.1"/>
	
		<line display="inline" fill="none" stroke="#00A651" stroke-width="2" stroke-miterlimit="10" x1="17.7" y1="23.3" x2="14.1" y2="19.8"/>
</g>
</svg>
