<svg width="24" height="24" viewBox="0 0 24 24" fill="none" xmlns="http://www.w3.org/2000/svg">
<g clip-path="url(#clip0)">
<path fill-rule="evenodd" clip-rule="evenodd" d="M5.5599 8.59618H3.16826C2.84216 8.59618 2.57705 8.86129 2.57705 9.1874L2.57703 23.4077C2.57703 23.7227 2.85542 24 3.16826 24H20.8319C21.1447 24 21.4232 23.7227 21.4232 23.4077L21.4231 9.1874C21.4231 8.87459 21.1447 8.59616 20.8319 8.59616H18.3826V6.09252C18.3826 2.64605 15.3704 -0.0469845 11.9713 0.000612615C8.43622 0.000612615 5.55995 2.6949 5.55995 6.09241L5.5599 8.59618ZM19.1609 21.6793H4.91956V11.0797H19.162L19.1609 21.6793ZM11.9713 1.85204C14.6458 1.85204 16.08 3.13566 16.0825 6.09243V8.59607H7.77987V6.09243C7.77987 3.4358 9.29681 1.85204 11.9713 1.85204ZM13.0957 17.5873C13.8107 17.1983 14.296 16.4404 14.296 15.5691C14.296 14.3011 13.2681 13.2731 12 13.2731C10.732 13.2731 9.70405 14.3011 9.70405 15.5691C9.70405 16.4404 10.1893 17.1983 10.9044 17.5873V19.5931H13.0957V17.5873Z" fill="#004D99"/>
</g>
<defs>
<clipPath id="clip0">
<rect width="24" height="24" fill="white"/>
</clipPath>
</defs>
</svg>
