<?xml version="1.0" encoding="utf-8"?>
<!-- Generator: Adobe Illustrator 20.1.0, SVG Export Plug-In . SVG Version: 6.00 Build 0)  -->
<!DOCTYPE svg PUBLIC "-//W3C//DTD SVG 1.1//EN" "http://www.w3.org/Graphics/SVG/1.1/DTD/svg11.dtd">
<svg version="1.1" xmlns="http://www.w3.org/2000/svg" xmlns:xlink="http://www.w3.org/1999/xlink" x="0px" y="0px"
	 viewBox="0 0 24 24" enable-background="new 0 0 24 24" xml:space="preserve">
<g id="Layer_1">
	<path d="M11,18h2v6h-2V18z M11,15h2V9h-2V15z M11,6h2V0h-2V6z M3.7,0.3L2.3,1.7L4.6,4l-4,4l4,4l-4,4l4,4l-2.3,2.3l1.4,1.4L7.4,20
		l-4-4l4-4l-4-4l4-4L3.7,0.3z M19.7,0.3l-1.4,1.4L20.6,4l-4,4l4,4l-4,4l4,4l-2.3,2.3l1.4,1.4l3.7-3.7l-4-4l4-4l-4-4l4-4L19.7,0.3z"
		/>
</g>
<g id="Layer_2" display="none">
	<line display="inline" fill="none" stroke="#00A651" stroke-width="2" stroke-miterlimit="10" x1="12" y1="18" x2="12" y2="24"/>
	<line display="inline" fill="none" stroke="#00A651" stroke-width="2" stroke-miterlimit="10" x1="12" y1="9" x2="12" y2="15"/>
	<line display="inline" fill="none" stroke="#00A651" stroke-width="2" stroke-miterlimit="10" x1="12" y1="0" x2="12" y2="6"/>
	<polyline display="inline" fill="none" stroke="#00A651" stroke-width="2" stroke-miterlimit="10" points="3,1 6,4 2,8 6,12 2,16 
		6,20 3,23 	"/>
	<polyline display="inline" fill="none" stroke="#00A651" stroke-width="2" stroke-miterlimit="10" points="19,1 22,4 18,8 22,12 
		18,16 22,20 19,23 	"/>
</g>
</svg>
