<?xml version="1.0" encoding="utf-8"?>
<!-- Generator: Adobe Illustrator 20.1.0, SVG Export Plug-In . SVG Version: 6.00 Build 0)  -->
<!DOCTYPE svg PUBLIC "-//W3C//DTD SVG 1.1//EN" "http://www.w3.org/Graphics/SVG/1.1/DTD/svg11.dtd">
<svg version="1.1" xmlns="http://www.w3.org/2000/svg" xmlns:xlink="http://www.w3.org/1999/xlink" x="0px" y="0px"
	 viewBox="0 0 24 24" enable-background="new 0 0 24 24" xml:space="preserve">
<g id="Layer_1">
	<path d="M20,11c0,0.6-0.4,1-1,1s-1-0.4-1-1v-1h-5v1c0,0.6-0.4,1-1,1s-1-0.4-1-1v-1H6v1c0,0.6-0.4,1-1,1s-1-0.4-1-1v-1H0v2h2.2
		c0.4,1.2,1.5,2,2.8,2s2.4-0.8,2.8-2h1.3c0.4,1.2,1.5,2,2.8,2s2.4-0.8,2.8-2h1.3c0.4,1.2,1.5,2,2.8,2s2.4-0.8,2.8-2H24v-2h-4V11z"/>
</g>
<g id="Layer_2" display="none">
	<path display="inline" fill="none" stroke="#00A651" stroke-width="2" stroke-miterlimit="10" d="M0,11h3c0,1.1,0.9,2,2,2
		s2-0.9,2-2h3c0,1.1,0.9,2,2,2s2-0.9,2-2h3c0,1.1,0.9,2,2,2s2-0.9,2-2h3"/>
</g>
</svg>
