<?xml version="1.0" encoding="utf-8"?>
<!-- Generator: Adobe Illustrator 20.1.0, SVG Export Plug-In . SVG Version: 6.00 Build 0)  -->
<!DOCTYPE svg PUBLIC "-//W3C//DTD SVG 1.1//EN" "http://www.w3.org/Graphics/SVG/1.1/DTD/svg11.dtd">
<svg version="1.1" xmlns="http://www.w3.org/2000/svg" xmlns:xlink="http://www.w3.org/1999/xlink" x="0px" y="0px"
	 viewBox="0 0 24 24" enable-background="new 0 0 24 24" xml:space="preserve">
<g id="Layer_1">
	<path d="M19,10c0-2.3-3-4-7-4s-7,1.7-7,4v6H0v2h24v-2h-5V10z M12,8c3.1,0,5,1.2,5,2s-1.9,2-5,2s-5-1.2-5-2S8.9,8,12,8z M7,12.9
		c1.3,0.7,3,1.1,5,1.1s3.7-0.4,5-1.1V16H7V12.9z"/>
</g>
<g id="Layer_2" display="none">
	<ellipse display="inline" fill="none" stroke="#00A651" stroke-width="2" stroke-miterlimit="10" cx="12" cy="10" rx="6" ry="3"/>
	<line display="inline" fill="none" stroke="#00A651" stroke-width="2" stroke-miterlimit="10" x1="0" y1="17" x2="24" y2="17"/>
	<line display="inline" fill="none" stroke="#00A651" stroke-width="2" stroke-miterlimit="10" x1="6" y1="10" x2="6" y2="17"/>
	<line display="inline" fill="none" stroke="#00A651" stroke-width="2" stroke-miterlimit="10" x1="18" y1="10" x2="18" y2="17"/>
</g>
</svg>
