<?xml version="1.0" encoding="utf-8"?>
<!-- Generator: Adobe Illustrator 20.1.0, SVG Export Plug-In . SVG Version: 6.00 Build 0)  -->
<!DOCTYPE svg PUBLIC "-//W3C//DTD SVG 1.1//EN" "http://www.w3.org/Graphics/SVG/1.1/DTD/svg11.dtd">
<svg version="1.1" xmlns="http://www.w3.org/2000/svg" xmlns:xlink="http://www.w3.org/1999/xlink" x="0px" y="0px"
	 viewBox="0 0 24 24" enable-background="new 0 0 24 24" xml:space="preserve">
<g id="Layer_1">
	<path d="M22,0.6L11.6,11H8c-4.4,0-8,3.6-8,8v5h2v-0.6L12.4,13H16c4.4,0,8-3.6,8-8V0h-2V0.6z M2,20.6V19c0-3.3,2.7-6,6-6h1.6L2,20.6
		z M16,11h-1.6L22,3.4V5C22,8.3,19.3,11,16,11z"/>
</g>
<g id="Layer_2" display="none">
	<line display="inline" fill="none" stroke="#00A651" stroke-width="2" stroke-miterlimit="10" x1="23" y1="1" x2="1" y2="23"/>
	<path display="inline" fill="none" stroke="#00A651" stroke-width="2" stroke-miterlimit="10" d="M23,0v5c0,3.9-3.1,7-7,7H8
		c-3.9,0-7,3.1-7,7v5"/>
</g>
</svg>
